<svg xmlns="http://www.w3.org/2000/svg" width="10" height="10" viewBox="0 0 10 10"><title>Mapeo DEFAULT v2 icon-library-threats</title><g id="icons"><path d="M3.982,6.5567a.9669.9669,0,0,0-.3739-.0162.8826.8826,0,0,1-.2441.9917.7359.7359,0,0,0,.6177-.9755Z" fill="#137f0d"/><path d="M3.12,6.1665A.76.76,0,0,0,3.0554,7.5v-.813a.06.06,0,0,1,.0535-.065H3.12c.0488,0,.0488.0325.0488.065V7.516A.7732.7732,0,0,0,3.12,6.1666Z" fill="#137f0d"/><path d="M5.6218,6.5567a.9674.9674,0,0,0-.374-.0162.8829.8829,0,0,1-.244.9917.7365.7365,0,0,0,.6177-.9755Z" fill="#137f0d"/><path d="M4.76,6.1665A.76.76,0,0,0,4.6951,7.5v-.813a.06.06,0,0,1,.0534-.065H4.76c.0487,0,.0487.0325.0487.065V7.516A.7732.7732,0,0,0,4.76,6.1666Z" fill="#137f0d"/><path d="M7.2448,6.5567a.9669.9669,0,0,0-.3739-.0162.8828.8828,0,0,1-.2438.9917.7365.7365,0,0,0,.6177-.9755Z" fill="#137f0d"/><path d="M6.3832,6.1665A.76.76,0,0,0,6.3182,7.5v-.813a.0594.0594,0,0,1,.0533-.065h.0117c.0487,0,.0487.0325.0487.065V7.516a.7732.7732,0,0,0-.0487-1.3494Z" fill="#137f0d"/><path d="M3.982,4.8073a.9669.9669,0,0,0-.3739-.0163.8827.8827,0,0,1-.2441.9918.7359.7359,0,0,0,.6177-.9755Z" fill="#137f0d"/><path d="M3.12,4.4171A.76.76,0,0,0,3.0554,5.75V4.9373a.06.06,0,0,1,.0535-.065H3.12c.0488,0,.0488.0326.0488.065v.8292A.7732.7732,0,0,0,3.12,4.4171Z" fill="#137f0d"/><path d="M5.6218,4.8073a.9675.9675,0,0,0-.374-.0163.8832.8832,0,0,1-.244.9918.7365.7365,0,0,0,.6177-.9755Z" fill="#137f0d"/><path d="M4.76,4.4171A.76.76,0,0,0,4.6951,5.75V4.9373a.06.06,0,0,1,.0534-.065H4.76c.0487,0,.0487.0326.0487.065v.8292A.7732.7732,0,0,0,4.76,4.4171Z" fill="#137f0d"/><path d="M7.2448,4.8073a.967.967,0,0,0-.3739-.0163.883.883,0,0,1-.2438.9918.7365.7365,0,0,0,.6177-.9755Z" fill="#137f0d"/><path d="M6.3832,4.4171A.76.76,0,0,0,6.3182,5.75V4.9373a.06.06,0,0,1,.0535-.065h.0115c.0487,0,.0487.0326.0487.065v.8292a.7731.7731,0,0,0-.0487-1.3494Z" fill="#137f0d"/><path d="M3.982,3.0578a.9688.9688,0,0,0-.3739-.0164.8825.8825,0,0,1-.2441.9917.7359.7359,0,0,0,.6177-.9755Z" fill="#137f0d"/><path d="M3.12,2.6676a.76.76,0,0,0-.065,1.3334V3.1879a.06.06,0,0,1,.0535-.065H3.12c.0488,0,.0488.0325.0488.065v.8292A.7733.7733,0,0,0,3.12,2.6676Z" fill="#137f0d"/><path d="M5.6218,3.0578a.9694.9694,0,0,0-.374-.0164.883.883,0,0,1-.244.9917.7364.7364,0,0,0,.6177-.9755Z" fill="#137f0d"/><path d="M4.76,2.6676a.76.76,0,0,0-.065,1.3334V3.1879a.06.06,0,0,1,.0534-.065H4.76c.0487,0,.0487.0325.0487.065v.8292A.7733.7733,0,0,0,4.76,2.6676Z" fill="#137f0d"/><path d="M7.2448,3.0578a.9683.9683,0,0,0-.3738-.0164.8831.8831,0,0,1-.2439.992.7365.7365,0,0,0,.6177-.9756Z" fill="#137f0d"/><path d="M6.3832,2.6676a.76.76,0,0,0-.065,1.3334V3.1879a.06.06,0,0,1,.0533-.065h.0117c.0487,0,.0487.0325.0487.065v.8292a.7733.7733,0,0,0-.0487-1.3495Z" fill="#137f0d"/></g><g id="icon-border"><path d="M5.0033,1.0286a3.9715,3.9715,0,1,1-3.971,3.972,3.9774,3.9774,0,0,1,3.971-3.972m0-1a4.9715,4.9715,0,1,0,4.972,4.972A4.9717,4.9717,0,0,0,5.0033.0286" fill="#d63e03"/></g></svg>