<svg xmlns="http://www.w3.org/2000/svg" width="10" height="10" viewBox="0 0 10 10"><title>Mapeo DEFAULT v2 icon-library-threats</title><g id="icon-border"><path d="M5,.0287A4.9713,4.9713,0,1,0,9.9713,5,4.9713,4.9713,0,0,0,5,.0287Z" fill="#d63e03"/><path d="M5,1.0287A3.9713,3.9713,0,1,1,1.0287,5,3.9758,3.9758,0,0,1,5,1.0287" fill="#fff"/></g><g id="icons"><path d="M3.8058,6.8118a1.1369,1.1369,0,0,0-.4394-.0191A1.0369,1.0369,0,0,1,3.08,7.958a.8652.8652,0,0,0,.7259-1.1462Z" fill="#137f0d"/><path d="M2.7934,6.3532A.8932.8932,0,0,0,2.717,7.92V6.9646A.07.07,0,0,1,2.78,6.8883h0a.0618.0618,0,0,1,.0136,0c.0572,0,.0572.0381.0572.0763v.9745a.9088.9088,0,0,0-.0572-1.5858Z" fill="#137f0d"/><path d="M5.7326,6.8118a1.1369,1.1369,0,0,0-.4394-.0191A1.0373,1.0373,0,0,1,5.0064,7.958a.8654.8654,0,0,0,.7259-1.1462Z" fill="#137f0d"/><path d="M4.72,6.3532A.8932.8932,0,0,0,4.6437,7.92V6.9646a.07.07,0,0,1,.0628-.0763h0a.0618.0618,0,0,1,.0136,0c.0572,0,.0572.0381.0572.0763v.9745A.9088.9088,0,0,0,4.72,6.3533Z" fill="#137f0d"/><path d="M7.64,6.8118a1.1369,1.1369,0,0,0-.4394-.0191A1.0374,1.0374,0,0,1,6.914,7.958.8654.8654,0,0,0,7.64,6.8118Z" fill="#137f0d"/><path d="M6.6274,6.3532A.8932.8932,0,0,0,6.551,7.92V6.9646a.07.07,0,0,1,.0626-.0763h0a.0609.0609,0,0,1,.0135,0c.0573,0,.0573.0381.0573.0763v.9745a.9087.9087,0,0,0-.0573-1.5858Z" fill="#137f0d"/><path d="M3.8058,4.7561a1.133,1.133,0,0,0-.4394-.0191A1.037,1.037,0,0,1,3.08,5.9023a.8652.8652,0,0,0,.7259-1.1462Z" fill="#137f0d"/><path d="M2.7934,4.2975A.893.893,0,0,0,2.717,5.8643V4.9089A.07.07,0,0,1,2.78,4.8325h0a.0618.0618,0,0,1,.0136,0c.0572,0,.0572.0382.0572.0764v.9743a.9087.9087,0,0,0-.0572-1.5857Z" fill="#137f0d"/><path d="M5.7326,4.7561a1.133,1.133,0,0,0-.4394-.0191,1.0373,1.0373,0,0,1-.2868,1.1653.8654.8654,0,0,0,.7259-1.1462Z" fill="#137f0d"/><path d="M4.72,4.2975a.8931.8931,0,0,0-.0764,1.5668V4.9089a.07.07,0,0,1,.0628-.0764h0a.0618.0618,0,0,1,.0136,0c.0572,0,.0572.0382.0572.0764v.9743A.9087.9087,0,0,0,4.72,4.2975Z" fill="#137f0d"/><path d="M7.64,4.7561a1.133,1.133,0,0,0-.4394-.0191A1.0374,1.0374,0,0,1,6.914,5.9023.8654.8654,0,0,0,7.64,4.7561Z" fill="#137f0d"/><path d="M6.6274,4.2975A.8931.8931,0,0,0,6.551,5.8643V4.9089a.07.07,0,0,1,.0628-.0764h0a.0609.0609,0,0,1,.0135,0c.0573,0,.0573.0382.0573.0764v.9743a.9087.9087,0,0,0-.0573-1.5857Z" fill="#137f0d"/><path d="M3.8058,2.7a1.1369,1.1369,0,0,0-.4394-.0193A1.0371,1.0371,0,0,1,3.08,3.8464.8654.8654,0,0,0,3.8055,2.7Z" fill="#137f0d"/><path d="M2.7934,2.2418A.8933.8933,0,0,0,2.717,3.8086V2.8532A.07.07,0,0,1,2.78,2.7768h0a.0618.0618,0,0,1,.0136,0c.0572,0,.0572.0381.0572.0764v.9743a.9086.9086,0,0,0-.0572-1.5857Z" fill="#137f0d"/><path d="M5.7326,2.7a1.1369,1.1369,0,0,0-.4394-.0193,1.0375,1.0375,0,0,1-.2868,1.1654A.8655.8655,0,0,0,5.7323,2.7Z" fill="#137f0d"/><path d="M4.72,2.2418a.8933.8933,0,0,0-.0764,1.5668V2.8532a.07.07,0,0,1,.0628-.0764h0a.0618.0618,0,0,1,.0136,0c.0572,0,.0572.0381.0572.0764v.9743A.9086.9086,0,0,0,4.72,2.2418Z" fill="#137f0d"/><path d="M7.64,2.7a1.1364,1.1364,0,0,0-.4393-.0193A1.0375,1.0375,0,0,1,6.914,3.8466.8654.8654,0,0,0,7.64,2.7Z" fill="#137f0d"/><path d="M6.6274,2.2418A.8933.8933,0,0,0,6.551,3.8086V2.8532a.07.07,0,0,1,.0626-.0764h0a.0609.0609,0,0,1,.0135,0c.0573,0,.0573.0381.0573.0764v.9743a.9086.9086,0,0,0-.0573-1.5857Z" fill="#137f0d"/></g></svg>