<svg id="icons" xmlns="http://www.w3.org/2000/svg" width="100" height="100" viewBox="0 0 100 100"><title>threats</title><path d="M34.9952,72.5521a14.3161,14.3161,0,0,0-5.5323-.24,13.0575,13.0575,0,0,1-3.611,14.6712,10.8917,10.8917,0,0,0,9.1388-14.4315Z" fill="#137f0d"/><path d="M22.2476,66.779a11.2463,11.2463,0,0,0-.9618,19.7265V74.4768a.88.88,0,0,1,.7909-.9618h0a.8673.8673,0,0,1,.17,0c.7211,0,.7211.48.7211.9618V86.7451a11.44,11.44,0,0,0-.7211-19.965Z" fill="#137f0d"/><path d="M59.2544,72.5521a14.32,14.32,0,0,0-5.5324-.24,13.0608,13.0608,0,0,1-3.6109,14.6712A10.8951,10.8951,0,0,0,59.25,72.5521Z" fill="#137f0d"/><path d="M46.5057,66.779a11.2463,11.2463,0,0,0-.9618,19.7265V74.4768a.88.88,0,0,1,.7908-.9618h.0005a.8673.8673,0,0,1,.17,0c.7211,0,.7211.48.7211.9618V86.7451a11.44,11.44,0,0,0-.7211-19.965Z" fill="#137f0d"/><path d="M83.2672,72.5521a14.32,14.32,0,0,0-5.5323-.24,13.0609,13.0609,0,0,1-3.6065,14.6712,10.8951,10.8951,0,0,0,9.1388-14.4315Z" fill="#137f0d"/><path d="M70.52,66.779a11.2462,11.2462,0,0,0-.9618,19.7265V74.4768a.8794.8794,0,0,1,.7886-.9616l.0027,0h0a.8673.8673,0,0,1,.1705,0c.721,0,.721.48.721.9618V86.7451A11.44,11.44,0,0,0,70.52,66.78Z" fill="#137f0d"/><path d="M34.9952,46.67a14.2968,14.2968,0,0,0-5.5323-.2407,13.06,13.06,0,0,1-3.611,14.6723A10.8918,10.8918,0,0,0,34.9907,46.67Z" fill="#137f0d"/><path d="M22.2476,40.8971a11.2441,11.2441,0,0,0-.9618,19.7265v-12.03a.8816.8816,0,0,1,.7913-.9618h0a.8673.8673,0,0,1,.17,0c.7211,0,.7211.4815.7211.9618V60.861a11.4391,11.4391,0,0,0-.7211-19.9639Z" fill="#137f0d"/><path d="M59.2544,46.67A14.2972,14.2972,0,0,0,53.722,46.43a13.0629,13.0629,0,0,1-3.6109,14.6723A10.8952,10.8952,0,0,0,59.25,46.67Z" fill="#137f0d"/><path d="M46.5057,40.8971a11.244,11.244,0,0,0-.9618,19.7265v-12.03a.8815.8815,0,0,1,.7913-.9618h0a.8673.8673,0,0,1,.17,0c.7211,0,.7211.4815.7211.9618V60.861a11.4391,11.4391,0,0,0-.7211-19.9639Z" fill="#137f0d"/><path d="M83.2672,46.67a14.2967,14.2967,0,0,0-5.5323-.2407,13.063,13.063,0,0,1-3.6065,14.6723A10.8952,10.8952,0,0,0,83.2672,46.67Z" fill="#137f0d"/><path d="M70.52,40.8971a11.244,11.244,0,0,0-.9618,19.7265v-12.03a.88.88,0,0,1,.7908-.9618h.0005a.8673.8673,0,0,1,.1705,0c.721,0,.721.4815.721.9618V60.861a11.4391,11.4391,0,0,0-.721-19.9639Z" fill="#137f0d"/><path d="M34.9952,20.7872a14.3164,14.3164,0,0,0-5.5323-.2429,13.06,13.06,0,0,1-3.611,14.6722,10.8926,10.8926,0,0,0,9.1388-14.4326Z" fill="#137f0d"/><path d="M22.2476,15.0141a11.2465,11.2465,0,0,0-.9618,19.7266V22.7119a.88.88,0,0,1,.7909-.9617h0a.883.883,0,0,1,.17,0c.7211,0,.7211.48.7211.9618V34.9792a11.44,11.44,0,0,0-.7211-19.9651Z" fill="#137f0d"/><path d="M59.2544,20.7872a14.3189,14.3189,0,0,0-5.5324-.2429,13.0627,13.0627,0,0,1-3.6109,14.6722A10.8961,10.8961,0,0,0,59.25,20.7839Z" fill="#137f0d"/><path d="M46.5057,15.0141a11.2465,11.2465,0,0,0-.9618,19.7266V22.7119a.88.88,0,0,1,.7908-.9617h.0005a.883.883,0,0,1,.17,0c.7211,0,.7211.48.7211.9618V34.9792a11.44,11.44,0,0,0-.7211-19.9651Z" fill="#137f0d"/><path d="M83.2672,20.7872a14.3185,14.3185,0,0,0-5.5312-.2429A13.063,13.063,0,0,1,74.1284,35.22a10.8962,10.8962,0,0,0,9.1388-14.4327Z" fill="#137f0d"/><path d="M70.52,15.0141a11.2463,11.2463,0,0,0-.9618,19.7266V22.7119a.8792.8792,0,0,1,.7886-.9615l.0027,0h0a.883.883,0,0,1,.1705,0c.721,0,.721.48.721.9618V34.9792a11.44,11.44,0,0,0-.721-19.9651Z" fill="#137f0d"/></svg>