<svg xmlns="http://www.w3.org/2000/svg" xmlns:xlink="http://www.w3.org/1999/xlink" width="10" height="10" viewBox="0 0 10 10"><defs><clipPath id="clip-path"><rect width="10" height="10" fill="none"/></clipPath></defs><title>Mapeo DEFAULT v2 icon-library-infrastructure</title><g id="icons"><rect x="1.3193" y="5" width="7.1392" height="0.5" fill="#00010c"/><path d="M7.1567,2.63a.73.73,0,0,0-.5338-.1626,7.0137,7.0137,0,0,0-1.8361.5773,6.9739,6.9739,0,0,1-1.48.58A3.38,3.38,0,0,1,2.5,3.281c-.1036-.0514-.3055.0268-.3478.0375-.2354.06.4589.5618.6228.8376a.3661.3661,0,0,0,.4155.1519c.027-.0015.0591-.005.093-.0093.0186-.0041.033,0,.0521-.0052l.0111-.0048c.132-.02.0162.0484.2562-.0128C4.8529,3.9571,7.798,3.1207,7.6843,2.78A.5575.5575,0,0,0,7.1567,2.63Z" fill="#00010c"/><polygon points="2.661 4.468 2.5 4.468 2.898 4.118 3.106 4.165 2.661 4.468" fill="#00010c"/><polygon points="4.407 3.224 3.417 2.893 3.782 2.737 5.329 2.98 4.407 3.224" fill="#00010c"/><polygon points="4.633 3.976 4.129 4.897 4.739 4.854 5.728 3.541 4.633 3.976" fill="#00010c"/></g><g id="icon-border"><g clip-path="url(#clip-path)"><g clip-path="url(#clip-path)"><path d="M5,1.0288A3.971,3.971,0,1,1,1.029,5,3.9765,3.9765,0,0,1,5,1.0288m0-1A4.971,4.971,0,1,0,9.972,5,4.9709,4.9709,0,0,0,5,.0288" fill="#334dcc"/></g></g></g></svg>