<svg id="icons" xmlns="http://www.w3.org/2000/svg" width="100" height="100" viewBox="0 0 100 100"><title>infrastructure</title><path d="M94.23,72.4579H6.1322a49.9876,49.9876,0,0,0,3.8484,6.2952h80.401A49.9876,49.9876,0,0,0,94.23,72.4579Z" fill="#00010c"/><path d="M85.7639,29.2187a11.8175,11.8175,0,0,0-8.6372-2.631c-6.9378.4467-20.5167,5.2045-29.71,9.3415C35.2982,41.3828,26.57,45.311,23.4739,45.3159c-2.2828.0036-8.3525-3.2371-13.0553-5.5673-1.6755-.83-4.9417.4336-5.627.6082-3.8091.9713,7.4251,9.0893,10.0769,13.5518,1.5547,2.6183,3.9919,2.8266,6.7231,2.4578.4372-.0239.957-.0811,1.5055-.1495.3-.0667.5342-.0047.8426-.0842.0827-.0207.0986-.0573.18-.0779,2.1367-.3291.262.783,4.1458-.2074C48.487,50.6886,96.14,37.1549,94.301,31.6384,93.9894,30.7036,90.0118,28.2681,85.7639,29.2187Z" fill="#00010c"/><polygon points="13.023 58.957 10.419 58.957 16.854 53.288 20.225 54.054 13.023 58.957" fill="#00010c"/><polygon points="41.278 38.821 25.246 33.477 31.152 30.946 56.185 34.883 41.278 38.821" fill="#00010c"/><polygon points="44.934 50.991 36.777 65.901 46.641 65.195 62.654 43.959 44.934 50.991" fill="#00010c"/></svg>