<svg xmlns="http://www.w3.org/2000/svg" width="10" height="10" viewBox="0 0 10 10"><title>Mapeo DEFAULT v2 icon-library-infrastructure</title><g id="icons"><rect x="1.3193" y="6.8333" width="7.6784" height="0.5" fill="#00010c"/><path d="M7.1567,3.6988a.73.73,0,0,0-.5338-.1626,7.0137,7.0137,0,0,0-1.8361.5773,6.98,6.98,0,0,1-1.48.58A3.3809,3.3809,0,0,1,2.5,4.35c-.1036-.0513-.3055.0268-.3478.0376-.2354.06.4589.5618.6228.8376a.3661.3661,0,0,0,.4155.1519c.027-.0015.0591-.0051.093-.0093.0186-.0041.033,0,.0521-.0052l.0111-.0048c.132-.02.0162.0484.2562-.0128,1.25-.3188,4.1949-1.1553,4.0812-1.4962A.5573.5573,0,0,0,7.1567,3.6988Z" fill="#00010c"/><polygon points="2.661 5.537 2.5 5.537 2.898 5.186 3.106 5.234 2.661 5.537" fill="#00010c"/><polygon points="4.407 4.292 3.417 3.962 3.782 3.805 5.329 4.049 4.407 4.292" fill="#00010c"/><polygon points="4.633 5.044 4.129 5.966 4.739 5.922 5.728 4.61 4.633 5.044" fill="#00010c"/></g><g id="icon-border"><path d="M5,1a3.971,3.971,0,1,1-3.971,3.971A3.9765,3.9765,0,0,1,5,1M5,0a4.971,4.971,0,1,0,4.972,4.971A4.9709,4.9709,0,0,0,5,0" fill="#334dcc"/></g></svg>