<svg id="icons" xmlns="http://www.w3.org/2000/svg" width="100" height="100" viewBox="0 0 100 100"><title>infrastructure</title><path d="M41.2,32.0231S25.8336,55.2874,17.0836,65.2874s0,13.75,0,13.75a43.5022,43.5022,0,0,0,35,14.5834c22.5-1.25,32.7711-11.9123,34.8544-16.4956s5.9789-5.3443-.6878-10.1711-29.1371-34.852-29.1371-34.852Z" fill="#4f4e4d"/><polygon points="50.509 46.371 47.904 46.371 48.319 38.421 49.819 38.421 50.509 46.371" fill="#fff"/><polygon points="52.236 67.283 46.741 67.283 47.617 50.516 50.781 50.516 52.236 67.283" fill="#fff"/><polygon points="55.037 94.558 44.964 94.558 46.569 75.173 52.37 75.173 55.037 94.558" fill="#fff"/><circle cx="48.7061" cy="21.902" r="5.3125" fill="#020201"/><ellipse cx="36.5591" cy="21.902" rx="8.4048" ry="1.6406" fill="#020201"/><ellipse cx="60.6404" cy="21.902" rx="8.4048" ry="1.6406" fill="#020201"/><polygon points="57.219 33.094 41.001 33.094 41.266 32.596 56.821 32.596 57.219 33.094" fill="#fff"/><polygon points="58.077 34.252 40.335 34.252 40.769 33.503 57.47 33.503 58.077 34.252" fill="#fff"/><polygon points="59.231 35.463 39.614 35.463 40.093 34.635 58.56 34.635 59.231 35.463" fill="#fff"/><line x1="3.7502" y1="9.0374" x2="92.9169" y2="99.8708" fill="none" stroke="#df2500" stroke-miterlimit="10" stroke-width="10"/></svg>