<svg xmlns="http://www.w3.org/2000/svg" width="10" height="10" viewBox="0 0 10 10"><title>Mapeo DEFAULT v2 icon-library-infrastructure</title><g id="icon-border"><path d="M4.9752.0231A4.9713,4.9713,0,1,0,9.9465,4.9944,4.9713,4.9713,0,0,0,4.9752.0231Z" fill="#b209b2"/><path d="M4.9752,1.0231A3.9713,3.9713,0,1,1,1.0039,4.9944,3.9758,3.9758,0,0,1,4.9752,1.0231" fill="#fff"/></g><g id="icons"><path d="M8.4738,6.8333H1.4766a3.9716,3.9716,0,0,0,.3056.5h6.386A3.9716,3.9716,0,0,0,8.4738,6.8333Z" fill="#00010c"/><path d="M7.8014,3.399a.9388.9388,0,0,0-.686-.209,9.0174,9.0174,0,0,0-2.36.742,8.9682,8.9682,0,0,1-1.9017.7455A4.348,4.348,0,0,1,1.817,4.2353c-.1331-.0659-.3925.0345-.4469.0483-.3026.0772.59.722.8,1.0764a.47.47,0,0,0,.534.1952c.0348-.0019.0761-.0064.12-.0118.0239-.0053.0424,0,.0669-.0067l.0143-.0062c.17-.0262.0208.0622.3293-.0165,1.6061-.41,5.391-1.4847,5.245-1.9228A.7164.7164,0,0,0,7.8014,3.399Z" fill="#00010c"/><polygon points="2.024 5.761 1.817 5.761 2.328 5.311 2.596 5.372 2.024 5.761" fill="#00010c"/><polygon points="4.268 4.162 2.995 3.737 3.464 3.536 5.452 3.849 4.268 4.162" fill="#00010c"/><polygon points="4.558 5.128 3.911 6.312 4.694 6.256 5.966 4.57 4.558 5.128" fill="#00010c"/></g></svg>