<svg xmlns="http://www.w3.org/2000/svg" xmlns:xlink="http://www.w3.org/1999/xlink" width="10" height="10" viewBox="0 0 10 10"><defs><clipPath id="clip-path"><rect width="10" height="10" fill="none"/></clipPath></defs><title>Mapeo DEFAULT v2 icon-library-infrastructure</title><g id="icons"><path d="M4.12,3.2152S2.5833,5.5417,1.7083,6.5417s0,1.375,0,1.375a4.35,4.35,0,0,0,3.5,1.4583c2.25-.125,3.2771-1.1912,3.4855-1.65s.5979-.5344-.0688-1.0171A33.5087,33.5087,0,0,1,5.7113,3.2231Z" fill="#4f4e4d"/><polygon points="5.051 4.65 4.79 4.65 4.832 3.855 4.982 3.855 5.051 4.65" fill="#fff"/><polygon points="5.224 6.741 4.674 6.741 4.762 5.064 5.078 5.064 5.224 6.741" fill="#fff"/><polygon points="5.504 9.469 4.496 9.469 4.657 7.53 5.237 7.53 5.504 9.469" fill="#fff"/><circle cx="4.8706" cy="2.2031" r="0.5313" fill="#020201"/><ellipse cx="3.6559" cy="2.2031" rx="0.8405" ry="0.1641" fill="#020201"/><ellipse cx="6.064" cy="2.2031" rx="0.8405" ry="0.1641" fill="#020201"/><polygon points="5.722 3.322 4.1 3.322 4.127 3.273 5.682 3.273 5.722 3.322" fill="#fff"/><polygon points="5.808 3.438 4.033 3.438 4.077 3.363 5.747 3.363 5.808 3.438" fill="#fff"/><polygon points="5.923 3.559 3.961 3.559 4.009 3.476 5.856 3.476 5.923 3.559" fill="#fff"/></g><g id="icon-border"><g clip-path="url(#clip-path)"><g clip-path="url(#clip-path)"><path d="M5,1.0288A3.971,3.971,0,1,1,1.029,5,3.9765,3.9765,0,0,1,5,1.0288m0-1A4.971,4.971,0,1,0,9.972,5,4.9709,4.9709,0,0,0,5,.0288" fill="#334dcc"/></g></g></g></svg>