<svg xmlns="http://www.w3.org/2000/svg" width="100" height="100" viewBox="0 0 100 100"><title>_</title><g id="icons"><path d="M40.1826,19.7406s.0988,3.11.0988,5.7767.4937,5.9249,0,8.7886-1.4812,6.8136,0,10.0723,3.7524,1.9749,3.95,5.9248-.6419,8.048-.5925,10.961c.049,2.89-1.9749,13.331-2.4687,14.121s2.95.4443,2.95.4443a9.0465,9.0465,0,0,0,.5184-2.6662,28.7587,28.7587,0,0,1-.16-2.913,45.3658,45.3658,0,0,1,1.3331-8.0973c.42-1.2172,1.3824-4.4437,2.0737-6.32s.395-4.3449,1.7774-3.4562c1.246.801,3.2587,2.1725,2.6662,7.3074s.0988,4.851.79,7.2209,1.185,8.29.4937,9.1752,3.4562,1.576,2.9625.5885-.8888-3.2587-1.0863-6.8136.7254-6.257.3333-7.2456c-.8517-2.1478,1.1119-6.9613.4567-10.3562-.1594-.8262.1481-1.1109.1481-1.1109s3.6464.9209,5.4312.6418a11.4162,11.4162,0,0,0,3.703-1.0862s1.7775,2.2712,3.2587,4.3449,4.6411,3.5549,4.2461,5.7274S70.4,70.8426,69.017,72.0275s-.4938,1.8763,1.185,1.7775.8887.0988,1.7774-1.975a39.8338,39.8338,0,0,1,3.4068-6.3692c.6419-.8393-.4443-1.9256,2.4193-6.8136.5377-.9176-4.8386-7.06-4.5424-8.0479h0s9.2823,6.8136,10.5661,9.381,2.4686,15.01,1.8762,15.9972,3.95.9874,3.2586-.1975c-.4923-.8441-1.0151-7.89-.79-12.3929.0493-.9875-1.1431-2.541-1.0863-3.308.1975-2.6662-1.4812-7.5049-2.8637-8.9861s-2.7649-4.4436-2.1724-5.7274a43.23,43.23,0,0,1,1.8762-4.3449c1.2837-2.4687,1.4812-6.5173.79-7.9s-.6419,2.7156-1.4812,3.16c-1.2579-1.988-4.8387-4.6658-8.4923-6.147s-5.451-.9628-11.2672-.1728-6.1125,1.185-7.5937,1.0862-6.5173-.5925-7.2086-1.58-.2468-8.4923.0494-9.776S40.1826,19.7406,40.1826,19.7406Z" fill="#935f27"/><path d="M44.7921,26.8566a3.9606,3.9606,0,0,1-3.227-1.9811c-.4444-1.0862-2.0243-6.468-2.4687-6.8136s.0988-.7406-.4444-.9875a5.3919,5.3919,0,0,1-2.5674-2.37c-.79-1.4813-.9875-2.4687-.5925-3.4562s.8887-1.4812,2.6168,0S41.022,13.8651,41.022,14.26s2.1724-.6419,3.6043-.2963,2.1231.395,2.6168.5925.6419-.2468.9875-1.0368,2.7155-2.61,3.7524-3.2061,1.3331-.25,1.3825,1.5274a6.7814,6.7814,0,0,1-2.0737,4.5424c-.79.5925-1.6294.4443-1.7775.79a14.1713,14.1713,0,0,1-.3456,2.1725,32.4383,32.4383,0,0,1-1.5667,5.229A3.7709,3.7709,0,0,1,44.7921,26.8566Z" fill="#935f27"/><path d="M41.5651,15.5932s-1.7127-5.8261-2.066-6.7642-.9952-6.1718-.5014-6.5668S40.2,1.8179,40.1915,3.2991c-.0063,1.0522-.1238,2.3784-.106,3.3593a4.1541,4.1541,0,0,0,.106.9856c.238.8393.9292,3.5549.88,2.4193s-.6172-2.444-.5925-3.3821,1.2343-1.3084,1.4812-.0494.5431,3.3574.8887,4.888,1.4812,2.3453,1.0863,2.5675-.2716.5678-.8888.9381A2.7346,2.7346,0,0,1,41.5651,15.5932Z" fill="#bf966d"/><path d="M47.2444,15.5932S48.9571,9.7671,49.31,8.829s.9951-6.1718.5014-6.5668-1.2026-.4443-1.1938,1.0369c.0063,1.0522.1238,2.3784.106,3.3593a4.1594,4.1594,0,0,1-.106.9856c-.238.8393-.9293,3.5549-.88,2.4193s.6172-2.444.5925-3.3821-1.2344-1.3084-1.4812-.0494-.5431,3.3574-.8888,4.888-1.4812,2.3453-1.0862,2.5675.2716.5678.8887.9381A2.7349,2.7349,0,0,0,47.2444,15.5932Z" fill="#bf966d"/><path d="M41.0837,19.46c.2557.1377.0787.7082.4328.7869.4326.0961.5527-.2728.8066-.1574.2164.0984.1336-.5033-.2361-.7476S40.828,19.3221,41.0837,19.46Z"/><path d="M48.2579,19.46c-.2557.1377-.0787.7082-.4328.7869-.4325.0961-.5527-.2728-.8065-.1574-.2164.0984-.1337-.5033.236-.7476S48.5137,19.3221,48.2579,19.46Z"/><path d="M46.1,24.1418c.177.1574.36.4918.2391.6689s.1346.7279-.3768,1.0229a2.34,2.34,0,0,1-2.105.0984,1.3948,1.3948,0,0,1-.4721-1.141.4163.4163,0,0,1,.3344-.57,3.529,3.529,0,0,1,1.2279-.1771C45.3723,24.0828,46.1,24.1418,46.1,24.1418Z" fill="#fff"/><path d="M42.8542,24.89c.3543.0792.1337.2747.5072.7665s.22-.0072.1215-.2431-.0972-.3666.0995-.4066.7277.0915,1.4754.1184a5.5548,5.5548,0,0,0,.9437-.1576c.3543-.0391.335.1576.0792.6494s-.0392.3151.3734.0392.0792-.7277.4465-.8261.2228-.3343,0-.551a2.7017,2.7017,0,0,1-.4073-1.1411c-.1375-.5111-.5351-.695-1.3571-.7078-1.021-.0158-1.021-.0158-1.6329.7078-.61.7209-.3936.853-.7671,1.2656S42.5,24.8117,42.8542,24.89Zm.7082-.7285a4.4167,4.4167,0,0,1,2.715-.0591c.2751.2951.38.6416-.0392.6685a10.2165,10.2165,0,0,0-1.3535.0968c-.3343.0784-.6114-.0553-1.2224-.003C43.1329,24.9093,43.13,24.4567,43.5624,24.1616Z" fill="#494038"/><path d="M45.8444,24.1812c-.5115.2557-.5705.6885-.9049.7082s-.4328-.3541-.6885-.5115-.8656-.7672-.6492-1.0427.5311-.6491.8459-.4524.4525.3541.61.3541.5312-.3541.7869-.2951a.5674.5674,0,0,1,.4918.57C46.2969,23.859,45.8444,24.1812,45.8444,24.1812Z"/><path d="M62.5774,76.4981l2.4189-2.9041.7446.62-2.4189,2.904Z" fill="#795548"/><path d="M58.6776,74.185l.7886-.563,2.422,3.3909-.7885.5632Z" fill="#795548"/><path d="M65.8562,74.3866a.9692.9692,0,1,1-.9692-.9692A.9691.9691,0,0,1,65.8562,74.3866Zm-5.33,0a.9691.9691,0,1,1-.9691-.9692h0A.9719.9719,0,0,1,60.5261,74.3866Z" fill="#5d4037"/><path d="M63.918,77.73h0a1.7093,1.7093,0,0,0-3.3919.2908.6148.6148,0,0,0,.0485.2906h0V78.36c1.4052,7.22-1.9867,7.6559-5.863,8.14-5.3785.6784-6.299,3.3918-6.299,3.3918a.949.949,0,0,0,.9287.9691c.0134,0,.0269,0,.04,0h9.6909s5.8145,0,5.8145-5.8145C64.887,81.6547,64.4025,81.1218,63.918,77.73Z" fill="#795548"/><path d="M63.918,77.9237a1.0338,1.0338,0,0,0-.9691-.63.972.972,0,0,0-.9691.9692c0,.1453,1.2114,6.299,0,8.7218-1.4537,2.9072-3.3919,2.9072-4.3609,2.9072H48.4124a.9491.9491,0,0,0,.9287.9691c.0135,0,.0269,0,.04,0h9.6911s6.2991.4846,6.2991-5.33C65.3716,82.1877,64.4025,81.6547,63.918,77.9237Z" fill="#bcaaa4"/><path d="M16.9108,73.9059s5.1232-8.3323,9.5927-10.1167,1.5133-3.9459,6.1458-4.2906c3.2461-.2415,2.3335,1.9093,3.4819,1.9881,1.3662.0944,3.1341,2.1862,3.1341,2.1862s-1.8163-.2231-2.8845-.2143c-.4091.0035-1.0858.8029-1.2152,1.1134-.4886,1.1735,1.09,4.1293-1.4645,7.6488C29.42,78.12,21.4683,76.1266,17.7456,77.9949s-6.1355-.2963-5.0837-.8153A40.461,40.461,0,0,0,16.9108,73.9059Z"/><line x1="29.4197" y1="79.4983" x2="26.7733" y2="72.8363" fill="none" stroke="#000" stroke-miterlimit="10" stroke-width="0.8839"/><line x1="26.9419" y1="81.0459" x2="24.2958" y2="74.3835" fill="none" stroke="#000" stroke-miterlimit="10" stroke-width="0.8839"/><ellipse cx="30.3249" cy="79.4983" rx="1.7495" ry="0.477"/><ellipse cx="27.8676" cy="80.9497" rx="1.7495" ry="0.477"/></g></svg>