<svg xmlns="http://www.w3.org/2000/svg" width="10" height="10" viewBox="0 0 10 10"><title>Mapeo DEFAULT v2 icon-library-nature</title><g id="icons"><path d="M4.2123,2.5966s.0079.2471.0079.4588a4.15,4.15,0,0,1,0,.6981,1.388,1.388,0,0,0,0,.8c.1176.2588.298.1568.3137.4706s-.051.6392-.0471.8706a6.0194,6.0194,0,0,1-.196,1.1215c-.0393.0628.2343.0353.2343.0353A.72.72,0,0,0,4.5663,6.84a2.2814,2.2814,0,0,1-.0128-.2314,3.6085,3.6085,0,0,1,.1059-.6432c.0333-.0966.11-.3529.1647-.5019s.0314-.3451.1412-.2745c.0989.0636.2588.1725.2117.58a.8489.8489,0,0,0,.0628.5735,1.7106,1.7106,0,0,1,.0392.7287c-.0549.07.2745.1252.2353.0468A1.6889,1.6889,0,0,1,5.428,6.577c-.0157-.2823.0576-.497.0265-.5755-.0677-.1706.0883-.5529.0363-.8225-.0127-.0657.0117-.0883.0117-.0883a1.5412,1.5412,0,0,0,.4314.051.9068.9068,0,0,0,.2941-.0863s.1412.18.2588.3451.3687.2824.3373.4549a3.0156,3.0156,0,0,1-.3216.8942c-.11.0941-.0392.149.0941.1411s.0706.0079.1412-.1568a3.1686,3.1686,0,0,1,.2706-.5059,1.4709,1.4709,0,0,1,.1922-.5412c.0427-.0729-.3843-.5608-.3608-.6392h0a4.8708,4.8708,0,0,1,.8392.7451,4.0845,4.0845,0,0,1,.149,1.2706c-.047.0784.3137.0784.2588-.0157a4.1143,4.1143,0,0,1-.0627-.9843c.0039-.0784-.0908-.2018-.0863-.2628A1.2873,1.2873,0,0,0,7.71,5.0868c-.11-.1176-.22-.3529-.1726-.4549a3.4645,3.4645,0,0,1,.149-.3451A.9137.9137,0,0,0,7.75,3.6594c-.0549-.11-.051.2156-.1177.2509a1.6088,1.6088,0,0,0-.6745-.4882,1.4654,1.4654,0,0,0-.8949-.0137,4.7944,4.7944,0,0,1-.6031.0863c-.1177-.0079-.5177-.0471-.5726-.1255a2.5777,2.5777,0,0,1,.004-.7765C4.9143,2.4907,4.2123,2.5966,4.2123,2.5966Z" fill="#935f27"/><path d="M4.5784,3.1618a.3149.3149,0,0,1-.2563-.1573,5.4815,5.4815,0,0,0-.196-.5412c-.0353-.0275.0078-.0588-.0353-.0784a.4287.4287,0,0,1-.204-.1883.3105.3105,0,0,1-.047-.2745c.0314-.0784.0706-.1176.2078,0s.2314.2079.2314.2392.1725-.051.2863-.0235.1686.0314.2078.0471.051-.02.0784-.0824A1.0865,1.0865,0,0,1,5.15,1.8479c.0823-.0474.1059-.02.11.1213a.5392.5392,0,0,1-.1647.3608c-.0628.047-.1294.0352-.1412.0627a1.134,1.134,0,0,1-.0274.1725,2.58,2.58,0,0,1-.1245.4154A.3.3,0,0,1,4.5784,3.1618Z" fill="#935f27"/><path d="M4.3221,2.2672s-.136-.4627-.1641-.5372a1.4368,1.4368,0,0,1-.04-.5216c.0392-.0314.0955-.0353.0948.0823,0,.0836-.01.1889-.0084.2669a.3351.3351,0,0,0,.0084.0782c.0189.0667.0738.2824.07.1922s-.049-.1941-.047-.2686.098-.104.1176-.004.0431.2667.0706.3883.1176.1863.0863.2039-.0216.0451-.0706.0745A.2176.2176,0,0,1,4.3221,2.2672Z" fill="#bf966d"/><path d="M4.7732,2.2672s.1361-.4627.1641-.5372a1.4324,1.4324,0,0,0,.04-.5216c-.0392-.0314-.0955-.0353-.0948.0823,0,.0836.01.1889.0084.2669a.3246.3246,0,0,1-.0084.0782c-.0189.0667-.0738.2824-.07.1922s.049-.1941.0471-.2686-.0981-.104-.1177-.004-.0431.2667-.07.3883-.1177.1863-.0863.2039.0215.0451.0706.0745A.2174.2174,0,0,0,4.7732,2.2672Z" fill="#bf966d"/><path d="M4.2839,2.5743c.02.011.0062.0563.0344.0625.0343.0076.0439-.0217.064-.0125.0172.0078.0107-.04-.0187-.0594S4.2636,2.5634,4.2839,2.5743Z"/><path d="M4.8537,2.5743c-.02.011-.0062.0563-.0344.0625-.0343.0076-.0439-.0217-.064-.0125-.0172.0078-.0106-.04.0187-.0594S4.874,2.5634,4.8537,2.5743Z"/><path d="M4.6823,2.9462c.0141.0125.0286.0391.019.0531s.0107.0578-.03.0813a.186.186,0,0,1-.1672.0078.1109.1109,0,0,1-.0375-.0906.0331.0331,0,0,1,.0266-.0454.2821.2821,0,0,1,.0975-.014C4.6245,2.9415,4.6823,2.9462,4.6823,2.9462Z" fill="#fff"/><path d="M4.4245,3.0056c.0282.0063.0106.0218.04.0609s.0175-.0006.01-.0193-.0078-.0291.0079-.0323.0578.0073.1171.0094a.4465.4465,0,0,0,.075-.0125c.0281-.0031.0266.0125.0063.0516s-.0031.025.03.0031.0063-.0578.0355-.0656.0177-.0266,0-.0438a.2133.2133,0,0,1-.0323-.0906c-.011-.0406-.0425-.0552-.1078-.0562-.0811-.0013-.0811-.0013-.13.0562s-.0313.0677-.061.1005S4.3964,2.9994,4.4245,3.0056Zm.0563-.0578a.35.35,0,0,1,.2156-.0047c.0219.0234.03.0509-.0031.0531a.7952.7952,0,0,0-.1075.0077c-.0266.0062-.0486-.0044-.0971,0C4.4467,3.0072,4.4464,2.9712,4.4808,2.9478Z" fill="#494038"/><path d="M4.662,2.9493c-.0406.02-.0453.0547-.0719.0563s-.0343-.0282-.0546-.0407-.0688-.0609-.0516-.0828.0422-.0515.0672-.0359.0359.0281.0484.0281.0422-.0281.0625-.0234a.0452.0452,0,0,1,.0391.0453C4.698,2.9237,4.662,2.9493,4.662,2.9493Z"/><path d="M5.9911,7.1046l.1921-.2306.0591.0492L6.05,7.1539Z" fill="#795548"/><path d="M5.6813,6.9209l.0626-.0447.1924.2693L5.8737,7.19Z" fill="#795548"/><path d="M6.2515,6.9369a.077.077,0,1,1-.077-.0769A.077.077,0,0,1,6.2515,6.9369Zm-.4234,0A.077.077,0,1,1,5.7512,6.86h0A.0771.0771,0,0,1,5.8281,6.9369Z" fill="#5d4037"/><path d="M6.0975,7.2025h0a.1358.1358,0,0,0-.2694.0231.0483.0483,0,0,0,.0039.0231h0v.0038c.1116.5734-.1578.6081-.4657.6466-.4272.0538-.5.2694-.5.2694a.0753.0753,0,0,0,.0738.0769h.7729a.4523.4523,0,0,0,.4618-.4618A3.008,3.008,0,0,0,6.0975,7.2025Z" fill="#795548"/><path d="M6.0975,7.2179a.0822.0822,0,0,0-.0769-.05.0773.0773,0,0,0-.077.077,1.6184,1.6184,0,0,1,0,.6927.3474.3474,0,0,1-.3464.231H4.866a.0753.0753,0,0,0,.0738.0769h.7729s.5.0385.5-.4233A3.9332,3.9332,0,0,0,6.0975,7.2179Z" fill="#bcaaa4"/><path d="M2.3639,6.8987s.407-.6617.762-.8035.12-.3134.4881-.3408c.2578-.0191.1853.1517.2765.1579.1086.0075.249.1737.249.1737s-.1443-.0177-.2291-.017c-.0325,0-.0863.0637-.0966.0884-.0388.0932.0866.328-.1163.6075-.34.4685-.9716.31-1.2673.4586S1.9429,7.2,2.0265,7.1588A3.2043,3.2043,0,0,0,2.3639,6.8987Z"/><line x1="3.3575" y1="7.3429" x2="3.1473" y2="6.8138" fill="none" stroke="#000" stroke-miterlimit="10" stroke-width="0.0702"/><line x1="3.1607" y1="7.4658" x2="2.9505" y2="6.9367" fill="none" stroke="#000" stroke-miterlimit="10" stroke-width="0.0702"/><ellipse cx="3.4294" cy="7.3429" rx="0.139" ry="0.0379"/><ellipse cx="3.2342" cy="7.4582" rx="0.139" ry="0.0379"/></g><g id="icon-border"><path d="M5,1.029A3.971,3.971,0,1,1,1.0285,5,3.9765,3.9765,0,0,1,5,1.029m0-1A4.971,4.971,0,1,0,9.9715,5,4.9709,4.9709,0,0,0,5,.029" fill="#2d9905"/></g></svg>