<svg xmlns="http://www.w3.org/2000/svg" width="100" height="100" viewBox="0 0 100 100"><title>_</title><g id="icons"><path d="M39.39,69.3042c-5.8632-.1553-16.7234-15.0387-14.6974-31.1707C26.5591,23.2684,37.3831,5.5689,43.6946,3.7524c4.93-1.419-2.8554,7.6166-2.3606,20.0283.2472,6.1986,6.7212,19.9794,7.6721,29.7418C49.8356,62.0379,46.08,69.4813,39.39,69.3042Z" fill="#4f2a09"/><path d="M64.46,68.9929c5.7763-1.0174,13.5444-12.1863,9.1638-27.8438C69.5876,26.7213,59.99,5.5527,53.48,4.6858c-5.0856-.6771.5359,3.96,1.8752,16.31.6688,6.1674-3.2288,24.0088-2.731,33.8048C53.058,63.345,57.8693,70.1537,64.46,68.9929Z" fill="#4f2a09"/><path d="M34.1991,80.1459c2.5772-1.2807,6.6438,3.4559,8.03,5.9059s1.7007,9.4855-3.49,9.3092-6.09-2.9266-6.8661-6.4349S31.4313,81.5213,34.1991,80.1459Z" fill="#4f2a09"/><path d="M70.0417,78.9436c2.627,1.1457,3.8443,9.4848,2.3989,12.4821s-4.4954,4.267-8.1626,2.8922-4.1613-4.7775-2.998-7.88Z" fill="#4f2a09"/></g></svg>