<?xml version="1.0" encoding="utf-8"?>
<!-- Generator: Adobe Illustrator 21.0.0, SVG Export Plug-In . SVG Version: 6.00 Build 0)  -->
<svg version="1.1" id="animal" xmlns="http://www.w3.org/2000/svg" xmlns:xlink="http://www.w3.org/1999/xlink" x="0px" y="0px"
	 viewBox="0 0 11 6.5" style="enable-background:new 0 0 11 6.5;" xml:space="preserve">
<style type="text/css">
	.st0{fill:#6D626D;}
</style>
<title>animal</title>
<path class="st0" d="M0,1.9C0,1.9,2.1,0,3.2,0s5.1,1.2,6.1,2.2c0.8,1,1.4,2.1,1.7,3.3c0,0.2,0.3,0.8-1.1,0.3S8.3,4.5,7.6,4.5
	S7.5,5.8,7.5,5.8S7.8,6.6,8,6.5H7.3L6.4,5l0.2,1.2H6.3L5.8,4.5C4.9,4.2,4.1,4,3.2,3.9C2.5,4.1,2,5,2,5.2s0,1.1,0.4,1.2H1.8
	c0,0-0.6-1.4-0.7-1.7L1.1,4.6c0,0-0.2,0-0.4,0.7s-0.2,1-0.2,1H0.2C0.2,5.7,0.1,5,0.1,4.4c0-0.2,0.5-0.7,0.5-1S0.6,2.3,0,1.9z"/>
</svg>
