<svg xmlns="http://www.w3.org/2000/svg" width="10" height="10" viewBox="0 0 10 10"><title>Mapeo DEFAULT v2 icon-library-nature</title><g id="icon-border"><path d="M5,.0287A4.9713,4.9713,0,1,0,9.9713,5,4.9713,4.9713,0,0,0,5,.0287Z" fill="#2d9905"/><path d="M5,1.0287A3.9713,3.9713,0,1,1,1.0287,5,3.9758,3.9758,0,0,1,5,1.0287" fill="#fff"/></g><g id="icons"><path d="M4.1572,6.5333C3.6916,6.5209,2.829,5.3388,2.99,4.0575c.1483-1.1807,1.008-2.5865,1.5093-2.7308.3916-.1127-.2268.605-.1875,1.5908.02.4923.5338,1.5869.6093,2.3623C4.9869,5.9561,4.6886,6.5473,4.1572,6.5333Z" fill="#4f2a09"/><path d="M6.1485,6.5085c.4588-.0808,1.0758-.9679.7279-2.2115-.3207-1.1459-1.083-2.8273-1.6-2.8961-.4039-.0538.0426.3145.149,1.2954.0531.49-.2565,1.9069-.2169,2.685C5.2429,6.06,5.625,6.6007,6.1485,6.5085Z" fill="#4f2a09"/><path d="M3.745,7.3944c.2047-.1018.5277.2745.6377.4691s.1351.7533-.2771.7393S3.6218,8.37,3.56,8.0917,3.5251,7.5036,3.745,7.3944Z" fill="#4f2a09"/><path d="M6.5918,7.2989c.2087.091.3054.7533.1905.9914a.48.48,0,0,1-.6483.23.4433.4433,0,0,1-.2381-.6259Z" fill="#4f2a09"/></g></svg>