<svg id="icons" xmlns="http://www.w3.org/2000/svg" width="100" height="100" viewBox="0 0 100 100"><title>infrastructure</title><g id="g5"><path id="path4200" d="M56.1437,99.1941c-1.0892-8.59-12.8975-14.8988-11.1179-24.0606,2.8972-14.9149,6.0212-28.1566,1.5667-39.1517C39.865,19.3758,49.936,8.2482,49.9773-.0056" fill="none" stroke="#000" stroke-width="3.3612" stroke-dasharray="6.2952 3.0217"/></g><path d="M99.9773,49.9941A49.8919,49.8919,0,0,0,55.407.5434c-5.0726,12.339-10.0291,19.0184-3.611,34.86,4.12,10.172,1.2918,23.0267-1.5308,36.8942-1.8,8.8426,10.2112,17.6568,11.825,26.0414A49.9676,49.9676,0,0,0,99.9773,49.9941Z" fill="#b5b4b5"/><path d="M39.7489,75.1c1.4993-12.3767,5.9686-28.0032,2.2708-37.1294C35.6685,22.2945,38.7108,13.1137,44.8392.5142a49.8656,49.8656,0,0,0,5.1379,99.4794c.302,0,.5809-.0838.8814-.0892C47.8653,92.2468,38.4971,85.4275,39.7489,75.1Z" fill="#ddb97a"/></svg>