<svg xmlns="http://www.w3.org/2000/svg" width="10" height="10" viewBox="0 0 10 10"><title>Mapeo DEFAULT v2 icon-library-infrastructure</title><g id="icon-border"><path d="M4.9771.0229A4.9713,4.9713,0,1,0,9.9484,4.9941,4.9712,4.9712,0,0,0,4.9771.0229Z" fill="#b209b2"/><path d="M4.9771,1.0229A3.9713,3.9713,0,1,1,1.0059,4.9941,3.9758,3.9758,0,0,1,4.9771,1.0229" fill="#fff"/></g><g id="icons"><g id="g5"><path id="path4200" d="M5.4669,8.9019C5.38,8.22,4.4425,7.7185,4.5839,6.9909a5.7261,5.7261,0,0,0,.1244-3.11c-.5343-1.3189.2656-2.2028.2688-2.8583" fill="none" stroke="#000" stroke-width="0.267" stroke-dasharray="0.5 0.24"/></g><path d="M8.9484,4.9941a3.9626,3.9626,0,0,0-3.54-3.9276c-.4029.98-.7966,1.5105-.2868,2.7688A5.3884,5.3884,0,0,1,5,6.7656c-.143.7024.811,1.4024.9392,2.0684A3.9687,3.9687,0,0,0,8.9484,4.9941Z" fill="#b5b4b5"/><path d="M4.1647,6.9882c.1191-.983.4741-2.2242.18-2.949A3.1313,3.1313,0,0,1,4.569,1.0641a3.9607,3.9607,0,0,0,.4081,7.9013c.024,0,.0462-.0067.07-.0071C4.8094,8.35,4.0653,7.8085,4.1647,6.9882Z" fill="#ddb97a"/></g></svg>