<svg id="icons" xmlns="http://www.w3.org/2000/svg" width="100" height="100" viewBox="0 0 100 100"><title>culture</title><path d="M89.4829,69.8382H8.4475s-1.9513-.5747-1.9513-2.0827,1.9513-2.0827,1.9513-2.0827H89.4829s2.281.33,2.281,2.0827S89.4829,69.8382,89.4829,69.8382Z"/><polygon points="80.555 77.153 16.974 77.153 11.7 69.838 86.115 69.838 80.555 77.153"/><path d="M80.9917,37.98c0,17.5949-14.4895,35.5159-32.0844,35.5159S17.2749,55.5747,17.2749,37.98c0-3.372-1.7059-9.6142,1.4946-9.6719,25.0178-.4511,35.271-.64,60.6713-.175C82.7005,28.1927,80.9917,34.5433,80.9917,37.98Z"/><path d="M93.5018,45.63c.261,13.3456-20.5575,14.445-20.5575,14.445l4.3355-7.546s10.448-.1027,10.8339-7.1923-2.9678-9.5-5.2085-8.8163-2.6437,3.8135-2.6437,3.8135l-1.44-7.1644s4.4083-3.8644,8.1558-2.0373S93.3515,37.9427,93.5018,45.63Z"/></svg>