<svg xmlns="http://www.w3.org/2000/svg" width="100" height="100" viewBox="0 0 100 100"><title>_</title><g id="icons"><path d="M82.8293,85.1724S98.225,65.5759,97.7462,60.3089s-.9577-16.28-6.2247-18.9134S78.6647,32.0585,78.629,28.2279,67.19,9.4094,59.05,8.6912,33.4234,8.47,31.5082,12.2322,26.8808,22.0033,21.6137,23.2,9.1644,34.692,7.9674,39.72s-3.3518,24.28-3.3518,24.28,5.7881,14.5048,10.3369,14.9836,20.3741-1.4761,20.3741-1.4761l19.6743,1.13Z" fill="#bfa999"/><path d="M75.6046,80.4968S89.5053,62.6738,88.31,52.48,71.98,29.6543,67.5983,24.0214s-13.9408-12.8024-21.11-6.43-13.9408,3.6979-21.11,6.43-13.5425,15.62-13.5425,22.32.1223,30.7461,6.8975,29.8021c5.8324-.8127,24.7414-14.06,24.7414-14.06l9.1483.2253Z" fill="#876c59"/><path d="M58.4372,25.9564c-7.6828-.8865-5.9746,7.9662-19.1188,6.7713S17.013,40.7668,19.0046,52.48s8.2633,17.794,8.2633,17.794L44.4755,60.038l7.7.0353,16.219,13.68s8.7628-3.42,9.9578-9.8751-1.6471-16.6777-5.4041-23.9142S68.7932,27.1514,58.4372,25.9564Z" fill="#3a3734"/><path d="M45.71,59.1738c-.4855.4726-12.47,8.2026-13.042,8.09-9.5123-1.88-4.8921-23.4787,1.8709-27.2991,7.17-4.05,24.2969-8.4314,29.0766-2.0585s11.9493,14.3391,8.3645,23.5c-3.1219,7.9783-4.4313,8.1021-7.6114,8.5272-.4714.063-12.693-10.9332-13.1839-11.2326C48.4129,57.0107,47.4,57.5289,45.71,59.1738Z"/></g></svg>