<svg xmlns="http://www.w3.org/2000/svg" xmlns:xlink="http://www.w3.org/1999/xlink" width="10" height="10" viewBox="0 0 10 10"><defs><clipPath id="clip-path"><rect width="10" height="10" fill="none"/></clipPath></defs><title>Mapeo DEFAULT v2 icon-library-nature</title><g id="icons"><path d="M7.6075,7.7933S8.83,6.2369,8.7923,5.8185s-.0761-1.293-.4944-1.5022-1.0212-.7416-1.024-1.0458S6.3653,1.7758,5.7188,1.7188,3.6834,1.7012,3.5312,2s-.3675.7761-.7858.8712-.9888.9127-1.0839,1.312-.2662,1.9285-.2662,1.9285.46,1.152.821,1.19a13.3272,13.3272,0,0,0,1.6182-.1172l1.5627.09Z" fill="#bfa999"/><path d="M7.0337,7.422s1.104-1.4156,1.0091-2.2252-1.2971-1.813-1.6451-2.26S5.2905,1.92,4.721,2.4257s-1.1072.2937-1.6767.5107A2.3255,2.3255,0,0,0,1.9687,4.7091c0,.5322.01,2.4421.5478,2.3671A9.6816,9.6816,0,0,0,4.4816,5.9594l.7267.0179Z" fill="#876c59"/><path d="M5.67,3.09c-.61-.07-.4745.6327-1.5185.5378A1.3667,1.3667,0,0,0,2.5381,5.1968,2.7013,2.7013,0,0,0,3.1945,6.61L4.5612,5.797,5.1728,5.8,6.461,6.8864s.696-.2716.7909-.7844a3.4755,3.4755,0,0,0-.4292-1.8994C6.5243,3.6279,6.4927,3.185,5.67,3.09Z" fill="#3a3734"/><path d="M4.6592,5.7284a11.47,11.47,0,0,1-1.0359.6425c-.7555-.1494-.3885-1.8648.1486-2.1683.57-.3216,1.93-.67,2.31-.1635s.9491,1.1389.6643,1.8666c-.2479.6337-.3519.6435-.6045.6773-.0374.005-1.0082-.8684-1.0471-.8922C4.8739,5.5566,4.7934,5.5977,4.6592,5.7284Z"/></g><g id="icon-border"><g clip-path="url(#clip-path)"><g clip-path="url(#clip-path)"><path d="M5,1.0288A3.971,3.971,0,1,1,1.029,5,3.9765,3.9765,0,0,1,5,1.0288m0-1A4.971,4.971,0,1,0,9.972,5,4.9709,4.9709,0,0,0,5,.0288" fill="#2d9905"/></g></g></g></svg>