<?xml version="1.0" encoding="utf-8"?>
<!-- Generator: Adobe Illustrator 21.0.0, SVG Export Plug-In . SVG Version: 6.00 Build 0)  -->
<svg version="1.1" id="clay" xmlns="http://www.w3.org/2000/svg" xmlns:xlink="http://www.w3.org/1999/xlink" x="0px" y="0px"
	 viewBox="0 0 6.4 10" style="enable-background:new 0 0 6.4 10;" xml:space="preserve">
<style type="text/css">
	.st0{fill:#D88541;stroke:#8E5929;stroke-linecap:round;stroke-linejoin:round;}
</style>
<title>clay</title>
<path class="st0" d="M5,0.5C4.9,1.3,4.6,2.1,4.2,2.7C3.9,3.1,3.9,3.6,4.3,3.9c0,0,0,0,0,0c0.9,0.7,1.5,1.8,1.6,2.9
	C6,8.2,5.1,9.4,3.8,9.5c-0.2,0-0.4,0-0.6,0c-1.3,0.2-2.5-0.7-2.7-2c0-0.2,0-0.4,0-0.6c0.1-1.2,0.7-2.2,1.6-2.9
	c0.4-0.3,0.5-0.9,0.2-1.2c0,0,0,0,0,0C1.8,2.1,1.5,1.3,1.4,0.5H5z"/>
</svg>
