<svg id="icons" xmlns="http://www.w3.org/2000/svg" width="100" height="100" viewBox="0 0 100 100"><title>infrastructure</title><rect x="48.0116" y="65.9938" width="29.3909" height="17.393"/><polygon points="84.566 64.04 40.849 64.04 62.707 53.759 84.566 64.04"/><rect x="58.7141" y="69.0728" width="7.986" height="14.314" fill="#fff"/><rect x="70.3478" y="43.8656" width="18.3974" height="10.8873"/><polygon points="93.229 42.643 65.864 42.643 79.547 36.207 93.229 42.643"/><rect x="77.0471" y="45.793" width="4.9989" height="8.9599" fill="#fff"/><rect x="53.0117" y="25.5821" width="14.0786" height="8.3315"/><polygon points="70.522 24.646 49.581 24.646 60.051 19.722 70.522 24.646"/><rect x="58.1383" y="27.057" width="3.8254" height="6.8566" fill="#fff"/><rect x="26.3884" y="29.2773" width="15.3356" height="9.0754"/><polygon points="45.462 28.258 22.651 28.258 34.056 22.893 45.462 28.258"/><rect x="31.9727" y="30.8839" width="4.1669" height="7.4688" fill="#fff"/><rect x="13.6739" y="53.3958" width="25.6465" height="15.1772"/><polygon points="45.571 51.691 7.423 51.691 26.497 42.72 45.571 51.691"/><rect x="23.0128" y="56.0826" width="6.9686" height="12.4904" fill="#fff"/></svg>