<svg xmlns="http://www.w3.org/2000/svg" xmlns:xlink="http://www.w3.org/1999/xlink" width="10" height="10" viewBox="0 0 10 10"><defs><clipPath id="clip-path"><rect width="10" height="10" fill="none"/></clipPath></defs><title>Mapeo DEFAULT v2 icon-library-threats</title><g id="icons"><path d="M7.0662,6.8334H4.95L3.2117,8.2471s.6559-1.4137.3423-1.4137H3.0264a1.0241,1.0241,0,0,1-.9323-.9821V3.4958a.9348.9348,0,0,1,.9323-.9322h4.04a.9348.9348,0,0,1,.9323.9322V5.9011A.9349.9349,0,0,1,7.0662,6.8334Z" fill="#f4511e"/><path d="M3.8383,5.1479a.2524.2524,0,0,0-.0561-.1732.5607.5607,0,0,0-.2008-.1241,1.293,1.293,0,0,1-.4244-.2253.4457.4457,0,0,1-.1424-.3527.464.464,0,0,1,.1625-.367.607.607,0,0,1,.4143-.1417.6051.6051,0,0,1,.4294.1512.513.513,0,0,1,.1575.4055l-.0026.0076H3.8306a.3221.3221,0,0,0-.0637-.216.2273.2273,0,0,0-.182-.0737.1961.1961,0,0,0-.1586.0674A.2523.2523,0,0,0,3.37,4.274a.202.202,0,0,0,.0641.1537.8587.8587,0,0,0,.22.1321,1.0245,1.0245,0,0,1,.4023.223.4865.4865,0,0,1,.1367.3626.459.459,0,0,1-.16.37.6364.6364,0,0,1-.4244.1347.7009.7009,0,0,1-.4459-.1453.5126.5126,0,0,1-.1787-.4427l.0025-.0076H3.333a.36.36,0,0,0,.07.2481.2672.2672,0,0,0,.2059.0756.22.22,0,0,0,.1718-.063A.24.24,0,0,0,3.8383,5.1479Z" fill="#f3ff15"/><path d="M5.7892,4.9639a.68.68,0,0,1-.1826.505A.66.66,0,0,1,5.12,5.65a.6551.6551,0,0,1-.4848-.1814.6823.6823,0,0,1-.1814-.505V4.4526a.6893.6893,0,0,1,.1807-.5056.6491.6491,0,0,1,.4842-.1833.658.658,0,0,1,.4868.1833.6834.6834,0,0,1,.1833.5056Zm-.3538-.515a.4777.4777,0,0,0-.0813-.3022.2822.2822,0,0,0-.2348-.102.2755.2755,0,0,0-.2329.1014.4913.4913,0,0,0-.0781.3028v.515a.4966.4966,0,0,0,.0787.306.2773.2773,0,0,0,.2336.102.28.28,0,0,0,.2348-.102.49.49,0,0,0,.08-.306Z" fill="#f3ff15"/><path d="M6.91,5.1479a.2524.2524,0,0,0-.0561-.1732.56.56,0,0,0-.2009-.1241,1.2941,1.2941,0,0,1-.4244-.2253.446.446,0,0,1-.1423-.3527.4637.4637,0,0,1,.1625-.367.6808.6808,0,0,1,.8436.0095.5127.5127,0,0,1,.1575.4055l-.0026.0076H6.9025a.3221.3221,0,0,0-.0636-.216.2273.2273,0,0,0-.182-.0737.1961.1961,0,0,0-.1586.0674.2519.2519,0,0,0-.0568.1681.2021.2021,0,0,0,.0642.1537.86.86,0,0,0,.22.1321,1.0242,1.0242,0,0,1,.4024.223.4868.4868,0,0,1,.1366.3626.4587.4587,0,0,1-.16.37.6361.6361,0,0,1-.4244.1347.7008.7008,0,0,1-.4458-.1453.5129.5129,0,0,1-.1788-.4427l.0026-.0076h.3462a.36.36,0,0,0,.07.2481.267.267,0,0,0,.2058.0756.2205.2205,0,0,0,.1719-.063A.24.24,0,0,0,6.91,5.1479Z" fill="#f3ff15"/></g><g id="icon-border"><g clip-path="url(#clip-path)"><g clip-path="url(#clip-path)"><path d="M5,1.0283A3.9715,3.9715,0,1,1,1.029,5,3.9774,3.9774,0,0,1,5,1.0283m0-1A4.9715,4.9715,0,1,0,9.972,5,4.9717,4.9717,0,0,0,5,.0283" fill="#d63e03"/></g></g></g></svg>