<svg xmlns="http://www.w3.org/2000/svg" width="10" height="10" viewBox="0 0 10 10"><title>Mapeo DEFAULT v2 icon-library-threats</title><g id="icon-border"><path d="M5,.0267A4.9713,4.9713,0,1,0,9.9713,4.998,4.9713,4.9713,0,0,0,5,.0267Z" fill="#d63e03"/><path d="M5,1.0267A3.9713,3.9713,0,1,1,1.0287,4.998,3.9758,3.9758,0,0,1,5,1.0267" fill="#fff"/></g><g id="icons"><path d="M7.1528,6.6758H4.9462L3.1331,8.15S3.817,6.6758,3.49,6.6758H2.94a1.0679,1.0679,0,0,1-.9722-1.0241V3.1952A.9748.9748,0,0,1,2.94,2.223h4.213a.9748.9748,0,0,1,.9722.9722V5.7036A.9748.9748,0,0,1,7.1528,6.6758Z" fill="#f4511e"/><path d="M3.7865,4.9181a.2632.2632,0,0,0-.0585-.1806.5839.5839,0,0,0-.2094-.1294,1.3494,1.3494,0,0,1-.4426-.235.465.465,0,0,1-.1485-.3678.484.484,0,0,1,.1695-.3828.6332.6332,0,0,1,.432-.1477.6309.6309,0,0,1,.4478.1577.5348.5348,0,0,1,.1643.4229l-.0027.0079h-.36a.3361.3361,0,0,0-.0664-.2253.2373.2373,0,0,0-.19-.0768.2041.2041,0,0,0-.1654.07.2627.2627,0,0,0-.0592.1753.2107.2107,0,0,0,.0669.16.9.9,0,0,0,.23.1378,1.0691,1.0691,0,0,1,.42.2325.5079.5079,0,0,1,.1425.3782.4784.4784,0,0,1-.1667.3862.6635.6635,0,0,1-.4426.14.7305.7305,0,0,1-.465-.1516.5343.5343,0,0,1-.1864-.4616l.0027-.0079H3.26a.3749.3749,0,0,0,.073.2587.2787.2787,0,0,0,.2147.0788.23.23,0,0,0,.1792-.0657A.2505.2505,0,0,0,3.7865,4.9181Z" fill="#f3ff15"/><path d="M5.821,4.7263a.709.709,0,0,1-.19.5266.6878.6878,0,0,1-.507.1891.6834.6834,0,0,1-.5057-.1891.712.712,0,0,1-.1891-.5266V4.1931a.719.719,0,0,1,.1885-.5274.677.677,0,0,1,.5049-.1911.6863.6863,0,0,1,.5077.1911.713.713,0,0,1,.1911.5274Zm-.3689-.5371a.4983.4983,0,0,0-.0848-.3152.2944.2944,0,0,0-.2449-.1064.2877.2877,0,0,0-.2429.1057.5131.5131,0,0,0-.0813.3159v.5371a.5179.5179,0,0,0,.082.319.2889.2889,0,0,0,.2436.1064.2925.2925,0,0,0,.2449-.1064.5115.5115,0,0,0,.0834-.319Z" fill="#f3ff15"/><path d="M6.99,4.9181a.2632.2632,0,0,0-.0585-.1806.5845.5845,0,0,0-.21-.1294,1.3494,1.3494,0,0,1-.4426-.235.4649.4649,0,0,1-.1484-.3678.4842.4842,0,0,1,.1694-.3828.71.71,0,0,1,.88.01.5348.5348,0,0,1,.1643.4229l-.0027.0079h-.36a.3361.3361,0,0,0-.0664-.2253.2373.2373,0,0,0-.19-.0768.2043.2043,0,0,0-.1654.07.2632.2632,0,0,0-.0592.1753.2107.2107,0,0,0,.0669.16.9.9,0,0,0,.23.1378,1.0683,1.0683,0,0,1,.42.2325.5075.5075,0,0,1,.1425.3782.4784.4784,0,0,1-.1667.3862.6633.6633,0,0,1-.4426.14.7307.7307,0,0,1-.465-.1516.5349.5349,0,0,1-.1864-.4616l.0027-.0079h.3611a.375.375,0,0,0,.0729.2587.2787.2787,0,0,0,.2147.0788A.23.23,0,0,0,6.93,5.0929.2506.2506,0,0,0,6.99,4.9181Z" fill="#f3ff15"/></g></svg>