<svg id="icons" xmlns="http://www.w3.org/2000/svg" width="100" height="100" viewBox="0 0 100 100"><title>threats</title><path d="M76.9845,70.6337H49.2032L26.3753,89.1955s8.6112-18.5618,4.4936-18.5618H23.9418c-5.2956,0-12.2406-5.5244-12.2406-12.894V26.8119A12.2739,12.2739,0,0,1,23.9418,14.5713H76.9845A12.2739,12.2739,0,0,1,89.2251,26.8119V58.3931A12.2739,12.2739,0,0,1,76.9845,70.6337Z" fill="#f4511e"/><path d="M34.6023,48.5031a3.3112,3.3112,0,0,0-.7365-2.2731,7.3524,7.3524,0,0,0-2.637-1.63,16.99,16.99,0,0,1-5.5726-2.9588,5.8542,5.8542,0,0,1-1.8688-4.6307,6.0929,6.0929,0,0,1,2.1334-4.8191,7.9732,7.9732,0,0,1,5.4392-1.86,7.9477,7.9477,0,0,1,5.6381,1.9852,6.7344,6.7344,0,0,1,2.0678,5.3249l-.0339.1H34.5007a4.2281,4.2281,0,0,0-.8359-2.836,2.985,2.985,0,0,0-2.3895-.9672,2.5743,2.5743,0,0,0-2.0825.8846,3.3128,3.3128,0,0,0-.745,2.2075,2.6513,2.6513,0,0,0,.8423,2.0169,11.3066,11.3066,0,0,0,2.8932,1.7355,13.4483,13.4483,0,0,1,5.2825,2.927,6.3909,6.3909,0,0,1,1.7948,4.7619,6.0222,6.0222,0,0,1-2.0995,4.8614,8.3518,8.3518,0,0,1-5.5726,1.7694,9.1963,9.1963,0,0,1-5.854-1.909q-2.4318-1.908-2.3471-5.8117l.0339-.0995h4.546a4.72,4.72,0,0,0,.9186,3.2572,3.5065,3.5065,0,0,0,2.7026.9926,2.8944,2.8944,0,0,0,2.2561-.8276A3.1521,3.1521,0,0,0,34.6023,48.5031Z" fill="#f3ff15"/><path d="M60.2174,46.0882A8.9278,8.9278,0,0,1,57.82,52.719,8.6616,8.6616,0,0,1,51.4363,55.1,8.6045,8.6045,0,0,1,45.07,52.719a8.9612,8.9612,0,0,1-2.381-6.6308V39.375a9.05,9.05,0,0,1,2.3725-6.6393,8.5246,8.5246,0,0,1,6.3577-2.4063,8.64,8.64,0,0,1,6.3916,2.4063,8.9738,8.9738,0,0,1,2.4064,6.6393Zm-4.6456-6.7619a6.276,6.276,0,0,0-1.0666-3.9683,3.7076,3.7076,0,0,0-3.0837-1.34A3.62,3.62,0,0,0,48.3633,35.35a6.4562,6.4562,0,0,0-1.0243,3.9768v6.7619a6.5189,6.5189,0,0,0,1.0328,4.017,3.639,3.639,0,0,0,3.0667,1.34,3.6829,3.6829,0,0,0,3.0836-1.34,6.44,6.44,0,0,0,1.05-4.017Z" fill="#f3ff15"/><path d="M74.9371,48.5031a3.3112,3.3112,0,0,0-.7365-2.2731,7.353,7.353,0,0,0-2.6371-1.63,16.9884,16.9884,0,0,1-5.5725-2.9588,5.8539,5.8539,0,0,1-1.8688-4.6307,6.0931,6.0931,0,0,1,2.1333-4.8191,8.9414,8.9414,0,0,1,11.0774.1249,6.7346,6.7346,0,0,1,2.0677,5.3249l-.0338.1H74.8355A4.2281,4.2281,0,0,0,74,34.9051a2.9847,2.9847,0,0,0-2.3894-.9672,2.5745,2.5745,0,0,0-2.0826.8846,3.3133,3.3133,0,0,0-.745,2.2075,2.651,2.651,0,0,0,.8424,2.0169,11.3038,11.3038,0,0,0,2.8931,1.7355,13.4488,13.4488,0,0,1,5.2826,2.927,6.3909,6.3909,0,0,1,1.7947,4.7619,6.0219,6.0219,0,0,1-2.0995,4.8614,8.3513,8.3513,0,0,1-5.5725,1.7694,9.1963,9.1963,0,0,1-5.854-1.909q-2.4318-1.908-2.3471-5.8117l.0338-.0995h4.5461a4.7209,4.7209,0,0,0,.9185,3.2572,3.5069,3.5069,0,0,0,2.7027.9926,2.8945,2.8945,0,0,0,2.2561-.8276A3.1521,3.1521,0,0,0,74.9371,48.5031Z" fill="#f3ff15"/></svg>