<svg xmlns="http://www.w3.org/2000/svg" width="10" height="10" viewBox="0 0 10 10"><title>Mapeo DEFAULT v2 icon-library-infrastructure</title><g id="icons"><rect x="4.8488" y="6.3023" width="2.3344" height="1.3815"/><polygon points="7.752 6.147 4.28 6.147 6.016 5.331 7.752 6.147"/><rect x="5.6988" y="6.5469" width="0.6343" height="1.1369" fill="#fff"/><rect x="6.6228" y="4.5447" width="1.4612" height="0.8647"/><polygon points="8.44 4.448 6.267 4.448 7.353 3.936 8.44 4.448"/><rect x="7.1549" y="4.6978" width="0.397" height="0.7116" fill="#fff"/><rect x="5.2459" y="3.0926" width="1.1182" height="0.6617"/><polygon points="6.637 3.018 4.973 3.018 5.805 2.627 6.637 3.018"/><rect x="5.6531" y="3.2097" width="0.3038" height="0.5446" fill="#fff"/><rect x="3.1313" y="3.3861" width="1.218" height="0.7208"/><polygon points="4.646 3.305 2.834 3.305 3.74 2.879 4.646 3.305"/><rect x="3.5749" y="3.5137" width="0.331" height="0.5932" fill="#fff"/><rect x="2.1215" y="5.3017" width="2.037" height="1.2055"/><polygon points="4.655 5.166 1.625 5.166 3.14 4.454 4.655 5.166"/><rect x="2.8632" y="5.5151" width="0.5535" height="0.9921" fill="#fff"/></g><g id="icon-border"><path d="M5,1.0288A3.971,3.971,0,1,1,1.0285,5,3.9765,3.9765,0,0,1,5,1.0288m0-1A4.971,4.971,0,1,0,9.9715,5,4.9709,4.9709,0,0,0,5,.0288" fill="#334dcc"/></g></svg>