<svg xmlns="http://www.w3.org/2000/svg" xmlns:xlink="http://www.w3.org/1999/xlink" width="10" height="10" viewBox="0 0 10 10"><defs><clipPath id="clip-path"><rect width="10" height="10" fill="none"/></clipPath></defs><title>Mapeo DEFAULT v2 icon-library-nature-use</title><g id="icons"><path d="M6.745,5.5871c-.5838.1331-.5347.2765-.5142.5223s.6269.3585.6474.676c.0512-.3175.4965-.4915.5272-.7066s.0463-.43-.3634-.4917S6.745,5.5871,6.745,5.5871Z" fill="#f78c57"/><path d="M6.8651,5.549a7.6044,7.6044,0,0,1,1.01-2.9867,4.2227,4.2227,0,0,0-.95,1.8076C6.73,5.382,6.8651,5.549,6.8651,5.549Z" fill="#8ef458"/><path d="M6.7721,5.5827a7.6038,7.6038,0,0,1,.783-3.054,3.5787,3.5787,0,0,0-.764,1.7261A3.8016,3.8016,0,0,0,6.7721,5.5827Z" fill="#8ef458"/><path d="M6.6876,5.549a7.6044,7.6044,0,0,0-1.01-2.9867,4.2238,4.2238,0,0,1,.95,1.8076C6.8224,5.382,6.6876,5.549,6.6876,5.549Z" fill="#8ef458"/><path d="M6.7807,5.5827a7.6044,7.6044,0,0,0-.7831-3.054,3.5787,3.5787,0,0,1,.764,1.7261A3.8044,3.8044,0,0,1,6.7807,5.5827Z" fill="#8ef458"/><path d="M6.7259,5.6034a25.685,25.685,0,0,1,.2623-3.1011,7.8861,7.8861,0,0,0-.2907,1.9208C6.5789,5.447,6.7259,5.6034,6.7259,5.6034Z" fill="#8ef458"/><g id="fb6799ad-8fec-4b42-ad43-2c52690a8564"><path d="M3.7165,5.897l.2282-.2739a1.8713,1.8713,0,0,0,.137-.6391V4.0253a1.88,1.88,0,0,1,.3615-1.0688h.06s-.2847.0644-.2847,1.0688V5.6231l.1826.2739-.316-.3014Z" fill="#0e6612"/></g><path d="M3.0727,6.4483c.492-.1639.97.3772.6406.6232s-1.3451.6068-1.329.1476S3.0727,6.4483,3.0727,6.4483Z" fill="#eab16c"/><path d="M4.3263,6.42c.0648-.4216,1.262-.0506,1.3768.3266s-.082.7543-.7544.6067S4.2615,6.8411,4.3263,6.42Z" fill="#eab16c"/><path d="M4.3559,7.6507c-.2939.135-.7707-.4428-.9675,0S4.2575,8.7658,4.7,8.487,4.9626,7.3719,4.3559,7.6507Z" fill="#eab16c"/><path d="M3.4128,6.5519c-.0656-.478.5319-.9288.5319-.9288" fill="none" stroke="#0e6612" stroke-miterlimit="10" stroke-width="0.0697"/><path d="M3.6762,7.6865A1.3161,1.3161,0,0,1,3.97,6.929a.7709.7709,0,0,0,.1312-.9316.5959.5959,0,0,1,.0535-.59" fill="none" stroke="#0e6612" stroke-miterlimit="10" stroke-width="0.0697"/><path d="M5.0427,6.55c-.0736-.2237.0412-.5225-.2294-.5986s-.5479-.1124-.6084-.3267" fill="none" stroke="#0e6612" stroke-miterlimit="10" stroke-width="0.0697"/><path d="M4.5519,2.747c-.0553-.0577-.1261-.093-.1626-.15-.0343-.0805.0627-.3687-.0722-.5159A.9047.9047,0,0,0,3.9225,1.87s-.1412.4291-.0438.5349c.1287.14.3494.18.4649.2566a.5945.5945,0,0,1,.1333.1036Z" fill="#16b516"/><path d="M3.9332,1.959a.8765.8765,0,0,0,.1484.3791,2.41,2.41,0,0,0,.2213.2432s-.1666-.2229-.2108-.2771A1.1681,1.1681,0,0,1,3.9332,1.959Z" fill="#007830"/><path d="M4.6945,2.49a.3634.3634,0,0,1,.1974-.0314c.0836.0211.2506.2268.45.227a1.095,1.095,0,0,0,.4152-.1067s-.237-.285-.38-.285a2.3783,2.3783,0,0,0-.4952.1218c-.1333.0237-.1985.034-.1985.034Z" fill="#16b516"/><path d="M5.6824,2.5409a1.1442,1.1442,0,0,0-.3852-.1065c-.1425-.01-.3282-.0012-.3282-.0012s.2774.02.3474.0234A1.5665,1.5665,0,0,1,5.6824,2.5409Z" fill="#007830"/><path d="M4.5147,2.7557a.2125.2125,0,0,1,.15.03c.0538.0419.1034.2563.25.3087a.73.73,0,0,0,.3463.0077s-.0683-.332-.1743-.3695a1.565,1.565,0,0,0-.411-.0143.6383.6383,0,0,0-.18.002Z" fill="#16b516"/><path d="M5.22,3.0465a.72.72,0,0,0-.2445-.2017,2.015,2.015,0,0,0-.2417-.0871s.1971.092.2476.1131A.9636.9636,0,0,1,5.22,3.0465Z" fill="#007830"/><path d="M4.7756,2.4647a.3064.3064,0,0,1,.1011-.1755c.0742-.0454.3716.0015.5028-.1488a.9575.9575,0,0,0,.1756-.4033s-.4159-.0608-.51.0476a2.06,2.06,0,0,0-.2144.4765c-.066.1206-.0995.1785-.0995.1785Z" fill="#16b516"/><path d="M5.4716,1.7617a.9554.9554,0,0,0-.35.2013,2.69,2.69,0,0,0-.2168.2468s.201-.1923.25-.2426A1.2866,1.2866,0,0,1,5.4716,1.7617Z" fill="#007830"/><path d="M4.66,2.4708a.3761.3761,0,0,0-.0122-.1992c-.0376-.0775-.2663-.2-.3086-.3946A1.127,1.127,0,0,1,4.3521,1.45s.3181.175.3484.3153a2.4491,2.4491,0,0,1-.01.5081c.0058.1349.01.2007.01.2007Z" fill="#16b516"/><path d="M4.4033,1.5156a1.1858,1.1858,0,0,1,.1817.3552c.04.1372.0705.3205.0705.3205s-.0779-.2671-.0955-.3348A1.62,1.62,0,0,0,4.4033,1.5156Z" fill="#007830"/><path d="M4.3887,3.0649a2.5494,2.5494,0,0,1,.5073-.8213" fill="none" stroke="#07b30e" stroke-miterlimit="10" stroke-width="0.0697"/><path d="M4.539,4.3361a1.3542,1.3542,0,0,1,0-.221c.036-.08.3138-.2034.3308-.4024a.9038.9038,0,0,0-.1118-.4333s-.4114.1865-.4233.33a1.941,1.941,0,0,0,.1258.5159.592.592,0,0,1,.014.1683Z" fill="#16b516"/><path d="M4.7,3.3473a.8777.8777,0,0,0-.1785.3659,2.4225,2.4225,0,0,0-.0292.3275s.0513-.2735.0613-.3428A1.17,1.17,0,0,1,4.7,3.3473Z" fill="#007830"/><path d="M4.8249,4.2669a.3616.3616,0,0,1,.1568.124c.0411.0759.0027.338.1375.4848a1.0952,1.0952,0,0,0,.36.2334s.0494-.3674-.0478-.473a2.3775,2.3775,0,0,0-.4249-.282c-.1077-.082-.1594-.1231-.1594-.1231Z" fill="#16b516"/><path d="M5.456,5.0286a1.1428,1.1428,0,0,0-.1823-.3556c-.089-.1117-.2213-.2424-.2213-.2424s.1728.2181.218.2716A1.5618,1.5618,0,0,1,5.456,5.0286Z" fill="#007830"/><path d="M4.5075,4.3146a.212.212,0,0,1,.0793.13c.0056.0679-.1186.25-.0576.3932a.7292.7292,0,0,0,.2288.26s.1981-.2751.154-.3784c-.0583-.1366-.2043-.2249-.2678-.3122a.6347.6347,0,0,0-.1232-.1309Z" fill="#16b516"/><path d="M4.7709,5.0306a.7192.7192,0,0,0-.017-.3165,2.0194,2.0194,0,0,0-.1-.2369s.0657.2074.0844.2589A.9629.9629,0,0,1,4.7709,5.0306Z" fill="#007830"/><path d="M4.8983,4.31a.3061.3061,0,0,1,.1976-.0445c.0836.0239.25.2746.45.2694a.957.957,0,0,0,.4157-.1439s-.2368-.3472-.38-.3432a2.0657,2.0657,0,0,0-.4958.1648c-.1334.0331-.1987.0477-.1987.0477Z" fill="#16b516"/><path d="M5.8868,4.346a.9551.9551,0,0,0-.3853-.1216,2.6959,2.6959,0,0,0-.3285.0075s.2777.0177.3477.0195A1.2855,1.2855,0,0,1,5.8868,4.346Z" fill="#007830"/><path d="M4.8158,4.2289a.3741.3741,0,0,0,.1383-.1437c.0316-.08-.0331-.3313.0815-.4943a1.1266,1.1266,0,0,1,.3227-.28s.0865.3526.0038.47a2.45,2.45,0,0,1-.3806.3368c-.0953.0956-.1409.1432-.1409.1432Z" fill="#16b516"/><path d="M5.3448,3.3931a1.1851,1.1851,0,0,1-.1385.3742c-.0741.1221-.1881.2689-.1881.2689s.1438-.2381.1818-.297A1.6211,1.6211,0,0,0,5.3448,3.3931Z" fill="#007830"/><path d="M4.1946,4.4312a2.55,2.55,0,0,1,.9479-.1827" fill="none" stroke="#07b30e" stroke-miterlimit="10" stroke-width="0.0697"/><path d="M3.7784,3.8391c-.057.0559-.0914.1272-.1477.1644-.08.0353-.3694-.0582-.515.0785a.9056.9056,0,0,0-.2062.3972s.4308.1359.5354.0372c.1381-.13.1752-.3515.2509-.468a.5962.5962,0,0,1,.1019-.1346Z" fill="#16b516"/><path d="M2.9981,4.4674a.8783.8783,0,0,0,.3773-.1531,2.4267,2.4267,0,0,0,.24-.2242s-.2208.1692-.2745.2142A1.1714,1.1714,0,0,1,2.9981,4.4674Z" fill="#007830"/><path d="M3.52,3.7a.362.362,0,0,1-.0339-.197c.02-.0839.2237-.2533.2215-.4526a1.097,1.097,0,0,0-.1118-.4139s-.2821.24-.28.3839a2.38,2.38,0,0,0,.1278.4938c.0254.1329.0365.198.0365.198Z" fill="#16b516"/><path d="M3.5585,2.7112a1.1463,1.1463,0,0,0-.1018.3865c-.0084.1425.0028.3281.0028.3281s.017-.2776.0192-.3476A1.5591,1.5591,0,0,1,3.5585,2.7112Z" fill="#007830"/><path d="M3.7876,3.8762a.2122.2122,0,0,1,.0279-.15c.0412-.0543.255-.1065.3056-.2541a.7292.7292,0,0,0,.0034-.3464s-.3311.0724-.3673.1788a1.5654,1.5654,0,0,0-.0093.4112.6376.6376,0,0,0,.0042.18Z" fill="#16b516"/><path d="M4.07,3.1673a.72.72,0,0,0-.1987.247,2.0244,2.0244,0,0,0-.0841.2428s.09-.1983.11-.2491A.966.966,0,0,1,4.07,3.1673Z" fill="#007830"/><path d="M3.4934,3.6188A.3061.3061,0,0,1,3.3167,3.52c-.0463-.0737-.0031-.3716-.1549-.501a.9587.9587,0,0,0-.4055-.1706s-.0557.4166.0539.51a2.0608,2.0608,0,0,0,.479.2086c.1214.0644.18.0972.18.0972Z" fill="#16b516"/><path d="M2.782,2.9315a.9559.9559,0,0,0,.2055.3479,2.7114,2.7114,0,0,0,.25.2138s-.1948-.1987-.2457-.2468A1.2856,1.2856,0,0,1,2.782,2.9315Z" fill="#007830"/><path d="M3.5009,3.734a.3744.3744,0,0,0-.199.0146c-.077.0385-.1966.2687-.3908.3134a1.1264,1.1264,0,0,1-.427-.0072s.1711-.32.311-.3523a2.4434,2.4434,0,0,1,.5082.0035c.1348-.0075.2006-.0124.2006-.0124Z" fill="#16b516"/><path d="M2.5489,4.0027a1.1874,1.1874,0,0,1,.353-.186c.1367-.0413.32-.0744.32-.0744s-.2661.0811-.3336.0995A1.6239,1.6239,0,0,0,2.5489,4.0027Z" fill="#007830"/><path d="M4.0983,3.9983a2.551,2.551,0,0,1-.8275-.4971" fill="none" stroke="#07b30e" stroke-miterlimit="10" stroke-width="0.0697"/></g><g id="icon-border"><g clip-path="url(#clip-path)"><g clip-path="url(#clip-path)"><path d="M5,1.0288A3.971,3.971,0,1,1,1.029,5,3.9765,3.9765,0,0,1,5,1.0288m0-1A4.971,4.971,0,1,0,9.972,5,4.9709,4.9709,0,0,0,5,.0288" fill="#0dbcb7"/></g></g></g></svg>