<svg xmlns="http://www.w3.org/2000/svg" xmlns:xlink="http://www.w3.org/1999/xlink" width="10" height="10" viewBox="0 0 10 10"><defs><clipPath id="clip-path"><rect x="0.0052" width="10" height="10" fill="none"/></clipPath></defs><title>Mapeo DEFAULT v2 icon-library-culture</title><g id="icons"><circle cx="3.1216" cy="6.6549" r="0.6773" stroke="#ffd146" stroke-miterlimit="10" stroke-width="0.25"/><circle cx="2.1628" cy="4.9772" r="0.6773" stroke="#ffd146" stroke-miterlimit="10" stroke-width="0.25"/><circle cx="8.0343" cy="4.9772" r="0.6773" stroke="#ffd146" stroke-miterlimit="10" stroke-width="0.25"/><circle cx="6.9969" cy="3.4646" r="0.6773" stroke="#ffd146" stroke-miterlimit="10" stroke-width="0.25"/><circle cx="6.9761" cy="6.62" r="0.6773" stroke="#ffd146" stroke-miterlimit="10" stroke-width="0.25"/><circle cx="5.0592" cy="7.2127" r="0.6773" stroke="#ffd146" stroke-miterlimit="10" stroke-width="0.25"/><circle cx="5.0592" cy="2.7873" r="0.6773" stroke="#ffd146" stroke-miterlimit="10" stroke-width="0.25"/><circle cx="3.1216" cy="3.2994" r="0.6773" stroke="#ffd146" stroke-miterlimit="10" stroke-width="0.25"/></g><g id="icon-border"><g clip-path="url(#clip-path)"><g clip-path="url(#clip-path)"><path d="M5.0052,1.0288A3.971,3.971,0,1,1,1.0342,5a3.9765,3.9765,0,0,1,3.971-3.971m0-1A4.971,4.971,0,1,0,9.9772,5,4.9709,4.9709,0,0,0,5.0052.0288" fill="#edcb03"/></g></g></g></svg>