<svg id="icons" xmlns="http://www.w3.org/2000/svg" width="100" height="100" viewBox="0 0 100 100"><title>culture</title><path d="M3.9857,43.41c.0683-.0483.1149-.0582.0869-.0868.0494.0229.0559-.02.0568-.1036v-.0134c.0573-.0788.345-.6951.3442-.6918.0711-.1273.06-.11.04-.0769-.0039-.0587.0389-.0653.097-.0467-.0636-.0487-.0671-.0409-.0669-.03a36.9791,36.9791,0,0,1,3.81-3.249,93.889,93.889,0,0,1,7.89-5.6111c2.9764-1.8671,7.1661-3.976,10.3032-5.6816a106.1343,106.1343,0,0,1,13.4211-6.5532,45.44,45.44,0,0,1,11.4494-3.0076,34.9251,34.9251,0,0,1,9.5845.5312,53.2108,53.2108,0,0,1,8.2424,3.1926,95.9971,95.9971,0,0,1,12.1306,6.0951,86.8828,86.8828,0,0,1,8.2452,6.09c1.41,1.1116,3.7837,3.2917,4.23,3.6036.0519.0363-.2207-.1394.0432.0031" fill="none" stroke="#000" stroke-linejoin="round" stroke-width="3.1476"/><polygon points="51.527 65.938 36.025 78.483 43.166 59.863 26.445 48.997 46.36 50.035 51.527 30.775 56.694 50.035 76.608 48.997 59.887 59.863 67.028 78.483 51.527 65.938" fill="#ffc53f" stroke="#000" stroke-miterlimit="10" stroke-width="3.8671"/></svg>