<svg id="icons" xmlns="http://www.w3.org/2000/svg" width="100" height="100" viewBox="0 0 100 100"><title>nature-use</title><ellipse cx="50.0047" cy="71.7621" rx="40.8283" ry="22.8797" fill="#755101"/><path d="M40.8209,8.2774c.656-2.57,3.7528-2.9942,6.359-2.0847s.9115,6.1027.9662,6.9226,4.5033,2.2644,4.4661,1.1164-2.0251-7.7378-4.1412-9.07c-3.3862-2.1319-5.7953-1.066-7.4314.3007s-6.1226,12.4091-1.4487,8.2271C41.183,12.2648,40.1649,10.8476,40.8209,8.2774Z" fill="#f2f7b2"/><path d="M60.3832,8.2774c-.656-2.57-3.7528-2.9942-6.359-2.0847s-.9116,6.1027-.9662,6.9226-4.5033,2.2644-4.4661,1.1164,2.025-7.7378,4.1412-9.07c3.3861-2.1319,5.7953-1.066,7.4314.3007s6.1225,12.4091,1.4486,8.2271C60.0211,12.2648,61.0391,10.8476,60.3832,8.2774Z" fill="#f2f7b2"/><ellipse cx="50.886" cy="21.0594" rx="3.2898" ry="15.2021" fill="#eaea03" stroke="#c4b606" stroke-miterlimit="10" stroke-width="0.697"/><path d="M49.4031,96.1939s1.57-18.0288-.1673-32.3316-6.2341-30.47-4.9107-41.0491,4.1132-7.73,3.13-14.2888c1.4437,5.1482.97,11.5529,1.648,15.2507.8453,4.609,2.6308,6.3349,2.2909,11.531-.6126,9.365.4915,37.1075,1.2938,46.6587S49.4031,96.1939,49.4031,96.1939Z" fill="#8af246" stroke="#55d105" stroke-miterlimit="10" stroke-width="0.697"/><path d="M55.3717,95.609c-2.6843-13.6442-1.0394-25.4229-1.7875-36.9744s.8124-15.7878,2.1949-20.5681.908-6.4169,1.4873-12.0953S55.6606,13.9936,52.8327,9.1266C54.3506,21.5612,50.3766,29.6589,50.6573,37.5a143.3074,143.3074,0,0,1-.8057,20.4651C49.2358,63.8623,55.3717,95.609,55.3717,95.609Z" fill="#8af246" stroke="#55d105" stroke-miterlimit="10" stroke-width="0.697"/><path d="M52.913,11.2659A5.9065,5.9065,0,0,1,59.48,6.1471s-5.4915-1.2131-6.243.7885A9.3027,9.3027,0,0,0,52.913,11.2659Z" fill="#419b07"/><path d="M42.84,6.0562a5.9067,5.9067,0,0,1,5.3976,6.34S49.2121,6.857,47.18,6.1927A9.3025,9.3025,0,0,0,42.84,6.0562Z" fill="#419b07"/><path d="M38.4324,10.6926c-1.12,2.6914-1.6115,5.348.9786,3.1519,1.4534-1.2315.5244-2.4576,1.1234-4.68" fill="#c4b606"/><path d="M62.7646,10.6926c1.1289,2.6914,1.6241,5.348-.9861,3.1519-1.4647-1.2315-.5285-2.4576-1.1321-4.68" fill="#c4b606"/><path d="M23.4128,17.8694c.4848-2.118,2.7736-2.4674,4.7-1.718s.6737,5.0289.7141,5.7046,3.3284,1.8659,3.3009.92S30.6309,16.4,29.0669,15.3017c-2.5027-1.7568-4.2833-.8784-5.4925.2478s-4.5251,10.2255-1.0707,6.78C23.68,21.1551,22.928,19.9873,23.4128,17.8694Z" fill="#f2f7b2"/><path d="M21.7117,19.3258c-.9069,2.5642-1.3047,5.0952.7922,3.0029,1.1767-1.1732.4246-2.3414.9095-4.4591" fill="#c4b606"/><ellipse cx="30.8518" cy="28.4022" rx="2.4314" ry="12.5271" fill="#eaea03" stroke="#c4b606" stroke-miterlimit="10" stroke-width="0.697"/><path d="M29.7558,90.3159s1.1607-14.8564-.1237-26.6425-4.6075-25.1082-3.6294-33.826,3.04-6.37,2.313-11.7746c1.0671,4.2424.7169,9.52,1.2181,12.5673.6247,3.7979,1.9444,5.22,1.6932,9.5019-.4528,7.7171.3632,30.578.9562,38.4486S29.7558,90.3159,29.7558,90.3159Z" fill="#8af246" stroke="#55d105" stroke-miterlimit="10" stroke-width="0.697"/><path d="M34.1671,89.8339c-1.9839-11.2433-.7682-20.9494-1.3211-30.4683s.6-13.01,1.6222-16.9489.6711-5.2878,1.0993-9.967-1.1869-9.87-3.277-13.8806c1.1219,10.2466-1.8152,16.9194-1.6078,23.3808a131.55,131.55,0,0,1-.5955,16.864C29.6321,63.6734,34.1671,89.8339,34.1671,89.8339Z" fill="#8af246" stroke="#55d105" stroke-miterlimit="10" stroke-width="0.697"/><path d="M32.35,20.3319c.8453-4.83,4.8534-4.218,4.8534-4.218s-4.0587-1-4.6141.65A8.5168,8.5168,0,0,0,32.35,20.3319Z" fill="#419b07"/><path d="M24.9048,16.039c4.3642.733,3.9893,5.224,3.9893,5.224s.72-4.5641-.7815-5.1116A6.1879,6.1879,0,0,0,24.9048,16.039Z" fill="#419b07"/><path d="M75.9787,17.8437a2.162,2.162,0,0,0-3.4017-1.7179c-1.3941.7494-.4876,5.0288-.5168,5.7045s-2.409,1.8659-2.3892.92,1.0833-6.3762,2.2154-7.4741c1.8114-1.7569,3.1-.8784,3.9753.2477s3.2753,10.2256.775,6.78C75.785,21.13,76.33,19.9616,75.9787,17.8437Z" fill="#f2f7b2"/><ellipse cx="70.5944" cy="28.3766" rx="1.7599" ry="12.5271" fill="#eaea03" stroke="#c4b606" stroke-miterlimit="10" stroke-width="0.697"/><path d="M71.3877,90.29a236.78,236.78,0,0,1,.09-26.6424c.93-11.7861,3.3349-25.1083,2.627-33.8261s-2.2-6.37-1.6742-11.7745c-.7723,4.2423-.5188,9.52-.8816,12.5672-.4521,3.798-1.4073,5.22-1.2255,9.502.3277,7.717-.2629,30.5779-.6921,38.4485S71.3877,90.29,71.3877,90.29Z" fill="#8af246" stroke="#55d105" stroke-miterlimit="10" stroke-width="0.697"/><path d="M68.1949,89.8083c1.4359-11.2434.556-20.9495.9561-30.4683s-.4345-13.01-1.1741-16.949-.4857-5.2878-.7956-9.967a34.9645,34.9645,0,0,1,2.3718-13.8806c-.812,10.2466,1.3139,16.92,1.1637,23.3808s.1016,12.0046.431,16.8641S68.1949,89.8083,68.1949,89.8083Z" fill="#8af246" stroke="#55d105" stroke-miterlimit="10" stroke-width="0.697"/><path d="M69.51,20.3063c-.6118-4.83-3.5128-4.2181-3.5128-4.2181s2.9377-1,3.34.65A11.6867,11.6867,0,0,1,69.51,20.3063Z" fill="#419b07"/><path d="M74.8988,16.0133c-3.1588.7331-2.8874,5.2241-2.8874,5.2241s-.5215-4.5642.5656-5.1116A3.2946,3.2946,0,0,1,74.8988,16.0133Z" fill="#419b07"/><path d="M77.1743,19.3258c.7,2.5642,1.0078,5.0952-.6119,3.0029-.909-1.1732-.328-2.3414-.7026-4.4591" fill="#c4b606"/><path d="M47.8116,48.4818c-3.7267,0-1.6192-3.3745,2.3364-4.097,4.3393-.7926,8.1724-5.4172,3.8766-5.6822" fill="none" stroke="#419b07" stroke-miterlimit="10" stroke-width="0.697"/><path d="M49.204,57.0682c-2.9687.3462-1.5843-2.3755,1.5035-3.2838,3.3876-.9964,6.0373-4.8141,2.5922-4.6135" fill="none" stroke="#419b07" stroke-miterlimit="10" stroke-width="0.6813"/><path d="M49.8358,61.9252c-2.7207.3172-1.3532-1.33,1.4979-1.9809,3.1277-.7141,5.6915-3.0519,2.5419-2.8015" fill="none" stroke="#419b07" stroke-miterlimit="10" stroke-width="0.7121"/><path d="M49.8535,67.7976c-2.6091.3043-1.3047-1.3355,1.4279-1.9727,2.9978-.699,5.4468-3.0233,2.4258-2.7879" fill="none" stroke="#419b07" stroke-miterlimit="10" stroke-width="0.697"/><path d="M49.9156,71.3744c-1.8075-.3917-.4725-1.6143,1.513-1.5079,2.1781.1168,4.466-1.46,2.4071-2.0244" fill="none" stroke="#419b07" stroke-miterlimit="10" stroke-width="0.697"/><path d="M50.0594,76.2581c-1.8325-.2495-.5968-1.5726,1.3909-1.6212,2.1806-.0533,4.3387-1.8032,2.242-2.2058" fill="none" stroke="#419b07" stroke-miterlimit="10" stroke-width="0.697"/><path d="M45.8688,37.7186c-1.2213-.328-5.4078-3.28-1.7839-4.1545s3.252-2.1867,4.5859.5466" fill="none" stroke="#419b07" stroke-miterlimit="10" stroke-width="0.697"/><path d="M55.9906,40.0693c3.4439-.082,6.3539-.9266,7.0518-2.2372s-.32-2.7647.7831-3.0107-.8085-.69-2.6242-.656-4.3569.8718-4.3738,2.4039A11.5483,11.5483,0,0,1,55.9906,40.0693Z" fill="#10af08"/><path d="M55.9032,40.7287c2.6916-.67,4.4279.3966,5.0019,1.9292S62.217,46.55,62.217,46.55a9.3575,9.3575,0,0,1-2.5418-2.96C58.7732,41.8125,58.1992,42.4328,55.9032,40.7287Z" fill="#10af08"/><path d="M55.0238,50.0731c2.3575-.0562,4.3495-.6343,4.8272-1.5314s-.2189-1.8926.5361-2.061-.5535-.4725-1.7964-.449-2.9824.5968-2.994,1.6455A7.9064,7.9064,0,0,1,55.0238,50.0731Z" fill="#10af08"/><path d="M48.4381,67.424c-1.7521,1.2606-3.55,1.907-4.4359,1.4638s-.9739-1.6139-1.6251-1.3289.12-.6791,1.0405-1.3484,2.5315-1.18,3.168-.3592A8.35,8.35,0,0,0,48.4381,67.424Z" fill="#10af08"/><path d="M40.958,54.0293c1.3884,1.9061,2.9978,3.2145,4.0073,3.0965s1.4313-1.2575,2-.7327.0733-.7241-.6537-1.7325-2.1887-2.112-3.0574-1.5244A7.9037,7.9037,0,0,1,40.958,54.0293Z" fill="#10af08"/><path d="M53.5841,51.7165c2.6916-.67,4.4279.3966,5.0019,1.9292s1.3119,3.8919,1.3119,3.8919a9.3581,9.3581,0,0,1-2.5419-2.96C56.4541,52.8,55.88,53.4206,53.5841,51.7165Z" fill="#10af08"/><path d="M44.0548,37.2608A2.85,2.85,0,0,0,40.1287,39.19c-.4506,1.5326-1.03,3.8919-1.03,3.8919a8.9558,8.9558,0,0,0,1.9952-2.96C41.8021,38.3446,42.2527,38.9649,44.0548,37.2608Z" fill="#10af08"/><path d="M43.4057,36.2085a2.85,2.85,0,0,0-4.3473.4874c-.9424,1.29-2.2855,3.3141-2.2855,3.3141a8.9555,8.9555,0,0,0,2.879-2.111C40.9192,36.4664,41.1334,37.2025,43.4057,36.2085Z" fill="#10af08"/><path d="M40.4109,50.565c-.246-2.1319-.164-3.4386.984-4.0152a3.1621,3.1621,0,0,1,3.4439,0c1.0382.7824,2.552,2.9493,1.03,3.5233s-2.23-1.066-3.229-.41A7.21,7.21,0,0,1,40.4109,50.565Z" fill="#10af08"/><path d="M44.7107,64.3718c-.7281-1.3859-1.0159-2.2966-.3865-2.9909a2.3073,2.3073,0,0,1,2.3434-.9057c.9121.2594,2.512,1.3357,1.6274,2.1265s-1.7978-.1388-2.3049.57A5.26,5.26,0,0,1,44.7107,64.3718Z" fill="#10af08"/><path d="M59.1688,60.1639c-.3824-1.52-.7854-2.3857-1.7689-2.4566a2.5915,2.5915,0,0,0-2.4956.9646c-.5466.8231-1.0736,2.7215.18,2.6858s1.3356-1.35,2.232-1.1833A5.8281,5.8281,0,0,0,59.1688,60.1639Z" fill="#10af08"/><path d="M50.3449,37.235c.4431-1.4971.5868-2.44.04-2.98a1.4362,1.4362,0,0,0-1.8906-.3821c-.683.4443-1.8271,1.8257-1.0745,2.405s1.3782-.5148,1.8319.065A3.5307,3.5307,0,0,0,50.3449,37.235Z" fill="#10af08"/><path d="M53.6333,78.1285c2.1988-12.4261,11.0213-11.633,9.2118-6.9971s-6.9268-3.3524,0-10.5982,14.855-.03,12.5245,2.0249-5.8054-5.852-.5831-9.7395,10.45,1.6413,8.7073,3.1242-4.3562-2.72,1.96-7.48" fill="none" stroke="#419b07" stroke-miterlimit="10" stroke-width="0.6813"/><path d="M49.3783,79.3518c-2.0807-12.426-10.429-11.633-8.7167-6.9971s6.5545-3.3523,0-10.5981-14.0567-.03-11.8514,2.0249,5.4934-5.8521.5517-9.7395-9.8881,1.6413-8.2393,3.1242,4.1221-2.72-1.8549-7.48" fill="none" stroke="#419b07" stroke-miterlimit="10" stroke-width="0.6627"/><path d="M49.7812,77.03c1.7256.3534,1.5856-5.8032,5.3387-5.2306s2.0314,5.9323,3.662,8.1879,3.1268,7.87,2.5145,9.41-3.2607-.88-5.2419-1.8436S52.5425,88.1658,51.8,91.4s-1.3676,4.936-2.4,4.9985-.8964-4.3152-1.3811-5.8843-.98-3.7227-2.93-3.6906-4.7359.2037-5.7092,1.3888-1.448-2.6269,1.0985-5.43,1.6363-5.6129,3.812-6.97S48.2057,76.7077,49.7812,77.03Z" fill="#419b07" stroke="#165102" stroke-miterlimit="10" stroke-width="0.7697"/><path d="M67.08,74.1341c-2.53-1.2787-5.6888-3.258-5.6431-.8091s.4352,9.7635,3.2712,11.5961.1593-.5655,2.0914-3.0078,5.2528,5.8577,8.8685,6.4662,5.4306,2.6589,4.7793-1.8632S78,79.5537,80.0155,79.829,83.2991,82.4855,85,82.324s.5731-2.6593-1.2377-5.408-5.314-4.0309-7.7314-5.8744-6.6446-4.2329-8.99-4.1553S68.37,74.7859,67.08,74.1341Z" fill="#419b07" stroke="#165102" stroke-miterlimit="10" stroke-width="0.6729"/><path d="M38.58,77.8286c.3108-3.359-3.1782-4.4973-5.5309-5.4782a43.8238,43.8238,0,0,1-7.0053-3.4018c-1.2642-.9615-4.7406-1.3562-6.4261,0s2.0016.99,4.4245,2.1211,3.3768,1.9816-1.2086,1.9778-6.6949,2.4956-9.2746,2.7207,2.3716,3.5166,6.164,3.82-.1015,1.0454-.63,2.2018,5.476-.6344,7.4776-1.5825-1.444,3.7269-3.4083,4.1284,2.9869,1.1389,7.8328-2.1269S38.2635,81.2441,38.58,77.8286Z" fill="#419b07" stroke="#165102" stroke-miterlimit="10" stroke-width="0.8954"/></svg>