<svg id="icons" xmlns="http://www.w3.org/2000/svg" width="100" height="100" viewBox="0 0 100 100"><title>nature-use</title><path d="M67.4505,55.9014c-5.8379,1.3314-5.3468,2.7653-5.142,5.2233s6.2686,3.5847,6.4734,6.76c.5121-3.175,4.9651-4.915,5.2724-7.0658s.4631-4.3027-3.6336-4.9172S67.4505,55.9014,67.4505,55.9014Z" fill="#f78c57"/><path d="M68.6516,55.5209S71.6346,33.7,78.75,25.6537c-2.57,2.22-8.1619,11.1486-9.4965,18.0761C67.3032,53.8506,68.6516,55.5209,68.6516,55.5209Z" fill="#8ef458"/><path d="M67.721,55.8574s1.3385-21.9831,7.83-30.54c-2.3966,2.4066-6.8281,10.2538-7.64,17.2618C66.7261,52.8176,67.721,55.8574,67.721,55.8574Z" fill="#8ef458"/><path d="M66.8761,55.5209S63.8931,33.7,56.7782,25.6537c2.57,2.22,8.1619,11.1486,9.4965,18.0761C68.2245,53.8506,66.8761,55.5209,66.8761,55.5209Z" fill="#8ef458"/><path d="M67.8068,55.8574s-1.3386-21.9831-7.83-30.54c2.3966,2.4066,6.8281,10.2538,7.64,17.2618C68.8016,52.8176,67.8068,55.8574,67.8068,55.8574Z" fill="#8ef458"/><path d="M67.2592,56.0647c.1287-2.01.8646-24.4835,2.6228-31.0108-2.3063,6.1966-2.0957,12.2-2.9071,19.2078C65.7894,54.5,67.2592,56.0647,67.2592,56.0647Z" fill="#8ef458"/><g id="fb6799ad-8fec-4b42-ad43-2c52690a8564"><path d="M37.1649,59.0006l2.2826-2.7391a18.7158,18.7158,0,0,0,1.37-6.3913V40.2833s.2822-7.5292,3.6153-10.6875h.6013s-2.8471.6441-2.8471,10.6875V56.2615l1.8261,2.7391-3.1608-3.0142Z" fill="#0e6612"/></g><path d="M30.7277,64.5141c4.92-1.64,9.6954,3.7718,6.4057,6.2317s-13.451,6.0677-13.29,1.4759S30.7277,64.5141,30.7277,64.5141Z" fill="#eab16c"/><path d="M43.2634,64.2261c.6483-4.2152,12.62-.5056,13.7677,3.2662s-.82,7.5437-7.5437,6.0678S42.6152,68.4413,43.2634,64.2261Z" fill="#eab16c"/><path d="M43.5588,76.5373c-2.9385,1.35-7.7071-4.4278-9.675,0s8.6916,11.1515,13.12,8.3636S49.6259,73.7494,43.5588,76.5373Z" fill="#eab16c"/><path d="M34.1282,65.5492c-.656-4.78,5.3193-9.2877,5.3193-9.2877" fill="none" stroke="#0e6612" stroke-miterlimit="10" stroke-width="0.697"/><path d="M36.7627,76.8955s.3173-5.147,2.9412-7.5753a7.7086,7.7086,0,0,0,1.312-9.3159c-1.6335-2.8166.5356-5.9038.5356-5.9038" fill="none" stroke="#0e6612" stroke-miterlimit="10" stroke-width="0.697"/><path d="M50.4268,65.532c-.7356-2.2378.4124-5.2249-2.2935-5.9863s-5.4787-1.1239-6.084-3.267" fill="none" stroke="#0e6612" stroke-miterlimit="10" stroke-width="0.697"/><path d="M45.5192,27.5007c-.5526-.577-1.2609-.93-1.6258-1.4971-.3431-.8052.6272-3.6873-.7219-5.1593a9.0438,9.0438,0,0,0-3.9464-2.1105s-1.4119,4.2906-.438,5.3486c1.2868,1.3972,3.4938,1.7953,4.6489,2.5663a5.9566,5.9566,0,0,1,1.3332,1.0356Z" fill="#16b516"/><path d="M39.332,19.6205a8.7775,8.7775,0,0,0,1.484,3.7915,24.2069,24.2069,0,0,0,2.2131,2.4314s-1.6655-2.2285-2.1083-2.7711A11.7022,11.7022,0,0,1,39.332,19.6205Z" fill="#007830"/><path d="M46.9454,24.928a3.6266,3.6266,0,0,1,1.9741-.3147c.8361.2114,2.5058,2.2681,4.4986,2.2706A10.9674,10.9674,0,0,0,57.57,25.817s-2.37-2.8506-3.8049-2.85c-1.8956.001-3.62.98-4.9526,1.2178s-1.9851.34-1.9851.34Z" fill="#16b516"/><path d="M56.824,25.44a11.4422,11.4422,0,0,0-3.852-1.0656c-1.4244-.1017-3.2818-.0122-3.2818-.0122s2.7744.2043,3.474.2341A15.6224,15.6224,0,0,1,56.824,25.44Z" fill="#007830"/><path d="M45.1469,27.5873a2.1219,2.1219,0,0,1,1.4961.2977c.538.4191,1.0339,2.5628,2.5038,3.0867a7.29,7.29,0,0,0,3.4635.0764s-.6836-3.32-1.743-3.6948c-1.4-.4953-3.0383-.0191-4.1105-.1431a6.3658,6.3658,0,0,0-1.7973.02Z" fill="#16b516"/><path d="M52.2,30.4958a7.1946,7.1946,0,0,0-2.4447-2.0173,20.1047,20.1047,0,0,0-2.4177-.8706s1.9714.92,2.4766,1.1311A9.64,9.64,0,0,1,52.2,30.4958Z" fill="#007830"/><path d="M47.7567,24.6779a3.0634,3.0634,0,0,1,1.01-1.7557c.7423-.4536,3.7164.0155,5.0284-1.4876a9.5685,9.5685,0,0,0,1.7555-4.0333s-4.1584-.6081-5.1011.4762c-1.245,1.4325-1.4848,3.5587-2.144,4.7647s-.9943,1.7853-.9943,1.7853Z" fill="#16b516"/><path d="M54.7164,17.6478a9.5567,9.5567,0,0,0-3.5039,2.0129,26.95,26.95,0,0,0-2.1682,2.4683s2.01-1.9235,2.497-2.4268A12.8623,12.8623,0,0,1,54.7164,17.6478Z" fill="#007830"/><path d="M46.6038,24.7382a3.7471,3.7471,0,0,0-.1216-1.9916c-.3756-.7751-2.6626-1.9988-3.0864-3.9457a11.2764,11.2764,0,0,1,.125-4.2692s3.1814,1.75,3.4845,3.1528c.4,1.8527-.1562,3.732-.0975,5.0812s.1,2.0074.1,2.0074Z" fill="#16b516"/><path d="M44.0331,15.1862A11.8454,11.8454,0,0,1,45.85,18.7391c.3969,1.3718.7057,3.2046.7057,3.2046s-.7789-2.6707-.955-3.3484A16.198,16.198,0,0,0,44.0331,15.1862Z" fill="#007830"/><path d="M43.8875,30.6791c.2329-1.5619,3.49-6.8016,5.0725-8.2128" fill="none" stroke="#07b30e" stroke-miterlimit="10" stroke-width="0.697"/><path d="M45.3906,43.3919a13.6055,13.6055,0,0,1,.0012-2.21c.36-.7977,3.1384-2.0347,3.3084-4.0241a9.0432,9.0432,0,0,0-1.1183-4.3334s-4.1137,1.8656-4.233,3.2987c-.1572,1.8929,1.0439,3.7867,1.2585,5.1589a5.9529,5.9529,0,0,1,.14,1.6822Z" fill="#16b516"/><path d="M47.0016,33.5034a8.7778,8.7778,0,0,0-1.7858,3.659,24.22,24.22,0,0,0-.2912,3.2748s.5126-2.7344.6122-3.4277A11.7024,11.7024,0,0,1,47.0016,33.5034Z" fill="#007830"/><path d="M48.25,42.7a3.6261,3.6261,0,0,1,1.5681,1.24c.41.7585.027,3.38,1.3744,4.8482a10.9657,10.9657,0,0,0,3.5962,2.3337s.4937-3.6739-.4782-4.73c-1.2841-1.3946-3.1723-2.0007-4.2491-2.8207S48.4667,42.34,48.4667,42.34Z" fill="#16b516"/><path d="M54.5605,50.317a11.4411,11.4411,0,0,0-1.8235-3.5564c-.89-1.1172-2.2128-2.4237-2.2128-2.4237s1.728,2.18,2.18,2.7154A15.6185,15.6185,0,0,1,54.5605,50.317Z" fill="#007830"/><path d="M45.0748,43.1765a2.1215,2.1215,0,0,1,.7937,1.3027c.0559.68-1.1862,2.4959-.5767,3.9325A7.2908,7.2908,0,0,0,47.58,51.0124s1.98-2.7505,1.5394-3.7842c-.5829-1.3652-2.0428-2.249-2.6774-3.1221a6.3726,6.3726,0,0,0-1.2319-1.309Z" fill="#16b516"/><path d="M47.7093,50.3368a7.1946,7.1946,0,0,0-.17-3.165,20.1128,20.1128,0,0,0-.996-2.3688s.6577,2.0735.8441,2.5884A9.6454,9.6454,0,0,1,47.7093,50.3368Z" fill="#007830"/><path d="M48.9829,43.1276a3.0637,3.0637,0,0,1,1.9761-.445c.8365.2393,2.5046,2.7457,4.4991,2.6938a9.57,9.57,0,0,0,4.157-1.4385s-2.3677-3.4722-3.804-3.432c-1.8971.0535-3.6243,1.3164-4.9581,1.6477s-1.9872.4769-1.9872.4769Z" fill="#16b516"/><path d="M58.8686,43.4906a9.5577,9.5577,0,0,0-3.8535-1.2162,26.969,26.969,0,0,0-3.2845.0753s2.7764.1771,3.4765.1949A12.8612,12.8612,0,0,1,58.8686,43.4906Z" fill="#007830"/><path d="M48.1581,42.32a3.7481,3.7481,0,0,0,1.3834-1.4377c.3162-.8012-.3315-3.3128.8146-4.9428a11.2784,11.2784,0,0,1,3.2267-2.7983s.8656,3.5265.0385,4.6991c-1.0927,1.5486-2.8525,2.4116-3.8058,3.3681s-1.41,1.4326-1.41,1.4326Z" fill="#16b516"/><path d="M53.4479,33.9614a11.8478,11.8478,0,0,1-1.3851,3.7422c-.7409,1.2208-1.8809,2.6889-1.8809,2.6889S51.62,38.0112,52,37.4228A16.2118,16.2118,0,0,0,53.4479,33.9614Z" fill="#007830"/><path d="M41.9467,44.3427c1.3072-.886,7.369-2.0356,9.4786-1.8267" fill="none" stroke="#07b30e" stroke-miterlimit="10" stroke-width="0.697"/><path d="M37.7847,38.4212c-.57.56-.9148,1.2722-1.4771,1.6439-.8009.3531-3.6947-.5819-5.15.7851a9.0432,9.0432,0,0,0-2.0621,3.972s4.3076,1.3592,5.3536.3724c1.3814-1.3038,1.7524-3.5155,2.5092-4.68a5.9549,5.9549,0,0,1,1.0191-1.3457Z" fill="#16b516"/><path d="M29.9809,44.7044a8.7764,8.7764,0,0,0,3.773-1.53,24.21,24.21,0,0,0,2.4041-2.2426S33.95,42.624,33.413,43.0735A11.7046,11.7046,0,0,1,29.9809,44.7044Z" fill="#007830"/><path d="M35.1947,37.0266a3.6266,3.6266,0,0,1-.3389-1.97c.2012-.8385,2.2373-2.5333,2.2154-4.526a10.9653,10.9653,0,0,0-1.1177-4.1389s-2.8213,2.4045-2.8032,3.84c.0242,1.8955,1.0246,3.6078,1.2783,4.9373s.3644,1.9808.3644,1.9808Z" fill="#16b516"/><path d="M35.5857,27.1424a11.4439,11.4439,0,0,0-1.0184,3.8648c-.0842,1.4256.028,3.2818.028,3.2818s.17-2.7768.1916-3.4767A15.6209,15.6209,0,0,1,35.5857,27.1424Z" fill="#007830"/><path d="M37.8758,38.7924a2.1222,2.1222,0,0,1,.2795-1.5c.4124-.5431,2.55-1.0652,3.0557-2.5414a7.2908,7.2908,0,0,0,.034-3.4642s-3.3111.7242-3.6732,1.7881c-.4781,1.4055.0181,3.0383-.0927,4.112a6.3669,6.3669,0,0,0,.0424,1.7969Z" fill="#16b516"/><path d="M40.6977,31.7038a7.1949,7.1949,0,0,0-1.9872,2.4693,20.1148,20.1148,0,0,0-.8409,2.4282s.8954-1.9825,1.1006-2.49A9.6453,9.6453,0,0,1,40.6977,31.7038Z" fill="#007830"/><path d="M34.9347,36.2184a3.0632,3.0632,0,0,1-1.7679-.9887c-.4627-.7368-.03-3.7163-1.5491-5.01a9.5681,9.5681,0,0,0-4.0545-1.706s-.5571,4.1655.5386,5.0949c1.4477,1.2274,3.5766,1.4411,4.7906,2.0854s1.7974.9724,1.7974.9724Z" fill="#16b516"/><path d="M27.82,29.3453a9.5568,9.5568,0,0,0,2.0556,3.479A26.9429,26.9429,0,0,0,32.37,34.9621s-1.948-1.9862-2.4571-2.4671A12.86,12.86,0,0,1,27.82,29.3453Z" fill="#007830"/><path d="M35.0091,37.3705a3.7473,3.7473,0,0,0-1.99.1459c-.77.3851-1.966,2.687-3.9077,3.1346a11.2809,11.2809,0,0,1-4.27-.0727s1.7112-3.2027,3.11-3.5229c1.8476-.4227,3.7336.11,5.082.0353s2.0059-.1246,2.0059-.1246Z" fill="#16b516"/><path d="M25.4894,40.0579a11.8461,11.8461,0,0,1,3.53-1.86c1.3668-.4137,3.1958-.7449,3.1958-.7449s-2.661.8116-3.3365.9959A16.2056,16.2056,0,0,0,25.4894,40.0579Z" fill="#007830"/><path d="M40.9828,40.0138c-1.5646-.2137-6.8438-3.407-8.2743-4.9715" fill="none" stroke="#07b30e" stroke-miterlimit="10" stroke-width="0.697"/></svg>