<svg xmlns="http://www.w3.org/2000/svg" width="10" height="10" viewBox="0 0 10 10"><title>Mapeo DEFAULT v2 icon-library-culture</title><g id="icons"><path d="M1.3234,4.4418,1.33,4.4349c.004.0019.0045-.0015.0045-.0082V4.4256c.0046-.0062.0274-.0552.0274-.0549.0056-.01.0047-.0088.0032-.0061,0-.0047.0031-.0052.0077-.0037-.0051-.0039-.0054-.0033-.0053-.0024A2.9411,2.9411,0,0,1,1.67,4.1a7.4569,7.4569,0,0,1,.6266-.4456c.2365-.1483.5692-.3158.8184-.4513a8.4259,8.4259,0,0,1,1.066-.5205,3.6093,3.6093,0,0,1,.9094-.2389,2.7763,2.7763,0,0,1,.7612.0422,4.2259,4.2259,0,0,1,.6547.2536A7.6247,7.6247,0,0,1,7.47,3.224a6.9049,6.9049,0,0,1,.6548.4837c.112.0883.3006.2615.336.2863.0041.0028-.0175-.0111.0034,0" fill="none" stroke="#000" stroke-linejoin="round" stroke-width="0.25"/><polygon points="5.099 6.231 3.868 7.228 4.435 5.749 3.107 4.886 4.689 4.968 5.099 3.438 5.51 4.968 7.092 4.886 5.763 5.749 6.331 7.228 5.099 6.231" fill="#ffc53f" stroke="#000" stroke-miterlimit="10" stroke-width="0.3071"/></g><g id="icon-border"><path d="M5,1.029A3.971,3.971,0,1,1,1.0285,5,3.9765,3.9765,0,0,1,5,1.029m0-1A4.971,4.971,0,1,0,9.9715,5,4.9709,4.9709,0,0,0,5,.029" fill="#edcb03"/></g></svg>