<svg id="icons" xmlns="http://www.w3.org/2000/svg" width="100" height="100" viewBox="0 0 100 100"><title>nature-use</title><path d="M71.6352,57.4185c-7.35,1.6763-6.7318,3.4816-6.4739,6.5764s7.8924,4.5132,8.15,8.5106c.6447-3.9974,6.2511-6.1881,6.638-8.896s.5831-5.4173-4.5749-6.191S71.6352,57.4185,71.6352,57.4185Z" fill="#f78c57"/><path d="M73.1474,56.94S76.9031,29.4663,85.861,19.3356c-3.236,2.7953-10.2761,14.0366-11.9564,22.7585C71.45,54.8366,73.1474,56.94,73.1474,56.94Z" fill="#8ef458"/><path d="M71.9757,57.3631s1.6854-27.6774,9.8586-38.4511c-3.0174,3.03-8.5968,12.91-9.6185,21.7332C70.7232,53.5359,71.9757,57.3631,71.9757,57.3631Z" fill="#8ef458"/><path d="M70.9121,56.94S67.1564,29.4663,58.1985,19.3356c3.236,2.7953,10.2761,14.0366,11.9564,22.7585C72.61,54.8366,70.9121,56.94,70.9121,56.94Z" fill="#8ef458"/><path d="M72.0838,57.3631S70.3984,29.6857,62.2252,18.912c3.0174,3.03,8.5968,12.91,9.6185,21.7332C73.3363,53.5359,72.0838,57.3631,72.0838,57.3631Z" fill="#8ef458"/><path d="M71.3944,57.6242c.162-2.5309,1.0885-30.8256,3.3022-39.0437-2.9038,7.8017-2.6386,15.36-3.66,24.1833C69.5438,55.6544,71.3944,57.6242,71.3944,57.6242Z" fill="#8ef458"/><g id="fb6799ad-8fec-4b42-ad43-2c52690a8564"><path d="M33.5047,61.3205l2.8738-3.4486a23.5645,23.5645,0,0,0,1.7243-8.0468v-12.07s.3554-9.48,4.5518-13.4559h.7571s-3.5845.8109-3.5845,13.4559V57.8719l2.2991,3.4486-3.98-3.7949Z" fill="#0e6612"/></g><path d="M25.4,68.2622c6.1942-2.0647,12.2069,4.7489,8.0649,7.846S16.53,83.7476,16.7321,77.9664,25.4,68.2622,25.4,68.2622Z" fill="#eab16c"/><path d="M41.1829,67.9c.8161-5.3071,15.8886-.6366,17.334,4.1122s-1.0324,9.4978-9.4978,7.6395S40.3667,73.2068,41.1829,67.9Z" fill="#eab16c"/><path d="M41.5547,83.4c-3.7,1.7-9.7034-5.5747-12.1811,0S40.3167,97.44,45.8914,93.93,49.1934,79.89,41.5547,83.4Z" fill="#eab16c"/><path d="M29.6813,69.5655c-.8259-6.0178,6.6972-11.6936,6.6972-11.6936" fill="none" stroke="#0e6612" stroke-miterlimit="10" stroke-width="0.8775"/><path d="M32.9982,83.8509s.4-6.48,3.7031-9.5376a9.7053,9.7053,0,0,0,1.6518-11.7291c-2.0565-3.5461.6744-7.433.6744-7.433" fill="none" stroke="#0e6612" stroke-miterlimit="10" stroke-width="0.8775"/><path d="M50.2018,69.5438c-.9261-2.8175.5192-6.5784-2.8876-7.5369s-6.8979-1.415-7.66-4.1133" fill="none" stroke="#0e6612" stroke-miterlimit="10" stroke-width="0.8775"/><path d="M44.023,21.6611c-.6958-.7264-1.5876-1.1713-2.047-1.8849-.432-1.0138.79-4.6424-.9089-6.4957a11.3863,11.3863,0,0,0-4.9687-2.6573s-1.7776,5.4021-.5514,6.7342c1.62,1.7591,4.3988,2.26,5.8532,3.231a7.4965,7.4965,0,0,1,1.6784,1.3038Z" fill="#16b516"/><path d="M36.2331,11.74a11.0509,11.0509,0,0,0,1.8684,4.7736,30.4865,30.4865,0,0,0,2.7863,3.0612s-2.0968-2.8057-2.6544-3.4889A14.7331,14.7331,0,0,1,36.2331,11.74Z" fill="#007830"/><path d="M45.8186,18.422a4.566,4.566,0,0,1,2.4855-.3963c1.0526.2662,3.1548,2.8557,5.6639,2.8588a13.8036,13.8036,0,0,0,5.2278-1.3433s-2.9836-3.5889-4.7905-3.5883c-2.3866.0013-4.5577,1.2344-6.2354,1.5332s-2.4993.4283-2.4993.4283Z" fill="#16b516"/><path d="M58.2561,19.0666a14.4066,14.4066,0,0,0-4.85-1.3416c-1.7935-.128-4.1321-.0154-4.1321-.0154s3.4932.2572,4.374.2948A19.6633,19.6633,0,0,1,58.2561,19.0666Z" fill="#007830"/><path d="M43.5542,21.77a2.6718,2.6718,0,0,1,1.8837.3749c.6774.5276,1.3017,3.2266,3.1524,3.8863a9.1789,9.1789,0,0,0,4.3606.0961s-.8606-4.18-2.1945-4.6519c-1.762-.6235-3.8253-.024-5.1752-.18a8.02,8.02,0,0,0-2.263.0257Z" fill="#16b516"/><path d="M52.4347,25.432a9.0566,9.0566,0,0,0-3.078-2.54,25.3159,25.3159,0,0,0-3.0439-1.0961s2.482,1.1578,3.118,1.424A12.1428,12.1428,0,0,1,52.4347,25.432Z" fill="#007830"/><path d="M46.84,18.1071a3.8574,3.8574,0,0,1,1.272-2.21c.9347-.5711,4.6791.02,6.331-1.8729a12.047,12.047,0,0,0,2.21-5.0781s-5.2355-.7656-6.4225.6c-1.5675,1.8035-1.8693,4.48-2.6993,5.9988S46.28,17.7919,46.28,17.7919Z" fill="#16b516"/><path d="M55.6026,9.256A12.0332,12.0332,0,0,0,51.191,11.79a33.9458,33.9458,0,0,0-2.73,3.1077s2.5305-2.4218,3.1438-3.0553A16.1923,16.1923,0,0,1,55.6026,9.256Z" fill="#007830"/><path d="M45.3885,18.183a4.7192,4.7192,0,0,0-.153-2.5075c-.4729-.9758-3.3524-2.5165-3.886-4.9678a14.2,14.2,0,0,1,.1574-5.3751s4.0056,2.2038,4.3871,3.97c.5037,2.3325-.1966,4.6987-.1228,6.3974s.1259,2.5273.1259,2.5273Z" fill="#16b516"/><path d="M42.152,6.1568A14.9161,14.9161,0,0,1,44.4391,10.63c.5,1.7272.8884,4.0348.8884,4.0348s-.9806-3.3625-1.2023-4.2158A20.4014,20.4014,0,0,0,42.152,6.1568Z" fill="#007830"/><path d="M41.9686,25.6628c.2932-1.9665,4.3947-8.5634,6.3865-10.34" fill="none" stroke="#07b30e" stroke-miterlimit="10" stroke-width="0.8775"/><path d="M43.8611,41.6686a17.1123,17.1123,0,0,1,.0015-2.7825c.4536-1.0043,3.9513-2.5618,4.1654-5.0665a11.3868,11.3868,0,0,0-1.408-5.4559s-5.1793,2.3489-5.33,4.1532c-.1979,2.3832,1.3144,4.7676,1.5846,6.4952a7.5033,7.5033,0,0,1,.1767,2.118Z" fill="#16b516"/><path d="M45.8894,29.2187a11.0523,11.0523,0,0,0-2.2484,4.6068,30.4827,30.4827,0,0,0-.3667,4.1231s.6454-3.4427.7708-4.3156A14.7321,14.7321,0,0,1,45.8894,29.2187Z" fill="#007830"/><path d="M47.4606,40.7974a4.5651,4.5651,0,0,1,1.9743,1.561c.5168.9549.034,4.2552,1.73,6.104a13.8056,13.8056,0,0,0,4.5278,2.9382s.6216-4.6256-.6021-5.955c-1.6167-1.7557-3.994-2.5189-5.35-3.5513s-2.0073-1.55-2.0073-1.55Z" fill="#16b516"/><path d="M55.4063,50.3876A14.4065,14.4065,0,0,0,53.1105,45.91c-1.12-1.4066-2.786-3.0515-2.786-3.0515s2.1755,2.745,2.7441,3.4187A19.6649,19.6649,0,0,1,55.4063,50.3876Z" fill="#007830"/><path d="M43.4635,41.3975a2.6712,2.6712,0,0,1,.9993,1.64c.07.8557-1.4935,3.1424-.7261,4.9511a9.1792,9.1792,0,0,0,2.8813,3.2745s2.4935-3.463,1.9382-4.7645c-.734-1.7189-2.5721-2.8316-3.3711-3.9308A8.02,8.02,0,0,0,43.6342,40.92Z" fill="#16b516"/><path d="M46.78,50.4125a9.0584,9.0584,0,0,0-.2145-3.9848,25.3042,25.3042,0,0,0-1.254-2.9824s.8282,2.6106,1.0628,3.2589A12.1408,12.1408,0,0,1,46.78,50.4125Z" fill="#007830"/><path d="M48.3839,41.336a3.8573,3.8573,0,0,1,2.488-.56c1.0531.3013,3.1534,3.457,5.6645,3.3917A12.049,12.049,0,0,0,61.77,42.3561s-2.981-4.3716-4.7894-4.321c-2.3885.0673-4.563,1.6574-6.2424,2.0745s-2.5019.6-2.5019.6Z" fill="#16b516"/><path d="M60.83,41.793a12.03,12.03,0,0,0-4.8518-1.5312,33.9375,33.9375,0,0,0-4.1352.0947s3.4955.2229,4.3769.2454A16.1922,16.1922,0,0,1,60.83,41.793Z" fill="#007830"/><path d="M47.3454,40.319a4.7184,4.7184,0,0,0,1.7418-1.81c.3981-1.0086-.4174-4.1709,1.0255-6.2231a14.2,14.2,0,0,1,4.0626-3.5231s1.09,4.44.0485,5.9163c-1.3758,1.95-3.5913,3.0362-4.7916,4.2406s-1.7749,1.8036-1.7749,1.8036Z" fill="#16b516"/><path d="M54.0054,29.7953a14.916,14.916,0,0,1-1.7438,4.7116c-.9329,1.537-2.3681,3.3854-2.3681,3.3854s1.8109-2.9981,2.2888-3.739A20.3949,20.3949,0,0,0,54.0054,29.7953Z" fill="#007830"/><path d="M39.525,42.8658c1.6459-1.1155,9.2778-2.563,11.9339-2.3" fill="none" stroke="#07b30e" stroke-miterlimit="10" stroke-width="0.8775"/><path d="M34.2849,35.41c-.7178.7046-1.1517,1.6018-1.86,2.07-1.0084.4444-4.6518-.7327-6.4841.9884A11.3863,11.3863,0,0,0,23.345,43.47s5.4234,1.7113,6.74.4688c1.7391-1.6415,2.2062-4.4261,3.1591-5.8923a7.4949,7.4949,0,0,1,1.2831-1.6942Z" fill="#16b516"/><path d="M24.46,43.3212a11.0525,11.0525,0,0,0,4.75-1.9268,30.4873,30.4873,0,0,0,3.0268-2.8236s-2.78,2.1311-3.4561,2.6969A14.7333,14.7333,0,0,1,24.46,43.3212Z" fill="#007830"/><path d="M31.0241,33.6545a4.5654,4.5654,0,0,1-.4267-2.48c.2533-1.0559,2.8169-3.19,2.7892-5.6985a13.8038,13.8038,0,0,0-1.4072-5.211s-3.5521,3.0273-3.5293,4.8341c.03,2.3864,1.29,4.5423,1.6094,6.2161s.4588,2.4939.4588,2.4939Z" fill="#16b516"/><path d="M31.5163,21.21a14.4082,14.4082,0,0,0-1.2821,4.8659c-.106,1.7948.0352,4.1318.0352,4.1318s.2144-3.496.2413-4.3772A19.666,19.666,0,0,1,31.5163,21.21Z" fill="#007830"/><path d="M34.4,35.8777a2.6713,2.6713,0,0,1,.3518-1.8881c.5192-.6838,3.21-1.3411,3.8474-3.2a9.18,9.18,0,0,0,.0427-4.3614s-4.1688.9117-4.6247,2.2512c-.6019,1.77.0228,3.8254-.1167,5.1771a8.0179,8.0179,0,0,0,.0534,2.2625Z" fill="#16b516"/><path d="M37.9525,26.953a9.0586,9.0586,0,0,0-2.5019,3.1089,25.3223,25.3223,0,0,0-1.0587,3.0571s1.1273-2.496,1.3857-3.1352A12.1451,12.1451,0,0,1,37.9525,26.953Z" fill="#007830"/><path d="M30.6967,32.637a3.8576,3.8576,0,0,1-2.2259-1.2448c-.5825-.9276-.0378-4.679-1.95-6.3076a12.0482,12.0482,0,0,0-5.1048-2.1479s-.7014,5.2446.6782,6.4148c1.8226,1.5452,4.503,1.8143,6.0315,2.6256s2.263,1.2242,2.263,1.2242Z" fill="#16b516"/><path d="M21.739,23.9836a12.0308,12.0308,0,0,0,2.588,4.38,33.9205,33.9205,0,0,0,3.1409,2.6915s-2.4526-2.5006-3.0936-3.106A16.1957,16.1957,0,0,1,21.739,23.9836Z" fill="#007830"/><path d="M30.79,34.0875a4.7193,4.7193,0,0,0-2.5054.1837c-.97.4849-2.4753,3.383-4.92,3.9465a14.1994,14.1994,0,0,1-5.3767-.0915s2.1546-4.0322,3.9156-4.4354c2.3262-.5322,4.7007.139,6.3984.0444s2.5256-.1568,2.5256-.1568Z" fill="#16b516"/><path d="M18.8047,37.4711A14.9163,14.9163,0,0,1,23.25,35.1293c1.7209-.5207,4.0236-.9377,4.0236-.9377s-3.35,1.0217-4.2007,1.2538A20.4007,20.4007,0,0,0,18.8047,37.4711Z" fill="#007830"/><path d="M38.3115,37.4155c-1.97-.2691-8.6166-4.29-10.4176-6.2593" fill="none" stroke="#07b30e" stroke-miterlimit="10" stroke-width="0.8775"/></svg>