<svg xmlns="http://www.w3.org/2000/svg" width="10" height="10" viewBox="0 0 10 10"><title>Mapeo DEFAULT v2 icon-library-threats</title><g id="icon-border"><path d="M5,.0287A4.9713,4.9713,0,1,0,9.9713,5,4.9713,4.9713,0,0,0,5,.0287Z" fill="#d63e03"/><path d="M5,1.0287A3.9713,3.9713,0,1,1,1.0287,5,3.9758,3.9758,0,0,1,5,1.0287" fill="#fff"/></g><g id="icons"><polygon points="4.373 8.624 4.361 3.002 5.075 3.002 6.188 8.624 4.373 8.624"/><path d="M1.7034,3.3317H4.2385V8.6235a2.87,2.87,0,0,1-1.4571-.5454,4.1024,4.1024,0,0,1-1.078-1.3237A3.3754,3.3754,0,0,1,1.3243,5.043,3.3752,3.3752,0,0,1,1.7034,3.3317Z" fill="#0685ff"/><path d="M6.3059,8.6235a3.68,3.68,0,0,0,1.3294-.847A4.6691,4.6691,0,0,0,8.6471,6.351s-.3576.1673-.5828,0-.499.19-.7312-.0083-.4292.149-.6192-.0041-.37.1347-.5628,0A.3842.3842,0,0,0,5.84,6.296Z" fill="#0685ff"/><path d="M1.5489,3.697c.1409-.0982.3842,0,.3842,0a.4426.4426,0,0,0,.3843,0,.4424.4424,0,0,1,.3842,0,.4263.4263,0,0,0,.3842,0,.4263.4263,0,0,1,.3842,0,.4413.4413,0,0,0,.3843,0,.4411.4411,0,0,1,.3842,0" fill="none" stroke="#fff" stroke-linecap="round" stroke-miterlimit="10" stroke-width="0.2041"/><path d="M1.3655,4.276a.2965.2965,0,0,0,.1834-.0432c.1409-.0982.3842,0,.3842,0a.4426.4426,0,0,0,.3843,0,.4424.4424,0,0,1,.3842,0,.4263.4263,0,0,0,.3842,0,.4263.4263,0,0,1,.3842,0,.4413.4413,0,0,0,.3843,0,.4411.4411,0,0,1,.3842,0" fill="none" stroke="#fff" stroke-linecap="round" stroke-miterlimit="10" stroke-width="0.2041"/><path d="M1.1647,4.7686s.2434.0982.3842,0,.3842,0,.3842,0a.4426.4426,0,0,0,.3843,0,.4424.4424,0,0,1,.3842,0,.426.426,0,0,0,.3842,0,.4263.4263,0,0,1,.3842,0,.4413.4413,0,0,0,.3843,0,.4415.4415,0,0,1,.3842,0" fill="none" stroke="#fff" stroke-linecap="round" stroke-miterlimit="10" stroke-width="0.2041"/><path d="M1.1647,5.3044s.2434.0982.3842,0,.3842,0,.3842,0a.4426.4426,0,0,0,.3843,0,.4428.4428,0,0,1,.3842,0,.426.426,0,0,0,.3842,0,.4263.4263,0,0,1,.3842,0,.4413.4413,0,0,0,.3843,0,.4415.4415,0,0,1,.3842,0" fill="none" stroke="#fff" stroke-linecap="round" stroke-miterlimit="10" stroke-width="0.2041"/><path d="M1.3655,5.8834A.2957.2957,0,0,0,1.5489,5.84c.1409-.0982.3842,0,.3842,0a.443.443,0,0,0,.3843,0,.4424.4424,0,0,1,.3842,0,.4263.4263,0,0,0,.3842,0,.4259.4259,0,0,1,.3842,0,.4417.4417,0,0,0,.3843,0,.4411.4411,0,0,1,.3842,0" fill="none" stroke="#fff" stroke-linecap="round" stroke-miterlimit="10" stroke-width="0.2041"/><path d="M1.5489,6.3761c.1409-.0982.3842,0,.3842,0a.4426.4426,0,0,0,.3843,0,.4424.4424,0,0,1,.3842,0,.4263.4263,0,0,0,.3842,0,.4259.4259,0,0,1,.3842,0,.4413.4413,0,0,0,.3843,0,.4411.4411,0,0,1,.3842,0" fill="none" stroke="#fff" stroke-linecap="round" stroke-miterlimit="10" stroke-width="0.2041"/></g></svg>