<svg xmlns="http://www.w3.org/2000/svg" xmlns:xlink="http://www.w3.org/1999/xlink" width="10" height="10" viewBox="0 0 10 10"><defs><clipPath id="clip-path"><rect x="0.0117" width="10" height="10" fill="none"/></clipPath></defs><title>Mapeo DEFAULT v2 icon-library-threats</title><g id="icons"><polygon points="4.387 6.896 4.387 3.104 5.064 3.104 5.866 6.896 4.387 6.896"/><path d="M1.8643,3.4164H4.2706V6.6653H1.8643a3.2033,3.2033,0,0,1-.36-1.6244A3.2039,3.2039,0,0,1,1.8643,3.4164Z" fill="#0685ff"/><path d="M5.8237,6.6653H8.1478l.24-.3829s-.3394.1588-.5531,0-.4737.18-.6941-.0079-.4074.1414-.5877-.0039-.351.1279-.5343,0a.3647.3647,0,0,0-.2955-.04Z" fill="#0685ff"/><path d="M1.3529,3.7632s.2311.0932.3647,0,.3648,0,.3648,0a.42.42,0,0,0,.3647,0,.42.42,0,0,1,.3647,0,.4046.4046,0,0,0,.3647,0,.4046.4046,0,0,1,.3647,0,.4189.4189,0,0,0,.3647,0,.4189.4189,0,0,1,.3647,0" fill="none" stroke="#fff" stroke-linecap="round" stroke-miterlimit="10" stroke-width="0.1937"/><path d="M1.3529,4.2718s.2311.0932.3647,0,.3648,0,.3648,0a.42.42,0,0,0,.3647,0,.42.42,0,0,1,.3647,0,.4046.4046,0,0,0,.3647,0,.4046.4046,0,0,1,.3647,0,.4189.4189,0,0,0,.3647,0,.4189.4189,0,0,1,.3647,0" fill="none" stroke="#fff" stroke-linecap="round" stroke-miterlimit="10" stroke-width="0.1937"/><path d="M1.3529,4.78s.2311.0932.3647,0,.3648,0,.3648,0a.42.42,0,0,0,.3647,0,.42.42,0,0,1,.3647,0,.4046.4046,0,0,0,.3647,0,.4046.4046,0,0,1,.3647,0,.4189.4189,0,0,0,.3647,0,.4189.4189,0,0,1,.3647,0" fill="none" stroke="#fff" stroke-linecap="round" stroke-miterlimit="10" stroke-width="0.1937"/><path d="M1.3529,5.289s.2311.0932.3647,0,.3648,0,.3648,0a.42.42,0,0,0,.3647,0,.42.42,0,0,1,.3647,0,.4046.4046,0,0,0,.3647,0,.4046.4046,0,0,1,.3647,0,.4189.4189,0,0,0,.3647,0,.4189.4189,0,0,1,.3647,0" fill="none" stroke="#fff" stroke-linecap="round" stroke-miterlimit="10" stroke-width="0.1937"/><path d="M1.3529,5.7976s.2311.0932.3647,0,.3648,0,.3648,0a.42.42,0,0,0,.3647,0,.42.42,0,0,1,.3647,0,.4046.4046,0,0,0,.3647,0,.4046.4046,0,0,1,.3647,0,.4189.4189,0,0,0,.3647,0,.4189.4189,0,0,1,.3647,0" fill="none" stroke="#fff" stroke-linecap="round" stroke-miterlimit="10" stroke-width="0.1937"/><path d="M1.3529,6.3062s.2311.0932.3647,0,.3648,0,.3648,0a.42.42,0,0,0,.3647,0,.42.42,0,0,1,.3647,0,.4046.4046,0,0,0,.3647,0,.4046.4046,0,0,1,.3647,0,.4189.4189,0,0,0,.3647,0,.4189.4189,0,0,1,.3647,0" fill="none" stroke="#fff" stroke-linecap="round" stroke-miterlimit="10" stroke-width="0.1937"/></g><g id="icon-border"><g clip-path="url(#clip-path)"><g clip-path="url(#clip-path)"><path d="M5.0117,1.0283A3.9715,3.9715,0,1,1,1.0407,5a3.9774,3.9774,0,0,1,3.971-3.972m0-1A4.9715,4.9715,0,1,0,9.9837,5,4.9717,4.9717,0,0,0,5.0117.0283" fill="#d63e03"/></g></g></g></svg>