<svg id="icons" xmlns="http://www.w3.org/2000/svg" width="100" height="100" viewBox="0 0 100 100"><title>threats</title><polygon points="42.347 93.516 42.199 22.742 51.182 22.742 65.204 93.516 42.347 93.516"/><path d="M8.7388,26.89H40.6562V93.5158A36.1454,36.1454,0,0,1,22.3109,86.649C13.6533,80.1571,8.7388,69.983,8.7388,69.983S3.9655,62.5306,3.9655,48.4363,8.7388,26.89,8.7388,26.89Z" fill="#0685ff"/><path d="M66.6855,93.5158s7.9986-2.37,16.7378-10.6647A58.7621,58.7621,0,0,0,96.1617,64.9036s-4.5019,2.1066-7.3366,0-6.2836,2.3927-9.2069-.1041-5.4036,1.8754-7.7953-.052-4.6552,1.6963-7.0867,0a4.8353,4.8353,0,0,0-3.9193-.536Z" fill="#0685ff"/><path d="M6.7938,31.4891c1.7731-1.2364,4.8375,0,4.8375,0s2.9057,1.3469,4.8375,0,4.8375,0,4.8375,0,2.8361,1.3955,4.8375,0,4.8375,0,4.8375,0,2.9,1.3506,4.8375,0,4.8374,0,4.8374,0" fill="none" stroke="#fff" stroke-linecap="round" stroke-miterlimit="10" stroke-width="2.5693"/><path d="M4.4839,38.7785a3.7265,3.7265,0,0,0,2.31-.5433c1.7731-1.2364,4.8375,0,4.8375,0s2.9057,1.347,4.8375,0,4.8375,0,4.8375,0,2.8361,1.3955,4.8375,0,4.8375,0,4.8375,0,2.9,1.3506,4.8375,0,4.8374,0,4.8374,0" fill="none" stroke="#fff" stroke-linecap="round" stroke-miterlimit="10" stroke-width="2.5693"/><path d="M1.9564,44.9813s3.0644,1.2363,4.8374,0,4.8375,0,4.8375,0,2.9057,1.347,4.8375,0,4.8375,0,4.8375,0,2.8361,1.3955,4.8375,0,4.8375,0,4.8375,0,2.9,1.3506,4.8375,0,4.8374,0,4.8374,0" fill="none" stroke="#fff" stroke-linecap="round" stroke-miterlimit="10" stroke-width="2.5693"/><path d="M1.9564,51.7274s3.0644,1.2363,4.8374,0,4.8375,0,4.8375,0,2.9057,1.347,4.8375,0,4.8375,0,4.8375,0,2.8361,1.3955,4.8375,0,4.8375,0,4.8375,0,2.9,1.3506,4.8375,0,4.8374,0,4.8374,0" fill="none" stroke="#fff" stroke-linecap="round" stroke-miterlimit="10" stroke-width="2.5693"/><path d="M4.484,59.0168a3.7264,3.7264,0,0,0,2.31-.5433c1.7731-1.2363,4.8375,0,4.8375,0s2.9057,1.347,4.8375,0,4.8375,0,4.8375,0,2.8361,1.3955,4.8375,0,4.8375,0,4.8375,0,2.9,1.3506,4.8375,0,4.8374,0,4.8374,0" fill="none" stroke="#fff" stroke-linecap="round" stroke-miterlimit="10" stroke-width="2.5693"/><path d="M6.7938,65.22c1.7731-1.2363,4.8375,0,4.8375,0s2.9057,1.347,4.8375,0,4.8375,0,4.8375,0,2.8361,1.3955,4.8375,0,4.8375,0,4.8375,0,2.9,1.3507,4.8375,0,4.8374,0,4.8374,0" fill="none" stroke="#fff" stroke-linecap="round" stroke-miterlimit="10" stroke-width="2.5693"/></svg>