<svg xmlns="http://www.w3.org/2000/svg" width="100" height="100" viewBox="0 0 100 100"><title>_</title><g id="icons"><path d="M8.0007,58.8494C2.68,69.5513,8.5143,80.1543,22.1648,86.1013s79.3168-7.65,75.5434-28.6779S61.848,34.8019,47.3265,35.4392,12.6469,49.5061,8.0007,58.8494Z" fill="#97d35e"/><path d="M25.8192,56.3314c2.0875,7.7335,19.1043,6.304,36.4071,4.6882s35.62-10.7169,23.48-15.7442C71.81,37.8147,83.93,36.7675,63.5411,38.4732,46.7556,39.8775,27.11,42.9679,35.6318,45.5974S23.9519,49.4158,25.8192,56.3314Z" fill="#eadec1"/><path d="M32.7318,52.1293c1.7165,5.4729,15.7089,4.4613,29.9364,3.3177s32.2735-4.862,22.2916-8.42C65.4129,44.5581,86.8722,38.4236,73.206,38.4,59.3623,38.3752,33.7932,42.6722,40.8,44.5331S31.1964,47.2353,32.7318,52.1293Z" fill="#00b1e0"/><path d="M66.7793,26.7155l.1636,4.1408L67.65,48.7536l.4257,10.7783c.0728,1.8424.3218,3.7591.21,5.5992A10.5067,10.5067,0,0,0,69.5,69.7754a18.2739,18.2739,0,0,0,3.4478,5.2752,25.8218,25.8218,0,0,0,3.3252,2.92c.6193.4539,6.9842,1.9934,7.6481,2.3793.4036.2337-12.9364-.897-12.8372-.4817-2.7853.2821.9349,2.9628-1.8762,2.9624-2.7887,0-3.7-2.6434-6.449-2.6434-2.6957,0-3.7886,2.08-6.487,2.0509-1.5169.083-.07-1.8009-1.58-1.9678.1593-.4538-5.7047-.6521-5.3381-1.021.4092-.4114,2.887-1.2387,3.2294-1.7071A20.2626,20.2626,0,0,0,53.89,75.4226q2.1533-3.8685,3.9935-7.8765c1.1885-2.589,1.148-5.0918,1.2573-7.857l.8744-22.1419.4278-10.8317c0-2.6833.2535-4.8612,3.1681-4.8612S66.7793,24.0322,66.7793,26.7155Z" fill="#a8713f"/><g id="_9797b750-3db3-4496-bf5e-7a95c26ab4ae" data-name=" 9797b750-3db3-4496-bf5e-7a95c26ab4ae"><path d="M65.5,26.5291l4.8271-4.4441a.9063.9063,0,0,1,1.2067,0h0a.7424.7424,0,0,1,.0631,1.0479.75.75,0,0,1-.0631.063L66.7064,27.64a.9061.9061,0,0,1-1.2067,0h0a.7424.7424,0,0,1,0-1.1105Z" fill="#d06b00"/><path d="M56.7147,27.3563V21.0717a.8214.8214,0,0,1,.8532-.7859h0a.8215.8215,0,0,1,.8533.7859h0v6.285a.8215.8215,0,0,1-.8533.786h0a.8214.8214,0,0,1-.8532-.786Z" fill="#d06b00"/><path d="M60.9816,28.1419H54.1547a.8214.8214,0,0,1-.8534-.7859h0a.8215.8215,0,0,1,.8534-.786h6.8269a.8215.8215,0,0,1,.8533.786h0A.8215.8215,0,0,1,60.9816,28.1419Z" fill="#d06b00"/><ellipse cx="80.4675" cy="23.1571" rx="12.372" ry="8.6857" fill="#2a520a"/><ellipse cx="39.1116" cy="20.2851" rx="8.2811" ry="5.8137" fill="#2a520a"/><ellipse cx="47.3265" cy="14.4714" rx="8.2811" ry="5.8137" fill="#3a8000"/><ellipse cx="47.3265" cy="26.0988" rx="8.2811" ry="5.8137" fill="#3a8000"/><ellipse cx="78.6422" cy="14.5411" rx="8.2811" ry="5.8137" fill="#3a8000"/><ellipse cx="66.454" cy="8.7274" rx="8.2811" ry="5.8137" fill="#3a8000"/><ellipse cx="53.3013" cy="8.6577" rx="8.2811" ry="5.8137" fill="#3a8000"/><ellipse cx="85.7316" cy="21.8543" rx="8.5332" ry="5.3632" fill="#3a8000"/><ellipse cx="59.7647" cy="17.4131" rx="12.372" ry="8.6857" fill="#2a520a"/><ellipse cx="80.5172" cy="20.2851" rx="8.2811" ry="5.8137" fill="#2a520a"/><path d="M64.3945,31.2845h6.8266a.8215.8215,0,0,1,.8533.7859h0a.8215.8215,0,0,1-.8533.786H64.3945a.8217.8217,0,0,1-.8534-.786h0A.8214.8214,0,0,1,64.3945,31.2845Z" fill="#d06b00"/><path d="M70.9146,31.25l4.8271-4.4441a.9064.9064,0,0,1,1.2068,0h0a.7421.7421,0,0,1,.0631,1.0477.7226.7226,0,0,1-.0631.0631l-4.8271,4.4442a.9064.9064,0,0,1-1.2068,0h0a.743.743,0,0,1,0-1.1109Z" fill="#d06b00"/><path d="M72.0744,29.7132V23.4278a.8216.8216,0,0,1,.8533-.786h0a.8216.8216,0,0,1,.8533.786h0v6.285a.8216.8216,0,0,1-.8533.7859h0a.8216.8216,0,0,1-.8533-.7859Z" fill="#d06b00"/></g><path d="M72.55,80.8079c-1.53-.299-4.3336.513-4.9178-.5651-1.64-3.03,4.1573-8.3108,8.1712-7.5875s7.8042,8.8438,5.5493,10.8919c-.86.781-4.0609-.8418-4.8206-1.4273A9.7906,9.7906,0,0,0,72.55,80.8079Z" fill="#ea6421"/><path d="M74.6871,79.3844c3.4543,1.18,5.0081,2.5328,5.6591,3.4319s-.94.4026-2.3666-.3156a21.192,21.192,0,0,0-4.5091-1.7438,14.3462,14.3462,0,0,0-4.3659-.15c-.8539.1081-1.8392-.5269.07-1.1834A8.1922,8.1922,0,0,1,74.6871,79.3844Z" fill="#edcbab"/><path d="M73.0387,79.6211c.1007,1.468-.125,2.13-.767,5.5683a10.474,10.474,0,0,1-2.3355,5.0831l5.9547.4851s-1.2736-3.6635-.9531-5.192c.36-1.7193.9535-4.9583.9535-4.9583" fill="#edcbab"/><path d="M75.4389,80.6336a42.4738,42.4738,0,0,0-1.1021,4.6021,11.4024,11.4024,0,0,0,.4894,5.4352l-4.0347-.3287a21.698,21.698,0,0,0,2.1222-5.7113,34.1549,34.1549,0,0,0,.7395-4.5224.9594.9594,0,0,1,.9436-.1263A1.2745,1.2745,0,0,1,75.4389,80.6336Z" fill="#f7e7c9"/><path d="M68.3944,85.9639a7.9914,7.9914,0,0,0,.4125,2.5068A4.4907,4.4907,0,0,0,70.063,90.759l-3.2026.2184A5.8686,5.8686,0,0,0,67.373,88.64c-.1938-.7739-.5128-2.2321-.5128-2.2321" fill="#edcbab"/><path d="M67.1035,86.42a16.6161,16.6161,0,0,1,.5928,2.0718,4.348,4.348,0,0,1-.2633,2.4468l2.17-.148a8.8883,8.8883,0,0,1-1.1413-2.5711,13.0732,13.0732,0,0,1-.3977-2.0358.5922.5922,0,0,0-.5075-.0569A.6619.6619,0,0,0,67.1035,86.42Z" fill="#f7e7c9"/><path d="M69.7532,86.08c.522-1.1056-1.3231-3.0328-2.6006-2.7689s-2.4837,3.2274-1.7661,3.9748c.2737.285,1.2473.2367,2.3042-.1151S69.5673,86.4735,69.7532,86.08Z" fill="#ea6421"/><path d="M60.0286,90.952A13.0634,13.0634,0,0,1,53.63,90.79c-2.5677-1.03-7.0215-7.6451-13.3486-8.7016a38.9163,38.9163,0,0,0-13.6247.7882s6.35,9.1974,10.9068,9.952c6.02.9958,11.8991-.8272,16.2282-.7872s6.4437.0969,6.4437.0969Z" fill="#16b516"/><path d="M28.8715,84.3211a41.4475,41.4475,0,0,0,11.7921,5C45.1448,90.3553,51.08,91.0843,51.08,91.0843s-8.7256-2.031-10.9348-2.4829A56.9379,56.9379,0,0,1,28.8715,84.3211Z" fill="#007830"/><path d="M21.0971,67.3462s1.07-8.6546,1.2608-17.8a133.3153,133.3153,0,0,0-.63-16.2558,82.4625,82.4625,0,0,1,1.9661,17.0278A75.6447,75.6447,0,0,1,21.0971,67.3462Z" fill="#7bad45"/><path d="M16.91,68.8321s1.07-8.6545,1.2607-17.8a133.3314,133.3314,0,0,0-.63-16.2559,82.4664,82.4664,0,0,1,1.966,17.0279A75.6474,75.6474,0,0,1,16.91,68.8321Z" fill="#7bad45"/><path d="M13.18,72.1613s1.07-8.6545,1.2607-17.8a133.307,133.307,0,0,0-.63-16.2559,82.4664,82.4664,0,0,1,1.966,17.0279A75.6474,75.6474,0,0,1,13.18,72.1613Z" fill="#7bad45"/><path d="M8.8866,74.1252s1.07-8.6545,1.2608-17.8A133.3153,133.3153,0,0,0,9.517,40.07a82.4625,82.4625,0,0,1,1.9661,17.0278A75.65,75.65,0,0,1,8.8866,74.1252Z" fill="#7bad45"/><path d="M18.0926,62.1634s.8045-7.5166.9479-15.4594a133.6058,133.6058,0,0,0-.4739-14.1185,82.18,82.18,0,0,1,1.4782,14.789A75.07,75.07,0,0,1,18.0926,62.1634Z" fill="#719e38"/><path d="M14.9444,63.454s.8044-7.5166.9479-15.4595a133.6047,133.6047,0,0,0-.4739-14.1184A82.1781,82.1781,0,0,1,16.8966,48.665,75.0714,75.0714,0,0,1,14.9444,63.454Z" fill="#719e38"/><path d="M12.14,66.3455s.8044-7.5167.9479-15.4595a133.5894,133.5894,0,0,0-.474-14.1185,82.1694,82.1694,0,0,1,1.4782,14.789A75.0668,75.0668,0,0,1,12.14,66.3455Z" fill="#719e38"/><path d="M8.912,68.0512s.8045-7.5167.9479-15.4595A133.6076,133.6076,0,0,0,9.386,38.4732a82.18,82.18,0,0,1,1.4782,14.789A75.0629,75.0629,0,0,1,8.912,68.0512Z" fill="#719e38"/></g></svg>