<svg xmlns="http://www.w3.org/2000/svg" width="10" height="10" viewBox="0 0 10 10"><title>Mapeo DEFAULT v2 icon-library-nature</title><g id="icons"><path d="M1.6562,5.7031c-.4225.85.0408,1.6922,1.125,2.1645s6.3-.6076,6-2.2777S5.9331,3.7931,4.78,3.8438A4.594,4.594,0,0,0,1.6562,5.7031Z" fill="#97d35e"/><path d="M3.0715,5.5031c.1658.6143,1.5174.5007,2.8917.3724s2.8291-.8512,1.8649-1.25c-1.1038-.5926-.1411-.6757-1.7605-.54-1.3332.1116-2.8936.357-2.2167.5659S2.9232,4.9539,3.0715,5.5031Z" fill="#eadec1"/><path d="M3.6205,5.1694c.1364.4347,1.2477.3543,2.3778.2635s2.5633-.3862,1.77-.6688c-1.5525-.1961.1519-.6833-.9336-.6852-1.1-.002-3.13.3393-2.5738.4871S3.4986,4.7807,3.6205,5.1694Z" fill="#00b1e0"/><path d="M6.3248,3.1509l.013.3289.0561,1.4215.0338.856c.0058.1464.0256.2986.0167.4448a.8333.8333,0,0,0,.0965.3688,1.4508,1.4508,0,0,0,.2738.419,2.05,2.05,0,0,0,.2641.2319c.0492.0361.5547.1584.6075.189.032.0186-1.0275-.0712-1.02-.0383-.2213.0225.0742.2354-.1491.2353-.2214,0-.2939-.21-.5122-.21-.2141,0-.3009.1652-.5152.1629-.12.0066-.0056-.1431-.1255-.1563.0127-.0361-.4531-.0518-.424-.0811.0325-.0327.2293-.0984.2565-.1356A1.6046,1.6046,0,0,0,5.301,7.02q.1711-.3073.3172-.6256a1.55,1.55,0,0,0,.1-.6241l.0694-1.7586.034-.86c0-.2132.02-.3861.2516-.3861S6.3248,2.9377,6.3248,3.1509Z" fill="#a8713f"/><g id="_9797b750-3db3-4496-bf5e-7a95c26ab4ae" data-name=" 9797b750-3db3-4496-bf5e-7a95c26ab4ae"><path d="M6.2232,3.1361l.3834-.353a.0718.0718,0,0,1,.0958,0h0a.0589.0589,0,0,1,.005.0832l-.005.005-.3834.353a.0721.0721,0,0,1-.0958,0h0a.059.059,0,0,1-.005-.0833Z" fill="#d06b00"/><path d="M5.5254,3.2018V2.7026A.0652.0652,0,0,1,5.5932,2.64h0a.0652.0652,0,0,1,.0677.0624h0v.4992a.0652.0652,0,0,1-.0677.0624h0a.0652.0652,0,0,1-.0678-.0624Z" fill="#d06b00"/><path d="M5.8643,3.2642H5.3221a.0652.0652,0,0,1-.0678-.0625h0a.0652.0652,0,0,1,.0678-.0624h.5422a.0653.0653,0,0,1,.0678.0624h0A.0653.0653,0,0,1,5.8643,3.2642Z" fill="#d06b00"/><ellipse cx="7.412" cy="2.8682" rx="0.9827" ry="0.6899" fill="#2a520a"/><ellipse cx="4.1273" cy="2.6401" rx="0.6577" ry="0.4618" fill="#2a520a"/><ellipse cx="4.7797" cy="2.1784" rx="0.6577" ry="0.4618" fill="#3a8000"/><ellipse cx="4.7797" cy="3.1019" rx="0.6577" ry="0.4618" fill="#3a8000"/><ellipse cx="7.4159" cy="2.1784" rx="0.6577" ry="0.4618" fill="#3a8000"/><ellipse cx="6.4628" cy="1.9071" rx="0.6577" ry="0.4618" fill="#3a8000"/><ellipse cx="5.2543" cy="1.7166" rx="0.6577" ry="0.4618" fill="#3a8000"/><ellipse cx="8.1036" cy="2.8166" rx="0.6778" ry="0.426" fill="#3a8000"/><ellipse cx="5.7677" cy="2.412" rx="0.9827" ry="0.6899" fill="#2a520a"/><ellipse cx="7.4159" cy="2.6401" rx="0.6577" ry="0.4618" fill="#2a520a"/><path d="M6.1354,3.5138h.5422a.0653.0653,0,0,1,.0678.0624h0a.0654.0654,0,0,1-.0678.0624H6.1354a.0652.0652,0,0,1-.0678-.0624h0A.0651.0651,0,0,1,6.1354,3.5138Z" fill="#d06b00"/><path d="M6.6532,3.511l.3834-.353a.0722.0722,0,0,1,.0959,0h0a.059.059,0,0,1,.005.0833l-.005.005-.3834.3529a.072.072,0,0,1-.0959,0h0a.0589.0589,0,0,1-.0049-.0832Z" fill="#d06b00"/><path d="M6.7454,3.389V2.89a.0652.0652,0,0,1,.0677-.0624h0a.0652.0652,0,0,1,.0678.0624h0v.4992a.0651.0651,0,0,1-.0678.0624h0a.0651.0651,0,0,1-.0677-.0624Z" fill="#d06b00"/></g><path d="M6.7831,7.4472c-.1215-.0237-.3442.0408-.3906-.0449-.13-.2406.33-.66.649-.6026s.62.7024.4408.8651c-.0683.062-.3226-.0669-.3829-.1134A.7773.7773,0,0,0,6.7831,7.4472Z" fill="#ea6421"/><path d="M6.9529,7.3341a.8987.8987,0,0,1,.45.2726c.0517.0714-.0747.032-.188-.025a1.6834,1.6834,0,0,0-.3581-.1385A1.14,1.14,0,0,0,6.51,7.4313c-.0678.0086-.1461-.0419.0055-.094A.6508.6508,0,0,1,6.9529,7.3341Z" fill="#edcbab"/><path d="M6.822,7.3529a1.6663,1.6663,0,0,1-.061.4423.832.832,0,0,1-.1855.4037l.473.0386a1.2039,1.2039,0,0,1-.0757-.4124c.0286-.1366.0757-.3938.0757-.3938" fill="#edcbab"/><path d="M7.0126,7.4334a3.3693,3.3693,0,0,0-.0875.3655.9057.9057,0,0,0,.0388.4317l-.32-.0261a1.7225,1.7225,0,0,0,.1685-.4537,2.7156,2.7156,0,0,0,.0588-.3591.0761.0761,0,0,1,.0749-.01A.1015.1015,0,0,1,7.0126,7.4334Z" fill="#f7e7c9"/><path d="M6.4531,7.8567a.6347.6347,0,0,0,.0327.1991.3572.3572,0,0,0,.1.1818l-.2544.0173a.4674.4674,0,0,0,.0408-.1856c-.0154-.0615-.0408-.1773-.0408-.1773" fill="#edcbab"/><path d="M6.3505,7.8929a1.3044,1.3044,0,0,1,.0471.1646.3444.3444,0,0,1-.0209.1943L6.5491,8.24a.706.706,0,0,1-.0907-.2042,1.0519,1.0519,0,0,1-.0316-.1617.047.047,0,0,0-.04-.0046A.053.053,0,0,0,6.3505,7.8929Z" fill="#f7e7c9"/><path d="M6.561,7.8659c.0415-.0878-.1051-.2408-.2066-.22s-.1972.2564-.14.3157c.0217.0227.099.0188.183-.0091S6.5462,7.8972,6.561,7.8659Z" fill="#ea6421"/><path d="M5.7886,8.2529A1.0374,1.0374,0,0,1,5.28,8.24c-.2039-.0818-.5577-.6072-1.06-.6911a3.0934,3.0934,0,0,0-1.0822.0626s.5044.7305.8663.79a6.7206,6.7206,0,0,0,1.289-.0626c.3438.0032.5118.0077.5118.0077Z" fill="#16b516"/><path d="M3.3139,7.7262a3.2917,3.2917,0,0,0,.9366.3972c.356.0821.8273.14.8273.14s-.693-.1613-.8685-.1972A4.5234,4.5234,0,0,1,3.3139,7.7262Z" fill="#007830"/><path d="M2.6964,6.378s.085-.6874.1-1.4138a10.5967,10.5967,0,0,0-.05-1.2911,6.5538,6.5538,0,0,1,.1562,1.3524A6.0074,6.0074,0,0,1,2.6964,6.378Z" fill="#7bad45"/><path d="M2.3639,6.496s.085-.6874.1-1.4138a10.5739,10.5739,0,0,0-.05-1.2911A6.5464,6.5464,0,0,1,2.57,5.1436,6.01,6.01,0,0,1,2.3639,6.496Z" fill="#7bad45"/><path d="M2.0676,6.76s.085-.6874.1-1.4137a10.5884,10.5884,0,0,0-.05-1.2912A6.5511,6.5511,0,0,1,2.2738,5.408,6.0037,6.0037,0,0,1,2.0676,6.76Z" fill="#7bad45"/><path d="M1.7266,6.9164s.085-.6874.1-1.4137a10.5992,10.5992,0,0,0-.05-1.2912A6.55,6.55,0,0,1,1.9328,5.564,6.0037,6.0037,0,0,1,1.7266,6.9164Z" fill="#7bad45"/><path d="M2.4578,5.9663s.0639-.597.0753-1.2278a10.6185,10.6185,0,0,0-.0376-1.1214,6.5272,6.5272,0,0,1,.1174,1.1746A5.9594,5.9594,0,0,1,2.4578,5.9663Z" fill="#719e38"/><path d="M2.2078,6.0689s.0639-.5971.0752-1.2279A10.6185,10.6185,0,0,0,2.2454,3.72a6.5272,6.5272,0,0,1,.1174,1.1746A5.965,5.965,0,0,1,2.2078,6.0689Z" fill="#719e38"/><path d="M1.985,6.2985s.0639-.597.0753-1.2279a10.6174,10.6174,0,0,0-.0376-1.1213A6.5258,6.5258,0,0,1,2.14,5.1239,5.9609,5.9609,0,0,1,1.985,6.2985Z" fill="#719e38"/><path d="M1.7286,6.434s.0639-.597.0753-1.2279a10.6185,10.6185,0,0,0-.0376-1.1214,6.5276,6.5276,0,0,1,.1174,1.1747A5.9609,5.9609,0,0,1,1.7286,6.434Z" fill="#719e38"/></g><g id="icon-border"><path d="M5,1.029A3.971,3.971,0,1,1,1.0285,5,3.9765,3.9765,0,0,1,5,1.029m0-1A4.971,4.971,0,1,0,9.9715,5,4.9709,4.9709,0,0,0,5,.029" fill="#2d9905"/></g></svg>