<?xml version="1.0" encoding="utf-8"?>
<!-- Generator: Adobe Illustrator 21.0.0, SVG Export Plug-In . SVG Version: 6.00 Build 0)  -->
<svg version="1.1" id="fishing" xmlns="http://www.w3.org/2000/svg" xmlns:xlink="http://www.w3.org/1999/xlink" x="0px" y="0px"
	 viewBox="0 0 9 4.7" style="enable-background:new 0 0 9 4.7;" xml:space="preserve">
<style type="text/css">
	.st0{fill:#161938;}
	.st1{fill:#508393;}
</style>
<title>fishing</title>
<path class="st0" d="M2.2,3.1H1.7C1.3,3.1,1,2.8,1,2.4v0C1,2,1.3,1.7,1.7,1.7h0.5C2.6,1.7,3,2,3,2.4v0C3,2.8,2.6,3.1,2.2,3.1z"/>
<path class="st1" d="M6.4,3.7c0-0.3,0-0.6,0.1-0.8c0.2-0.4,2,0.8,2,0.8c0.5,0.2,0.5-3.7,0-3.4c0,0-1.9,1.3-2,0.8s0-0.9-0.4-1
	C6.1,0,6,0,5.8,0C3.6,0,0,0.8,0,2.9C0,4,2.8,4.7,4.1,4.7C5.8,4.7,6.4,4.2,6.4,3.7z M1.8,2.9c-0.3,0-0.5-0.2-0.5-0.5c0,0,0,0,0-0.1
	c0-0.3,0.2-0.5,0.5-0.6c0,0,0,0,0.1,0c0.3,0,0.5,0.2,0.5,0.5c0,0,0,0,0,0.1C2.3,2.7,2.1,2.9,1.8,2.9z"/>
</svg>
