<svg id="icons" xmlns="http://www.w3.org/2000/svg" width="100" height="100" viewBox="0 0 100 100"><title>nature-use</title><path d="M59.8944,1.2735c-.2308,3.668-.3789,15.01-7.1925,14.8615S42.77,12.371,42.1771,10.17,39.62,11.3151,39.62,11.3151l.78-6.4574L46.777,7.2971s-3.4561-.6419-3.0611,1.53c.459,2.524,4.905,6.1086,9.381,5.47,4.0986-.5843,5.283-9.9629,4.5918-13.9129C57.201-2.4022,59.8944,1.2735,59.8944,1.2735Z" fill="#a4a5a5"/><path d="M28.0182,91.9764C27.9,92.6323,29.23,88.61,29.29,88.5171c2.5159-3.8729,5.1435-8.2948,9.5576-6.36,5.2074,2.2828,6.4857,10.6632,5.8775,12.2083s3.2368-7.919,2.78-11.8723c-.3912-3.384-3.916-10.87-3.1906-16.3612.2678-2.0264,2.4028-3.6224,3.1906-6.4882,1.56-5.6759,4.8934-9.9951,5.9515-12.2913,1.6771-3.6394,4.5317,1.41,4.5317,1.41a50.476,50.476,0,0,0-3.0151-17.6185c-3.3066-8.458-5.5567-12.2632-6.0764-14.7155-.2691-1.27-.2776-1.5852-.5855-2.03-.0924-.1333-2.4323,2.0888-2.5216,2.007s1.764-2.9121,1.6807-2.9529a.73.73,0,0,0-.7807.0724c-5.1,3.3163-4.2688,4.5678-6.8565,10.903-2.36,5.7779-2.9138,7.8623-4.8978,11.6078s-6.2287,11.3478-6.9171,15.6762,5.6069-7.88,6.1315-5.4481-.7005,6.21.0864,8.8754,4.95,8.1945,3.7524,11.85-4.2768,6.1527-5.7793,9.8135A118.9457,118.9457,0,0,0,28.0182,91.9764Z" fill="#ff7a5f"/><path d="M56.8275,12.082c1.7165-.5722,2.2785.7487,5.5736,6.0961s2.0554,6.6825,3.6766,10.6877,3.36,6.0914,4.6839,11.1516,2.3653,10.3475,1.3712,9.7924S66.703,43.5,66.84,45.11s1.0428,5.5717.73,9.0534-2.8279,9.2159-2.6837,13.038,2.8371,4.497,6.0675,13.2153,1.4443,12.7378,1.5744,14.018c-1.1624-4.8316-5.9588-13.2724-11.1632-12.6238s-7.401,4.483-8.7345,8.5736a65.0334,65.0334,0,0,1,.3831-9.5462c.3814-2.3841,4.9589-11.0621,4.2913-13.3508s-3.8384-6.9944-4.51-11.2729-.6381-10.47-2.4983-12.6632-2.4329.3815-4.5307,2.48,1.24-5.34,2.1937-7.4383,2.0026-2.9563,3.2423-5.8172,1.43-10.3953,2.3841-12.97,1.3351-5.7337,1.8119-6.3474a2.2433,2.2433,0,0,1,.2681-.3162c.1093-.11,2.4839,1.8056,2.5928,1.7051.125-.1154-1.8605-2.4027-1.7575-2.4917C56.6934,12.1893,56.8275,12.082,56.8275,12.082Z" fill="#0073b8"/></svg>