<svg xmlns="http://www.w3.org/2000/svg" width="10" height="10" viewBox="0 0 10 10"><title>Mapeo DEFAULT v2 icon-library-nature-use</title><g id="icons"><path d="M5.7948,1.0667c-.0183.2913-.03,1.1921-.5713,1.18a.8218.8218,0,0,1-.8359-.4738c-.0471-.1749-.2032.0909-.2032.0909l.062-.5129.5065.1938s-.2745-.051-.2431.1215a.7186.7186,0,0,0,.7451.4345c.3255-.0464.42-.7913.3647-1.105C5.5809.7747,5.7948,1.0667,5.7948,1.0667Z" fill="#a4a5a5"/><path d="M3.263,8.2708c-.0094.0521.0962-.2673.101-.2747.2-.3076.4085-.6588.7591-.5051a1.0348,1.0348,0,0,1,.4669.97,3.1879,3.1879,0,0,0,.2208-.943,4.8942,4.8942,0,0,1-.2535-1.2995c.0213-.1609.1909-.2877.2535-.5153a4.6908,4.6908,0,0,1,.4727-.9762c.1332-.2891.36.112.36.112a4.0077,4.0077,0,0,0-.2395-1.3994c-.2626-.6718-.4413-.974-.4826-1.1688C4.9,2.17,4.8992,2.1445,4.8748,2.1092c-.0073-.0106-.1932.1659-.2.1594s.14-.2313.1335-.2345a.058.058,0,0,0-.062.0057c-.4051.2634-.3391.3628-.5446.866a9.3306,9.3306,0,0,1-.389.922A5.4927,5.4927,0,0,0,3.263,5.0729c-.0547.3438.4453-.6259.487-.4327s-.0556.4932.0069.7049.3931.6509.298.9412-.34.4887-.459.7794A9.432,9.432,0,0,0,3.263,8.2708Z" fill="#ff7a5f"/><path d="M5.5512,1.9251c.1363-.0454.181.0595.4427.4842s.1633.5308.292.8489a5.6592,5.6592,0,0,1,.372.8857c.1052.4019.1879.8219.1089.7778s-.4312-.5011-.42-.3733a3.5687,3.5687,0,0,1,.058.7191,9.0951,9.0951,0,0,0-.2132,1.0356c.0115.3036.2254.3572.482,1.05a1.9916,1.9916,0,0,1,.125,1.1134c-.0923-.3837-.4733-1.0542-.8866-1.0026a.844.844,0,0,0-.6938.6809,5.1665,5.1665,0,0,1,.03-.7582c.03-.1894.3939-.8786.3409-1.06A5.2539,5.2539,0,0,1,5.2308,5.43a2.8,2.8,0,0,0-.1984-1.0057c-.1477-.1743-.1932.03-.36.1969s.0985-.4242.1742-.5908.1591-.2348.2575-.462.1136-.8257.1894-1.03.106-.4554.1439-.5041a.1791.1791,0,0,1,.0213-.0251c.0087-.0088.1973.1434.2059.1354s-.1477-.1908-.14-.1979Z" fill="#0073b8"/></g><g id="icon-border"><path d="M5,1.0288A3.971,3.971,0,1,1,1.0285,5,3.9765,3.9765,0,0,1,5,1.0288m0-1A4.971,4.971,0,1,0,9.9715,5,4.9709,4.9709,0,0,0,5,.0288" fill="#0dbcb7"/></g></svg>