<svg xmlns="http://www.w3.org/2000/svg" width="10" height="10" viewBox="0 0 10 10"><title>Mapeo DEFAULT v2 icon-library-nature</title><g id="icons"><path d="M4.8472,4.9657c.5172-.0892,1.4649.153,1.6624-.1685.5544-.9036-1.4053-2.4786-2.7622-2.2629S1.1094,5.1719,1.8716,5.7827c.2907.2329,1.3727-.2511,1.63-.4257A3.6233,3.6233,0,0,1,4.8472,4.9657Z" fill="#ea6421"/><path d="M4.1247,4.5412A3.9035,3.9035,0,0,0,2.2118,5.5647c-.22.2682.3176.12.8-.0941a7.7619,7.7619,0,0,1,1.5242-.52,5.4854,5.4854,0,0,1,1.4758-.0446c.2886.0322.6217-.1571-.0236-.353A3.1182,3.1182,0,0,0,4.1247,4.5412Z" fill="#edcbab"/><path d="M4.6819,4.6118a5.5615,5.5615,0,0,0,.2593,1.6606,3.0073,3.0073,0,0,0,.7895,1.516l-2.0129.1447A4.0631,4.0631,0,0,0,4.04,6.3847c-.1218-.5128-.3224-1.4788-.3224-1.4788" fill="#edcbab"/><path d="M3.8706,4.9137a11.4555,11.4555,0,0,1,.3725,1.3726,3.0236,3.0236,0,0,1-.1654,1.621l1.3638-.0981a6.0413,6.0413,0,0,1-.7173-1.7033,9.0866,9.0866,0,0,1-.25-1.3488.357.357,0,0,0-.319-.0376A.4185.4185,0,0,0,3.8706,4.9137Z" fill="#f7e7c9"/><path d="M6.2518,6.5035a2.1271,2.1271,0,0,1-.1394.7476,1.3212,1.3212,0,0,1-.4246.6824L6.77,7.9987a1.5822,1.5822,0,0,1-.1733-.6971c.0655-.2309.1733-.6657.1733-.6657" fill="#edcbab"/><path d="M6.6882,6.6394a4.5181,4.5181,0,0,0-.2.6179,1.1567,1.1567,0,0,0,.089.73l-.7335-.0441a2.522,2.522,0,0,0,.3858-.7668,3.4921,3.4921,0,0,0,.1345-.6072.2866.2866,0,0,1,.3246.0705Z" fill="#f7e7c9"/><path d="M5.7925,6.5381c-.1764-.33.4473-.9045.8791-.8258s.84.9625.597,1.1854A1.0976,1.0976,0,0,1,6.49,6.8634C6.1324,6.7585,5.8554,6.6554,5.7925,6.5381Z" fill="#ea6421"/></g><g id="icon-border"><path d="M5,1.029A3.971,3.971,0,1,1,1.0285,5,3.9765,3.9765,0,0,1,5,1.029m0-1A4.971,4.971,0,1,0,9.9715,5,4.9709,4.9709,0,0,0,5,.029" fill="#2d9905"/></g></svg>