<svg xmlns="http://www.w3.org/2000/svg" width="10" height="10" viewBox="0 0 10 10"><title>Mapeo DEFAULT v2 icon-library-nature</title><g id="icon-border"><path d="M4.9914.0284A4.9713,4.9713,0,1,0,9.9627,5,4.9714,4.9714,0,0,0,4.9914.0284Z" fill="#2d9905"/><path d="M4.9914,1.0284A3.9713,3.9713,0,1,1,1.02,5,3.9758,3.9758,0,0,1,4.9914,1.0284" fill="#fff"/></g><g id="icons"><path d="M5.1576,4.4118c.5927-.1021,1.6785.1754,1.9047-.1931.6353-1.0352-1.61-2.84-3.1648-2.5928S.8748,4.6481,1.7482,5.348C2.0813,5.6148,3.321,5.06,3.6153,4.86A4.1533,4.1533,0,0,1,5.1576,4.4118Z" fill="#ea6421"/><path d="M4.33,3.9254A4.4712,4.4712,0,0,0,2.138,5.0982c-.2522.3072.3639.1375.9166-.1079A8.9022,8.9022,0,0,1,4.801,4.3944a6.2874,6.2874,0,0,1,1.691-.0511c.3307.037.7123-.18-.027-.4044A3.5729,3.5729,0,0,0,4.33,3.9254Z" fill="#edcbab"/><path d="M4.9683,4.0063a6.3648,6.3648,0,0,0,.297,1.9028A3.4465,3.4465,0,0,0,6.17,7.6461l-2.3063.1658a4.6556,4.6556,0,0,0,.3691-1.7742c-.14-.5875-.3693-1.6944-.3693-1.6944" fill="#e0b794"/><path d="M4.0386,4.3523a13.1217,13.1217,0,0,1,.4269,1.5726,3.4654,3.4654,0,0,1-.19,1.8574L5.8386,7.67a6.9206,6.9206,0,0,1-.822-1.9516A10.4148,10.4148,0,0,1,4.73,4.1728.4093.4093,0,0,0,4.3648,4.13.48.48,0,0,0,4.0386,4.3523Z" fill="#f7e7c9"/><path d="M6.7671,6.1738a2.44,2.44,0,0,1-.16.8566,1.5145,1.5145,0,0,1-.4865.782l1.24.0746a1.814,1.814,0,0,1-.1986-.7987c.0751-.2645.1987-.7628.1987-.7628" fill="#edcbab"/><path d="M7.267,6.33a5.18,5.18,0,0,0-.23.708,1.3263,1.3263,0,0,0,.102.8362l-.84-.0506a2.89,2.89,0,0,0,.442-.8786,4.01,4.01,0,0,0,.1541-.6957A.3284.3284,0,0,1,7.267,6.33Z" fill="#f7e7c9"/><path d="M6.2408,6.2135c-.2022-.3778.5124-1.0364,1.0072-.9462S8.21,6.37,7.932,6.6255A1.2574,1.2574,0,0,1,7.04,6.5862C6.63,6.466,6.3128,6.3479,6.2408,6.2135Z" fill="#ea6421"/></g></svg>