<svg xmlns="http://www.w3.org/2000/svg" width="100" height="100" viewBox="0 0 100 100"><title>_</title><g id="icons"><path d="M52.0842,42.5982c7.4617-1.2865,21.1323,2.2073,23.981-2.4314,7.998-13.0342-20.2725-35.7562-39.846-32.6443S-1.8375,45.5723,9.1586,54.3841c4.193,3.36,19.8025-3.6219,23.507-6.1408C39.7776,44.9842,44.2936,43.3123,52.0842,42.5982Z" fill="#ea6421"/><path d="M41.6616,36.4739C24.8171,41.5506,17.24,47.3709,14.0655,51.2393s4.5824,1.7319,11.5408-1.3577a112.018,112.018,0,0,1,21.988-7.5028c7.4676-1.5274,17.1261-1.1091,21.29-.6437s8.9687-2.2667-.34-5.0915A44.987,44.987,0,0,0,41.6616,36.4739Z" fill="#edcbab"/><path d="M49.7,37.4922c-.4912,6.3158.6092,9.1647,3.74,23.9569,3.02,14.2694,11.3893,21.87,11.3893,21.87L35.7917,85.4061s6.21-15.762,4.6476-22.3383c-1.7575-7.397-4.65-21.3327-4.65-21.3327" fill="#e0b794"/><path d="M37.9956,41.8483a165.241,165.241,0,0,1,5.3744,19.8c1.7085,9.1648-.0311,16.5978-2.3868,23.3843l19.675-1.4143s-8.0669-12.8618-10.349-24.5723c-1.771-9.0882-3.4316-13.6082-3.6057-19.4572,0,0-1.4572-1.3093-4.6017-.5434A6.04,6.04,0,0,0,37.9956,41.8483Z" fill="#f7e7c9"/><path d="M72.3475,64.7817c.2641,2.8432-.3277,4.1258-2.0114,10.7849a19.0648,19.0648,0,0,1-6.1253,9.8452l15.6167.94s-3.34-7.0957-2.4995-10.0562c.9451-3.33,2.5008-9.6035,2.5008-9.6035" fill="#edcbab"/><path d="M78.6422,66.7427a65.1919,65.1919,0,0,0-2.89,8.9137,16.6871,16.6871,0,0,0,1.2836,10.5271L66.454,85.5468s4.3385-5.79,5.5658-11.0619c.9525-4.0913,1.8456-6.1261,1.9392-8.7592a4.1382,4.1382,0,0,1,4.6832,1.017Z" fill="#f7e7c9"/><path d="M65.7214,65.281c-2.5454-4.7566,6.4519-13.0485,12.6813-11.9129s12.1118,13.8856,8.6122,17.1012c-1.3345,1.2262-6.0819,1.0181-11.236-.4952S66.6281,66.9738,65.7214,65.281Z" fill="#ea6421"/></g></svg>