<?xml version="1.0" encoding="utf-8"?>
<!-- Generator: Adobe Illustrator 21.0.0, SVG Export Plug-In . SVG Version: 6.00 Build 0)  -->
<svg version="1.1" id="gathering" xmlns="http://www.w3.org/2000/svg" xmlns:xlink="http://www.w3.org/1999/xlink" x="0px" y="0px"
	 viewBox="0 0 9.4 11" style="enable-background:new 0 0 9.4 11;" xml:space="preserve">
<style type="text/css">
	.st0{fill:#8E5C25;}
</style>
<title>gathering</title>
<path class="st0" d="M2.3,3.4c-0.1,0.2-0.1,0.5,0,0.7l0.9,2.1l-1.3,3.9c-0.1,0.3,0,0.7,0.4,0.8C2.3,11,2.4,11,2.5,11
	c0.3,0,0.5-0.1,0.6-0.5l1.4-4l0.1,0.3v3.5c0,0.4,0.3,0.7,0.7,0.7C5.7,11,6,10.7,6,10.3V7c0-0.2,0-0.3-0.1-0.5L5.1,4.6
	C4.9,4,4.7,3.5,4.4,3C4.2,2.8,4,2.6,3.8,2.5C3.4,2.3,3.2,2.6,2.9,2.8S2.2,3.1,2,3.4C1.9,3.7,1.8,4,1.7,4.4L1.6,5.2
	C1.5,5.4,1.5,5.7,1.5,6c0,0.1,0,0.3,0.1,0.4c0.1,0.1,0.3,0.1,0.5,0.1C2.2,6.3,2.4,6.2,2.4,6c0.2-0.3,0.2-0.6,0.3-0.9"/>
<path class="st0" d="M1.5,0C0.7,0,0,0.7,0,1.5C0,2.3,0.7,3,1.5,3C2.3,3,3,2.3,3,1.5C3,0.7,2.3,0,1.5,0z"/>
<path class="st0" d="M8.3,5C7.7,5.3,7,5.4,6.4,5.3c-0.1,0-0.1,0-0.2-0.1C6.1,5.2,6.1,5.1,6.1,5C5.9,4.1,5.5,3.3,5,2.5
	C4.8,2.3,4.6,2.1,4.5,1.8C4.3,1.4,5,1,5.3,0.8l0.6-0.3c0.2-0.1,0.4-0.2,0.6-0.3c0.4-0.2,0.9-0.2,1.3,0C8.2,0.4,8.4,0.7,8.6,1
	l0.7,1.6c0.3,0.7,0.2,1.6-0.4,2.1C8.7,4.8,8.5,5,8.3,5z"/>
</svg>
