<svg id="icons" xmlns="http://www.w3.org/2000/svg" width="100" height="100" viewBox="0 0 100 100"><title>nature-use</title><path d="M33.3088,96.4935s.06-20.5,1.2451-23.4529,3.5228-4.8374,5.0362-8.9173,6.4886-25.5313,7.7618-30.3065.6487-7.85-1.27-8.0236a2.2073,2.2073,0,0,0-2.0679.9389s.3445-1.8861.76-3.9788c.475-2.39.9257-5.055-.9746-5.58-1.6222-.448-3.16.0973-3.4768,1.5785.51-2.9061,1.5189-7.1992-.5658-7.75-2.6178-.6912-4.3856,2.6134-5.3172,5.8512,0,0,.2878-3.5979-1.889-3.95-1.6762-.2714-2.7706.5182-3.6256,3.8512-1.1959,4.6619-6.8064,23.4686-6.8064,23.4686s-2.1288,5.4039-3.02,5.9409-.9-3.55-.3621-5.6177a12.5,12.5,0,0,0-.6983-7.4244c-.69-1.9506-2.39-4.2666-3.1482-3.5334S13.7664,37.62,13.4168,40.4726s-1.6206,9.1681-1.79,11.7216,4.0482,12.5214,4.8321,15.3906-.7054,14.4342-2.1231,18.12C16.653,91.0957,24.83,93.5663,24.83,93.5663Z" fill="#c98943"/><line x1="34.4399" y1="16.8535" x2="28.5048" y2="39.6318" fill="none" stroke="#925c3f" stroke-miterlimit="10" stroke-width="0.6295"/><line x1="40.5586" y1="17.8472" x2="34.4422" y2="41.321" fill="none" stroke="#925c3f" stroke-miterlimit="10" stroke-width="0.6295"/><line x1="44.0139" y1="26.7321" x2="39.0725" y2="47.0579" fill="none" stroke="#925c3f" stroke-miterlimit="10" stroke-width="0.6295"/><path id="hand_R" data-name="hand R" d="M64.9241,96.3178s-.0585-20.3241-1.2433-23.2772-3.5228-4.8374-5.0362-8.9173S52.156,38.592,50.8829,33.8168s-.6488-7.85,1.27-8.0236a2.2073,2.2073,0,0,1,2.0679.9389s-.3445-1.8861-.76-3.9788c-.475-2.39-.9257-5.055.9746-5.58,1.6223-.448,3.16.0973,3.4769,1.5785-.51-2.9061-1.519-7.1992.5658-7.75,2.6177-.6912,4.3855,2.6134,5.3171,5.8512,0,0-.2878-3.5979,1.889-3.95,1.6762-.2714,2.7706.5182,3.6256,3.8512,1.196,4.6619,6.8064,23.4686,6.8064,23.4686s2.1289,5.4039,3.02,5.9409.9-3.55.3621-5.6177a12.5,12.5,0,0,1,.6983-7.4244c.69-1.9506,2.39-4.2666,3.1483-3.5334s1.1237,8.0316,1.4733,10.8842,1.6206,9.1681,1.7905,11.7216S82.56,64.7156,81.7763,67.5848s.5336,13.21,1.9061,16.9133c-2.9509,4.7466-8.8331,8.0205-8.8331,8.0205Z" fill="#c98943"/><line x1="63.7948" y1="16.8535" x2="69.73" y2="39.6318" fill="none" stroke="#925c3f" stroke-miterlimit="10" stroke-width="0.6295"/><line x1="57.6761" y1="17.8472" x2="63.7925" y2="41.321" fill="none" stroke="#925c3f" stroke-miterlimit="10" stroke-width="0.6295"/><line x1="54.2208" y1="26.7321" x2="59.1622" y2="47.0579" fill="none" stroke="#925c3f" stroke-miterlimit="10" stroke-width="0.6295"/><path d="M35.1808,50.0005a6.439,6.439,0,0,1,1.7089.0242,2.6976,2.6976,0,0,1,1.3981,1.3344c.8157,1.314-.6117,2.7643-2.21,3.07a3.3037,3.3037,0,0,1-3.9194-3.2626c.09-2.447,1.3926-4.3045,3.9194-2.447a1.8019,1.8019,0,0,1,.4936,1.2617" fill="#ed0082" stroke="#a0073a" stroke-linejoin="round" stroke-width="0.6754"/><path d="M17.9851,52.6155c1.036,1.6026,1.4772,2.3971,2.7016,2.066.9006-.2435.9373-1.5764,1.1026-3.504.097-1.1312-1.0276-1.0043-1.3859-.9751-.3243.0265-1.3053.1627-1.9151.2951A1.3859,1.3859,0,0,0,17.9851,52.6155Z" fill="#ce0d5b" stroke="#a0073a" stroke-linejoin="round" stroke-width="0.6754"/><circle cx="29.1993" cy="47.2682" r="1.6421" fill="#2d089e" stroke="#160877" stroke-linejoin="round" stroke-width="0.6754"/><circle cx="25.8563" cy="50.8271" r="1.6421" fill="#2d089e" stroke="#160877" stroke-linejoin="round" stroke-width="0.6754"/><circle cx="25.8563" cy="44.3913" r="1.6421" fill="#2d089e" stroke="#160877" stroke-linejoin="round" stroke-width="0.6754"/><path d="M27.25,56.0269c-.2185-.2782-.0285-.0693-.3415-.1882-.522-.1982-1.9955-.5589-2.7251.3522-1.0161,1.2688,1.0529,3.9031,2.7205,5.7909.6431.7281,1.1816,1.6774,3.01,1.1756,1.9592-.5378,1.9573-1.5215,1.973-2.7786.0374-2.9772,1.2568-6.3773-1.6171-5.973a6.1279,6.1279,0,0,0-3.02,1.6211" fill="#ea0000" stroke="#a0073a" stroke-linejoin="round" stroke-width="0.6754"/><path d="M24.83,55.68l1.883.024a6.0928,6.0928,0,0,1-.7818-1.2614c-.2164-.562,1.3326.2436,1.5176.6471s1.1255-.731,1.6336-1.3187c.4663-.5394-.7581,1.4306-.7581,1.4306s2.8824-.5677,1.7463-.0931a18.2611,18.2611,0,0,1-2.2594,1.038c-.5.0642-.9689.7271-.4881,1.6868s-1.0847-1.2119-.593-1.5594S25.895,56.4938,24.83,55.68Z" fill="#037503"/><path d="M38.7921,47.5485l.798.6353a7.25,7.25,0,0,0-3.01,1.4341,2.8775,2.8775,0,0,0-.58.0132A18.9991,18.9991,0,0,1,38.7921,47.5485Z" fill="#037503"/><path d="M42.9228,93.7036c5.2121-10.878,6.7595-35.9053,8.7392-43.4915s7.3952-8.7307,12.1526-11.8066c2.7174-1.7569,6.658-6.0912,8.6416-7.0438,1.489-.7152,2.9256,1.5576,3.5649,3.4915S86.92,51.6647,93.54,55.6653" fill="none" stroke="#a35e13" stroke-linecap="round" stroke-linejoin="round" stroke-width="1.8886"/><path d="M48.8477,92.5186C51.733,80.9775,52.057,64.632,53.9763,57.1419s7.17-8.62,11.7819-11.657c2.6345-1.7347,6.4549-6.014,8.3779-6.9546,1.4436-.706,2.8364,1.5379,3.4562,3.4473S88.1583,58.5761,94.5769,62.526" fill="none" stroke="#ededc5" stroke-linecap="round" stroke-linejoin="round" stroke-width="1.8886"/><path d="M53.5135,97.0363c2.8853-11.5411,1.2006-26.6966,3.12-34.1867s7.17-8.62,11.782-11.6569c2.6345-1.7347,6.4549-6.0141,8.3779-6.9546,1.4436-.7061,2.8364,1.5379,3.4562,3.4472s10.566,16.5986,16.9846,20.5485" fill="none" stroke="#b8d109" stroke-linecap="round" stroke-linejoin="round" stroke-width="1.8886"/><path id="thumb" d="M83.9307,61.4674c1.3547-3.7031,2.7787-7.759,2.678-9.2729-.17-2.5536-1.4408-8.8695-1.79-11.722s-.7154-10.1513-1.4739-10.8844-2.4575,1.5831-3.1483,3.5334a12.5026,12.5026,0,0,0-.6978,7.4248c.5372,2.0679.5287,6.1545-.3619,5.6174-.35-.2106-1.0716.5113-1.0716.5113S67.8085,60.7105,83.9307,61.4674Z" fill="#c98943"/><path d="M71.4005,37.3769s7.1111,6.2971,1.5281,15.8388c-5.4549,9.3228-7.0217,13.52-7.0217,13.52s-3.24-14.7034-1.501-18.5376S69.4112,43.7877,71.4005,37.3769Z" fill="#2b6008"/><path d="M65.9305,41.76s-6.198,3.13-1.0349,12.905,3.2027,11.882,3.2027,11.882,3.3872-7.5811,3.8908-11.8369C72.5038,50.3605,69.9682,47.5014,65.9305,41.76Z" fill="#5bc914"/></svg>