<svg id="icons" xmlns="http://www.w3.org/2000/svg" width="100" height="100" viewBox="0 0 100 100"><title>nature-use</title><ellipse cx="49.339" cy="42.5377" rx="35.038" ry="18.3808" fill="#b7632a" stroke="#edab40" stroke-linecap="round" stroke-miterlimit="10" stroke-width="3.1476"/><path d="M16.2211,35.388c-3.2815-2.7225-8.3019-2.95-9.6511-1.4733-2.5889,2.8325-3.5134,5.4512-.4212,10.6568s8.8812,8.1528,11.8736,6.2044" fill="none" stroke="#edab40" stroke-miterlimit="10" stroke-width="3.1476"/><path d="M83.77,35.388c3.2815-2.7225,8.3019-2.95,9.6512-1.4733,2.5888,2.8325,3.5134,5.4512.4211,10.6568s-8.8811,8.1528-11.8736,6.2044" fill="none" stroke="#edab40" stroke-linecap="round" stroke-miterlimit="10" stroke-width="3.1476"/><path d="M83.2737,50.2s-2.5181,18.8115-9.7761,25.6251-37.1785,7.5542-46.8064-.2963C16.9476,67.5842,15.1377,50.2,15.1377,50.2s6.8332,11.3644,33.8556,10.7184S83.2737,50.2,83.2737,50.2Z" fill="#edab40"/><path d="M83.2737,50.2c-3.8722,4.5918-14.516,11.85-32.7349,12.8866S17.6768,54.7919,15.1377,50.2" fill="none" stroke="#b7632a" stroke-linecap="round" stroke-miterlimit="10" stroke-width="0.6295"/><path d="M81.969,55.4617C78.2383,59.7356,67.9835,66.491,50.43,67.4561S18.769,59.7356,16.3227,55.4617" fill="none" stroke="#b7632a" stroke-linecap="round" stroke-miterlimit="10" stroke-width="0.5961"/><path d="M80.5088,60.7233C76.9577,64.76,67.1965,71.1405,50.4882,72.052S20.351,64.76,18.0224,60.7233" fill="none" stroke="#b7632a" stroke-linecap="round" stroke-miterlimit="10" stroke-width="0.5652"/><path d="M79.0276,65.9848c-3.3391,3.852-12.5174,9.94-28.2279,10.81s-28.3376-6.9583-30.5271-10.81" fill="none" stroke="#b7632a" stroke-linecap="round" stroke-miterlimit="10" stroke-width="0.5354"/><line x1="77.7439" y1="55.4617" x2="77.2455" y2="59.0236" fill="none" stroke="#b7632a" stroke-linecap="round" stroke-miterlimit="10" stroke-width="1.186"/><line x1="69.7548" y1="59.6046" x2="69.2564" y2="63.1665" fill="none" stroke="#b7632a" stroke-linecap="round" stroke-miterlimit="10" stroke-width="1.186"/><line x1="60.3842" y1="62.423" x2="59.8859" y2="65.9848" fill="none" stroke="#b7632a" stroke-linecap="round" stroke-miterlimit="10" stroke-width="1.186"/><line x1="19.869" y1="55.4617" x2="20.3673" y2="59.0236" fill="none" stroke="#b7632a" stroke-linecap="round" stroke-miterlimit="10" stroke-width="1.186"/><line x1="27.858" y1="59.6046" x2="28.3564" y2="63.1665" fill="none" stroke="#b7632a" stroke-linecap="round" stroke-miterlimit="10" stroke-width="1.186"/><line x1="37.2286" y1="62.423" x2="37.727" y2="65.9848" fill="none" stroke="#b7632a" stroke-linecap="round" stroke-miterlimit="10" stroke-width="1.186"/><line x1="49.1459" y1="63.457" x2="49.1459" y2="67.2341" fill="none" stroke="#b7632a" stroke-linecap="round" stroke-miterlimit="10" stroke-width="1.186"/><line x1="76.2507" y1="64.7901" x2="75.7781" y2="67.8857" fill="none" stroke="#b7632a" stroke-linecap="round" stroke-miterlimit="10" stroke-width="1.0768"/><line x1="68.6739" y1="68.744" x2="68.2012" y2="72.1221" fill="none" stroke="#b7632a" stroke-linecap="round" stroke-miterlimit="10" stroke-width="1.1248"/><line x1="59.7868" y1="71.8148" x2="59.3142" y2="75.1929" fill="none" stroke="#b7632a" stroke-linecap="round" stroke-miterlimit="10" stroke-width="1.1248"/><line x1="21.3621" y1="64.5076" x2="21.8347" y2="67.2341" fill="none" stroke="#b7632a" stroke-linecap="round" stroke-miterlimit="10" stroke-width="1.0106"/><line x1="28.9389" y1="68.744" x2="29.4116" y2="72.1221" fill="none" stroke="#b7632a" stroke-linecap="round" stroke-miterlimit="10" stroke-width="1.1248"/><line x1="37.826" y1="71.8148" x2="38.2986" y2="75.1929" fill="none" stroke="#b7632a" stroke-linecap="round" stroke-miterlimit="10" stroke-width="1.1248"/><line x1="49.1284" y1="72.6967" x2="49.1284" y2="76.2789" fill="none" stroke="#b7632a" stroke-linecap="round" stroke-miterlimit="10" stroke-width="1.1248"/><line x1="54.4394" y1="67.8857" x2="54.4394" y2="70.9742" fill="none" stroke="#b7632a" stroke-linecap="round" stroke-miterlimit="10" stroke-width="1.1248"/><line x1="64.7091" y1="65.9848" x2="64.4006" y2="69.0486" fill="none" stroke="#b7632a" stroke-linecap="round" stroke-miterlimit="10" stroke-width="1.1248"/><line x1="73.8927" y1="62.423" x2="73.5841" y2="65.2715" fill="none" stroke="#b7632a" stroke-linecap="round" stroke-miterlimit="10" stroke-width="1.1248"/><line x1="81.0272" y1="57.2426" x2="80.5088" y2="60.1243" fill="none" stroke="#b7632a" stroke-linecap="round" stroke-miterlimit="10" stroke-width="1.1248"/><line x1="43.4059" y1="67.8857" x2="43.4059" y2="70.9742" fill="none" stroke="#b7632a" stroke-linecap="round" stroke-miterlimit="10" stroke-width="1.1248"/><line x1="33.1362" y1="65.9848" x2="33.4448" y2="69.0486" fill="none" stroke="#b7632a" stroke-linecap="round" stroke-miterlimit="10" stroke-width="1.1248"/><line x1="23.9526" y1="62.423" x2="24.2612" y2="65.2715" fill="none" stroke="#b7632a" stroke-linecap="round" stroke-miterlimit="10" stroke-width="1.1248"/><line x1="16.8181" y1="57.2426" x2="17.3365" y2="60.1243" fill="none" stroke="#b7632a" stroke-linecap="round" stroke-miterlimit="10" stroke-width="1.1248"/><line x1="54.1558" y1="77.2812" x2="54.1558" y2="80.3697" fill="none" stroke="#b7632a" stroke-linecap="round" stroke-miterlimit="10" stroke-width="1.0955"/><line x1="63.8976" y1="75.3808" x2="63.6048" y2="78.8131" fill="none" stroke="#b7632a" stroke-linecap="round" stroke-miterlimit="10" stroke-width="1.1596"/><line x1="72.609" y1="72.0796" x2="72.3162" y2="75.8622" fill="none" stroke="#b7632a" stroke-linecap="round" stroke-miterlimit="10" stroke-width="1.2624"/><line x1="43.6896" y1="77.2812" x2="43.6896" y2="80.3697" fill="none" stroke="#b7632a" stroke-linecap="round" stroke-miterlimit="10" stroke-width="1.0955"/><line x1="33.9478" y1="75.3803" x2="34.2405" y2="78.4441" fill="none" stroke="#b7632a" stroke-linecap="round" stroke-miterlimit="10" stroke-width="1.0955"/><line x1="25.2363" y1="71.0317" x2="25.5291" y2="73.8802" fill="none" stroke="#b7632a" stroke-linecap="round" stroke-miterlimit="10" stroke-width="1.0955"/><path d="M54.5919,57.4141a42.0641,42.0641,0,0,0,8.7862-18.05c1.44-6.6319,1.6366-8.9654.6547-14.8569-3.7489,6.0881-5.94,5.8932-6.48,10.3708s.9077,7.9728.0323,11.9466S57.1438,50.7892,54.5919,57.4141Z" fill="#37bc06" stroke="#174704" stroke-miterlimit="10" stroke-width="0.6295"/><path d="M72.4,25.4387c.73,5.7453-1.0479,6.4859-1.4922,10.189s-1.7941,9.3342-3.6373,12.0732-7.082,5.8185-10.0172,6.7968,1.1982-.7426,2.7605-3.0668,3.5866-8.66,4.5741-13.2685,3.179-5.0528,5.0457-7.8671A36.231,36.231,0,0,0,72.4,25.4387Z" fill="#37bc06" stroke="#174704" stroke-miterlimit="10" stroke-width="0.6295"/><path d="M79.2256,37.596c-3.9615,5.6935-5.5593,9.5348-10.315,14.1315s-7.3966,5.9273-13.0378,5.41c5.9792-3.7336,5.5763-6.1811,9.5954-9.7184s6.4621-7.0185,8.9437-8.6847A6.6479,6.6479,0,0,1,79.2256,37.596Z" fill="#37bc06" stroke="#174704" stroke-miterlimit="10" stroke-width="0.6295"/><ellipse cx="44.0081" cy="49.5811" rx="3.8151" ry="3.4827" fill="#f92169" stroke="#621070" stroke-linecap="round" stroke-miterlimit="10" stroke-width="0.7142"/><circle cx="49.8318" cy="40.7296" r="3.2129" fill="#f92169" stroke="#621070" stroke-linecap="round" stroke-miterlimit="10" stroke-width="0.6295"/><ellipse cx="42.104" cy="36.2671" rx="3.2129" ry="2.9702" fill="#f92169" stroke="#621070" stroke-linecap="round" stroke-miterlimit="10" stroke-width="0.6053"/><ellipse cx="49.5965" cy="32.296" rx="2.6311" ry="2.2798" fill="#f92169" stroke="#621070" stroke-linecap="round" stroke-miterlimit="10" stroke-width="0.4799"/><path d="M28.3564,38.35c-3.5023-1.7775-8.0838.395-8.0668,3.0227.03,4.6294.3321,6.9143,3.894,7.9511s10.3067.019,12.5259-2.9159,3.256-9.23-1.2617-10.415-7.7858-1.7353-9.267,1.5234" fill="#ffc306" stroke="#7f4104" stroke-linecap="round" stroke-miterlimit="10" stroke-width="0.6295"/></svg>