<svg xmlns="http://www.w3.org/2000/svg" width="10" height="10" viewBox="0 0 10 10"><title>Mapeo DEFAULT v2 icon-library-nature-use</title><g id="icon-border"><path d="M5.0005.0287A4.9713,4.9713,0,1,0,9.9718,5,4.9713,4.9713,0,0,0,5.0005.0287Z" fill="#0dbcb7"/><path d="M5.0005,1.0287A3.9713,3.9713,0,1,1,1.0292,5,3.9758,3.9758,0,0,1,5.0005,1.0287" fill="#fff"/></g><g id="icons"><path d="M3.7645,8.96a16.863,16.863,0,0,1,.1-2.0477c.0941-.2346.28-.3843.4-.7083s.5154-2.0278.6165-2.4071.0515-.6235-.1009-.6373a.1752.1752,0,0,0-.1642.0746s.0273-.15.06-.3161c.0377-.19.0735-.4014-.0774-.4431-.1289-.0356-.2511.0077-.2762.1253.0405-.2308.1207-.5718-.0449-.6155-.2079-.0549-.3484.2076-.4223.4647,0,0,.0228-.2857-.15-.3137-.1331-.0216-.22.0412-.288.3059-.0949.37-.5406,1.864-.5406,1.864a2.1209,2.1209,0,0,1-.24.4719c-.0708.0426-.0715-.282-.0288-.4462a.9924.9924,0,0,0-.0555-.59c-.0548-.155-.19-.3389-.25-.2807a4.5515,4.5515,0,0,0-.117.8645c-.0278.2266-.1288.7282-.1422.931a8.45,8.45,0,0,0,.3838,1.2224A5.6085,5.6085,0,0,1,2.2,8.102c-.109.2941.6459.5392.6459.5392Z" fill="#c98943"/><line x1="3.8557" y1="2.449" x2="3.3842" y2="4.2582" fill="none" stroke="#925c3f" stroke-miterlimit="10" stroke-width="0.05"/><line x1="4.3416" y1="2.528" x2="3.8558" y2="4.3924" fill="none" stroke="#925c3f" stroke-miterlimit="10" stroke-width="0.05"/><line x1="4.6161" y1="3.2337" x2="4.2236" y2="4.8481" fill="none" stroke="#925c3f" stroke-miterlimit="10" stroke-width="0.05"/><path id="hand_R" data-name="hand R" d="M6.2784,8.96a16.8654,16.8654,0,0,0-.1-2.0477c-.0941-.2346-.28-.3843-.4-.7083s-.5153-2.0278-.6165-2.4071-.0515-.6235.1009-.6373a.1755.1755,0,0,1,.1643.0746s-.0274-.15-.06-.3161c-.0378-.19-.0736-.4014.0774-.4431.1288-.0356.251.0077.2761.1253-.04-.2308-.1206-.5718.045-.6155.2079-.0549.3483.2076.4223.4647,0,0-.0229-.2857.15-.3137.1332-.0216.22.0412.288.3059.095.37.5406,1.864.5406,1.864a2.1219,2.1219,0,0,0,.24.4719c.0708.0426.0714-.282.0287-.4462a.9932.9932,0,0,1,.0555-.59c.0548-.155.19-.3389.25-.2807a4.55,4.55,0,0,1,.1171.8645c.0277.2266.1287.7282.1422.931a8.4625,8.4625,0,0,1-.3838,1.2224A5.6048,5.6048,0,0,0,7.8428,8.102c.109.2941-.6459.5392-.6459.5392Z" fill="#c98943"/><line x1="6.1872" y1="2.449" x2="6.6586" y2="4.2582" fill="none" stroke="#925c3f" stroke-miterlimit="10" stroke-width="0.05"/><line x1="5.7012" y1="2.528" x2="6.187" y2="4.3924" fill="none" stroke="#925c3f" stroke-miterlimit="10" stroke-width="0.05"/><line x1="5.4268" y1="3.2337" x2="5.8192" y2="4.8481" fill="none" stroke="#925c3f" stroke-miterlimit="10" stroke-width="0.05"/><path d="M3.9145,5.0818a.509.509,0,0,1,.1357.0019.2146.2146,0,0,1,.1111.106c.0648.1044-.0486.22-.1756.2438a.2624.2624,0,0,1-.3113-.2591c.0071-.1944.1106-.3419.3113-.1944a.1433.1433,0,0,1,.0392.1" fill="#ed0082" stroke="#a0073a" stroke-linejoin="round" stroke-width="0.0536"/><path d="M2.5487,5.29c.0823.1273.1173.19.2146.1641.0715-.0194.0744-.1252.0876-.2783.0077-.09-.0817-.08-.11-.0775-.0258.0021-.1037.0129-.1521.0235A.11.11,0,0,0,2.5487,5.29Z" fill="#ce0d5b" stroke="#a0073a" stroke-linejoin="round" stroke-width="0.0536"/><circle cx="3.4394" cy="4.8648" r="0.1304" fill="#2d089e" stroke="#160877" stroke-linejoin="round" stroke-width="0.0536"/><circle cx="3.1739" cy="5.1474" r="0.1304" fill="#2d089e" stroke="#160877" stroke-linejoin="round" stroke-width="0.0536"/><circle cx="3.1739" cy="4.6363" r="0.1304" fill="#2d089e" stroke="#160877" stroke-linejoin="round" stroke-width="0.0536"/><path d="M3.2846,5.56c-.0174-.0221-.0023-.0055-.0271-.0149-.0415-.0158-.1585-.0444-.2165.028-.0807.1007.0837.31.2161.46.0511.0578.0939.1332.2391.0934.1556-.0427.1554-.1209.1567-.2207.0029-.2365.1-.5065-.1285-.4744a.4863.4863,0,0,0-.24.1287" fill="#ea0000" stroke="#a0073a" stroke-linejoin="round" stroke-width="0.0536"/><path d="M3.0924,5.5329l.1495.0019a.49.49,0,0,1-.0621-.1c-.0172-.0447.1059.0193.1206.0514s.0894-.0581.13-.1048c.0371-.0428-.06.1137-.06.1137s.229-.0451.1387-.0074a1.451,1.451,0,0,1-.1794.0824c-.04.0051-.077.0578-.0388.134s-.0862-.0963-.0471-.1239S3.177,5.5975,3.0924,5.5329Z" fill="#037503"/><path d="M4.2013,4.887l.0634.0505a.5757.5757,0,0,0-.2391.1139.2251.2251,0,0,0-.046.001A1.5112,1.5112,0,0,1,4.2013,4.887Z" fill="#037503"/><path d="M4.5294,8.5529a20.6135,20.6135,0,0,0,.6941-3.4543c.1573-.6026.5874-.6935.9653-.9378.2158-.1395.5288-.4838.6863-.5594.1183-.0568.2324.1237.2832.2773A5.9514,5.9514,0,0,0,8.55,5.5317" fill="none" stroke="#a35e13" stroke-linecap="round" stroke-linejoin="round" stroke-width="0.15"/><path d="M5,8.4588c.2292-.9166.2549-2.2149.4073-2.81s.5695-.6847.9358-.9259c.2093-.1378.5127-.4776.6655-.5523.1146-.0561.2252.1221.2745.2738a5.8552,5.8552,0,0,0,1.349,1.632" fill="none" stroke="#ededc5" stroke-linecap="round" stroke-linejoin="round" stroke-width="0.15"/><path d="M5.3706,8.8176c.2292-.9166.0953-2.12.2478-2.7153s.5694-.6846.9358-.9258c.2092-.1378.5127-.4777.6654-.5524.1147-.0561.2253.1221.2745.2738A5.854,5.854,0,0,0,8.8431,6.53" fill="none" stroke="#b8d109" stroke-linecap="round" stroke-linejoin="round" stroke-width="0.15"/><path id="thumb" d="M7.7865,5.9926a3.0135,3.0135,0,0,0,.2127-.7366c-.0135-.2028-.1144-.7044-.1422-.931A4.5489,4.5489,0,0,0,7.74,3.4605c-.06-.0582-.1952.1257-.25.2806a.9937.9937,0,0,0-.0555.59c.0427.1642.042.4888-.0287.4461-.0278-.0167-.0851.0406-.0851.0406S6.506,5.9324,7.7865,5.9926Z" fill="#c98943"/><path d="M6.7913,4.0791a.9842.9842,0,0,1,.1214,1.2581A8.1247,8.1247,0,0,0,6.3549,6.411a4.4169,4.4169,0,0,1-.1192-1.4724C6.3738,4.6341,6.6333,4.5883,6.7913,4.0791Z" fill="#2b6008"/><path d="M6.3568,4.4273s-.4923.2486-.0822,1.025.2544.9437.2544.9437a4.5377,4.5377,0,0,0,.309-.94C6.8789,5.11,6.6775,4.8833,6.3568,4.4273Z" fill="#5bc914"/></g></svg>