<svg id="icons" xmlns="http://www.w3.org/2000/svg" width="100" height="100" viewBox="0 0 100 100"><title>nature-use</title><path d="M36.6119,47.3687h0c-2.2346,1.49-2.9794,4.4691-2.9794,6.7036L38.8464,65.99,31.3979,87.5906c0,2.2346.7449,4.4691,2.9794,4.4691h.7449c1.49,0,2.9794-.7448,2.9794-2.2345V89.08L45.55,66.7348l.7448,1.49V87.5906a3.7243,3.7243,0,1,0,7.4485,0V69.7142c0-.7449,0-2.2346-.7448-2.9794L46.2949,48.1135,59.7022,36.9408c2.9794-2.9794-.7448-6.7037-5.2139-3.7243Z" fill="#a86f2a"/><circle cx="29.1634" cy="38.4305" r="8.1934" fill="#a86f2a"/><path d="M74.5993,11.6158h0a3.5822,3.5822,0,0,1-1.49,4.4691L46.2949,34.7062c-1.49.7449-2.9794,0-4.4691-1.49h0a3.5822,3.5822,0,0,1,1.49-4.4691L70.13,10.1261C71.62,9.3813,73.11,10.1261,74.5993,11.6158Z" fill="#a86f2a"/></svg>