<?xml version="1.0" encoding="utf-8"?>
<!-- Generator: Adobe Illustrator 21.0.0, SVG Export Plug-In . SVG Version: 6.00 Build 0)  -->
<svg version="1.1" id="hunting" xmlns="http://www.w3.org/2000/svg" xmlns:xlink="http://www.w3.org/1999/xlink" x="0px" y="0px"
	 viewBox="0 0 7.2 11" style="enable-background:new 0 0 7.2 11;" xml:space="preserve">
<style type="text/css">
	.st0{fill:#A86F2A;}
</style>
<title>hunting</title>
<path class="st0" d="M2.1,5L2.1,5C1.8,5.2,1.7,5.6,1.7,5.9l0.7,1.6l-1,2.9C1.4,10.7,1.5,11,1.8,11c0,0,0.1,0,0.1,0
	c0.2,0,0.4-0.1,0.4-0.3c0,0,0,0,0-0.1l1-3l0.1,0.2v2.6c0,0.3,0.2,0.5,0.5,0.5s0.5-0.2,0.5-0.5V8c0-0.1,0-0.3-0.1-0.4L3.4,5.1
	l1.8-1.5c0.4-0.4-0.1-0.9-0.7-0.5L2.1,5z"/>
<circle class="st0" cx="1.1" cy="3.8" r="1.1"/>
<path class="st0" d="M7.2,0.2L7.2,0.2c0.1,0.2,0,0.5-0.2,0.6L3.4,3.3c-0.2,0.1-0.4,0-0.6-0.2l0,0C2.7,2.9,2.8,2.6,3,2.5L6.6,0
	C6.8-0.1,7,0,7.2,0.2z"/>
</svg>
