<svg xmlns="http://www.w3.org/2000/svg" width="10" height="10" viewBox="0 0 10 10"><title>Mapeo DEFAULT v2 icon-library-nature-use</title><g id="icons"><path d="M3.802,3.1865c-.1745.0017-.2965-.2782-.4842-.4208s-.7435-.6476-.8914-.4419.2581.649.5422.9192c.3549.3374.556.5041.6142.6966s.2539,1.03.1387,1.19-.66,1.1672-.7921,1.4356-.5509,1.1574-.4116,1.2577a5.1922,5.1922,0,0,0,.5.2482c.16.0858.3854-1.0549.56-1.2745s.5672-.8471.5672-.8471a6.9791,6.9791,0,0,1,.4471.91,11.5466,11.5466,0,0,0,.3439,1.3293c.1031.1452.4515.0812.623.068.1938-.0149-.075-.513-.1709-.9737-.1014-.4877-.5841-1.9592-.643-2.1247a7.0864,7.0864,0,0,1,.18-1.35c.0354-.2121.3151-.1985.6393-.2435.3966-.0551.6923-.07.6471-.2765-.05-.2276-.3467-.165-.6423-.1926s-.9308.0633-1.2832.0769C4.0422,3.182,3.802,3.1865,3.802,3.1865Z" fill="#546833"/><circle cx="4.2074" cy="2.4039" r="0.512" fill="#546833"/><path d="M5.9342,1.5092a2.0194,2.0194,0,0,1,.9994,1.7079,2.71,2.71,0,0,1-1.065,1.9378" fill="none" stroke="#4c2c00" stroke-miterlimit="10" stroke-width="0.15"/><line x1="8.0199" y1="3.2773" x2="6.1362" y2="3.2668" fill="none" stroke="#4c2c00" stroke-miterlimit="10" stroke-width="0.15"/><polygon points="7.794 2.99 8.308 3.274 7.794 3.572 7.794 2.99" fill="#4c2c00"/></g><g id="icon-border"><path d="M4.999,1.0256a3.971,3.971,0,1,1-3.971,3.971,3.9765,3.9765,0,0,1,3.971-3.971m0-1a4.971,4.971,0,1,0,4.972,4.971A4.9709,4.9709,0,0,0,4.999.0256" fill="#0dbcb7"/></g></svg>