<svg id="icons" xmlns="http://www.w3.org/2000/svg" width="100" height="100" viewBox="0 0 100 100"><title>nature-use</title><path d="M34.01,27.4692c-2.1975.0217-3.7329-3.5028-6.0967-5.2984s-9.3607-8.1533-11.223-5.564,3.25,8.1716,6.8274,11.5734c4.4677,4.2482,6.9993,6.3465,7.733,8.77s3.1959,12.966,1.7465,14.9766-8.313,14.6956-9.9732,18.0745-6.9363,14.5723-5.1827,15.8344c1.61,1.1591,4.4263,2.121,6.2936,3.1252,2.01,1.0808,4.8511-13.2816,7.0543-16.0465S38.33,62.25,38.33,62.25s4.6411,8.0974,5.6286,11.4548S46.9918,88.6136,48.29,90.4415s5.6839,1.0222,7.8434.8558c2.4405-.1881-.9449-6.4589-2.1513-12.26-1.277-6.14-7.3551-24.6661-8.0965-26.75s1.8239-14.32,2.2693-16.9906,3.9674-2.4991,8.049-3.0657c4.9933-.6932,8.716-.8755,8.1467-3.4808-.6263-2.8666-4.3648-2.0773-8.0862-2.4249s-11.7192.7969-16.1564.9683C37.0345,27.4121,34.01,27.4692,34.01,27.4692Z" fill="#546833"/><circle cx="39.1152" cy="17.6161" r="6.446" fill="#546833"/><path d="M60.8555,6.3508C64.3924,8.2,73.7883,16.0713,73.4389,27.8541S64.7441,48.6716,60.03,52.2515" fill="none" stroke="#4c2c00" stroke-miterlimit="10" stroke-width="1.8886"/><line x1="87.1157" y1="28.6118" x2="63.3989" y2="28.4805" fill="none" stroke="#4c2c00" stroke-miterlimit="10" stroke-width="1.8886"/><polygon points="84.273 24.997 90.748 28.576 84.273 32.325 84.273 24.997" fill="#4c2c00"/></svg>