<svg xmlns="http://www.w3.org/2000/svg" xmlns:xlink="http://www.w3.org/1999/xlink" width="10" height="10" viewBox="0 0 10 10"><defs><clipPath id="clip-path"><rect x="0.0117" width="10" height="10" fill="none"/></clipPath></defs><title>Mapeo DEFAULT v2 icon-library-threats</title><g id="icons"><path d="M5.0352,8.5406a.7839.7839,0,0,1-.74-.86.7866.7866,0,0,1,.753-.8606.7715.7715,0,0,1,.7524.8606.7778.7778,0,0,1-.7524.86ZM4.4468,6.2557,4.1991,2.123H5.8972L5.6494,6.2557Z" fill="#ce3727"/></g><g id="icon-border"><g clip-path="url(#clip-path)"><g clip-path="url(#clip-path)"><path d="M5.0117,1.0283A3.9715,3.9715,0,1,1,1.0407,5a3.9774,3.9774,0,0,1,3.971-3.972m0-1A4.9715,4.9715,0,1,0,9.9837,5,4.9717,4.9717,0,0,0,5.0117.0283" fill="#d63e03"/></g></g></g></svg>