<svg xmlns="http://www.w3.org/2000/svg" width="10" height="10" viewBox="0 0 10 10"><title>Mapeo DEFAULT v2 icon-library-threats</title><g id="icon-border"><path d="M5,.0307A4.9713,4.9713,0,1,0,9.9713,5.002,4.9713,4.9713,0,0,0,5,.0307Z" fill="#d63e03"/><path d="M5,1.0307A3.9713,3.9713,0,1,1,1.0287,5.002,3.9758,3.9758,0,0,1,5,1.0307" fill="#fff"/></g><g id="icons"><path d="M5.0321,8.6953a.9243.9243,0,0,1-.9161-.9825.9291.9291,0,0,1,.9322-.9838.9109.9109,0,0,1,.9315.9838.9181.9181,0,0,1-.9315.9825ZM4.3037,6.0835,3.9971,1.36H6.0992L5.7925,6.0835Z" fill="#ce3727"/></g></svg>