<svg xmlns="http://www.w3.org/2000/svg" width="10" height="10" viewBox="0 0 10 10"><title>Mapeo DEFAULT v2 icon-library-infrastructure</title><g id="icon-border"><path d="M5.0287.0287A4.9713,4.9713,0,1,0,10,5,4.9713,4.9713,0,0,0,5.0287.0287Z" fill="#b209b2"/><path d="M5.0287,1.0287A3.9713,3.9713,0,1,1,1.0574,5,3.9758,3.9758,0,0,1,5.0287,1.0287" fill="#fff"/></g><g id="icons"><rect x="4.7922" y="3.0944" width="3.5108" height="3.5108" fill="#fff" stroke="#7f7f7f" stroke-miterlimit="10" stroke-width="0.1206"/><polygon points="7.883 4.518 6.962 4.518 6.962 3.596 6.297 3.596 6.297 4.518 5.375 4.518 5.375 5.182 6.297 5.182 6.297 6.104 6.962 6.104 6.962 5.182 7.883 5.182 7.883 4.518" fill="#ff0015"/><rect x="2.1867" y="2.5897" width="0.6649" height="4.0094" fill="#7f5420"/><path d="M2.5251,4.0031H3.5357a.6768.6768,0,0,1,.4554.1437.5155.5155,0,0,1,.1656.3157v.2926H3.65l.0052-.127a.39.39,0,0,0-.0621-.1708.2309.2309,0,0,0-.1863-.0782H2.5251Z" fill="#969595"/><rect x="2.4725" y="3.1859" width="0.1292" height="3.7577" fill="#969595"/><rect x="2.7279" y="7.5259" width="0.1292" height="0.4959" transform="translate(-4.9813 10.5663) rotate(-90)" fill="#969595"/><rect x="3.6667" y="7.5259" width="0.1292" height="0.4959" transform="translate(-4.0425 11.5051) rotate(-90)" fill="#969595"/><rect x="4.6054" y="7.5259" width="0.1292" height="0.4959" transform="translate(-3.1037 12.4439) rotate(-90)" fill="#969595"/><rect x="5.5442" y="7.5259" width="0.1292" height="0.4959" transform="translate(-2.165 13.3827) rotate(-90)" fill="#969595"/><rect x="6.483" y="7.5259" width="0.1292" height="0.4959" transform="translate(-1.2262 14.3214) rotate(-90)" fill="#969595"/><rect x="7.4218" y="7.5259" width="0.1292" height="0.4959" transform="translate(-0.2874 15.2602) rotate(-90)" fill="#969595"/><rect x="2.4725" y="7.3425" width="0.1292" height="0.4959" fill="#969595"/><polygon points="2.771 4.083 5.221 1.645 5.063 1.475 2.525 3.793 2.525 4.083 2.771 4.083" fill="#969595"/><path d="M3.9154,4.85s-.4155.7025,0,.7025S3.9154,4.85,3.9154,4.85Z" fill="#1aa1fc"/><path d="M3.9154,5.8689s-.4155.7025,0,.7025S3.9154,5.8689,3.9154,5.8689Z" fill="#1aa1fc"/><path d="M3.9154,6.888s-.4155.7025,0,.7025S3.9154,6.888,3.9154,6.888Z" fill="#1aa1fc"/></g></svg>