<svg xmlns="http://www.w3.org/2000/svg" xmlns:xlink="http://www.w3.org/1999/xlink" width="10" height="10" viewBox="0 0 10 10"><defs><clipPath id="clip-path"><rect x="-0.0002" width="10" height="10" fill="none"/></clipPath></defs><title>Mapeo DEFAULT v2 icon-library-infrastructure</title><g id="icons"><rect x="5.2998" y="2.7502" width="2.626" height="2.626" fill="none" stroke="#7f7f7f" stroke-miterlimit="10" stroke-width="0.0902"/><polygon points="7.612 3.815 6.922 3.815 6.922 3.125 6.425 3.125 6.425 3.815 5.736 3.815 5.736 4.312 6.425 4.312 6.425 5.001 6.922 5.001 6.922 4.312 7.612 4.312 7.612 3.815" fill="#ff0015"/><rect x="2.3041" y="2.6771" width="0.6368" height="3.8397" fill="#7f5420"/><path d="M2.6734,4.0308H4.004a.6484.6484,0,0,1,.4362.1376.4944.4944,0,0,1,.1586.3023v.28H4.1131l.0049-.1217a.3729.3729,0,0,0-.0594-.1636A.2211.2211,0,0,0,3.88,4.3909H2.6734Z" fill="#969595"/><rect x="2.5778" y="3.2482" width="0.1238" height="3.5987" fill="#969595"/><rect x="2.8224" y="7.4044" width="0.1238" height="0.4749" transform="translate(-4.7576 10.5261) rotate(-90)" fill="#969595"/><rect x="3.7214" y="7.4044" width="0.1238" height="0.4749" transform="translate(-3.8586 11.4252) rotate(-90)" fill="#969595"/><rect x="4.6205" y="7.4044" width="0.1238" height="0.4749" transform="translate(-2.9595 12.3242) rotate(-90)" fill="#969595"/><rect x="5.5195" y="7.4044" width="0.1238" height="0.4749" transform="translate(-2.0605 13.2233) rotate(-90)" fill="#969595"/><rect x="6.4186" y="7.4044" width="0.1238" height="0.4749" transform="translate(-1.1614 14.1223) rotate(-90)" fill="#969595"/><rect x="7.3176" y="7.4044" width="0.1238" height="0.4749" transform="translate(-0.2624 15.0214) rotate(-90)" fill="#969595"/><rect x="2.5778" y="7.2288" width="0.1238" height="0.4749" fill="#969595"/><polygon points="2.864 4.107 5.21 1.772 5.059 1.609 2.628 3.83 2.628 4.107 2.864 4.107" fill="#969595"/><path d="M4.3676,4.8742s-.316.5343,0,.5343S4.3676,4.8742,4.3676,4.8742Z" fill="#1aa1fc"/><path d="M4.3676,5.6494s-.316.5343,0,.5343S4.3676,5.6494,4.3676,5.6494Z" fill="#1aa1fc"/><path d="M4.3676,6.4245s-.316.5343,0,.5343S4.3676,6.4245,4.3676,6.4245Z" fill="#1aa1fc"/></g><g id="icon-border"><g clip-path="url(#clip-path)"><g clip-path="url(#clip-path)"><path d="M5,1.0288A3.971,3.971,0,1,1,1.0288,5,3.9765,3.9765,0,0,1,5,1.0288m0-1A4.971,4.971,0,1,0,9.9718,5,4.9709,4.9709,0,0,0,5,.0288" fill="#334dcc"/></g></g></g></svg>