<svg id="icons" xmlns="http://www.w3.org/2000/svg" width="100" height="100" viewBox="0 0 100 100"><title>infrastructure</title><rect x="46.4915" y="26.8978" width="44.2025" height="44.2025" fill="#fff" stroke="#7f7f7f" stroke-miterlimit="10" stroke-width="1.5182"/><polygon points="85.411 44.816 73.805 44.816 73.805 33.209 65.438 33.209 65.438 44.816 53.832 44.816 53.832 53.183 65.438 53.183 65.438 64.789 73.805 64.789 73.805 53.183 85.411 53.183 85.411 44.816" fill="#ff0015"/><rect x="13.6874" y="20.5425" width="8.3713" height="50.4796" fill="#7f5420"/><path d="M17.9471,38.3386H30.6718s3.7139-.2112,5.7338,1.8086a6.4975,6.4975,0,0,1,2.085,3.9745v3.6849H32.1053l.0651-1.6a4.9,4.9,0,0,0-.7819-2.15,2.9051,2.9051,0,0,0-2.3456-.984H17.9471Z" fill="#969595"/><rect x="17.2855" y="28.0499" width="1.6271" height="47.3111" fill="#969595"/><rect x="20.5006" y="82.691" width="1.6271" height="6.2435" transform="translate(-64.4987 107.1269) rotate(-90)" fill="#969595"/><rect x="32.3202" y="82.691" width="1.6271" height="6.2435" transform="translate(-52.6791 118.9466) rotate(-90)" fill="#969595"/><rect x="44.1399" y="82.691" width="1.6271" height="6.2435" transform="translate(-40.8594 130.7662) rotate(-90)" fill="#969595"/><rect x="55.9595" y="82.691" width="1.6271" height="6.2435" transform="translate(-29.0398 142.5859) rotate(-90)" fill="#969595"/><rect x="67.7791" y="82.691" width="1.6271" height="6.2435" transform="translate(-17.2201 154.4055) rotate(-90)" fill="#969595"/><rect x="79.5988" y="82.691" width="1.6271" height="6.2435" transform="translate(-5.4005 166.2252) rotate(-90)" fill="#969595"/><rect x="17.2855" y="80.3828" width="1.6271" height="6.2435" fill="#969595"/><polygon points="21.05 39.344 51.89 8.649 49.906 6.505 17.947 35.695 17.947 39.344 21.05 39.344" fill="#969595"/><path d="M35.452,48.999s-5.2319,8.8444,0,8.8444S35.452,48.999,35.452,48.999Z" fill="#1aa1fc"/><path d="M35.452,61.83s-5.2319,8.8444,0,8.8444S35.452,61.83,35.452,61.83Z" fill="#1aa1fc"/><path d="M35.452,74.66s-5.2319,8.8444,0,8.8444S35.452,74.66,35.452,74.66Z" fill="#1aa1fc"/></svg>