<svg xmlns="http://www.w3.org/2000/svg" xmlns:xlink="http://www.w3.org/1999/xlink" width="10" height="10" viewBox="0 0 10 10"><defs><clipPath id="clip-path"><rect width="10" height="10" fill="none"/></clipPath></defs><title>Mapeo DEFAULT v2 icon-library-culture</title><g id="icons"><path d="M3.9176,1.7087c.1209.5787.257.6284.22.8432-.0475.2757-.2814.3016-.2044.5893a.7442.7442,0,0,0,.3689.4394c.1716.1233.6.627.4955.8163-.0865.1562-.52.028-.4009.2627.1269.2491.2843.2887.3317.3765a.2457.2457,0,0,1-.0283.32.3444.3444,0,0,1-.2489.1577c-.2046.0309-.4917.2293-.4663.2657a.5088.5088,0,0,0,.3262.1316c.1586.02.246-.0645.3818.0763s.12.15.0628.2824-.2228.0607-.1909.2274c.08.4192.1708.5832.002.7277a1.35,1.35,0,0,1-.6732.2646c-.3324.0719-.6021.0181-.7961.2636s-.2948.1864-.1828.9241S.9373,6.251.8551,5.3331s.7883-3.5486,2.0056-4.0279C3.308,1.1291,3.8059,1.1734,3.9176,1.7087Z"/><path d="M4.6917,5.7176a5.0675,5.0675,0,0,1,1.6364-.2652c.7778-.0289,1.6131-.2759,1.8408-.8877a1.7994,1.7994,0,0,0-.71-2.2588,1.6078,1.6078,0,0,0-2.0353.2353,1.7748,1.7748,0,0,0-.3176,1.5176c.0823.553.5168.82.2941,1.1059A2.8016,2.8016,0,0,1,4.6917,5.7176Z"/><line x1="5.9688" y1="3.4646" x2="7.4971" y2="3.4646" fill="none" stroke="#ffd146" stroke-miterlimit="10" stroke-width="0.25"/><line x1="5.9688" y1="4.1419" x2="7.4971" y2="4.1419" fill="none" stroke="#ffd146" stroke-miterlimit="10" stroke-width="0.25"/></g><g id="icon-border"><g clip-path="url(#clip-path)"><g clip-path="url(#clip-path)"><path d="M5,1.0288A3.971,3.971,0,1,1,1.029,5,3.9765,3.9765,0,0,1,5,1.0288m0-1A4.971,4.971,0,1,0,9.972,5,4.9709,4.9709,0,0,0,5,.0288" fill="#edcb03"/></g></g></g></svg>