<svg id="icons" xmlns="http://www.w3.org/2000/svg" width="100" height="100" viewBox="0 0 100 100"><title>culture</title><path d="M38.9039,8.758c1.5212,7.2862,1.5564,8.1938,1.09,10.8982-.5981,3.4719-4.5289,4.242-3.5592,7.8639.7791,2.91,3.4706,4.5073,5.63,6.0593s7.5594,7.8939,6.2388,10.2783c-1.0891,1.9663-5.6482.1533-5.0475,2.3358,1.0886,3.9556,2.555,3.18,3.1517,4.2855,1.0672,1.9768-.5914,6.1826-2.4663,6.4657-2.5757.3889-7.5177,1.8518-7.1987,2.3105.5142.7393,1.3976,1.0481,3.3945,1.2961s3.77.2505,5.48,2.0243.706,2.4636-.01,4.1339-2.805.764-2.4031,2.8637c1.01,5.2776,2.15,7.3415.0256,9.1609s-14.527-2.4225-16.9695.6686S23.27,81.52,24.6812,90.8074.8526,78.3372.8526,50.1916C.8526,27.4475,14.6733,10.8732,30,4.839,35.632,2.6214,37.4967,2.0185,38.9039,8.758Z"/><path d="M46.9713,59.5144c4.6216-1.7775,10.8106-2.9754,20.6027-3.3392S87.8828,52.7008,90.75,44.9985c2.6911-7.23,4.1974-19.462-8.94-28.4394-8.8873-6.073-20.2927-2.9688-25.6251,2.9625-4.7172,5.2469-5.0361,12.1459-3.9993,19.1077s6.5069,10.3226,3.7031,13.9234S46.9713,59.5144,46.9713,59.5144Z"/><line x1="63.0492" y1="31.148" x2="82.2914" y2="31.148" fill="none" stroke="#ffd146" stroke-miterlimit="10" stroke-width="3.1476"/><line x1="63.0492" y1="39.6753" x2="82.2914" y2="39.6753" fill="none" stroke="#ffd146" stroke-miterlimit="10" stroke-width="3.1476"/></svg>