<svg xmlns="http://www.w3.org/2000/svg" width="10" height="10" viewBox="0 0 10 10"><title>Mapeo DEFAULT v2 icon-library-threats</title><g id="icons"><path d="M6.09,4.9131l1.22-.0543A.5731.5731,0,0,1,6.7246,5.4.6229.6229,0,0,1,6.09,4.9131Z" fill="#c19157"/><path d="M5.3468,5.2866c-.0164.0021-.0157.017-.0186.0274a.7785.7785,0,0,1-.4721.5127.4178.4178,0,0,0-.113.0492c-.024-.023-.0494-.0448-.0716-.0695A.1113.1113,0,0,1,4.66,5.7069a.6944.6944,0,0,1,.2129-.4213.4048.4048,0,0,1,.3393-.1048.1682.1682,0,0,1,.0956.0642Z" fill="#e2b886"/><path d="M5.4833,4.7014a.23.23,0,0,1,.11-.1241A1.1088,1.1088,0,0,1,5.98,4.4279,1.9626,1.9626,0,0,1,6.35,4.3793a.0159.0159,0,0,0,.0153-.0066h.3732a.4719.4719,0,0,0,.1149.0127,1.6469,1.6469,0,0,1,.6092.1623.34.34,0,0,1,.1522.1345l.0056.0192a.6962.6962,0,0,1-.0432.0735.575.575,0,0,1-.1358.108l-.13.0558-.1279.0356A.7761.7761,0,0,0,7.0592,5c-.1047.0142-.21.026-.3152.0319-.0427-.0042-.0849.0051-.1274.0045a3.9288,3.9288,0,0,1-.446-.02A.9073.9073,0,0,0,6.0424,5l-.1855-.04a1.0462,1.0462,0,0,0-.13-.0463l-.0279-.0142A.4017.4017,0,0,1,5.4833,4.7014Z" fill="#e2b886"/><path d="M7.1835,5.07l.1273-.13.0012.0465,0,.5555a.0635.0635,0,0,0,.0831.066c.0274-.0074.0455-.0389.0455-.0814q0-.3227,0-.6451a.5821.5821,0,0,0,.1358-.1134A.7112.7112,0,0,0,7.62,4.6909a.0924.0924,0,0,1,.008.0523c0,.9713,0,2.7385,0,2.7385a.83.83,0,0,1-.2872.3536,1.7384,1.7384,0,0,1-.8539.1823,1.88,1.88,0,0,1-.8534-.2206.4912.4912,0,0,1-.1591-.2637s0-.5548.001-.8917a.0761.0761,0,0,0-.0248-.0591q-.3909-.39-.78-.7806c.035-.0219.0911.0279.131.0172a.7361.7361,0,0,0,.4652-.4913c.003-.01-.0089-.1131.0074-.1152l.1914.1972.01-.0052V5.3708q0-.31,0-.62a.1206.1206,0,0,1,.0079-.06.4093.4093,0,0,0,.2154.2073l.0278.015,0,.4694c0,.0514-.0009.1028,0,.1541.0012.0491.0294.0758.0731.0723.037-.003.0553-.0282.0554-.0776q.0007-.2848.0012-.57l.1856.0423q0,.4788,0,.9575a.1689.1689,0,0,0,.0037.0354.0618.0618,0,0,0,.066.0573h0l.0066-.0008a.064.064,0,0,0,.0522-.07q0-.4806-.0006-.9611c.1628.2685.2962.21.4452.2078,0,.1026.0006.0183,0,.121a.0675.0675,0,0,0,.0125.0437.0615.0615,0,0,0,.0658.0263.0739.0739,0,0,0,.05-.0783c0-.1015.0008,0,0-.1015.1057-.0062.21-.05.3142-.0647.0005.0155.0015.5389.0015.871,0,.0439.0245.0713.0621.0709a.0618.0618,0,0,0,.0607-.0628l0-.0063C7.1831,5.6917,7.1838,5.4269,7.1835,5.07Z" fill="#7f6347"/><path d="M5.7053,6.6487C5.4082,6.3584,5.1366,6.1,4.84,5.81c-.0164.0134-.049.0082-.0811.0067s-.1183-.0316-.0784.008.6649.6515.98.96A.411.411,0,0,0,5.7053,6.6487Z" fill="#3e3129"/><path d="M6.7447,7.9938c0-.2077,0-.4154,0-.6232a.0594.0594,0,0,1,.0482-.0654.0622.0622,0,0,1,.0691.0334.0744.0744,0,0,1,.0056.0419q0,.3026,0,.6052A.6.6,0,0,1,6.7447,7.9938Z" fill="#3d3028"/><path d="M6.1705,7.9705l.0009-.4722c0-.05.0253-.0769.0695-.0749.0349.0017.0587.0307.0591.0755.0007.0859,0,.1717,0,.2576l0,.2254A.6184.6184,0,0,1,6.1705,7.9705Z" fill="#3e3129"/><path d="M7.1188,7.9125c0-.1219,0-.2437,0-.3655a.1267.1267,0,0,1,.01-.0592.0621.0621,0,0,1,.1183.0279c.0006.123,0,.246,0,.369A.6487.6487,0,0,1,7.1188,7.9125Z" fill="#3e3129"/><path d="M6.4874,8.0176c0-.0574-.0007-.1146,0-.1719,0-.0491.0248-.0777.0643-.0777s.0638.0286.0643.0777c0,.0573,0,.1146,0,.1719Z" fill="#3e3129"/><path d="M7.1828,5.0833l0,1.0715a.0617.0617,0,0,1-.054.0686l-.0063.0005c-.0376,0-.0621-.027-.0621-.0709q0-.4981,0-.9963c0-.0155,0,.0155,0,0C7.1009,5.1442,7.1409,5.0887,7.1828,5.0833Z" fill="#3d3028"/><path d="M6.1705,5.0218q0,.4806.0007.9611a.0642.0642,0,0,1-.0523.0705.062.062,0,0,1-.0718-.05l-.0008-.0065a.168.168,0,0,1-.0037-.0353q0-.4788,0-.9575A.8652.8652,0,0,1,6.1705,5.0218Z" fill="#3e3129"/><path d="M7.441,4.8815l0,.645c0,.0425-.018.0741-.0455.0815a.0634.0634,0,0,1-.0831-.066q-.0006-.2778,0-.5555L7.3107,4.94Z" fill="#3e3129"/><path d="M5.8568,4.9616l-.0012.57c0,.0494-.0185.0746-.0555.0776-.0436.0035-.0718-.0233-.0731-.0723-.0013-.0513,0-.1027,0-.1541l0-.4694A1.01,1.01,0,0,1,5.8568,4.9616Z" fill="#3e3129"/><path d="M6.7439,5.2267c0,.1015.0012.203.0006.3045a.074.074,0,0,1-.05.0783.0615.0615,0,0,1-.0658-.0263A.0669.0669,0,0,1,6.6159,5.54c0-.1027,0-.2054.0006-.308C6.6591,5.232,6.7012,5.2223,6.7439,5.2267Z" fill="#3e3129"/><path d="M1.5064,5.05c.0253-.0455.0479-.0928.0765-.1362a.7291.7291,0,0,1,.2225-.2256c.1205-.075.241-.15.36-.227.0319-.0206.0484-.0162.0675.0165.0614.105.1257.2083.191.3158-.1276.0772-.2514.15-.3735.2262a.4142.4142,0,0,0,.4508.695l.0037-.0024c.1115-.0735.2281-.1391.3456-.21.0688.1132.136.2225.2008.3334a.0426.0426,0,0,1-.0129.0393c-.156.0907-.3079.1908-.4715.2653a.7091.7091,0,0,1-.45.0363.8567.8567,0,0,1-.3693-.1693.83.83,0,0,1-.2289-.3.9871.9871,0,0,1-.0733-.41Z"/><path d="M2.9191,3.7686l.11-.0769c.0678.1816.1326.3577.1993.5328.05.13.0949.2632.1548.3888a.3315.3315,0,0,0,.4453.1462A.3491.3491,0,0,0,4.02,4.5318a.3431.3431,0,0,0-.0185-.2149q-.1761-.4713-.3517-.9427c-.0052-.0138-.0094-.028-.0127-.0379l.41-.2479c.0073.0112.0176.0261.027.0416q.4424.731.8851,1.4619a.3266.3266,0,0,1-.1065.4315q-.7353.44-1.4666.8873c-.0409.0249-.0576.0194-.0817-.0206q-.4284-.7128-.86-1.4236A.3816.3816,0,0,1,2.3814,4.23a.2972.2972,0,0,1,.1268-.2181c.037-.0265.0786-.0466.1188-.07-.0731-.2028-.1479-.4011-.2161-.6018a.48.48,0,0,1,.4847-.6406.4735.4735,0,0,1,.4368.34q.1614.4343.3224.8685c.06.16.1179.3212.181.48a.1686.1686,0,0,1-.17.2233.1883.1883,0,0,1-.1522-.1369c-.1059-.2776-.2068-.5572-.3109-.8354-.064-.1712-.1306-.3414-.1961-.512a.1494.1494,0,0,0-.1907-.0907h0l-.0007,0a.1468.1468,0,0,0-.0936.1855v0C2.7842,3.4029,2.8512,3.5814,2.9191,3.7686Z"/><path d="M4.58,2.9946l.2058.1164.1485-.3294c.0634.0345.1229.063.1779.0984.0314.02.035.005.0451-.0183.0419-.0972.0854-.1935.1307-.2956l.2058.1157.15-.3277.2051.1134.15-.329.2048.1158.2-.3227.1227.2327.2771-.2.0336.3077.3444-.0055-.1415.2671.3365.0829-.2835.2.26.2687L7.0672,3.11l.0411.28-.2528-.0623-.07.2858L6.5,3.5428,6.429,3.83l-.2872-.0707-.07.2855L5.7959,3.977l-.07.2854-.2873-.0707-.0686.279c-.1-.0247-.1959-.046-.29-.0733-.018-.0052-.0318-.0324-.043-.0521-.0238-.0418-.0676-.09-.06-.1267.0068-.0326.0711-.0543.1113-.0786q.8243-.4993,1.649-.9983a.3953.3953,0,0,0,.173-.4856.3805.3805,0,0,0-.3989-.2652.4466.4466,0,0,0-.201.062q-.8624.5151-1.72,1.0389c-.0423.0257-.0649.023-.0848-.0219a.2853.2853,0,0,0-.0367-.0608.1183.1183,0,0,1-.0105-.1468C4.5045,3.1783,4.5386,3.0879,4.58,2.9946Z"/><path d="M4.9771,4.2186c.0068-.0326.071-.0543.1112-.0786q.8244-.4993,1.6491-.9983a.3953.3953,0,0,0,.173-.4856.3805.3805,0,0,0-.3989-.2652.4466.4466,0,0,0-.201.062q-.8624.5151-1.72,1.0389c-.0423.0257-.0649.023-.0848-.0219C4.4965,3.4482,4.97,4.2552,4.9771,4.2186Z" fill="#7b7c7c"/></g><g id="icon-border"><path d="M5,1.0283A3.9715,3.9715,0,1,1,1.0285,5,3.9774,3.9774,0,0,1,5,1.0283m0-1A4.9715,4.9715,0,1,0,9.9715,5,4.9717,4.9717,0,0,0,5,.0283" fill="#d63e03"/></g></svg>