<svg xmlns="http://www.w3.org/2000/svg" width="10" height="10" viewBox="0 0 10 10"><title>Mapeo DEFAULT v2 icon-library-threats</title><g id="icon-border"><path d="M5,.0327A4.9713,4.9713,0,1,0,9.9713,5.004,4.9713,4.9713,0,0,0,5,.0327Z" fill="#d63e03"/><path d="M5,1.0327A3.9713,3.9713,0,1,1,1.0287,5.004,3.9758,3.9758,0,0,1,5,1.0327" fill="#fff"/></g><g id="icons"><path d="M5.5888,4.4542l1.55-.0689a.7276.7276,0,0,1-.7441.6872A.7909.7909,0,0,1,5.5888,4.4542Z" fill="#c19157"/><path d="M4.6449,4.9285c-.0207.0026-.02.0215-.0236.0347a.9885.9885,0,0,1-.5993.651.5313.5313,0,0,0-.1435.0625c-.03-.0293-.0627-.057-.0909-.0882a.1412.1412,0,0,1-.0145-.1264.8824.8824,0,0,1,.27-.535.5146.5146,0,0,1,.4308-.133.2136.2136,0,0,1,.1215.0816C4.6123,4.893,4.6285,4.9109,4.6449,4.9285Z" fill="#e2b886"/><path d="M4.8183,4.1854a.2916.2916,0,0,1,.14-.1576,1.4086,1.4086,0,0,1,.4914-.19,2.4924,2.4924,0,0,1,.469-.0617.02.02,0,0,0,.0195-.0084h.4737a.6025.6025,0,0,0,.146.0161A2.09,2.09,0,0,1,7.331,3.99a.4314.4314,0,0,1,.1931.1708.1209.1209,0,0,1,.0071.0243.8648.8648,0,0,1-.0547.0933.73.73,0,0,1-.1725.1372l-.1653.0708-.1625.0452a.9967.9967,0,0,0-.157.0325c-.1329.018-.2662.0331-.4.0406-.0542-.0054-.1077.0065-.1617.0057a4.98,4.98,0,0,1-.5663-.0251,1.17,1.17,0,0,0-.1628-.0216l-.2355-.0512a1.3446,1.3446,0,0,0-.1656-.0587l-.0353-.018A.51.51,0,0,1,4.8183,4.1854Z" fill="#e2b886"/><path d="M6.977,4.6531l.1615-.1647c.0006.02.0016.0394.0016.0591l0,.7052a.0805.0805,0,0,0,.1056.0838c.0348-.0094.0577-.0494.0577-.1034q0-.41,0-.819a.74.74,0,0,0,.1725-.144.9109.9109,0,0,0,.0547-.098.117.117,0,0,1,.01.0664c0,1.2333.0006,3.477.0006,3.477a1.0539,1.0539,0,0,1-.3647.4489,2.2068,2.2068,0,0,1-1.0841.2314,2.3852,2.3852,0,0,1-1.0836-.28.6229.6229,0,0,1-.202-.3347s0-.7044.0012-1.1321a.0962.0962,0,0,0-.0315-.0751q-.4962-.4949-.9909-.9911c.0445-.0278.1157.0354.1664.0218a.9348.9348,0,0,0,.5906-.6237c.0037-.0132-.0114-.1436.0094-.1463l.243.25.0123-.0066v-.043q0-.3937,0-.7875a.1534.1534,0,0,1,.01-.0758.52.52,0,0,0,.2734.2632l.0354.019,0,.5961c0,.0651-.0012.13,0,.1956.0016.0622.0374.0962.0928.0917.047-.0037.07-.0357.07-.0985q.0009-.3615.0015-.7233L5.528,4.57q0,.6078,0,1.2157a.2111.2111,0,0,0,.0047.0448.0784.0784,0,0,0,.0838.0728h0l.0084-.001a.0813.0813,0,0,0,.0663-.09q0-.61-.0008-1.22c.2067.3409.3761.2663.5652.2638,0,.13.0008.0233,0,.1537a.086.086,0,0,0,.0158.0555.0784.0784,0,0,0,.0836.0334A.0941.0941,0,0,0,6.42,4.999c.0007-.1288.0011,0,.0007-.1288.1341-.0078.2659-.0633.3989-.0822.0006.02.0018.6842.0018,1.1059,0,.0557.0311.09.0789.09a.0784.0784,0,0,0,.0771-.08l-.0005-.0079C6.9765,5.4428,6.9773,5.1066,6.977,4.6531Z" fill="#7f6347"/><path d="M5.1,6.6579c-.3772-.3686-.722-.6963-1.0992-1.0649-.0208.017-.0623.01-.103.0084s-.15-.04-.0995.01.8441.8273,1.2445,1.2187A.52.52,0,0,0,5.1,6.6579Z" fill="#3e3129"/><path d="M6.42,8.3656c0-.2637.0006-.5274,0-.7911a.0756.0756,0,0,1,.0611-.0832.0791.0791,0,0,1,.0878.0425.0934.0934,0,0,1,.007.0532q0,.3842,0,.7684A.7608.7608,0,0,1,6.42,8.3656Z" fill="#3d3028"/><path d="M5.6908,8.336q0-.3.0011-.5995c0-.064.0322-.0976.0882-.095.0444.0021.0746.0389.0751.0958.0009.109,0,.218,0,.3271l0,.2861A.7754.7754,0,0,1,5.6908,8.336Z" fill="#3e3129"/><path d="M6.8948,8.2624c0-.1547,0-.3094,0-.464a.1573.1573,0,0,1,.0133-.0751.0788.0788,0,0,1,.15.0353c.0007.1562,0,.3124,0,.4686A.8273.8273,0,0,1,6.8948,8.2624Z" fill="#3e3129"/><path d="M6.0931,8.3958c0-.0727-.0008-.1455,0-.2182.0007-.0624.0315-.0987.0817-.0986s.081.0363.0816.0987c.0007.0727,0,.1455,0,.2182Z" fill="#3e3129"/><path d="M6.9761,4.67q0,.68,0,1.3605a.0784.0784,0,0,1-.0686.0871L6.9,6.1184c-.0477.0006-.0789-.0342-.0789-.09q0-.6324,0-1.2649c0-.02.0006.02,0,0C6.8721,4.7477,6.9229,4.6772,6.9761,4.67Z" fill="#3d3028"/><path d="M5.6908,4.5922q.0006.61.0009,1.22a.0815.0815,0,0,1-.0664.09.0786.0786,0,0,1-.0911-.0636L5.5331,5.83a.217.217,0,0,1-.0047-.0448q0-.608,0-1.2157A1.1147,1.1147,0,0,1,5.6908,4.5922Z" fill="#3e3129"/><path d="M7.3039,4.4141q0,.4095,0,.819c0,.0539-.0228.094-.0577.1034a.0806.0806,0,0,1-.1018-.0513A.08.08,0,0,1,7.14,5.2527Q7.14,4.9,7.14,4.5475c0-.02-.001-.04-.0016-.0591Z" fill="#3e3129"/><path d="M5.2925,4.5158l-.0016.7233c0,.0628-.0233.0948-.07.0985-.0554.0044-.0912-.03-.0927-.0918-.0017-.0651,0-.13,0-.1956l0-.596A1.2849,1.2849,0,0,1,5.2925,4.5158Z" fill="#3e3129"/><path d="M6.4188,4.8525c0,.1288.0015.2576.0008.3864a.0942.0942,0,0,1-.064.1A.0783.0783,0,0,1,6.272,5.305.0858.0858,0,0,1,6.2562,5.25q.0009-.1955.0009-.3911C6.3111,4.8592,6.3646,4.8468,6.4188,4.8525Z" fill="#3e3129"/><path d="M1.5266,4.41c.0221-.04.0419-.0812.0669-.1192a.64.64,0,0,1,.1949-.1976c.1055-.0658.2111-.1315.3155-.1988.028-.0181.0424-.0142.0592.0144.0537.092.11.1824.1673.2766-.1118.0676-.22.1316-.3271.1981a.3628.3628,0,0,0,.3948.6087L2.4013,4.99c.0976-.0643.2-.1218.3027-.1841.06.0991.1191.1949.1758.2919a.0374.0374,0,0,1-.0112.0345c-.1367.0794-.27.167-.413.2323a.62.62,0,0,1-.3942.0318A.7507.7507,0,0,1,1.738,5.248a.7276.7276,0,0,1-.2-.2629.8666.8666,0,0,1-.0642-.3589Z"/><path d="M2.7638,3.2879,2.86,3.2206c.0594.159.1161.3132.1746.4666.0435.1142.0831.2305.1355.3405a.29.29,0,0,0,.39.1281.306.306,0,0,0,.1678-.1995.3.3,0,0,0-.0162-.1882q-.1542-.4127-.308-.8256l-.0111-.0332.3587-.2171c.0064.01.0154.0229.0236.0364q.3875.64.7752,1.28a.2862.2862,0,0,1-.0932.3779q-.6441.3855-1.2845.777c-.0358.0218-.05.0171-.0715-.018q-.3751-.6243-.7533-1.2468a.3335.3335,0,0,1-.055-.2074.26.26,0,0,1,.111-.191c.0324-.0232.0689-.0408.1041-.0613-.064-.1776-.13-.3514-.1893-.5271a.4207.4207,0,0,1,.4245-.561.4146.4146,0,0,1,.3825.298q.1414.38.2824.7607c.0523.14.1033.2813.1585.42a.1476.1476,0,0,1-.0914.1877.1456.1456,0,0,1-.0571.0078.1647.1647,0,0,1-.1333-.12c-.0927-.2431-.1811-.4879-.2723-.7316-.0561-.15-.1144-.299-.1718-.4484a.1308.1308,0,0,0-.167-.0794h0l-.0005,0a.1288.1288,0,0,0-.0821.1625l0,0C2.6456,2.9676,2.7044,3.124,2.7638,3.2879Z" fill="#ff6700"/><path d="M4.2184,2.61l.18.1019.13-.2885c.0555.03.1076.0552.1558.0862.0275.0177.0306.0044.04-.016.0367-.0851.0748-.17.1145-.2589l.18.1014L5.15,2.0491l.18.0993L5.4609,1.86l.1794.1014.1747-.2826.1075.2038.2427-.1755.0294.27.3016-.0049-.1238.234.2946.0725-.2483.1753.2275.2353-.25.0215.036.2453-.2214-.0545-.0616.25L5.9,3.09l-.0618.2515L5.5862,3.28l-.0615.25L5.2833,3.47l-.0615.25L4.97,3.6585l-.06.2443c-.0879-.0216-.1716-.04-.2537-.0641-.0158-.0046-.0279-.0285-.0377-.0457-.0209-.0366-.0592-.0789-.0525-.1109.0059-.0286.0622-.0476.0974-.0689q.722-.4374,1.4442-.8743a.3462.3462,0,0,0,.1515-.4253A.3334.3334,0,0,0,5.91,2.0813a.3924.3924,0,0,0-.176.0543q-.7553.4512-1.506.91c-.0371.0225-.0569.02-.0743-.0191a.2449.2449,0,0,0-.0322-.0533.1035.1035,0,0,1-.0092-.1285C4.1523,2.7709,4.1821,2.6918,4.2184,2.61Z"/><path d="M4.5662,3.6821c.0059-.0286.0622-.0476.0974-.0689q.722-.4374,1.4442-.8743a.3462.3462,0,0,0,.1515-.4253A.3334.3334,0,0,0,5.91,2.0813a.3924.3924,0,0,0-.176.0543q-.7553.4512-1.506.91c-.0371.0225-.0569.02-.0743-.0191C4.1452,3.0073,4.56,3.7141,4.5662,3.6821Z" fill="#7b7c7c"/></g></svg>