<svg id="icons" xmlns="http://www.w3.org/2000/svg" width="100" height="100" viewBox="0 0 100 100"><title>threats</title><path d="M58.69,42.9955l19.511-.8674s-.5929,8.7776-9.3692,8.6523S58.69,42.9955,58.69,42.9955Z" fill="#c19157"/><path d="M46.8053,48.9668c-.2616.0332-.25.2711-.2974.4373A12.4457,12.4457,0,0,1,38.9626,57.6a6.6773,6.6773,0,0,0-1.8066.7868c-.3836-.3689-.79-.7171-1.1444-1.111a1.7786,1.7786,0,0,1-.1835-1.59,11.1121,11.1121,0,0,1,3.404-6.7361,6.4762,6.4762,0,0,1,5.4233-1.6751,2.689,2.689,0,0,1,1.5295,1.0276C46.3943,48.5205,46.5986,48.7448,46.8053,48.9668Z" fill="#e2b886"/><path d="M48.9875,39.6111a3.672,3.672,0,0,1,1.758-1.9838,17.75,17.75,0,0,1,6.1877-2.3882,31.4421,31.4421,0,0,1,5.9048-.7768.2542.2542,0,0,0,.2451-.1047h5.9644a7.62,7.62,0,0,0,1.8371.2026,26.3157,26.3157,0,0,1,9.7391,2.5944,5.4315,5.4315,0,0,1,2.4318,2.15,1.5488,1.5488,0,0,1,.09.3061,10.9582,10.9582,0,0,1-.69,1.1752,9.2218,9.2218,0,0,1-2.1713,1.7269l-2.0819.8912-2.0458.5692a12.4738,12.4738,0,0,0-1.9762.4094c-1.6736.2268-3.3513.4166-5.04.511-.682-.0675-1.3562.0813-2.0362.0718a62.6975,62.6975,0,0,1-7.13-.316,14.7148,14.7148,0,0,0-2.0491-.2718l-2.9658-.6443a16.642,16.642,0,0,0-2.0841-.7389c-.1482-.076-.2955-.155-.4449-.2278A6.4224,6.4224,0,0,1,48.9875,39.6111Z" fill="#e2b886"/><path d="M76.167,45.5l2.0338-2.0741c.0067.2482.0192.4964.0194.7438q.0019,4.44.003,8.8793a1.0152,1.0152,0,0,0,1.33,1.0549c.438-.1182.7259-.622.7265-1.3018q.0044-5.1558.0031-10.3116a9.3115,9.3115,0,0,0,2.1713-1.8129,11.6429,11.6429,0,0,0,.69-1.2338,1.4743,1.4743,0,0,1,.1278.8363c.0019,15.5266.0072,43.7755.0072,43.7755s-1.585,3.8629-4.5916,5.6527-7.835,2.9136-13.6492,2.9136c-4.405,0-11.5678-1.8422-13.6421-3.5264a7.8433,7.8433,0,0,1-2.5431-4.2142s.0015-8.8687.0149-14.2545a1.2113,1.2113,0,0,0-.3966-.9449q-6.2474-6.23-12.4758-12.4786c.56-.35,1.4569.4464,2.0947.275a11.7671,11.7671,0,0,0,7.4356-7.8533c.0473-.1655-.1429-1.808.1191-1.8419l3.06,3.1529.1545-.0827V50.312q0-4.9576.0009-9.9151a1.9392,1.9392,0,0,1,.1271-.9548,6.5535,6.5535,0,0,0,3.4428,3.3145c.15.0763.2967.1592.4449.2392q.002,3.752.0035,7.5041c0,.82-.0151,1.6428.0056,2.4629.02.7839.4708,1.2112,1.1681,1.1554.5927-.0473.8851-.45.8864-1.24q.0119-4.5533.02-9.1066l2.9657.6763q.0016,7.6535.0053,15.306a2.6591,2.6591,0,0,0,.0585.5647.9887.9887,0,0,0,1.0558.9169h0a.9587.9587,0,0,0,.1055-.013,1.0235,1.0235,0,0,0,.835-1.1269q0-7.6826-.0106-15.3636c2.6032,4.2919,4.7358,3.3526,7.1169,3.3209-.0029,1.6409.01.2934.0023,1.9347a1.0718,1.0718,0,0,0,.1988.6992.9842.9842,0,0,0,1.0519.4207,1.1852,1.1852,0,0,0,.8059-1.2529c.0089-1.622.0136,0,.0089-1.622,1.6885-.0984,3.3483-.7967,5.0219-1.0348.0077.2482.0234,8.6152.0235,13.9239,0,.7018.3916,1.14.9928,1.1331a.9878.9878,0,0,0,.9712-1.0042q-.0009-.05-.0067-.1C76.16,55.4422,76.1706,51.21,76.167,45.5Z" fill="#7f6347"/><path d="M52.5365,70.7407c-4.7491-4.6409-9.0911-8.7666-13.84-13.407-.2619.2133-.7834.131-1.2959.1059s-1.8906-.5041-1.2528.1278S46.7749,67.9829,51.8159,72.9117A6.57,6.57,0,0,0,52.5365,70.7407Z" fill="#3e3129"/><path d="M69.1517,92.2418c.0007-3.3206.0079-6.6408-.0041-9.9612a.951.951,0,0,1,.77-1.0466.994.994,0,0,1,1.105.5345,1.1834,1.1834,0,0,1,.0888.67q.0051,4.8373.0029,9.6747A9.61,9.61,0,0,1,69.1517,92.2418Z" fill="#3d3028"/><path d="M59.973,91.8689q.0063-3.7741.014-7.5483c.0026-.8053.4048-1.2292,1.111-1.196.559.027.9388.49.9445,1.2066.0119,1.3724.0039,2.7447.0035,4.1173q0,1.8014-.0024,3.6031A9.8407,9.8407,0,0,1,59.973,91.8689Z" fill="#3e3129"/><path d="M75.1321,90.9417c0-1.9473.0046-3.8948-.0046-5.8421a1.9988,1.9988,0,0,1,.1682-.9456.9928.9928,0,0,1,1.8911.4451c.0089,1.9665.0013,3.9329,0,5.8994A10.3921,10.3921,0,0,1,75.1321,90.9417Z" fill="#3e3129"/><path d="M65.0388,92.6221c-.0013-.9164-.0106-1.832-.0013-2.7479.0077-.785.3963-1.2421,1.0283-1.2417s1.0193.4573,1.027,1.2428c.009.9158-.0011,1.832-.0029,2.7476Z" fill="#3e3129"/><path d="M76.155,45.7161q.0032,8.5643.0049,17.1288a.9865.9865,0,0,1-.9641,1.1038c-.6009.0067-.9928-.4313-.9928-1.1331Q74.2,54.8526,74.2008,46.89c0-.2482.0071.2478,0,0C74.8459,46.6907,75.4855,45.8032,76.155,45.7161Z" fill="#3d3028"/><path d="M59.9733,44.7328q.0066,7.6826.0107,15.3634a1.0235,1.0235,0,0,1-.8351,1.1269.99.99,0,0,1-1.1479-.8006.9755.9755,0,0,1-.0128-.1037,2.66,2.66,0,0,1-.0591-.5647q-.0061-7.6532-.0052-15.3059A14.0414,14.0414,0,0,1,59.9733,44.7328Z" fill="#3e3129"/><path d="M80.2824,42.49q-.0009,5.1558-.0031,10.3115c0,.68-.2877,1.1837-.7265,1.3019a1.0153,1.0153,0,0,1-1.33-1.0548q-.008-4.44-.0032-8.8793c0-.2482-.0125-.4964-.0194-.7439Z" fill="#3e3129"/><path d="M54.9585,43.7712q-.01,4.5532-.02,9.1067c-.002.79-.2943,1.1927-.8865,1.24-.6973.0557-1.1481-.3716-1.168-1.1556-.0212-.82-.0052-1.6418-.0055-2.4629q-.0021-3.752-.0038-7.504A16.1009,16.1009,0,0,1,54.9585,43.7712Z" fill="#3e3129"/><path d="M69.1393,48.01c.0047,1.6219.0187,3.244.01,4.8661a1.1854,1.1854,0,0,1-.806,1.2528.9845.9845,0,0,1-1.0519-.4206,1.0734,1.0734,0,0,1-.1988-.6993c.0073-1.6408.0078-3.2825.0107-4.9237C67.7833,48.0942,68.457,47.9385,69.1393,48.01Z" fill="#3e3129"/><path d="M7.5442,42.4367c.2788-.5018.5283-1.0231.8428-1.5015a8.0568,8.0568,0,0,1,2.4539-2.488c1.3284-.8274,2.6571-1.655,3.9723-2.5029.3518-.2269.5339-.1789.745.1822.6767,1.1577,1.386,2.2964,2.1063,3.4819-1.4078.8509-2.7726,1.6572-4.1189,2.494a4.5674,4.5674,0,0,0,4.9709,7.6636l.0408-.0268c1.2292-.81,2.5146-1.5341,3.8111-2.3189.7577,1.2483,1.4992,2.4539,2.2137,3.6761a.4691.4691,0,0,1-.1419.4338c-1.72,1-3.3958,2.1034-5.1995,2.9252a7.8193,7.8193,0,0,1-4.9633.4,9.4581,9.4581,0,0,1-4.0719-1.8663,9.1541,9.1541,0,0,1-2.5236-3.31,10.8885,10.8885,0,0,1-.8083-4.519Z"/><path d="M23.1215,28.3118l1.2148-.8479c.7477,2.0023,1.4615,3.9435,2.1977,5.8753.5477,1.4378,1.0461,2.9018,1.707,4.2869a3.6548,3.6548,0,0,0,4.91,1.6121,3.8557,3.8557,0,0,0,2.1129-2.511,3.7824,3.7824,0,0,0-.2045-2.37q-1.9412-5.1963-3.8781-10.3948c-.057-.1527-.1035-.3089-.14-.4179l4.5166-2.7332c.08.123.1941.2872.2974.4579q4.8781,8.0611,9.76,16.12a3.6027,3.6027,0,0,1-1.1745,4.7579Q36.3335,47.0028,28.27,51.931c-.4509.2746-.6354.2146-.9008-.2271q-4.7237-7.8592-9.4838-15.697a4.2017,4.2017,0,0,1-.6925-2.6117A3.2758,3.2758,0,0,1,18.59,30.99c.4085-.2919.8673-.5136,1.3107-.7715-.8059-2.2363-1.6312-4.4237-2.383-6.6363a5.296,5.296,0,0,1,5.3443-7.0632,5.2206,5.2206,0,0,1,4.8161,3.7525q1.7795,4.7874,3.5556,9.5763c.6579,1.7677,1.3,3.5418,1.995,5.2947a1.8588,1.8588,0,0,1-1.8695,2.4622,2.0753,2.0753,0,0,1-1.6779-1.51c-1.1676-3.061-2.28-6.1432-3.4284-9.2114-.7062-1.8874-1.4407-3.7642-2.1628-5.6456a1.6464,1.6464,0,0,0-2.1029-1h0l-.0071.0026a1.62,1.62,0,0,0-1.0327,2.0452l.0018.0054C21.6336,24.2792,22.3729,26.2474,23.1215,28.3118Z" fill="#ff6700"/><path d="M41.4355,19.7771l2.2688,1.283,1.6375-3.6321c.6991.3807,1.3547.6954,1.9613,1.086.3461.2229.386.0549.4973-.2022.4622-1.0714.9418-2.1341,1.4414-3.26l2.2691,1.2763,1.656-3.6138,2.2616,1.25,1.65-3.6271,2.2588,1.2765,2.2006-3.558L62.89,10.6221l3.0553-2.2094.3708,3.3935,3.7973-.0608L68.5542,14.691l3.71.9132-3.1255,2.2065,2.8637,2.9631-3.1418.27.4534,3.0879L66.526,23.446l-.7755,3.1506-3.148-.7745-.7792,3.1668-3.1672-.78-.7745,3.1479-3.0394-.7481-.7745,3.1478-3.1672-.78-.7571,3.0757c-1.1058-.2723-2.16-.5071-3.194-.8077-.1986-.0577-.3506-.3579-.4742-.5746-.2628-.4609-.745-.9931-.6612-1.3969.0749-.3592.7832-.5989,1.2265-.8673Q56.13,26.9009,65.2238,21.4a4.3605,4.3605,0,0,0,1.9073-5.3553A4.1958,4.1958,0,0,0,62.7325,13.12a4.9325,4.9325,0,0,0-2.216.6835q-9.5082,5.6805-18.9607,11.4554c-.4671.2841-.7166.2541-.9354-.2407a3.1015,3.1015,0,0,0-.4053-.6707A1.3042,1.3042,0,0,1,40.1,22.7293C40.6025,21.8024,40.9781,20.8061,41.4355,19.7771Z"/><path d="M45.8134,33.2739c.0748-.3592.7831-.5989,1.2264-.8673Q56.13,26.9009,65.2238,21.4a4.3605,4.3605,0,0,0,1.9073-5.3553A4.1958,4.1958,0,0,0,62.7325,13.12a4.9325,4.9325,0,0,0-2.216.6835q-9.5082,5.6805-18.9607,11.4554c-.4671.2841-.7166.2541-.9354-.2407C40.5139,24.7789,45.73,33.6776,45.8134,33.2739Z" fill="#7b7c7c"/></svg>