<svg id="icons" xmlns="http://www.w3.org/2000/svg" width="100" height="100" viewBox="0 0 100 100"><title>culture</title><ellipse cx="48.9394" cy="48.8321" rx="27.6688" ry="36.8754"/><path d="M44.6661,47.8469s-4.1183,4.1393-9.1985,4.1393-9.1985-4.1393-9.1985-4.1393,4.1183-4.1393,9.1985-4.1393S44.6661,47.8469,44.6661,47.8469Z" fill="#fff"/><circle cx="32.8602" cy="46.2534" r="3.4766"/><path d="M72.2561,47.8469s-4.1183,4.1393-9.1985,4.1393-9.1985-4.1393-9.1985-4.1393,4.1183-4.1393,9.1985-4.1393S72.2561,47.8469,72.2561,47.8469Z" fill="#fff"/><circle cx="60.4502" cy="46.2534" r="3.4766"/><path d="M38.84,77.5177c1.1525-5.2488-6.6293-12.54-4.4642-13.4243s4.2972-1.2067,7.0915,2.808a12.8627,12.8627,0,0,1,2.4,5.46L61.2927,61.3262s4.1506-2.8344,5.2466-.32-1.9219,4.1319-1.9219,4.1319L50.2508,76.6834l6.6677-4.1962s3.3789-2.3933,4.83.17-1.769,3.9741-1.769,3.9741L51.55,82.008,59.5734,77.8s3.1482-1.7246,3.6066.9432S60.4076,82.72,60.4076,82.72L52.4108,87.498,58.5289,84.47s3.3463-1.842,3.7433,1.3636-3.1877,3.4182-3.1877,3.4182L39.6913,93.296,31.1,87.4116S37.6873,82.7665,38.84,77.5177Z" fill="#fff"/><path d="M52.385,21.1232A8.8619,8.8619,0,1,1,42.68,23.02" fill="none" stroke="#fff" stroke-miterlimit="10" stroke-width="1.8614"/><polygon points="47.314 19.276 55.739 18.119 53.104 25.59 47.314 19.276" fill="#fff"/></svg>