<svg xmlns="http://www.w3.org/2000/svg" width="10" height="10" viewBox="0 0 10 10"><title>Mapeo DEFAULT v2 icon-library-threats</title><g id="icon-border"><path d="M5,.0327A4.9713,4.9713,0,1,0,9.9713,5.004,4.9713,4.9713,0,0,0,5,.0327Z" fill="#d63e03"/><path d="M5,1.0327A3.9713,3.9713,0,1,1,1.0287,5.004,3.9758,3.9758,0,0,1,5,1.0327" fill="#fff"/></g><g id="icons"><path d="M8.0248,6.6132a.9635.9635,0,0,1-.0891.2563c-.0475.1354-.1036.2693-.1563.4037q-.0814.2076-.163.4151a.31.31,0,0,1-.0516.1175c-.0153-.0069.0063-.0415-.038-.0261a.3324.3324,0,0,1-.1118.0064q-2.3124.0006-4.6249,0a1.4183,1.4183,0,0,1-.2152,0c-.1061-.2538-.2154-.5071-.3171-.7618-.0584-.146-.1137-.2927-.1782-.4375a.1591.1591,0,0,1-.0057-.0494c-.0112-.0528.04-.1195-.0661-.1511l-.005-.0245.0193,0c.0183-.0061.027-.0325.0564-.015a.2516.2516,0,0,0,.1345.0146q2.94.0008,5.881,0c.0059.025-.0836.05,0,.075l-.0047.025A.1588.1588,0,0,0,8.0248,6.6132Z" fill="#4b5865"/><path d="M1.9669,6.2873c-.1251-.001-.25-.0046-.3753-.0022-.0632.0013-.0826-.015-.0778-.0575.0067-.06-.0337-.1362.0151-.1754s.1591-.0134.242-.0135Q2.81,6.0369,3.8493,6.0379c.0377,0,.0754-.0021.1132-.0033q.2628.0078.5256,0c.0261.0011.0522.003.0783.003H7.9485c.0261,0,.0522-.0019.0783-.0029.1539.0011.3078.0043.4615.0023.0662-.0008.0881.0178.0871.0618-.0051.2222.0383.1815-.2456.1852a.3107.3107,0,0,1-.0348,0c-.0714-.0066-.1342,0-.1644.0552.0067-.0462-.0283-.0532-.0846-.0531Q5.0064,6.2875,1.9669,6.2873Z" fill="#4f5b66"/><path d="M8.18,6.0374c-.0365.002-5.3675-.0054-5.404-.0075a4.3558,4.3558,0,0,1,.4145-.908.3957.3957,0,0,1,.2978-.1835A.2281.2281,0,0,0,3.7136,4.79a2.993,2.993,0,0,1,.233-.4435.9319.9319,0,0,1,.7509-.3929.7225.7225,0,0,1,.582.4657,1.188,1.188,0,0,0,.1987.3552.2391.2391,0,0,0,.4209-.0606,1.5761,1.5761,0,0,0,.0717-.2157c.0309.0019.0839-.0117.0834.0256-.0015.0891.0713.1329.1.2a.2685.2685,0,0,0,.2587.1607c.1113.0083.1551-.0818.2028-.1631a3.2614,3.2614,0,0,0,.1825-.59c.04-.1129.0459-.2419.1512-.3246a.5881.5881,0,0,1,.27.1243,1.7333,1.7333,0,0,1,.7431.9508A7.9129,7.9129,0,0,1,8.18,6.0374Z" fill="#f9e606"/><path d="M1.9669,6.2873q3.04,0,6.0791-.0013c.0563,0,.0913.0069.0846.0531l-.0045.0225H8.094q-2.9406,0-5.881,0a.25.25,0,0,1-.1346-.0146c-.0293-.0175-.0381.0089-.0563.015-.0063-.0213-.0094-.0442-.0476-.05Z" fill="#44505c"/><path d="M4.6975,3.9533a.9319.9319,0,0,0-.7509.3929,2.9836,2.9836,0,0,0-.233.4435.2281.2281,0,0,1-.2249.1487.3964.3964,0,0,0-.2979.1835,4.3607,4.3607,0,0,0-.4144.908c-.2451.01-.5285.01-.7736,0,.055-.2051.3971-1.0582.7749-1.0939a.2353.2353,0,0,0,.203-.1478,1.8351,1.8351,0,0,1,.3833-.6046,1.21,1.21,0,0,1,.4472-.2246,2.72,2.72,0,0,1,.7848-.0482C4.6345,3.9107,4.6808,3.8986,4.6975,3.9533Z" fill="#f9ba06"/><path d="M6.9491,3.8068c-.1053.0826-.1107.2116-.1512.3245a3.2669,3.2669,0,0,1-.1825.59c-.0477.0813-.0915.1714-.2028.1631a.2682.2682,0,0,1-.2587-.1607c-.0284-.0676-.1012-.1114-.1-.2.0006-.0374-.0525-.0238-.0835-.0257a3.221,3.221,0,0,1,.1967-.6385.3075.3075,0,0,1,.3213-.1922A.99.99,0,0,1,6.9491,3.8068Z" fill="#f9ba06"/><path d="M5.427,2.9725a.1033.1033,0,0,1-.1051.1015L5.3,3.0713c-.1423-.0223-.1914.0351-.1706.173a.0945.0945,0,0,1-.0641.1173.0969.0969,0,0,1-.0244.0038c-.0768.003-.1086-.0553-.0984-.1231.0215-.1419-.0348-.1916-.173-.1709a.0944.0944,0,0,1-.121-.0886c-.003-.0769.0555-.1085.1232-.0981.1428.022.19-.0357.1708-.1732a.0958.0958,0,1,1,.1865.0009c-.0207.14.0316.1943.172.1718a.1061.1061,0,0,1,.125.083Z" fill="#f9ba06"/><path d="M3.7438,1.83a.1015.1015,0,0,1-.0564.0659.2265.2265,0,0,1-.0724.0063c-.1848.0053-.1855.0051-.1932.1954-.0021.0515-.0011.0991-.0736.1-.0708.0006-.0779-.0434-.0761-.097,0-.0122,0-.0245,0-.0367-.0011-.1827.014-.1589-.1664-.1621-.0521-.001-.124.0223-.1259-.07-.0022-.1014.0754-.0762.1312-.0772.1791-.0034.16.0168.1611-.1674,0-.0285,0-.0571.0033-.0854.0044-.0419.039-.0516.071-.0517s.0661.0094.0716.0511c.0026.02.0027.0406.0033.0609.0055.1854.0055.1871.1972.1907C3.6765,1.7528,3.7225,1.7634,3.7438,1.83Z" fill="#f9ba06"/><path d="M5.9423,2.6868l.0142-.0191c.025-.0392-.0288-.1264.0547-.1227.0867.0037.0343.0906.0544.1366v.1031c-.0011.0121-.0013.0243-.0034.0363-.0069.04.0187.1022-.0509.1031-.0735.0009-.0373-.0652-.05-.1017-.0051-.0148-.0128-.0287-.0193-.0429Z" fill="#f9ba06"/><path d="M2.6413,3.8061c.0461.0188.1351-.032.1351.053s-.0887.0347-.135.0527L2.635,3.9067l0-.095Z" fill="#f7e99a"/><path d="M2.6414,3.9118c-.0206.0458.032.1359-.0535.136s-.0337-.09-.0534-.1357l.006-.0054H2.635Z" fill="#f7e795"/><path d="M2.5345,3.9122c-.0461-.0185-.1345.0315-.1346-.053s.0883-.0348.1344-.0532l.006.0057,0,.095Z" fill="#f7e99a"/><path d="M2.5343,3.8061c.0192-.0458-.0306-.1344.0535-.1344s.0343.0886.0534.1344l-.0059.0056H2.54Z" fill="#f7e99a"/><path d="M6.0657,2.7847V2.6816c.0475.0155.1358-.0326.1358.0515S6.1132,2.7691,6.0657,2.7847Z" fill="#f9ba06"/><path d="M5.9423,2.6868V2.78c-.02.0009-.0405.0023-.0607.0025-.037.0005-.0645-.01-.0611-.055.003-.039.0315-.0424.0611-.0427C5.9018,2.6841,5.922,2.6859,5.9423,2.6868Z" fill="#f9ba06"/><path d="M2.54,3.8117h.095l0,.0951H2.5405Z" fill="#f9ba06"/></g></svg>