<svg xmlns="http://www.w3.org/2000/svg" xmlns:xlink="http://www.w3.org/1999/xlink" width="10" height="10" viewBox="0 0 10 10"><defs><clipPath id="clip-path"><rect x="0.0117" width="10" height="10" fill="none"/></clipPath></defs><title>Mapeo DEFAULT v2 icon-library-threats</title><g id="icons"><path d="M7.69,6.5152a1.5344,1.5344,0,0,1-.0791.3186c-.0421.1683-.092.3346-.1387.5017q-.0723.258-.1447.5159a.4761.4761,0,0,1-.0458.1462c-.0136-.0086.0056-.0517-.0338-.0326a.2138.2138,0,0,1-.0992.0081q-2.0529.0008-4.1058,0a.91.91,0,0,1-.191.0005c-.0942-.3156-.1912-.63-.2815-.947-.0518-.1815-.1009-.3638-.1582-.5437a.2691.2691,0,0,1-.005-.0614c-.01-.0656.0354-.1486-.0587-.1879l-.0045-.03.0171,0c.0163-.0076.024-.04.05-.0187.0364.03.0793.0181.1194.0181q2.61.0009,5.2209,0c.0052.0311-.0743.0623,0,.0933l-.0041.031A.2393.2393,0,0,0,7.69,6.5152Z" fill="#4b5865"/><path d="M2.3118,6.11c-.111-.0013-.2222-.0058-.3331-.0027-.0561.0015-.0733-.0188-.0691-.0715.006-.0743-.03-.1693.0134-.2181s.1413-.0166.2149-.0168Q3.06,5.7989,3.9829,5.8c.0335,0,.067-.0026.1005-.004q.2332.01.4666,0c.0232.0013.0464.0037.07.0037q1.5013,0,3.0025,0c.0232,0,.0464-.0023.0695-.0036.1366.0014.2732.0054.41.0029.0588-.0011.0782.0221.0773.0768-.0044.2761.034.2255-.218.23a.2125.2125,0,0,1-.0309,0c-.0634-.0082-.1191-.0007-.1459.0686.0059-.0574-.0252-.0661-.0752-.0661Q5.01,6.11,2.3118,6.11Z" fill="#4f5b66"/><path d="M7.691,5.7943c-.0324.0017-.0649.005-.0973.005q-2.1,0-4.2,0c-.0324,0-.0648-.0034-.0972-.0052-.0155-.0865.061-.1319.1022-.1792a.3516.3516,0,0,1,.2644-.1629.2024.2024,0,0,0,.2-.132,2.6552,2.6552,0,0,1,.2068-.3937.827.827,0,0,1,.6667-.3488.6414.6414,0,0,1,.5166.4134,1.0545,1.0545,0,0,0,.1764.3154.2124.2124,0,0,0,.3737-.0539,1.4031,1.4031,0,0,0,.0636-.1914c.0274.0017.0745-.01.074.0227-.0013.079.0633.118.0885.178a.2383.2383,0,0,0,.23.1426c.0988.0074.1377-.0726.18-.1448a2.8934,2.8934,0,0,0,.1621-.524c.0359-.1.0407-.2148.1342-.2881a.5222.5222,0,0,1,.24.11,1.5384,1.5384,0,0,1,.66.844A1.02,1.02,0,0,1,7.691,5.7943Z" fill="#f9e606"/><path d="M2.3118,6.11q2.6983,0,5.3967-.0017c.05,0,.0811.0087.0752.0661l-.004.0279H7.7512q-2.61,0-5.2209,0c-.04,0-.083.0124-.1194-.018-.0261-.0218-.0338.011-.05.0186-.0055-.0266-.0083-.055-.0422-.0624Z" fill="#44505c"/><path d="M4.736,4.5775a.8269.8269,0,0,0-.6667.3488,2.6552,2.6552,0,0,0-.2068.3937.2026.2026,0,0,1-.2.132.3516.3516,0,0,0-.2644.1629c-.0412.0473-.1177.0927-.1022.1792q-.3264.0133-.6528,0A.4711.4711,0,0,1,3.0317,5.45a.2088.2088,0,0,0,.18-.1312,1.6326,1.6326,0,0,1,.34-.5368,1.075,1.075,0,0,1,.3971-.1994A2.4136,2.4136,0,0,1,4.6459,4.54C4.68,4.54,4.7211,4.529,4.736,4.5775Z" fill="#f9ba06"/><path d="M6.7348,4.4474c-.0935.0733-.0983.1879-.1342.2881a2.8909,2.8909,0,0,1-.1621.524c-.0423.0723-.0812.1522-.18.1449a.2385.2385,0,0,1-.23-.1427c-.0252-.06-.09-.0989-.0885-.178.0005-.0331-.0466-.021-.074-.0227a2.8454,2.8454,0,0,1,.1746-.5668.2729.2729,0,0,1,.2852-.1707A.88.88,0,0,1,6.7348,4.4474Z" fill="#f9ba06"/><path d="M5.3835,3.7068a.0916.0916,0,0,1-.0932.09l-.0195-.0024c-.1263-.02-.17.0311-.1514.1535a.0841.0841,0,0,1-.0786.1076c-.0682.0027-.0964-.0491-.0873-.1093.019-.126-.031-.17-.1536-.1517a.0842.0842,0,0,1-.1075-.0787c-.0026-.0682.0493-.0963.1094-.087.1268.02.1691-.0318.1516-.1538a.085.085,0,1,1,.1656.0008c-.0184.1241.0281.1725.1527.1525a.0942.0942,0,0,1,.111.0737Z" fill="#f9ba06"/><path d="M3.8893,2.6922a.09.09,0,0,1-.05.0585.1989.1989,0,0,1-.0643.0055c-.164.0047-.1647.0046-.1715.1735-.0018.0458-.001.088-.0653.0886S3.469,2.98,3.4705,2.9322c0-.0108,0-.0217,0-.0325-.001-.1622.0125-.1411-.1477-.144-.0462-.0008-.11.02-.1118-.0624-.0019-.09.067-.0677.1165-.0686.1591-.003.1418.0149.1431-.1486,0-.0253,0-.0507.0028-.0758.0039-.0372.0346-.0458.0631-.0459s.0587.0083.0635.0453c.0024.0179.0024.0361.003.0542.0049.1645.0048.166.1751.1692C3.83,2.624,3.87,2.6334,3.8893,2.6922Z" fill="#f9ba06"/><path d="M5.841,3.4532l.0126-.017c.0222-.0348-.0255-.1122.0486-.109.0769.0034.03.0805.0483.1213V3.54c-.001.0108-.0012.0217-.003.0323-.0062.0353.0165.0907-.0453.0915-.0652.0008-.0331-.0578-.0442-.09-.0044-.0131-.0113-.0254-.017-.0381Z" fill="#f9ba06"/><path d="M2.3481,6.2336c.0942.0393.0488.1223.0587.1879A.44.44,0,0,1,2.3481,6.2336Z" fill="#4f5b66"/><path d="M2.9105,4.4468c.041.0167.12-.0284.12.0471s-.0787.0308-.12.0468L2.905,4.5362l0-.0844Z" fill="#f7e99a"/><path d="M2.9106,4.5407c-.0183.0406.0284.1206-.0474.1207s-.03-.08-.0475-.12l.0054-.0049h.0838Z" fill="#f7e795"/><path d="M2.8157,4.541c-.0409-.0164-.1194.028-.1195-.047s.0784-.0309.1193-.0472l.0054.005,0,.0843Z" fill="#f7e99a"/><path d="M2.8155,4.4468c.0171-.0407-.0271-.1193.0475-.1193s.03.0787.0475.1193l-.0053.005H2.8209Z" fill="#f7e99a"/><path d="M5.9505,3.54V3.4485c.0422.0138.1206-.0289.1206.0458S5.9927,3.5263,5.9505,3.54Z" fill="#f9ba06"/><path d="M7.69,6.5152a.2393.2393,0,0,1,.0574-.1884A.4531.4531,0,0,1,7.69,6.5152Z" fill="#4f5b66"/><path d="M5.841,3.4532v.0822c-.018.0008-.0359.0021-.0539.0023-.0328,0-.0572-.0092-.0542-.0488.0026-.0346.0279-.0377.0542-.038C5.805,3.4507,5.823,3.4524,5.841,3.4532Z" fill="#f9ba06"/><path d="M7.7511,6.2025H7.78a.0994.0994,0,0,1-.0285.0934C7.6769,6.2648,7.7564,6.2336,7.7511,6.2025Z" fill="#4f5b66"/><path d="M2.3186,6.14c.0339.0073.0367.0358.0422.0624l-.0171,0C2.3138,6.1907,2.3161,6.1655,2.3186,6.14Z" fill="#4f5b66"/><path d="M2.8209,4.4518h.0843l0,.0844H2.8211Z" fill="#f9ba06"/></g><g id="icon-border"><g clip-path="url(#clip-path)"><g clip-path="url(#clip-path)"><path d="M5.0117,1.0283A3.9715,3.9715,0,1,1,1.0407,5a3.9774,3.9774,0,0,1,3.971-3.972m0-1A4.9715,4.9715,0,1,0,9.9837,5,4.9717,4.9717,0,0,0,5.0117.0283" fill="#d63e03"/></g></g></g></svg>