<svg id="icons" xmlns="http://www.w3.org/2000/svg" width="100" height="100" viewBox="0 0 100 100"><title>threats</title><path d="M87.98,71.2407a12.1437,12.1437,0,0,1-1.1219,3.2268c-.598,1.7045-1.3047,3.39-1.9682,5.0824q-1.0244,2.6132-2.0516,5.2255a3.9054,3.9054,0,0,1-.6495,1.48c-.1932-.0868.0795-.5229-.4787-.3294a4.2092,4.2092,0,0,1-1.4077.0816q-29.1148.007-58.23,0a17.9729,17.9729,0,0,1-2.709.0052c-1.3359-3.1962-2.7115-6.3843-3.9927-9.5916-.7345-1.8388-1.43-3.6851-2.2425-5.508a1.9825,1.9825,0,0,1-.0718-.6219c-.1417-.6647.5029-1.5047-.8328-1.9027l-.0634-.3091.2432-.0055c.23-.0771.3405-.4092.71-.1888a3.1572,3.1572,0,0,0,1.6938.183q37.022.0095,74.0439.0053c.074.3148-1.0529.63.001.9447l-.0584.3144A1.9991,1.9991,0,0,0,87.98,71.2407Z" fill="#4b5865"/><path d="M11.709,67.1374c-1.575-.0136-3.1513-.0586-4.7246-.0278-.7958.0155-1.04-.19-.98-.724.0846-.7529-.4245-1.7149.19-2.2092.632-.508,2.0035-.1684,3.0472-.17q13.0834-.0211,26.167-.01c.4751,0,.95-.0264,1.4251-.0406q3.3088.0982,6.6175,0c.3287.0129.6573.0372.9859.0372q21.291.0027,42.582,0c.3288,0,.6576-.0234.9864-.0359,1.9368.0138,3.8743.0541,5.81.0289.8333-.0109,1.1089.2242,1.0963.7779-.0635,2.7971.4819,2.2845-3.0923,2.332a4.2194,4.2194,0,0,1-.4385-.0017c-.8989-.0831-1.6893-.0071-2.0694.6952.0846-.5815-.3562-.67-1.0655-.6693Q49.9778,67.14,11.709,67.1374Z" fill="#4f5b66"/><path d="M89.9391,63.9911c-.46.0244-67.5789-.0691-68.0383-.0944-.22-1.2277,4.6344-10.7615,5.2184-11.4328.9488-1.0907,2.0614-2.37,3.75-2.31a2.8727,2.8727,0,0,0,2.832-1.8729,37.6451,37.6451,0,0,1,2.933-5.583,11.7291,11.7291,0,0,1,9.4549-4.9468c3.6386.4588,5.8647,2.6931,7.3267,5.8624a14.9554,14.9554,0,0,0,2.5017,4.4732c1.8656,1.9179,4.1221,1.6168,5.3-.7638a19.78,19.78,0,0,0,.902-2.7155c.3894.0241,1.0575-.1471,1.05.3227-.018,1.1209.8981,1.673,1.2555,2.5242a3.38,3.38,0,0,0,3.2571,2.0231c1.4012.1046,1.9533-1.03,2.5531-2.0541,1.3479-2.3016,1.4226-4.9889,2.2987-7.4319.51-1.4212.5775-3.0456,1.9035-4.0861A7.4136,7.4136,0,0,1,77.8388,37.47a21.8283,21.8283,0,0,1,9.3563,11.9709C87.8242,51.2262,90.0379,62.1005,89.9391,63.9911Z" fill="#f9e606"/><path d="M11.709,67.1374q38.2688-.0042,76.5376-.0171c.7093,0,1.15.0874,1.0655.6693l-.0568.2823-.4043.0017q-37.0219,0-74.0438-.0053a3.1551,3.1551,0,0,1-1.6938-.183c-.3693-.2205-.48.1116-.71.1888-.0787-.2692-.1183-.5574-.5993-.6321Z" fill="#44505c"/><path d="M46.0885,37.7515a11.729,11.729,0,0,0-9.4549,4.9468,37.6551,37.6551,0,0,0-2.9331,5.583,2.8724,2.8724,0,0,1-2.8319,1.8729c-1.6882-.06-2.8009,1.2191-3.75,2.31-.584.6713-5.438,10.205-5.2181,11.4327-3.086.1257-6.6544.1261-9.74,0,.6933-2.5825,5-13.3234,9.7573-13.7726a2.9641,2.9641,0,0,0,2.5549-1.8612c1.416-2.6566,2.3961-5.5654,4.8259-7.6124A15.2462,15.2462,0,0,1,34.93,37.8226c3.2436-.9729,6.576-.59,9.8807-.6062C45.2948,37.2145,45.878,37.0628,46.0885,37.7515Z" fill="#f9ba06"/><path d="M74.4369,35.906c-1.3259,1.04-1.3937,2.6649-1.9035,4.0862-.8761,2.4428-.9508,5.13-2.2987,7.4319-.6,1.0243-1.152,2.1586-2.5531,2.054a3.38,3.38,0,0,1-3.2571-2.0231c-.3574-.8511-1.2737-1.4033-1.2555-2.5242.0076-.47-.6609-.2985-1.05-.3227.7224-2.7124,1.1993-5.51,2.4764-8.039a3.87,3.87,0,0,1,4.0451-2.42A12.4766,12.4766,0,0,1,74.4369,35.906Z" fill="#f9ba06"/><path d="M55.2726,25.4026a1.3,1.3,0,0,1-1.5982,1.244c-1.7922-.28-2.41.4412-2.1482,2.1775a1.19,1.19,0,0,1-1.1147,1.5248c-.9662.0386-1.3672-.6954-1.2382-1.549.27-1.7877-.4386-2.4133-2.1784-2.1523a1.1906,1.1906,0,0,1-1.5238-1.1156c-.037-.9678.6987-1.3663,1.5515-1.2348,1.7978.2772,2.3974-.45,2.15-2.1809a1.2056,1.2056,0,1,1,2.3477.0118c-.2605,1.76.3988,2.4458,2.1655,2.1626a1.3363,1.3363,0,0,1,1.5746,1.0452C55.2653,25.358,55.2692,25.38,55.2726,25.4026Z" fill="#f9ba06"/><path d="M34.0815,11.0129a1.2783,1.2783,0,0,1-.7111.83,2.8141,2.8141,0,0,1-.9118.0784c-2.3265.0667-2.3353.0649-2.4322,2.46-.0263.65-.0141,1.2479-.9265,1.2567-.8918.0081-.98-.5458-.9584-1.2208.005-.1538,0-.308,0-.4619-.014-2.3.1769-2.0008-2.0947-2.0415-.6557-.0118-1.5609.2815-1.5855-.8854-.027-1.2772.95-.96,1.6521-.9729,2.2558-.0423,2.01.2115,2.029-2.1069.0029-.3587.0034-.7191.0407-1.0754.0555-.5281.4908-.65.8938-.6514s.833.1183.9017.6436c.0331.2538.0337.5113.0414.7674.07,2.3337.0692,2.3556,2.4835,2.4005C33.2341,10.0464,33.813,10.1791,34.0815,11.0129Z" fill="#f9ba06"/><path d="M61.76,21.8054c.06-.08.1264-.156.18-.24.3141-.4941-.3629-1.5911.688-1.5456,1.092.0473.4323,1.1408.6857,1.72v1.298c-.0138.1526-.0169.3067-.0431.4576-.0869.5006.235,1.2866-.6413,1.2977-.9248.0117-.4694-.82-.6271-1.28-.0635-.186-.16-.3607-.2422-.54Q61.76,22.3889,61.76,21.8054Z" fill="#f9ba06"/><path d="M20.2,35.8973c.5809.2371,1.7016-.403,1.7013.6679s-1.116.437-1.7.6637l-.08-.064q.0018-.5979.0028-1.1964Z" fill="#f7e99a"/><path d="M20.2008,37.2288c-.2594.5768.4033,1.7108-.6726,1.7123-1.0775.0015-.4245-1.1285-.6731-1.7082l.0761-.0682H20.12Z" fill="#f7e795"/><path d="M18.8551,37.233c-.58-.2319-1.6931.3971-1.6946-.6662s1.1119-.4385,1.692-.67l.0758.0712.0032,1.1961Z" fill="#f7e99a"/><path d="M18.8526,35.8972c.2418-.5763-.3848-1.692.6737-1.6914s.4315,1.1153.6729,1.692l-.0751.0706H18.9284Z" fill="#f7e99a"/><path d="M63.3139,23.0377V21.74c.5983.1952,1.71-.41,1.71.6488S63.912,22.8422,63.3139,23.0377Z" fill="#f9ba06"/><path d="M61.76,21.8054V22.972c-.2546.0112-.5093.0294-.7641.0326-.4653.0058-.8113-.1306-.7686-.6927.0373-.4908.3959-.5338.7686-.5381C61.2505,21.7709,61.5055,21.794,61.76,21.8054Z" fill="#f9ba06"/><path d="M18.9283,35.9685H20.124q-.0018.5988-.0032,1.1968h-1.19Q18.93,36.5662,18.9283,35.9685Z" fill="#f9ba06"/></svg>