<svg xmlns="http://www.w3.org/2000/svg" width="10" height="10" viewBox="0 0 10 10"><title>Mapeo DEFAULT v2 icon-library-nature</title><g id="icon-border"><path d="M5,.029A4.9713,4.9713,0,1,0,9.9713,5,4.9713,4.9713,0,0,0,5,.029Z" fill="#2d9905"/><path d="M5,1.029A3.9713,3.9713,0,1,1,1.0287,5,3.9758,3.9758,0,0,1,5,1.029" fill="#fff"/></g><g id="icons"><path d="M8.9427,5.2831l-.0052-.0019L8.4688,5.107l-.5626-.3882s-.8437-.3438-1.0312-.125S5.68,3.4518,5.5866,3.2018,5,3.1562,5,3.1562a.4554.4554,0,0,0-.25-.4109C4.5,2.6516,4.0938,4,4.0938,4l-.5.8438s-.2188-.625-.5-.3438c-.2314.2314-1.2554,1.7574-1.6152,2.2973A3.9464,3.9464,0,0,0,8.9427,5.2831Z" fill="#606363"/><path d="M8.7721,6.18a11.3373,11.3373,0,0,0-3.6213-.2475A14.8369,14.8369,0,0,0,2.1517,7.7568,3.9452,3.9452,0,0,0,8.7721,6.18Z" fill="#155611"/><path d="M2.5443,8.0969a3.9209,3.9209,0,0,0,5.232-.2646,10.5126,10.5126,0,0,0-2.9036-.924A5.44,5.44,0,0,0,2.5443,8.0969Z" fill="#5bd36c"/><path d="M4.5276,3.1976s.1155-.1505.1979-.0682.0039.3765.0745.4S5,3.357,5,3.357s.1765.4665.2941.5371a8.6388,8.6388,0,0,0,.8471.4,3.8473,3.8473,0,0,1,.451.2579A11.8669,11.8669,0,0,1,5.5094,3.2458c-.0925-.2371-.3655-.1195-.5094-.09-.141.0294-.0314-.05-.0667-.16s-.144-.3159-.2352-.1671A1.2355,1.2355,0,0,0,4.5276,3.1976Z" fill="#bbbfbf"/><path d="M3.2353,4.552s.1059.06.0941.3068.2715.2353.2706.2824.0088.3117.0088.3706.3736-.2765.3736-.2765a1.2673,1.2673,0,0,1-.1765.2235c-.1194.0965-.2574.14-.3045.034S3.6,5.2471,3.6,5.1412a.6152.6152,0,0,0-.2-.4706Z" fill="#bbbfbf"/></g></svg>