<svg xmlns="http://www.w3.org/2000/svg" width="10" height="10" viewBox="0 0 10 10"><title>Mapeo DEFAULT v2 icon-library-nature</title><g id="icons"><path d="M1.3438,7s1.4687-2.2188,1.75-2.5.5.3438.5.3438L4.0938,4S4.5,2.6516,4.75,2.7453A.4554.4554,0,0,1,5,3.1562s.4928-.2044.5866.0456S6.6875,4.8125,6.875,4.5938s1.0312.125,1.0312.125l.5626.3882.4687.1742.8125.2813A3.9633,3.9633,0,0,1,8.4688,8.1562C7.2188,9.3125,6.5938,9.8125,5,9.5625s-3.75-1.375-4-2S1.3438,7,1.3438,7Z" fill="#606363"/><path d="M1.5332,8.2163A20.0492,20.0492,0,0,1,5.1508,5.9327c1.0332-.3033,4.0045.3224,4.0045.3224s-1.4665,2.9376-3.032,3.05A14.9814,14.9814,0,0,1,1.5332,8.2163Z" fill="#155611"/><path d="M8.04,7.9506A12.3092,12.3092,0,0,0,4.8728,6.9083C3.9264,6.9022,1.96,8.5522,1.96,8.5522s2.4954,1.003,3.5654.7042A10.8091,10.8091,0,0,0,8.04,7.9506Z" fill="#5bd36c"/><path d="M4.5276,3.1976s.1155-.1505.1979-.0682.0039.3765.0745.4S5,3.357,5,3.357s.1765.4665.2941.5371a8.6388,8.6388,0,0,0,.8471.4,3.8473,3.8473,0,0,1,.451.2579A11.8669,11.8669,0,0,1,5.5094,3.2458c-.0925-.2371-.3655-.1195-.5094-.09-.141.0294-.0314-.05-.0667-.16s-.144-.3159-.2352-.1671A1.2355,1.2355,0,0,0,4.5276,3.1976Z" fill="#bbbfbf"/><path d="M3.2353,4.552s.1059.06.0941.3068.2715.2353.2706.2824.0088.3117.0088.3706.3736-.2765.3736-.2765a1.2673,1.2673,0,0,1-.1765.2235c-.1194.0965-.2574.14-.3045.034S3.6,5.2471,3.6,5.1412a.6152.6152,0,0,0-.2-.4706Z" fill="#bbbfbf"/></g><g id="icon-border"><path d="M5,1.029A3.971,3.971,0,1,1,1.0285,5,3.9765,3.9765,0,0,1,5,1.029m0-1A4.971,4.971,0,1,0,9.9715,5,4.9709,4.9709,0,0,0,5,.029" fill="#2d9905"/></g></svg>