<svg xmlns="http://www.w3.org/2000/svg" width="100" height="100" viewBox="0 0 100 100"><title>_</title><g id="icons"><path d="M99.6408,53.5609l-.0661-.0231L93.673,51.3439l-7.0821-4.8882s-10.6231-4.3279-12.9838-1.5738S58.5662,30.5042,57.3858,27.3566,50,26.7833,50,26.7833s0-3.9936-3.1476-5.174S38.59,37.4064,38.59,37.4064L32.2951,48.03S29.5409,40.1606,26,43.7016C23.0867,46.6148,10.1951,65.8284,5.6651,72.6254A49.6867,49.6867,0,0,0,99.6408,53.5609Z" fill="#606363"/><path d="M97.4922,64.8564c-10.4948-1.9634-35.44-6.097-45.5931-3.1169C42.9082,64.3784,24.5982,77.097,14.14,84.7055A49.6711,49.6711,0,0,0,97.4922,64.8564Z" fill="#155611"/><path d="M19.0815,88.9873a49.3663,49.3663,0,0,0,65.8734-3.3312C77.3433,82.2849,57.8884,74.0839,48.398,74.0232,40.5767,73.9725,27.3339,82.8428,19.0815,88.9873Z" fill="#5bd36c"/><path d="M44.053,27.3036s1.4542-1.895,2.4911-.8582.0493,4.74.9381,5.0362S50,29.3105,50,29.3105s2.2218,5.8741,3.7031,6.7628S63.7755,41.11,64.368,41.11s5.6784,3.2465,5.6784,3.2465S57.5778,30.8947,56.4136,27.91,51.8116,26.4064,50,26.7833c-1.7747.3693-.395-.6319-.8393-2.0166s-1.8138-3.9774-2.9617-2.1039S45.3508,23.829,44.053,27.3036Z" fill="#bbbfbf"/><path d="M27.782,44.356s1.3331.7528,1.1849,3.8633,3.4183,2.9624,3.4068,3.5549.1111,3.9253.1111,4.6659,4.7029-3.4809,4.7029-3.4809a15.9716,15.9716,0,0,1-2.2218,2.8143c-1.5034,1.2145-3.2406,1.7606-3.8331.4275s1.2409-3.0937,1.2409-4.4268-.4443-4.4315-2.518-5.9248Z" fill="#bbbfbf"/></g></svg>