<svg xmlns="http://www.w3.org/2000/svg" xmlns:xlink="http://www.w3.org/1999/xlink" width="10" height="10" viewBox="0 0 10 10"><defs><clipPath id="clip-path"><rect x="0.0234" width="10" height="10" fill="none"/></clipPath></defs><title>Mapeo DEFAULT v2 icon-library-threats</title><g id="icons"><path d="M4.9156,1.3951s.2184,1.0714-.13,1.1644c-.2849.067-.2053-.3633-.2053-.3633s-.2806.8385.1948,1.0706a.4824.4824,0,0,0,.6783-.23C5.7932,2.3411,5.1329,2.0115,4.9156,1.3951Z" fill="#dd5d05"/><polygon points="4.844 3.547 4.844 5.007 4.13 5.007 3.625 8.421 3.99 8.421 4.445 5.366 4.844 5.366 4.844 6.371 4.524 6.051 4.462 6.495 4.771 6.804 4.355 7.219 4.265 7.815 4.844 7.236 4.844 8.421 5.203 8.421 5.203 5.366 5.602 5.366 5.681 5.888 5.383 6.192 5.383 6.697 5.748 6.338 5.911 7.433 5.383 6.91 5.383 7.416 6.001 8.039 6.057 8.421 6.422 8.421 5.916 5.007 5.203 5.007 5.203 3.547 4.844 3.547"/></g><g id="icon-border"><g clip-path="url(#clip-path)"><g clip-path="url(#clip-path)"><path d="M5.0234,1.0283A3.9715,3.9715,0,1,1,1.0524,5a3.9774,3.9774,0,0,1,3.971-3.972m0-1A4.9715,4.9715,0,1,0,9.9954,5,4.9717,4.9717,0,0,0,5.0234.0283" fill="#d63e03"/></g></g></g></svg>