<svg xmlns="http://www.w3.org/2000/svg" width="10" height="10" viewBox="0 0 10 10"><title>Mapeo DEFAULT v2 icon-library-threats</title><g id="icon-border"><path d="M5,.0287A4.9713,4.9713,0,1,0,9.9713,5,4.9713,4.9713,0,0,0,5,.0287Z" fill="#d63e03"/><path d="M5,1.0287A3.9713,3.9713,0,1,1,1.0287,5,3.9758,3.9758,0,0,1,5,1.0287" fill="#fff"/></g><g id="icons"><path d="M4.8511,1.2159s.3073,1.5074-.1828,1.6383c-.401.0942-.2889-.5112-.2889-.5112s-.3948,1.18.274,1.5063a.6789.6789,0,0,0,.9545-.3232C6.0859,2.5469,5.1569,2.0831,4.8511,1.2159Z" fill="#dd5d05"/><path d="M4.7535,1.3726s.231,1.1331-.1374,1.2314c-.3014.0709-.2172-.3843-.2172-.3843s-.2968.8868.206,1.1323a.51.51,0,0,0,.7174-.2429C5.6817,2.373,4.9834,2.0244,4.7535,1.3726Z" fill="#ff9d00"/><polygon points="4.859 4.225 4.844 5.007 4.13 5.007 3.625 8.421 3.99 8.421 4.445 5.366 4.844 5.366 4.844 6.371 4.524 6.051 4.462 6.495 4.771 6.804 4.355 7.219 4.265 7.815 4.844 7.236 4.844 8.421 5.203 8.421 5.203 5.366 5.602 5.366 5.681 5.888 5.383 6.192 5.383 6.697 5.748 6.338 5.911 7.433 5.383 6.91 5.383 7.416 6.001 8.039 6.057 8.421 6.422 8.421 5.916 5.007 5.203 5.007 5.219 4.225 4.859 4.225"/></g></svg>