<svg xmlns="http://www.w3.org/2000/svg" width="100" height="100" viewBox="0 0 100 100"><title>_</title><g id="icons"><path d="M53.4277,89.4209c-3.5688,3.3048-4.9227,1.951-8.5423,5.3015.6155.0427.9679.0874,1.32.0874,4.9846,0,9.9784.1909,14.95-.1158a7.2111,7.2111,0,0,0,4.2738-2.5126,5.8361,5.8361,0,0,0-.3047-5.6875c-.126-.1909-.2407-.392-.3606-.588l.1727-.2082c.8429.6916,1.7174,1.3355,2.5086,2.1033A1.7386,1.7386,0,0,1,67.75,89.02c-.1086.9282-.3605,1.8281-.5332,2.75-.3473,1.84.453,3.0408,2.0232,3.0469,4.2026,0,.1015-3.9325,4.2919-3.7243,1.9195.0945,2.922-1.0329,3.9711-2.7635-2.5848-.8389-5.657-.6236-6.2054-4.8272-.128.04-.0132-.03.0122,0a6.43,6.43,0,0,0,5.7961,2.5147,1.9234,1.9234,0,0,1,1.5153,1.0887c1.2258,3.4094-1.1741-2.8264,1.7844-3.3962,1.1568-.2224,7.2444-3.4531,8.5576-3.4531v-7.98c0-2.5319,4.49,2.2892,4.4819-.2427a4.6414,4.6414,0,0,0-3.28-4.5845.5974.5974,0,0,0-.5251.2417c-1.1172,2.0881-2.5,1.19-3.6369.6378,1.2289-.8257,2.5532-1.8027,3.9487-2.5979.4062-.2306,1.0156.0173,1.5234.1188.6033.1209,1.1964.321,1.89.5078,0-9.2644,3.4358-11.2083,3.4358-20.2564-3.3018-.4672-5.5209,1.7265-7.4455,4.4819a2.5262,2.5262,0,0,0-.1422,1.9906,7.9956,7.9956,0,0,1,.2438,6.89A12.49,12.49,0,0,1,88.763,61.4c.0884-1.5234.2356-3.0468.2316-4.57a2.5155,2.5155,0,0,0-.6175-1.5092,3.7965,3.7965,0,0,0-4.33-1.0816c-2.0221.652-4.1295.9141-6.1749,1.4747a2.55,2.55,0,0,0-1.3376,1.2187c-.5078.95-.77,2.09-1.2583,3.0591-.7353,1.4594-.9963,2.7523.3361,3.9365.195.1736.2468.5961.3413.914a1.779,1.779,0,0,1,.02.4439A16.5889,16.5889,0,0,0,80.0856,76.027c-.14.1016-2.0119-1.6585-2.1521-1.5539-1.1324-1.1324-2.29-2.2343-3.3749-3.4267-.196-.2163-.1594-.8308-.1219-1.2472.1158-1.2776.2834-2.5471.4408-3.9091l-1.1172-.589c-1.9875,1.3914-3.84,2.6314-5.6346,3.9822-.4753.3575-1.32.3453-1.5387.97-.5809,1.6931-.654,4.0808-1.107,5.8317-.2285.8846-.6317,1.2533-1.3924,1.3548a32.9574,32.9574,0,0,0-3.8989.7627c-.7414.191-.0508,7.8264-.3982,7.0545l-2.2516-5.5788a20.2315,20.2315,0,0,1-1.3974,4.164Z" fill="#7f7f7e"/><path d="M60.6868,59.0716c.2894,2.0221.524,3.8309.8318,5.6215a1.2186,1.2186,0,0,0,.6469.7282c1.3813.6317,2.7686,1.2492,4.1823,1.758a1.14,1.14,0,0,0,1.0877-.3951c1.0817-1.4879,2.0993-3.0468,3.1088-4.6048a1.5363,1.5363,0,0,0,.2946-1.0227c-.8867-2.1805-1.2045-4.7561-3.0916-6.2511a3.92,3.92,0,0,0-4.4321.3748c-.7587.9739-1.5082,1.9591-2.2344,2.9655A4.317,4.317,0,0,0,60.6868,59.0716Z" fill="#cacaca"/><path d="M73.8131,55.1905c1.1171,0,2.2181.0426,3.318-.0295a1.2572,1.2572,0,0,0,.7932-.6358,5.19,5.19,0,0,0,.3727-1.2461c.3453-1.3051.6865-2.6122,1.0573-4.0229-1.0817-.5484-2.0831-1.0968-3.1139-1.55a1.0359,1.0359,0,0,0-.8836.1767c-3.1037,2.1206-3.1007,2.1328-1.9246,6.1374C73.5439,54.3891,73.6719,54.7477,73.8131,55.1905Z" fill="#cacaca"/><path d="M85.4563,48.1c0-1.0746-.05-1.9683.0112-2.8519.1015-1.5325-.321-2.343-1.7-2.5157-.7779-.1015-1.3578-.1168-1.8027.7232-.0873.1655-.2254.29-.325.4468-.3707.5779-1.1171,1.2817-1.0247,1.7195a10.6036,10.6036,0,0,0,1.32,2.8041c.0934.1686.4418.2153.6591.1828C83.5317,48.4707,84.458,48.2828,85.4563,48.1Z" fill="#cacaca"/><path d="M78.937,42.6133c.3514-2.8935.1127-3.182-2.35-2.97C76.1451,41.8587,76.2883,42.0445,78.937,42.6133Z" fill="#cacaca"/><path d="M86.9881,39.5888c1.6544-.0589,1.8738-.4794,1.7915-3.315C86.7555,36.4637,86.7047,36.56,86.9881,39.5888Z" fill="#cacaca"/><path d="M5.07,42.7032s5.0153-.0247,13.2721-.0247a8.8258,8.8258,0,0,0,9.385-10.4141,7.1667,7.1667,0,0,0-9.4843-5.4552A6.7578,6.7578,0,0,0,14.078,32.076" fill="none" stroke="#2468b9" stroke-linecap="round" stroke-miterlimit="10" stroke-width="5.9515"/><path d="M4.3787,52.1231s24.183-.489,44.0166-.489A23.105,23.105,0,0,0,72.181,25.3122,19.078,19.078,0,0,0,49.1988,11.1786q-.6561.1563-1.3.3589A14.4856,14.4856,0,0,0,40.1629,29.69a11.5828,11.5828,0,0,0,15.1744,6.148A8.5667,8.5667,0,0,0,56.98,21.5768" fill="none" stroke="#2468b9" stroke-linecap="round" stroke-miterlimit="10" stroke-width="5.9515"/><path d="M6.2569,61.5178s12.7739-.2414,26.64-.2414A15.6283,15.6283,0,0,1,49.52,78.8047,13.4366,13.4366,0,0,1,33.3872,88.8458q-.23-.0535-.4581-.1152A10.55,10.55,0,0,1,27.1437,75.9,7.7827,7.7827,0,0,1,39.92,73.777" fill="none" stroke="#2468b9" stroke-linecap="round" stroke-miterlimit="10" stroke-width="5.9515"/></g></svg>