<svg id="icons" xmlns="http://www.w3.org/2000/svg" width="100" height="100" viewBox="0 0 100 100"><title>threats</title><path d="M48.0651,2.8269s3.8693,18.9791-2.3023,20.6269c-5.0477,1.1863-3.637-6.4366-3.637-6.4366s-4.9711,14.853,3.45,18.9646c5.7495,2.807,10.19-.3279,12.0167-4.0688C63.6118,19.5849,51.9149,13.7458,48.0651,2.8269Z" fill="#dd5d05"/><path d="M46.8362,4.7992s2.9084,14.2661-1.7306,15.5047c-3.7942.8918-2.7339-4.8382-2.7339-4.8382S38.6351,26.63,44.9653,29.7209a6.4242,6.4242,0,0,0,9.0327-3.0584C58.5222,17.3958,49.73,13.0067,46.8362,4.7992Z" fill="#ff9d00"/><polygon points="48.169 40.713 47.972 50.552 38.992 50.552 32.628 93.544 37.224 93.544 42.951 55.078 47.972 55.078 47.972 67.735 43.941 63.704 43.164 69.29 47.053 73.18 41.82 78.412 40.689 85.907 47.972 78.624 47.972 93.544 52.497 93.544 52.497 55.078 57.518 55.078 58.508 61.654 54.76 65.472 54.76 71.836 59.356 67.311 61.407 81.099 54.76 74.523 54.76 80.887 62.538 88.736 63.245 93.544 67.841 93.544 61.478 50.552 52.497 50.552 52.694 40.713 48.169 40.713"/></svg>