<svg xmlns="http://www.w3.org/2000/svg" width="10" height="10" viewBox="0 0 10 10"><title>Mapeo DEFAULT v2 icon-library-nature</title><g id="icons"><path d="M5.2722,8.131c-.2834.2625-.391.155-.6784.4211.0488.0034.0768.007.1048.007.3959,0,.7926.0151,1.1874-.0092a.5735.5735,0,0,0,.34-.2.4635.4635,0,0,0-.0242-.4517c-.01-.0152-.0192-.0312-.0287-.0467l.0137-.0166c.067.055.1364.1061.1993.1671a.1382.1382,0,0,1,.0242.0968c-.0086.0737-.0286.1452-.0424.2184-.0275.1462.036.2415.1607.242.3338,0,.0081-.3123.3409-.2958.1525.0075.2321-.082.3154-.22-.2053-.0666-.4493-.05-.4928-.3834-.01.0032-.0011-.0024.0009,0a.5107.5107,0,0,0,.46.2.1527.1527,0,0,1,.12.0864c.0974.2708-.0932-.2245.1418-.27.0918-.0177.5754-.2743.68-.2743V6.7693c0-.2011.3566.1818.3559-.0193A.3686.3686,0,0,0,8.19,6.3859a.0476.0476,0,0,0-.0417.0192C8.06,6.571,7.95,6.5,7.86,6.4558c.0976-.0656.2028-.1432.3137-.2064.0322-.0183.0806.0014.121.01.0479.01.095.0255.15.04,0-.7358.2729-.89.2729-1.6089-.2623-.0371-.4385.1371-.5914.356a.2006.2006,0,0,0-.0113.1581.6352.6352,0,0,1,.0194.5472,1,1,0,0,1-.0551.1539c.007-.121.0187-.242.0184-.363a.2.2,0,0,0-.0491-.12.3015.3015,0,0,0-.3439-.0859c-.1606.0518-.3279.0726-.49.1171a.2019.2019,0,0,0-.1062.0968c-.04.0754-.0612.166-.1.243-.0584.1159-.0791.2186.0267.3126.0155.0138.02.0474.0271.0726a.1392.1392,0,0,1,.0016.0353,1.3179,1.3179,0,0,0,.3266.8531c-.0112.0081-.16-.1317-.171-.1234-.09-.09-.1819-.1775-.268-.2722-.0156-.0171-.0127-.066-.01-.099.0092-.1015.0225-.2023.035-.3105l-.0887-.0468c-.1579.1105-.305.209-.4476.3163-.0377.0284-.1048.0274-.1222.077-.0461.1345-.0519.3241-.0879.4632-.0182.07-.05.1-.1106.1076a2.6307,2.6307,0,0,0-.31.0606c-.0589.0152-.004.6216-.0316.56l-.1788-.4431a1.6041,1.6041,0,0,1-.111.3307Z" fill="#7f7f7e"/><path d="M5.8488,5.7205c.023.1606.0416.3043.0661.4465a.0965.0965,0,0,0,.0513.0578c.11.05.22.0993.3322.14a.0905.0905,0,0,0,.0864-.0314c.0859-.1182.1668-.242.2469-.3657a.1216.1216,0,0,0,.0234-.0813c-.07-.1732-.0956-.3777-.2455-.4965a.3114.3114,0,0,0-.352.03c-.06.0774-.12.1556-.1775.2355A.3463.3463,0,0,0,5.8488,5.7205Z" fill="#cacaca"/><path d="M6.8914,5.4123c.0887,0,.1761.0033.2635-.0024a.1.1,0,0,0,.063-.0505.4122.4122,0,0,0,.03-.099c.0274-.1036.0545-.2074.084-.3195-.0859-.0435-.1655-.0871-.2474-.1231a.0822.0822,0,0,0-.07.0141c-.2465.1684-.2463.1694-.1529.4874C6.87,5.3486,6.88,5.3771,6.8914,5.4123Z" fill="#cacaca"/><path d="M7.8161,4.8491c0-.0854-.0039-.1563.0009-.2265.0081-.1217-.0255-.1861-.135-.2-.0618-.0081-.1079-.0093-.1432.0574-.0069.0132-.0179.0231-.0258.0355-.0295.0459-.0887.1018-.0814.1366a.8438.8438,0,0,0,.1049.2227c.0074.0134.0351.0171.0523.0145C7.6633,4.8785,7.7368,4.8636,7.8161,4.8491Z" fill="#cacaca"/><path d="M7.2983,4.4133c.0279-.23.009-.2527-.1866-.2359C7.0766,4.3534,7.088,4.3681,7.2983,4.4133Z" fill="#cacaca"/><path d="M7.9378,4.1731c.1314-.0047.1488-.0381.1423-.2633C7.9193,3.9249,7.9153,3.9325,7.9378,4.1731Z" fill="#cacaca"/><path d="M.7839,4.3958s1.0458.0227,1.7016.0227a.701.701,0,0,0,.7454-.8272.57.57,0,0,0-.7533-.4333.537.537,0,0,0-.3308.4184" fill="none" stroke="#2468b9" stroke-linecap="round" stroke-miterlimit="10" stroke-width="0.4727"/><path d="M.7839,5.0751S3.2972,5.13,4.8725,5.13A1.835,1.835,0,0,0,6.7617,3.0391,1.5152,1.5152,0,0,0,4.9363,1.9166q-.0521.0125-.1032.0285a1.15,1.15,0,0,0-.6144,1.4417.92.92,0,0,0,1.2052.4883.68.68,0,0,0,.1305-1.1326" fill="none" stroke="#2468b9" stroke-linecap="round" stroke-miterlimit="10" stroke-width="0.4727"/><path d="M.7839,5.932S2.54,5.8956,3.6415,5.8956a1.241,1.241,0,0,1,1.32,1.3922,1.0672,1.0672,0,0,1-1.2813.7976l-.0364-.0092a.8379.8379,0,0,1-.4595-1.0191.6183.6183,0,0,1,1.0148-.1686" fill="none" stroke="#2468b9" stroke-linecap="round" stroke-miterlimit="10" stroke-width="0.4727"/></g><g id="icon-border"><path d="M5,1.029A3.971,3.971,0,1,1,1.0285,5,3.9765,3.9765,0,0,1,5,1.029m0-1A4.971,4.971,0,1,0,9.9715,5,4.9709,4.9709,0,0,0,5,.029" fill="#2d9905"/></g></svg>