<svg xmlns="http://www.w3.org/2000/svg" width="10" height="10" viewBox="0 0 10 10"><title>Mapeo DEFAULT v2 icon-library-threats</title><g id="icons"><g id="Layer_2" data-name="Layer 2"><g id="Layer_1-2" data-name="Layer 1-2"><path d="M5.1279,5.1008V3.1817h2.61c.307,0,.6141.3838.6141.9212s-.23.9979-.6141.9979Z" fill="#ccc"/><path d="M7.7379,3.2c.307,0,.5374.4.5374.88a.9281.9281,0,0,1-.11.5371c-.099,0-.4278.01-.4278.01H5.2047V3.2H7.7379m0-.0951H5.0511V5.1008H7.7379c.3838,0,.6909-.4606.6909-.9979S8.1217,3.1049,7.7379,3.1049Z" fill="#999"/><path d="M5.1218,5.0423c-.3838,0-.6908-.4606-.6908-.9212S4.738,3.2,5.0451,3.2s.6141.3838.6141.9211S5.3522,5.0423,5.1218,5.0423Z"/><path d="M5.0217,3.2235c.3071,0,.6136.4187.6136.8793s-.3538.8776-.5842.8776c-.307,0-.5962-.3986-.5962-.8592s.26-.8977.5668-.8977m.0294-.1186c-.3838,0-.6909.4606-.6909.998s.3071.9979.6909.9979.6909-.4606.6909-.9979S5.3582,3.1049,5.0511,3.1049Z" fill="#999"/></g></g><path d="M4.4842,4.94a6.3,6.3,0,0,0-1.0836-.1448c-.2618.0272-1.58.125-1.183.189s.8759.1452.6412.1814-1.0876-.0024-1.3091.014c-.2156.0162-.229.19-.2128.4056a.4312.4312,0,0,0,.3214.3975,2.1709,2.1709,0,0,0,.8914.0068c.3432-.0451,1.1307-.21.6792-.2456s-.2261-.2078.262-.1806,1.0208.027.7494.1264-1.1559.2348-.8037.28,1.2825.0365.858.226-1.0115.056-1.2824.3984.7165.9651,2.187.902,2.9967-.61,2.6-.7677-1.7249.2255-1.6618-.0725,1.12.0812.867-.1446-.0364-.316.2348-.28.7858-.325-.036-.3883-1.001-.1154-1.3895-.151.4151-.226-.0734-.2314c-.2041-.0022-.5128.0276-.5407-.322-.0194-.2439-.352-.2714-.352-.2714Z"/></g><g id="icon-border"><path d="M5.0033,1.0285a3.9715,3.9715,0,1,1-3.971,3.972,3.9774,3.9774,0,0,1,3.971-3.972m0-1a4.9715,4.9715,0,1,0,4.972,4.972A4.9717,4.9717,0,0,0,5.0033.0285" fill="#d63e03"/></g></svg>