<svg xmlns="http://www.w3.org/2000/svg" width="10" height="10" viewBox="0 0 10 10"><title>Mapeo DEFAULT v2 icon-library-threats</title><g id="icon-border"><path d="M5,.0327A4.9713,4.9713,0,1,0,9.9713,5.004,4.9713,4.9713,0,0,0,5,.0327Z" fill="#d63e03"/><path d="M5,1.0327A3.9713,3.9713,0,1,1,1.0287,5.004,3.9758,3.9758,0,0,1,5,1.0327" fill="#fff"/></g><g id="icons"><g id="Layer_2" data-name="Layer 2"><g id="Layer_1-2" data-name="Layer 1-2"><path d="M5.1279,5.1008V3.1817h2.61c.307,0,.6141.3838.6141.9212s-.23.9979-.6141.9979Z" fill="#ccc"/><path d="M7.7379,3.2c.307,0,.5374.4.5374.88a.9281.9281,0,0,1-.11.5371c-.099,0-.4278.01-.4278.01H5.2047V3.2H7.7379m0-.0951H5.0511V5.1008H7.7379c.3838,0,.6909-.4606.6909-.9979S8.1217,3.1049,7.7379,3.1049Z" fill="#999"/><path d="M5.1218,5.0423c-.3838,0-.6908-.4606-.6908-.9212S4.738,3.2,5.0451,3.2s.6141.3838.6141.9211S5.3522,5.0423,5.1218,5.0423Z"/><path d="M5.0217,3.2235c.3071,0,.6136.4187.6136.8793s-.3538.8776-.5842.8776c-.307,0-.5962-.3986-.5962-.8592s.26-.8977.5668-.8977m.0294-.1186c-.3838,0-.6909.4606-.6909.998s.3071.9979.6909.9979.6909-.4606.6909-.9979S5.3582,3.1049,5.0511,3.1049Z" fill="#999"/></g></g><path d="M4.3578,4.5452a4.5358,4.5358,0,0,0-1.1242-.2235c-.2717.0419-1.64.193-1.2273.2918s.9087.2243.6652.28S1.5432,4.89,1.3134,4.9153c-.2237.0251-.2376.2935-.2207.6265.0141.2788.148.5693.3334.6139a1.5318,1.5318,0,0,0,.9247.0106c.3561-.07,1.1731-.324.7046-.3794s-.2345-.3209.2718-.279,1.059.0418.7776.1953-1.1992.3626-.8339.4323,1.33.0563.89.3492-1.0493.0864-1.33.6152S3.574,8.5906,5.1,8.4931s3.1089-.9419,2.6968-1.1858-1.7895.3484-1.724-.1119,1.1619.1253.8995-.2233S6.934,6.484,7.2154,6.54s.8152-.502-.0374-.6S6.14,5.7615,5.7365,5.7067s.4306-.3491-.0761-.3575c-.2118-.0034-.532.0427-.561-.4973a.4306.4306,0,0,0-.3652-.4193Z"/></g></svg>