<svg id="icons" xmlns="http://www.w3.org/2000/svg" width="100" height="100" viewBox="0 0 100 100"><title>threats</title><g id="Layer_2" data-name="Layer 2"><g id="Layer_1-2" data-name="Layer 1-2"><path d="M52.2366,49.1543V24.9922H85.1015c3.8657,0,7.7315,4.8324,7.7315,11.5982s-2.8991,12.5639-7.7315,12.5639Z" fill="#ccc"/><path d="M85.0978,25.2231c3.8658,0,6.7658,5.0387,6.7658,11.0853,0,2.5287-.0226,4.5339-1.38,6.7628-1.2465,0-5.3857.124-5.3857.124H53.2033V25.2231H85.0978m0-1.1976H51.27V49.1543H85.0978c4.8324,0,8.6982-5.7991,8.6982-12.5639S89.93,24.0255,85.0978,24.0255Z" fill="#999"/><path d="M52.1606,48.4186c-4.8324,0-8.6982-5.7991-8.6982-11.5982s3.8658-11.5973,7.7316-11.5973,7.7324,4.8325,7.7324,11.5973S55.0606,48.4186,52.1606,48.4186Z"/><path d="M50.9,25.5194c3.8666,0,7.7255,5.2714,7.7255,11.0705S54.17,47.6389,51.27,47.6389c-3.8658,0-7.5068-5.0189-7.5068-10.818s3.27-11.3015,7.1361-11.3015m.37-1.4939c-4.8324,0-8.6982,5.7991-8.6982,12.5649S46.4375,49.1543,51.27,49.1543,59.969,43.3552,59.969,36.59,55.1366,24.0255,51.27,24.0255Z" fill="#999"/></g></g><path d="M42.5409,42.16a57.1318,57.1318,0,0,0-14.1542-2.8145c-3.42.5274-20.6427,2.43-15.4523,3.6738s11.4419,2.8245,8.3752,3.5278S7.104,46.5,4.2107,46.8193c-2.8161.3157-2.9909,3.6952-2.7789,7.8878.1775,3.51,1.8643,7.1673,4.1985,7.7293,4.4361,1.4124,7.1544,1.12,11.6422.1332,4.4828-.8777,14.7694-4.0794,8.8714-4.777s-2.9524-4.04,3.4218-3.5122,13.3333.5261,9.79,2.4587-15.098,4.5657-10.498,5.4434,16.7513.709,11.2066,4.3956-13.2114,1.0889-16.75,7.7461,9.359,18.769,28.5656,17.5411,39.1426-11.86,33.9541-14.9293-22.53,4.3856-21.7056-1.4094,14.6284,1.5781,11.3247-2.8118S74.976,66.57,78.5188,67.27s10.2638-6.3211-.4705-7.5518S64.9732,57.4736,59.9,56.7831s5.4209-4.3956-.9591-4.5c-2.6666-.0426-6.698.5374-7.0628-6.2616A5.4216,5.4216,0,0,0,47.28,40.7421Z"/></svg>