<svg xmlns="http://www.w3.org/2000/svg" width="10" height="10" viewBox="0 0 10 10"><title>Mapeo DEFAULT v2 icon-library-misc</title><g id="icon-border"><path d="M5,.0287A4.9713,4.9713,0,1,0,9.9713,5,4.9713,4.9713,0,0,0,5,.0287Z" fill="#a5a5a5"/><path d="M5,1.0287A3.9713,3.9713,0,1,1,1.0287,5,3.9758,3.9758,0,0,1,5,1.0287" fill="#fff"/></g><g id="icons"><g id="layer1"><path d="M5.0068,7.8438l-.3-.4c-.0508-.068-.12-.1555-.2015-.2583a5.6851,5.6851,0,0,1-1.507-2.81A2.0893,2.0893,0,0,1,5.0068,2.3662,2.1158,2.1158,0,0,1,7.0154,4.3747,6.0362,6.0362,0,0,1,5.4784,7.22Z" fill="none" stroke="#000" stroke-miterlimit="10" stroke-width="0.25"/></g></g></svg>