<svg id="icons" xmlns="http://www.w3.org/2000/svg" width="100" height="100" viewBox="0 0 100 100"><title>threats</title><path d="M43.7448,95.7786,4.24,56.2727a8.7443,8.7443,0,0,1-.1444-12.3655q.0714-.0732.1444-.1445L43.7448,4.2568a8.7445,8.7445,0,0,1,12.3658-.1444q.0731.0714.1444.1444L95.7607,43.7627a8.7448,8.7448,0,0,1,.1439,12.3662q-.0711.0727-.1439.1438L56.2548,95.7786A8.7437,8.7437,0,0,1,43.89,95.924Q43.8166,95.8522,43.7448,95.7786Z" fill="#f7c906"/><path d="M44.6225,69.2219a6.4082,6.4082,0,0,1,.439-1.9752A3.9375,3.9375,0,0,1,46.159,65.71a4.7773,4.7773,0,0,1,1.7556-1.0975,5.7066,5.7066,0,0,1,4.39,0A4.7765,4.7765,0,0,1,54.06,65.71a3.9387,3.9387,0,0,1,1.0976,1.5363,4.6639,4.6639,0,0,1,0,3.9507A3.9384,3.9384,0,0,1,54.06,72.7336a4.7749,4.7749,0,0,1-1.7556,1.0974,5.7066,5.7066,0,0,1-4.39,0,7.6954,7.6954,0,0,1-1.7556-1.0974,3.9384,3.9384,0,0,1-1.0976-1.5362A5.2468,5.2468,0,0,1,44.6225,69.2219Zm9.2181-10.0958H45.9394L44.8421,25.9842H54.9375Z"/></svg>