<svg xmlns="http://www.w3.org/2000/svg" width="10" height="10" viewBox="0 0 10 10"><title>Mapeo DEFAULT v2 icon-library-threats</title><g id="icon-border"><path d="M5,.0267A4.9713,4.9713,0,1,0,9.9713,4.998,4.9713,4.9713,0,0,0,5,.0267Z" fill="#d63e03"/><path d="M5,1.0267A3.9713,3.9713,0,1,1,1.0287,4.998,3.9758,3.9758,0,0,1,5,1.0267" fill="#fff"/></g><g id="icons"><path d="M4.5032,8.6346,1.3654,5.4968a.6945.6945,0,0,1-.0114-.9821l.0114-.0115L4.5032,1.3654a.6945.6945,0,0,1,.9821-.0115l.0115.0115L8.6346,4.5032a.6945.6945,0,0,1,.0114.9822l-.0114.0114L5.4968,8.6346a.6945.6945,0,0,1-.9821.0115Z" fill="#f7c906"/><path d="M4.5729,6.5253a.5094.5094,0,0,1,.0348-.1569.314.314,0,0,1,.0872-.122.38.38,0,0,1,.1394-.0872.4533.4533,0,0,1,.3487,0,.3787.3787,0,0,1,.1394.0872.3119.3119,0,0,1,.0872.122.37.37,0,0,1,0,.3138.3119.3119,0,0,1-.0872.122.3787.3787,0,0,1-.1394.0872.4533.4533,0,0,1-.3487,0,.6144.6144,0,0,1-.1394-.0872.314.314,0,0,1-.0872-.122A.4156.4156,0,0,1,4.5729,6.5253Zm.7321-.8019H4.6775L4.59,3.0911h.8018Z"/></g></svg>