<svg xmlns="http://www.w3.org/2000/svg" width="10" height="10" viewBox="0 0 10 10"><title>Mapeo DEFAULT v2 icon-library-threats</title><g id="icons"><path d="M4.5657,8.1771,1.8229,5.4343a.6072.6072,0,0,1-.01-.8586l.01-.01L4.5657,1.8229a.6069.6069,0,0,1,.8585-.01l.01.01L8.1771,4.5657a.6072.6072,0,0,1,.01.8586l-.01.01L5.4342,8.1771a.607.607,0,0,1-.8584.01Z" fill="#f7c906"/><path d="M4.6266,6.3333a.4485.4485,0,0,1,.03-.1371A.2739.2739,0,0,1,4.7333,6.09a.3323.3323,0,0,1,.1219-.0762.3966.3966,0,0,1,.3048,0,.3323.3323,0,0,1,.1219.0762.275.275,0,0,1,.0762.1067.3241.3241,0,0,1,0,.2743.2739.2739,0,0,1-.0762.1066.3323.3323,0,0,1-.1219.0762.3966.3966,0,0,1-.3048,0,.5329.5329,0,0,1-.1219-.0762.2729.2729,0,0,1-.0762-.1066A.3643.3643,0,0,1,4.6266,6.3333Zm.64-.7009H4.7181l-.0762-2.301h.7009Z"/></g><g id="icon-border"><path d="M5,1.0288a3.9715,3.9715,0,1,1-3.971,3.972A3.9774,3.9774,0,0,1,5,1.0288m0-1a4.9715,4.9715,0,1,0,4.972,4.972A4.9717,4.9717,0,0,0,5,.0288" fill="#d63e03"/></g></svg>