<svg xmlns="http://www.w3.org/2000/svg" xmlns:xlink="http://www.w3.org/1999/xlink" width="10" height="10" viewBox="0 0 10 10"><defs><clipPath id="clip-path"><rect width="10" height="10" fill="none"/></clipPath></defs><title>Mapeo DEFAULT v2 icon-library-misc</title><g id="icons"><g id="layer1"><path d="M5.0068,7.8438l-.3-.4c-.0508-.068-.12-.1555-.2015-.2583a5.6851,5.6851,0,0,1-1.507-2.81A2.0893,2.0893,0,0,1,5.0068,2.3662,2.1158,2.1158,0,0,1,7.0154,4.3747,6.0362,6.0362,0,0,1,5.4784,7.22Z" fill="none" stroke="#000" stroke-miterlimit="10" stroke-width="0.25"/></g></g><g id="icon-border"><g clip-path="url(#clip-path)"><g clip-path="url(#clip-path)"><path d="M5,1.0283A3.9715,3.9715,0,1,1,1.029,5,3.9774,3.9774,0,0,1,5,1.0283m0-1A4.9715,4.9715,0,1,0,9.972,5,4.9717,4.9717,0,0,0,5,.0283" fill="#a5a5a5"/></g></g></g></svg>