<?xml version="1.0" encoding="utf-8"?>
<!-- Generator: Adobe Illustrator 21.0.0, SVG Export Plug-In . SVG Version: 6.00 Build 0)  -->
<svg version="1.1" id="palm" xmlns="http://www.w3.org/2000/svg" xmlns:xlink="http://www.w3.org/1999/xlink" x="0px" y="0px"
	 viewBox="0 0 11 11" style="enable-background:new 0 0 11 11;" xml:space="preserve">
<style type="text/css">
	.st0{fill:#69B42D;}
	.st1{fill:#996813;}
</style>
<title>palm</title>
<path class="st0" d="M10.9,4.2L10.9,4.2C10.9,4.1,9.4,1.9,7.5,2C8.2,1.5,9,1.1,9.9,0.9c0.2,0,0.4-0.2,0.3-0.5c0-0.2-0.2-0.3-0.3-0.3
	C9.8,0.1,7.3-0.4,6,0.9C5.8,1.1,5.6,1.3,5.5,1.6C5.3,1.3,5.2,1.1,5,0.9C3.7-0.4,1.2,0.1,1.1,0.1c-0.2,0-0.4,0.2-0.3,0.5
	c0,0.2,0.2,0.3,0.3,0.3C2,1.1,2.8,1.4,3.5,2H3.4C1.6,2,0.1,4.1,0.1,4.2C0,4.3,0,4.6,0.1,4.7c0.2,0.1,0.4,0.1,0.5,0
	c0.7-0.5,1.6-0.8,2.4-0.9L3,3.9C1.7,5.2,2.2,7.7,2.2,7.8c0,0.2,0.2,0.3,0.4,0.3l0,0C2.8,8.1,3,8,3,7.8c0.2-1,0.6-1.9,1.3-2.6
	c0.3-0.3,0.6-0.5,0.9-0.7c0.7,1.9,0.8,4,0.4,6c-0.1,0.2,0.1,0.4,0.3,0.5c0,0,0.1,0,0.1,0h1c0.2,0,0.4-0.2,0.4-0.4
	c0-1.9-0.3-3.8-0.9-5.6l0.2,0.2C7.4,5.9,7.8,6.8,8,7.8C8,8,8.2,8.1,8.5,8.1c0.2,0,0.3-0.2,0.3-0.3c0-0.1,0.5-2.6-0.8-3.9L7.9,3.8
	c0.9,0.1,1.7,0.4,2.4,0.9c0.2,0.1,0.4,0.1,0.5,0C11,4.6,11.1,4.3,10.9,4.2z"/>
<path class="st1" d="M6.6,4.8c0-0.2-0.1-0.3-0.3-0.4C6,4.2,5.8,4.2,5.5,4.2c-0.1,0-0.2,0-0.2,0C5.1,4.4,5.5,5.5,5.6,5.7
	c0.1,0.5,0.2,1.1,0.2,1.6c0.1,1,0.1,2.2-0.2,3.2c-0.1,0.2,0.1,0.4,0.3,0.5c0,0,0.1,0,0.1,0h1c0.2,0,0.4-0.2,0.4-0.4
	c0-1.2-0.1-2.3-0.3-3.5C6.9,6.5,6.8,5.9,6.6,5.4C6.6,5.2,6.6,5,6.6,4.8z"/>
</svg>
