<svg xmlns="http://www.w3.org/2000/svg" width="10" height="10" viewBox="0 0 10 10"><title>Mapeo DEFAULT v2 icon-library-infrastructure</title><g id="icons"><path d="M4.2073,3.2152S2.6706,5.5417,1.7956,6.5417s0,1.375,0,1.375a4.35,4.35,0,0,0,3.5,1.4583c2.25-.125,3.2772-1.1912,3.4855-1.65s.5979-.5344-.0688-1.0171A33.5087,33.5087,0,0,1,5.7986,3.2231Z" fill="#ddb97a"/><path d="M4.4978,7.8676c.0368.1883.2007.274.1525.4116s-.0387.179-.1491.2a.233.233,0,0,1-.2851-.1082c-.0841-.1077-.0586-.3554-.0919-.5261-.0446-.2282-.1972-.2933-.12-.4368a.9013.9013,0,0,1,.3427-.3146c.1553-.03.2076.1162.3169.3239C4.71,7.5055,4.476,7.7558,4.4978,7.8676Z" fill="#020202"/><path d="M5.46,6.8972c-.0047.15-.12.2366-.0659.3367s.0523.1332.14.136A.1822.1822,0,0,0,5.74,7.2506c.0513-.0937.0006-.2816.0049-.4174.0057-.1817.1152-.251.038-.3521a.7044.7044,0,0,0-.3039-.2c-.1235-.0039-.1455.1157-.2038.29C5.2508,6.6445,5.4623,6.8083,5.46,6.8972Z" fill="#020202"/><path d="M4.65,6.1871c.0231.1184.1262.1723.0959.2588s-.0243.1126-.0938.1262a.1464.1464,0,0,1-.1792-.0681c-.0529-.0678-.0369-.2235-.0579-.3309-.028-.1435-.124-.1844-.0757-.2746a.567.567,0,0,1,.2155-.1979c.0976-.0191.1306.0731.1993.2037C4.7831,5.9594,4.6363,6.1168,4.65,6.1871Z" fill="#020202"/><path d="M5.265,5.5274c-.003.0942-.0757.1488-.0415.2117s.0329.0838.0882.0855a.1144.1144,0,0,0,.13-.075c.0323-.0589,0-.1771.0031-.2625.0036-.1143.0725-.1579.0239-.2214A.4428.4428,0,0,0,5.2773,5.14c-.0777-.0024-.0915.0728-.1281.1822C5.1337,5.3684,5.2668,5.4714,5.265,5.5274Z" fill="#020202"/><path d="M4.7547,4.9717c.0132.0672.0716.0978.0544.1469s-.0138.0639-.0532.0716a.0832.0832,0,0,1-.1017-.0387c-.03-.0384-.0209-.1268-.0328-.1877-.0159-.0814-.07-.1047-.043-.1559a.3212.3212,0,0,1,.1223-.1122c.0554-.0109.0741.0414.1131.1155C4.83,4.8425,4.7469,4.9318,4.7547,4.9717Z" fill="#020202"/><path d="M5.1156,4.54c-.0017.0535-.043.0844-.0236.12s.0187.0476.05.0486a.0651.0651,0,0,0,.0736-.0426c.0183-.0334,0-.1005.0017-.149.0021-.0648.0412-.09.0136-.1256A.2511.2511,0,0,0,5.1226,4.32c-.0441-.0014-.052.0413-.0728.1034C5.0411,4.45,5.1166,4.5079,5.1156,4.54Z" fill="#020202"/><path d="M4.7923,4.0439c.01.0505.0538.0735.0409.11s-.01.048-.04.0538a.0625.0625,0,0,1-.0764-.029c-.0225-.0289-.0157-.0953-.0246-.141-.012-.0612-.0529-.0787-.0323-.1171a.2408.2408,0,0,1,.0919-.0843c.0416-.0082.0556.0311.0849.0868C4.8491,3.9469,4.7865,4.014,4.7923,4.0439Z" fill="#020202"/><path d="M5.0634,3.7194c-.0013.04-.0323.0634-.0177.09s.014.0357.0376.0365a.0489.0489,0,0,0,.0553-.032c.0137-.0251,0-.0755.0013-.1119.0015-.0487.0309-.0672.01-.0943a.1894.1894,0,0,0-.0815-.0536c-.0331-.001-.039.0311-.0546.0777C5.0074,3.6517,5.0641,3.6956,5.0634,3.7194Z" fill="#020202"/><path d="M4.7961,3.4235c.045-.2078.1529-.796.1529-.796l.0853.7015h.1968L5.13,2.4431l.06-.4524.1446.5255.136-.0142a2.561,2.561,0,0,0-.2124-.6353c-.0733-.0353-.4713-.0859-.527,0A3.2655,3.2655,0,0,0,4.5059,2.5l.1216.004.1469-.5078.0295.4391L4.6048,3.4431Z" fill="#020202"/><ellipse cx="4.9884" cy="1.5922" rx="0.1521" ry="0.1922" fill="#020202"/></g><g id="icon-border"><path d="M5,1.029A3.971,3.971,0,1,1,1.0285,5,3.9765,3.9765,0,0,1,5,1.029m0-1A4.971,4.971,0,1,0,9.9715,5,4.9709,4.9709,0,0,0,5,.029" fill="#334dcc"/></g></svg>