<svg id="icons" xmlns="http://www.w3.org/2000/svg" width="100" height="100" viewBox="0 0 100 100"><title>infrastructure</title><path d="M95.3058,69.9977c-9.5857-8.307-35.4473-42.85-35.4473-42.85l-20.0351-.1S20.4768,56.3392,9.46,68.93A25.4084,25.4084,0,0,0,6.209,73.5057a49.6883,49.6883,0,0,0,89.0968-3.508Z" fill="#ddb97a"/><path d="M43.4811,85.6234c.4632,2.3709,2.5267,3.45,1.92,5.1817s-.487,2.2534-1.8767,2.5249c-1.52.297-2.3113.2748-3.5891-1.3623-1.0588-1.3565-.7382-4.4753-1.158-6.624-.5614-2.8735-2.4822-3.6924-1.5162-5.4991.6281-1.1748,3.22-3.7474,4.3145-3.9614,1.9546-.3818,2.6141,1.463,3.99,4.0777C46.1461,81.0643,43.2062,84.2162,43.4811,85.6234Z" fill="#020202"/><path d="M55.59,73.4059c-.06,1.8872-1.5159,2.9788-.83,4.2385s.6586,1.6771,1.7648,1.7121a2.2924,2.2924,0,0,0,2.5977-1.5017c.6464-1.1794.0075-3.5451.0615-5.2554.0722-2.2873,1.4511-3.16.479-4.4326-.632-.8274-2.9542-2.4866-3.8258-2.5141-1.5558-.0492-1.8329,1.4568-2.5661,3.6467C52.9611,70.2235,55.625,72.2858,55.59,73.4059Z" fill="#020202"/><path d="M45.3975,64.4653c.2913,1.491,1.589,2.17,1.2072,3.2587s-.3063,1.4171-1.18,1.5878a1.8445,1.8445,0,0,1-2.2572-.8567c-.6658-.8531-.4642-2.8144-.7282-4.1657-.3531-1.8071-1.561-2.3221-.9535-3.4583A7.1356,7.1356,0,0,1,44.1989,58.34c1.2292-.24,1.644.92,2.5094,2.5644C47.0735,61.5981,45.2246,63.58,45.3975,64.4653Z" fill="#020202"/><path d="M53.1405,56.159c-.0375,1.1868-.9534,1.8733-.5221,2.6655s.4142,1.0547,1.11,1.0767a1.4415,1.4415,0,0,0,1.6336-.9444c.4065-.7417.0047-2.2294.0387-3.305.0454-1.4384.9126-1.9874.3013-2.7876a5.5783,5.5783,0,0,0-2.406-1.5811c-.9784-.0309-1.1527.9162-1.6138,2.2934C51.4875,54.1576,53.1627,55.4546,53.1405,56.159Z" fill="#020202"/><path d="M46.716,49.1632c.1653.8461.9016,1.2312.685,1.8491s-.1738.8041-.67.901a1.0466,1.0466,0,0,1-1.2808-.4861c-.3778-.4841-.2634-1.597-.4132-2.3638-.2-1.0254-.8858-1.3177-.5411-1.9624a4.0489,4.0489,0,0,1,1.54-1.4136c.6975-.1363.9328.522,1.4239,1.4551C47.667,47.5362,46.6179,48.661,46.716,49.1632Z" fill="#020202"/><path d="M51.2592,43.7237c-.0213.6735-.541,1.0631-.2963,1.5126s.2351.5985.63.6109a.818.818,0,0,0,.927-.5358c.2307-.4209.0027-1.2651.0219-1.8755.0258-.8162.5179-1.1277.171-1.5818a3.1652,3.1652,0,0,0-1.3653-.8971c-.5552-.0176-.654.52-.9157,1.3013C50.3212,42.5881,51.2718,43.324,51.2592,43.7237Z" fill="#020202"/><path d="M47.19,37.4817c.1241.6355.6772.9248.5145,1.3889s-.1306.604-.503.6768a.7862.7862,0,0,1-.9621-.3652c-.2838-.3636-.1978-1.2-.31-1.7755-.15-.77-.6653-.99-.4064-1.474a3.0422,3.0422,0,0,1,1.1565-1.0617c.5239-.1024.7007.3921,1.0695,1.0929C47.9038,36.26,47.1158,37.1045,47.19,37.4817Z" fill="#020202"/><path d="M50.6019,33.396c-.016.5059-.4063.7985-.2225,1.1361s.1766.45.473.4589a.6143.6143,0,0,0,.6963-.4025c.1733-.3161.002-.95.0165-1.4086.0194-.6131.389-.8471.1284-1.1882a2.3766,2.3766,0,0,0-1.0255-.6738c-.417-.0132-.4912.39-.6878.9774C49.8974,32.543,50.6114,33.0958,50.6019,33.396Z" fill="#020202"/><path d="M47.2367,29.6709c.5667-2.6169,1.9255-10.0229,1.9255-10.0229l1.074,8.8322h2.4774L51.4429,17.3274,52.2,11.6305l1.82,6.6162,1.7123-.1787s-1.75-7.5542-2.6737-7.9986-5.9336-1.0813-6.636,0a41.1689,41.1689,0,0,0-2.8393,7.9741l1.5305.0507,1.85-6.3935.3713,5.5279-2.507,12.6891Z" fill="#020202"/><ellipse cx="49.6583" cy="6.6133" rx="1.9152" ry="2.4193" fill="#020202"/></svg>