<svg xmlns="http://www.w3.org/2000/svg" width="10" height="10" viewBox="0 0 10 10"><title>Mapeo DEFAULT v2 icon-library-infrastructure</title><g id="icons"><path d="M4.9817,4.7179c.0738-.3408.2507-1.3053.2507-1.3053l.14,1.15h.3226L5.5294,3.11l.0987-.7419.237.8616.223-.0233A4.1994,4.1994,0,0,0,5.74,2.1652c-.12-.0579-.7727-.1409-.8642,0a5.3621,5.3621,0,0,0-.37,1.0384l.1994.0066.2409-.8326.0483.72L4.668,4.75Z" fill="#020202"/><ellipse cx="5.297" cy="1.7151" rx="0.2494" ry="0.3151" fill="#020202"/><rect x="1.5713" y="5" width="7.1387" height="0.5" fill="#00010c"/></g><g id="icon-border"><path d="M5,1a3.971,3.971,0,1,1-3.971,3.971A3.9765,3.9765,0,0,1,5,1M5,0a4.971,4.971,0,1,0,4.972,4.971A4.9709,4.9709,0,0,0,5,0" fill="#334dcc"/></g></svg>