<svg xmlns="http://www.w3.org/2000/svg" xmlns:xlink="http://www.w3.org/1999/xlink" width="10" height="10" viewBox="0 0 10 10"><defs><clipPath id="clip-path"><rect width="10" height="10" fill="none"/></clipPath></defs><title>Mapeo DEFAULT v2 icon-library-nature</title><g id="icons"><path d="M4.3084,6.52a4.0355,4.0355,0,0,1-.5993-.2685c-.1726-.1945-.1709-1.0981-.69-1.3856a2.6874,2.6874,0,0,0-1.311-.2227s.0067,1.3421.3809,1.5484a5.7676,5.7676,0,0,0,1.5519.2848,1.7657,1.7657,0,0,1,.4732.1661Z" fill="#16b516"/><path d="M1.8221,4.883a2.6063,2.6063,0,0,0,.7756.9284,7.2042,7.2042,0,0,0,.8528.4765s-.6794-.4709-.8553-.5821A3.4748,3.4748,0,0,1,1.8221,4.883Z" fill="#007830"/><path d="M4.9469,5.9824a1.0773,1.0773,0,0,1,.425-.4149c.2392-.0921.997.1206,1.481-.22a3.2574,3.2574,0,0,0,.8245-.971s-1.0638-.2852-1.412-.039a7.0631,7.0631,0,0,0-.9928,1.1447c-.2826.2861-.4233.423-.4233.423Z" fill="#16b516"/><path d="M7.4316,4.4126a3.3969,3.3969,0,0,0-1.1173.402c-.3631.22-.7984.56-.7984.56s.7082-.4262.8831-.5389A4.636,4.636,0,0,1,7.4316,4.4126Z" fill="#007830"/><path d="M5.1514,7.3972a.9237.9237,0,0,1,.5162-.254c.2567-.0157.8932.3957,1.4531.2022a3.0527,3.0527,0,0,0,1.0557-.7366s-.96-.6555-1.3634-.5154a6.59,6.59,0,0,0-1.2648.8615,2.6227,2.6227,0,0,0-.5342.3968Z" fill="#16b516"/><path d="M7.9278,6.5643a3.1289,3.1289,0,0,0-1.192.0441,9.0114,9.0114,0,0,0-.9229.3161s.8-.2069,1-.2658A4.2437,4.2437,0,0,1,7.9278,6.5643Z" fill="#007830"/><path d="M5.0451,4.2121a.91.91,0,0,1,.2685-.5386c.2122-.1477,1.1026-.0612,1.4651-.53A2.8447,2.8447,0,0,0,7.228,1.916s-1.2441-.1068-1.5045.2315a6.1233,6.1233,0,0,0-.5516,1.4511c-.1742.3694-.2633.5471-.2633.5471Z" fill="#16b516"/><path d="M6.9848,2.0039a2.84,2.84,0,0,0-1.0036.659,8.0105,8.0105,0,0,0-.5993.77s.562-.606.6976-.7639A3.8193,3.8193,0,0,1,6.9848,2.0039Z" fill="#007830"/><path d="M4.7009,5.5051a1.1131,1.1131,0,0,0-.222-.55C4.3,4.7724,3.54,4.6432,3.2372,4.1346A3.351,3.351,0,0,1,2.87,2.92s1.0615.1932,1.2791.56a7.2692,7.2692,0,0,1,.4516,1.4409c.1437.3746.2174.5561.2174.5561Z" fill="#16b516"/><path d="M3.076,3.056a3.5228,3.5228,0,0,1,.8468.83c.2412.3492.501.8365.501.8365s-.4713-.6791-.5848-.8535A4.8159,4.8159,0,0,0,3.076,3.056Z" fill="#007830"/><g id="fb6799ad-8fec-4b42-ad43-2c52690a8564"><path d="M4.6641,7.7229a1.7307,1.7307,0,0,0-.089-.6434,1.1136,1.1136,0,0,0-.6092-.5029L4.25,6.494s.414.2148.414.5268Z" fill="#1f6d1b"/><path d="M4.8982,8.347s.078-1.09.624-1.1679l-.2078-.09s-.4162.244-.4162.556Z" fill="#1f6d1b"/><path d="M4.8982,6.7088c-.0066.0049-.08-1.1642.585-1.163L5.29,5.4393s-.37.2751-.3913.4894Z" fill="#1f6d1b"/><path d="M4.04,8.503l.39-.4681a3.1954,3.1954,0,0,0,.234-1.0921V5.3046s0-1.7162.8581-1.7162h.1684s-.7924,0-.7924,1.7162v2.73l.312.4681Z" fill="#0e6612"/></g></g><g id="icon-border"><g clip-path="url(#clip-path)"><g clip-path="url(#clip-path)"><path d="M5,1.0288A3.971,3.971,0,1,1,1.029,5,3.9765,3.9765,0,0,1,5,1.0288m0-1A4.971,4.971,0,1,0,9.972,5,4.9709,4.9709,0,0,0,5,.0288" fill="#2d9905"/></g></g></g></svg>