<svg xmlns="http://www.w3.org/2000/svg" width="100" height="100" viewBox="0 0 100 100"><title>_</title><g id="icons"><path d="M41.2922,69.141C38.647,67.75,35.7148,67.3375,33.7476,65.76c-2.1731-2.4492-2.1521-13.8253-8.6854-17.4457A33.8294,33.8294,0,0,0,8.557,45.5116s.0844,16.8971,4.7954,19.4943c6.2234,3.4292,14.5252,2.2216,19.5385,3.5856s5.9585,2.0912,5.9585,2.0912Z" fill="#16b516"/><path d="M9.989,48.5305a32.8346,32.8346,0,0,0,9.7653,11.6888,90.5852,90.5852,0,0,0,10.7369,5.9984S21.9378,60.2892,19.7226,58.89A43.7766,43.7766,0,0,1,9.989,48.5305Z" fill="#007830"/><path d="M49.3319,62.3715a13.565,13.565,0,0,1,5.3512-5.2237c3.0105-1.1593,12.5519,1.5191,18.6452-2.7761A41.0165,41.0165,0,0,0,83.71,42.1474s-13.3937-3.5918-17.7769-.4917c-5.7889,4.0957-8.9423,10.8108-12.5,14.4128s-5.33,5.3252-5.33,5.3252Z" fill="#16b516"/><path d="M80.6155,42.6072a42.8053,42.8053,0,0,0-14.068,5.0613c-4.5711,2.7649-10.0524,7.0483-10.0524,7.0483s8.9168-5.366,11.1185-6.7851A58.4233,58.4233,0,0,1,80.6155,42.6072Z" fill="#007830"/><path d="M51.9062,80.1852a11.6245,11.6245,0,0,1,6.5-3.1981c3.2314-.1984,11.2452,4.9815,18.2945,2.5451a38.415,38.415,0,0,0,13.291-9.2738S77.9,62.0057,72.8263,63.7691c-6.701,2.33-11.5221,8.2817-15.9242,10.8465a32.99,32.99,0,0,0-6.7251,4.996Z" fill="#16b516"/><path d="M86.8616,69.6983a39.3708,39.3708,0,0,0-15.0072.5556,113.1992,113.1992,0,0,0-11.6195,3.98S70.31,71.6286,72.8228,70.887A53.4354,53.4354,0,0,1,86.8616,69.6983Z" fill="#007830"/><path d="M50.5676,40.0834a11.46,11.46,0,0,1,3.3813-6.7813c2.6711-1.8593,13.8813-.77,18.4458-6.6753a35.7978,35.7978,0,0,0,5.6568-15.4526S62.3877,9.83,59.1087,14.0893c-4.33,5.6265-4.7513,13.62-6.9441,18.27S48.85,39.2477,48.85,39.2477Z" fill="#16b516"/><path d="M74.99,12.2809A35.749,35.749,0,0,0,62.3543,20.578a100.8244,100.8244,0,0,0-7.5464,9.7s7.0767-7.6306,8.7834-9.6183A48.1146,48.1146,0,0,1,74.99,12.2809Z" fill="#007830"/><path d="M46.2342,56.3623a14.02,14.02,0,0,0-2.7952-6.9208c-2.2526-2.3037-11.8184-3.93-15.633-10.3338a42.187,42.187,0,0,1-4.6242-15.2935s13.3639,2.4329,16.104,7.0487c3.6181,6.0974,3.8759,13.4247,5.6855,18.1414s2.7375,7.0024,2.7375,7.0024Z" fill="#16b516"/><path d="M25.7763,25.5282A44.3219,44.3219,0,0,1,36.4381,35.9755c3.0362,4.3956,6.3072,10.531,6.3072,10.531s-5.9333-8.55-7.3624-10.7449A60.6143,60.6143,0,0,0,25.7763,25.5282Z" fill="#007830"/><g id="fb6799ad-8fec-4b42-ad43-2c52690a8564"><path d="M45.7715,84.2856s.2467-5.1353-1.1211-8.1008c-1.7221-3.7333-6.3725-5.9942-7.67-6.332l3.5791-1.04s5.2124,2.7045,5.2124,6.6332Z" fill="#1f6d1b"/><path d="M48.718,92.1429S49.7,78.4207,56.5753,77.4386l-2.6165-1.1357s-5.2408,3.0719-5.2408,7.0006Z" fill="#1f6d1b"/><path d="M48.718,71.5175c-.0825.062-1.0092-14.6573,7.3658-14.643l-2.4386-1.34s-4.6611,3.4637-4.9272,6.1613Z" fill="#1f6d1b"/><path d="M37.9142,94.1073l4.9108-5.893a40.266,40.266,0,0,0,2.9465-13.75V53.8386s0-21.6076,10.8038-21.6076h2.12s-9.9773,0-9.9773,21.6076V88.2143l3.9287,5.893Z" fill="#0e6612"/></g></g></svg>