<svg xmlns="http://www.w3.org/2000/svg" xmlns:xlink="http://www.w3.org/1999/xlink" width="10" height="10" viewBox="0 0 10 10"><defs><clipPath id="clip-path"><rect x="0.0234" width="10" height="10" fill="none"/></clipPath></defs><title>Mapeo DEFAULT v2 icon-library-threats</title><g id="icons"><circle cx="5.0234" cy="5" r="3.0391" fill="none" stroke="#000" stroke-miterlimit="10" stroke-width="0.5"/><path d="M5.0234,1.9609v0Z" fill="#fff" stroke="#000" stroke-miterlimit="10" stroke-width="0.5"/><path d="M5.0234,8.0391v0Z" fill="#fff" stroke="#000" stroke-miterlimit="10" stroke-width="0.5"/><path d="M1.9844,5h0Z" fill="#fff" stroke="#000" stroke-miterlimit="10" stroke-width="0.5"/><path d="M8.0625,5h0Z" fill="#fff" stroke="#000" stroke-miterlimit="10" stroke-width="0.5"/><path d="M5.8459,4.206a6.7746,6.7746,0,0,0-1.0638.056,2.4866,2.4866,0,0,0-1.0745.0109,1.0766,1.0766,0,0,0-.4676.7339c-.0948.3468-.2876.3106-.3421.2629-.09-.0783.1053-.1846.0483-.2793-.0417-.0692-.2319.0554-.2116.2457a.258.258,0,0,0,.2423.229c.337.0188.4357-.47.52-.6158.0386-.0666.0408.0929.09.246.058.1816.3549.38.3778.459.0421.1454-.1422.3342-.09.4908s.1586.3543.2007.3543.1838.0344.1838-.055-.0932-.054-.1352-.1054c-.0228-.0279-.0825-.1957-.0228-.25.0965-.0874.0857-.3513.1278-.5415s.1279-.3463.175-.354c.3284-.0539.81.3652.9468.354s.6741.0671.811-.2573.3172-.3217.3172-.3217L6.3339,4.25Z"/><path d="M5.572,5.2592c.0742.1869.29.4178.3266.5241s.2317.5747.3054.5915.2.0338.2-.0336c0-.151-.1282-.0763-.1539-.2022-.03-.1477-.1442-.6583-.1357-.7025a6.8822,6.8822,0,0,1,.0525-.7177" stroke="#fff" stroke-miterlimit="10" stroke-width="0.0461"/><path d="M5.626,5.4941s-.103-.0007-.204.0067A.6387.6387,0,0,1,5.24,5.4757s-.0451.419-.0527.5355c-.0071.1091.0243.2248.1243.2192s.1215-.0055.1215-.0614-.082-.0533-.0873-.1036A3.0564,3.0564,0,0,1,5.626,5.4941Z"/><path d="M3.7529,5.42a.5774.5774,0,0,1-.1575-.1583c-.08-.1221-.1032-.3348-.1089-.2387a.87.87,0,0,1-.158.3319.656.656,0,0,1-.2422.1678,4.799,4.799,0,0,0-.16.5726c-.0071.109.0227.1516.1227.146S3.17,6.2354,3.17,6.18s-.082-.0533-.0873-.1036A1.73,1.73,0,0,1,3.7529,5.42Z"/><path d="M6.3722,4.3483c0-.1385.0294-.1963.088-.2193s.1321.1126.1321.1126a1.6774,1.6774,0,0,1,.2971.1552c.0408.0462.2237.3924.2685.48.0128.0252-.0706.1212-.139.1212a.1251.1251,0,0,1-.09-.0238l-.0441.01.0031-.0481s-.1143-.05-.129-.0154.12.1073.12.1073l.0313-.01-.0039.0253a.0511.0511,0,0,1,.0136.0667c-.044.0716-.1252.03-.1937-.0562a.59.59,0,0,0-.241-.134s-.2731.0806-.3257.1629c-.0415-.4462-.0415-.5789-.0415-.5789Z"/><path d="M6.7178,4.258l-.0937-.0329-.0408-.06s.0717-.0961.1132-.0561S6.7178,4.258,6.7178,4.258Z"/><path d="M6.6952,4.5441a.1226.1226,0,0,0,.04.0822.1067.1067,0,0,0,.0872.0006.1233.1233,0,0,0-.04-.0823A.1069.1069,0,0,0,6.6952,4.5441Z" fill="#fff"/></g><g id="icon-border"><g clip-path="url(#clip-path)"><g clip-path="url(#clip-path)"><path d="M5.0234,1.0283A3.9715,3.9715,0,1,1,1.0524,5a3.9774,3.9774,0,0,1,3.971-3.972m0-1A4.9715,4.9715,0,1,0,9.9954,5,4.9717,4.9717,0,0,0,5.0234.0283" fill="#d63e03"/></g></g></g></svg>