<svg id="icons" xmlns="http://www.w3.org/2000/svg" width="100" height="100" viewBox="0 0 100 100"><title>threats</title><path d="M50.2346,91.3926a41.41,41.41,0,1,1,41.41-41.41A41.4592,41.4592,0,0,1,50.2346,91.3926Zm0-76.5257A35.1153,35.1153,0,1,0,85.35,49.9822,35.152,35.152,0,0,0,50.2346,14.8669Z"/><rect x="47.087" y="3.4569" width="6.2952" height="16.5248"/><rect x="47.087" y="79.9826" width="6.2952" height="16.5248"/><path d="M11.9718,49.9822h0Z" fill="#fff"/><rect x="3.7093" y="46.8346" width="16.5248" height="6.2952"/><path d="M88.4974,49.9822h0Z" fill="#fff"/><rect x="80.235" y="46.8346" width="16.5248" height="6.2952"/><path d="M60.59,39.9858c-4.3762-.845-9.0176.8451-13.3938.7042S37.78,39,33.6673,40.8279c-2.8144,1.2507-4.6928,4.8745-5.8863,9.24s-3.6211,3.91-4.3078,3.31c-1.1272-.9859,1.3261-2.3238.6078-3.5169-.5243-.8708-2.9195.6977-2.6633,3.0944a3.2485,3.2485,0,0,0,3.05,2.8831c4.2437.2361,5.4864-5.9234,6.5473-7.7543.4854-.8377.5136,1.17,1.1293,3.0983.73,2.2858,4.4683,4.7855,4.7561,5.7787.53,1.8309-1.79,4.2077-1.1272,6.1794s1.9961,4.461,2.5266,4.461,2.3137.4332,2.3137-.6935-1.1735-.6789-1.7018-1.3263c-.2874-.3521-1.0388-2.4646-.2874-3.1453,1.215-1.1006,1.079-4.4234,1.6094-6.8177s1.6108-4.36,2.2035-4.457c4.134-.678,10.1958,4.5979,11.92,4.457s8.4872.8451,10.2112-3.2392,3.9938-4.0507,3.9938-4.0507l-1.8283-7.786Z"/><path d="M57.1418,53.2455c.9336,2.3534,3.6468,5.2605,4.111,6.5985S64.17,67.08,65.0986,67.291s2.5187.4254,2.52-.4225c.0019-1.9013-1.6148-.9613-1.9383-2.5456-.38-1.86-1.8157-8.2887-1.7086-8.8449.5968-3.0984-.09-8.0407.6607-9.0365" stroke="#fff" stroke-miterlimit="10" stroke-width="0.5808"/><path d="M57.8214,56.2031s-1.2969-.0085-2.5693.0847a8.0349,8.0349,0,0,1-2.2876-.3169s-.5677,5.276-.6631,6.7428c-.0892,1.3732.3054,2.83,1.5652,2.7594s1.5295-.0691,1.5295-.7733-1.0322-.67-1.0985-1.304S56.4953,58.4565,57.8214,56.2031Z"/><path d="M34.2386,55.2652a7.2858,7.2858,0,0,1-1.9837-1.9937c-1.009-1.5368-1.2991-4.2151-1.37-3.0045a10.9787,10.9787,0,0,1-1.9892,4.1782,8.2667,8.2667,0,0,1-3.05,2.1126,60.3514,60.3514,0,0,0-2.0167,7.2093c-.0893,1.3732.285,1.9089,1.5448,1.8385s1.5295-.0691,1.5295-.7733-1.0322-.67-1.0985-1.3041S30.0245,57.24,34.2386,55.2652Z"/><path d="M67.2165,41.7771c0-1.7442.3692-2.471,1.1078-2.7617s1.6628,1.4178,1.6628,1.4178a21.1268,21.1268,0,0,1,3.74,1.9544c.5145.5814,2.8171,4.9408,3.3806,6.0415.162.3164-.8885,1.5253-1.75,1.5253a1.5779,1.5779,0,0,1-1.1369-.3l-.5549.1326.0393-.6059s-1.44-.63-1.6243-.1937,1.5085,1.3505,1.5085,1.3505l.3937-.1226-.049.3185a.6427.6427,0,0,1,.1717.84c-.5545.9013-1.5772.3721-2.4389-.7086a7.4423,7.4423,0,0,0-3.0344-1.6867s-3.4388,1.0153-4.1,2.0509c-.5223-5.6171-.5223-7.2887-.5223-7.2887Z"/><path d="M71.5669,40.64l-1.1792-.4144-.5134-.7563s.9021-1.21,1.4244-.7059S71.5669,40.64,71.5669,40.64Z"/><path d="M71.2825,44.2417a1.5471,1.5471,0,0,0,.5047,1.0356,1.3438,1.3438,0,0,0,1.098.0073,1.5478,1.5478,0,0,0-.5047-1.0357A1.3436,1.3436,0,0,0,71.2825,44.2417Z" fill="#fff"/></svg>