<svg xmlns="http://www.w3.org/2000/svg" width="10" height="10" viewBox="0 0 10 10"><title>Mapeo DEFAULT v2 icon-library-misc</title><g id="icon-border"><path d="M5,.0287A4.9713,4.9713,0,1,0,9.9711,5,4.9713,4.9713,0,0,0,5,.0287Z" fill="#a5a5a5"/><path d="M5,1.0287A3.9713,3.9713,0,1,1,1.0285,5,3.9758,3.9758,0,0,1,5,1.0287" fill="#fff"/></g><g id="icons"><g id="g5"><path id="path4200" d="M3.7012,8.4253c.6688-.9424,1.62.5469,2.2543-.3263,1.0386-1.43-1.1-.7559-1.2992-2.1649-.2133-1.506-3.0616.3541-1.9692-2.4852C3.1076,2.356,5.5582,4.8719,6.4293,4.625c3.0753-.8716-1.22-2.0986-.0336-3.4073" fill="none" stroke="#80417b" stroke-linecap="round" stroke-width="0.267" stroke-dasharray="0.4449 0.5339"/></g><circle cx="5" cy="4.1412" r="0.5827" stroke="#fff" stroke-miterlimit="10" stroke-width="0.1084"/></g></svg>