<svg id="09026c87-81b1-46ff-8d8e-46292d4f7e8f" data-name="iconos" xmlns="http://www.w3.org/2000/svg" width="24" height="24" viewBox="0 0 24 24">
  <title>AC</title>
  <path d="M21.6,6h-.26a11.45,11.45,0,0,0-6.59,3.24,18.14,18.14,0,0,0-1.41,1.62c-.71.89-.85.89-1.09.89H12c-.69,0-.85,0-1.88-1.43L10,10.22l-.48-.66C7.43,6.78,3.52,6.1,3.08,6a2.91,2.91,0,0,0-.44,0H0v5.8H2.37A5,5,0,0,1,4.88,13l.5.69C6.62,15.45,8.32,17.8,12,17.8c3.24,0,4.83-2,5.88-3.31a13.66,13.66,0,0,1,1-1.14,5.91,5.91,0,0,1,2.91-1.55H24V6Z" fill="#0070e7"/>
  <g>
    <path d="M18.5,13.1a13.65,13.65,0,0,0-1,1.18C16.43,15.59,15,17.4,12,17.4c-3.42,0-5-2.15-6.22-3.87l-.5-.69A5.43,5.43,0,0,0,2.42,11.4H0V14H2c1,0,1.86,1.8,2,2a8.88,8.88,0,0,0,8,4c4.15,0,6.24-2.82,7.36-4.23a11.78,11.78,0,0,1,.83-1A3.18,3.18,0,0,1,22,14h2V11.4H21.76A6.32,6.32,0,0,0,18.5,13.1Z" fill="#92cc66"/>
    <path d="M22,4c-.14,0-1.86,0-2,0-.73.07-3.37.78-6.59,4a19.55,19.55,0,0,0-1.49,1.71l-.29-.39L11,8.52C8.55,5.2,5.84,4.13,5,4,4.76,4,3.24,4,3,4H0V6.6H2.64l.36,0c.42.06,4.14.7,6.12,3.33l.56.76c1.17,1.63,1.46,1.64,2.29,1.64h.29c.43,0,.68-.08,1.48-1.08A17.92,17.92,0,0,1,15.1,9.7a10.88,10.88,0,0,1,6.28-3.09H24V4Z" fill="#92cc66"/>
  </g>
  <path d="M21.6,5.6h-.31A12,12,0,0,0,14.4,9,18.72,18.72,0,0,0,13,10.66a3.26,3.26,0,0,1-.66.71s0,0,0,0H12c-.56,0-.63,0-1.51-1.22l-.57-.78C7.71,6.42,3.62,5.71,3.16,5.64a3.43,3.43,0,0,0-.52,0H0v1H2.64l.36,0c.42.06,4.14.7,6.12,3.33l.56.76c1.17,1.63,1.46,1.64,2.29,1.64h.29c.43,0,.68-.08,1.48-1.08A17.92,17.92,0,0,1,15.1,9.7a10.88,10.88,0,0,1,6.28-3.09H24v-1Zm-3.1,7.5a13.64,13.64,0,0,0-1,1.18C16.43,15.59,15,17.4,12,17.4c-3.42,0-5-2.15-6.22-3.87l-.5-.69A5.43,5.43,0,0,0,2.42,11.4H0v1H2.32a4.49,4.49,0,0,1,2.16,1l.49.67c1.3,1.81,3.09,4.29,7,4.29,3.48,0,5.16-2.11,6.27-3.5a12.92,12.92,0,0,1,.94-1.09,5.33,5.33,0,0,1,2.65-1.4H24v-1H21.76A6.32,6.32,0,0,0,18.5,13.1Z" fill="#231f20"/>
</svg>
