<svg id="icons" xmlns="http://www.w3.org/2000/svg" width="100" height="100" viewBox="0 0 100 100"><title>infrastructure</title><path d="M95.4353,68.7988C85.5938,59.9977,60.304,26.2111,60.304,26.2111l-20.0352-.1S20.9223,55.4024,9.9057,67.9927a23.59,23.59,0,0,0-3.4473,5.06,49.7124,49.7124,0,0,0,88.9769-4.2534Z" fill="#848281"/><polygon points="50.284 34.724 48.66 34.724 48.919 29.768 49.854 29.768 50.284 34.724" fill="#fff"/><polygon points="51.112 46.142 48.135 46.142 48.609 37.056 50.324 37.056 51.112 46.142" fill="#fff"/><polygon points="53.086 70.043 46.806 70.043 47.807 50.879 51.424 50.879 53.086 70.043" fill="#fff"/><polygon points="56.287 101.215 44.775 101.215 46.609 79.06 53.24 79.06 56.287 101.215" fill="#fff"/><rect x="30.4393" y="29.621" width="6.4595" height="17.517" rx="3.2297" ry="3.2297"/><rect x="63.2858" y="29.621" width="6.8428" height="17.7435" rx="3.4214" ry="3.4214"/><rect x="30.4393" y="19.5761" width="39.6894" height="18.8034" rx="6.8592" ry="6.8592" fill="#ff0015"/><path d="M62.5651,25.5063H38.0028a4.3465,4.3465,0,0,1-4.3338-4.3338l2.0235-7.1084A4.3466,4.3466,0,0,1,40.0263,9.73h19.6A4.3466,4.3466,0,0,1,63.96,14.0641l2.9386,7.1084A4.3465,4.3465,0,0,1,62.5651,25.5063Z" fill="#ce0539"/><path d="M63.2858,20.7331H37.3608c-2.0569,0-1.9111-1.157-1.4146-2.4087l1.7462-4.335c.7926-1.9685,1.6829-2.643,3.74-2.643H58.3461c2.0569,0,3.0155.5621,3.74,2.643l1.9175,4.2811C64.4319,19.5761,65.3427,20.7331,63.2858,20.7331Z" fill="#1ffffb"/><rect x="29.4013" y="33.5169" width="41.7654" height="4.8626" rx="2.1381" ry="2.1381" fill="#b2afaf"/><rect x="62.4296" y="26.635" width="5.8456" height="3.9908" rx="1.1745" ry="1.1745" fill="#feffdf"/><rect x="33.2799" y="26.635" width="5.8456" height="3.9908" rx="1.1745" ry="1.1745" fill="#feffdf"/></svg>