<svg xmlns="http://www.w3.org/2000/svg" width="10" height="10" viewBox="0 0 10 10"><title>Mapeo DEFAULT v2 icon-library-infrastructure</title><g id="icon-border"><path d="M5.0287.0287A4.9713,4.9713,0,1,0,10,5,4.9713,4.9713,0,0,0,5.0287.0287Z" fill="#b209b2"/><path d="M5.0287,1.0287A3.9713,3.9713,0,1,1,1.0574,5,3.9758,3.9758,0,0,1,5.0287,1.0287" fill="#fff"/></g><g id="icons"><path d="M8.6541,6.6057a39.2738,39.2738,0,0,1-2.79-3.3826L4.2724,3.2152S2.7358,5.5417,1.8608,6.5417a1.8733,1.8733,0,0,0-.2738.4018,3.9484,3.9484,0,0,0,7.0671-.3378Z" fill="#848281"/><polygon points="5.068 3.899 4.939 3.899 4.959 3.506 5.034 3.506 5.068 3.899" fill="#fff"/><polygon points="5.134 4.806 4.897 4.806 4.935 4.085 5.071 4.085 5.134 4.806" fill="#fff"/><polygon points="5.29 6.705 4.792 6.705 4.871 5.182 5.158 5.182 5.29 6.705" fill="#fff"/><polygon points="5.545 9.18 4.63 9.18 4.776 7.421 5.303 7.421 5.545 9.18" fill="#fff"/><rect x="3.4917" y="3.494" width="0.513" height="1.3913" rx="0.2565" ry="0.2565"/><rect x="6.1005" y="3.494" width="0.5435" height="1.4093" rx="0.2717" ry="0.2717"/><rect x="3.4917" y="2.6962" width="3.1524" height="1.4935" rx="0.5448" ry="0.5448" fill="#ff0015"/><path d="M6.0433,3.1672H4.0924a.3452.3452,0,0,1-.3442-.3443l.1607-.5645a.3452.3452,0,0,1,.3442-.3443H5.81a.3452.3452,0,0,1,.3442.3443l.2334.5645A.3452.3452,0,0,1,6.0433,3.1672Z" fill="#ce0539"/><path d="M6.1005,2.788H4.0414c-.1633,0-.1518-.0918-.1123-.1913l.1387-.3443a.2723.2723,0,0,1,.297-.21H5.7082a.2615.2615,0,0,1,.297.21l.1523.34C6.1916,2.6962,6.2639,2.788,6.1005,2.788Z" fill="#1ffffb"/><rect x="3.4092" y="3.8034" width="3.3173" height="0.3862" rx="0.1698" ry="0.1698" fill="#b2afaf"/><rect x="6.0325" y="3.2568" width="0.4643" height="0.317" rx="0.0933" ry="0.0933" fill="#feffdf"/><rect x="3.7173" y="3.2568" width="0.4643" height="0.317" rx="0.0933" ry="0.0933" fill="#feffdf"/></g></svg>