<svg xmlns="http://www.w3.org/2000/svg" width="10" height="10" viewBox="0 0 10 10"><title>Mapeo DEFAULT v2 icon-library-infrastructure</title><g id="icons"><path d="M4.2724,3.2152S2.7357,5.5417,1.8607,6.5417s0,1.375,0,1.375a4.35,4.35,0,0,0,3.5,1.4583c2.25-.125,3.2772-1.1912,3.4855-1.65s.5979-.5344-.0688-1.0171A33.5087,33.5087,0,0,1,5.8637,3.2231Z" fill="#848281"/><polygon points="5.068 3.899 4.939 3.899 4.959 3.506 5.034 3.506 5.068 3.899" fill="#fff"/><polygon points="5.134 4.806 4.897 4.806 4.935 4.085 5.071 4.085 5.134 4.806" fill="#fff"/><polygon points="5.29 6.705 4.792 6.705 4.871 5.182 5.158 5.182 5.29 6.705" fill="#fff"/><polygon points="5.545 9.18 4.63 9.18 4.776 7.421 5.303 7.421 5.545 9.18" fill="#fff"/><rect x="3.4917" y="3.494" width="0.513" height="1.3913" rx="0.2565" ry="0.2565"/><rect x="6.1005" y="3.494" width="0.5435" height="1.4093" rx="0.2717" ry="0.2717"/><rect x="3.4917" y="2.6962" width="3.1524" height="1.4935" rx="0.5448" ry="0.5448" fill="#ff0015"/><path d="M6.0433,3.1672H4.0924a.3452.3452,0,0,1-.3442-.3443l.1607-.5645a.3452.3452,0,0,1,.3442-.3443H5.81a.3452.3452,0,0,1,.3442.3443l.2334.5645A.3452.3452,0,0,1,6.0433,3.1672Z" fill="#ce0539"/><path d="M6.1005,2.788H4.0414c-.1633,0-.1518-.0918-.1123-.1913l.1387-.3443a.2723.2723,0,0,1,.297-.21H5.7082a.2615.2615,0,0,1,.297.21l.1523.34C6.1916,2.6962,6.2639,2.788,6.1005,2.788Z" fill="#1ffffb"/><rect x="3.4092" y="3.8034" width="3.3173" height="0.3862" rx="0.1698" ry="0.1698" fill="#b2afaf"/><rect x="6.0325" y="3.2568" width="0.4643" height="0.317" rx="0.0933" ry="0.0933" fill="#feffdf"/><rect x="3.7173" y="3.2568" width="0.4643" height="0.317" rx="0.0933" ry="0.0933" fill="#feffdf"/></g><g id="icon-border"><path d="M5,1.029A3.971,3.971,0,1,1,1.0285,5,3.9765,3.9765,0,0,1,5,1.029m0-1A4.971,4.971,0,1,0,9.9715,5,4.9709,4.9709,0,0,0,5,.029" fill="#334dcc"/></g></svg>