<svg id="icons" xmlns="http://www.w3.org/2000/svg" width="100" height="100" viewBox="0 0 100 100"><title>culture</title><path d="M59.5388,94.5414C57.5866,95.76,54.1847,82.7436,54.27,83.0391c0,0-18.7208-2.84-21.917-22.5859-.0709-.4381,6.1909,2.1035,6.1357,1.6485-.0408-.336-6.4024-3.6646-6.4343-4.01q-.0746-.8077-.1157-1.65c-.0279-.5757,5.8555,2.4929,5.8526,1.8924-.003-.6048-5.9007-4.864-5.8952-5.464a158.8188,158.8188,0,0,1,5.4562-38.61c.0891-.33,8.7161,7.49,8.8005,7.1858.0832-.3-8.3761-8.7249-8.2981-8.9988.27-.95.5078-1.7415.6987-2.36.3154-1.0216,8.9557,7.3886,8.9557,7.3886s-7.9778-9.1326-7.1945-9.3845c3.143-1.01,11.2607-3.2487,13.6768-.3,3.0182,3.6837,1.4722,23.1162,2.195,36.7085s3.3764,21.6855,3.7411,27.1988A17.3076,17.3076,0,0,1,57.4337,82.383S61.5294,93.2988,59.5388,94.5414Z" fill="#6d6b6b"/><path d="M53.0441,84.2769s-6.7006-24.8163-7.2087-35.6876,3.9233-40.15,3.9233-40.15" fill="none" stroke="#fff" stroke-miterlimit="10" stroke-width="1.8098"/></svg>