<?xml version="1.0" encoding="utf-8"?>
<!-- Generator: Adobe Illustrator 21.0.0, SVG Export Plug-In . SVG Version: 6.00 Build 0)  -->
<svg version="1.1" id="salt-lick" xmlns="http://www.w3.org/2000/svg" xmlns:xlink="http://www.w3.org/1999/xlink" x="0px" y="0px"
	 viewBox="0 0 11 11" style="enable-background:new 0 0 11 11;" xml:space="preserve">
<style type="text/css">
	.st0{fill:#442702;}
</style>
<title>salt-lick</title>
<path class="st0" d="M4,3.3c0.1,0.4,0.4,0.7,0.8,0.7C5.1,4,5.3,3.6,5.2,3.2l0,0C5.1,2.8,4.8,2.5,4.4,2.5C4,2.6,3.9,3,4,3.3z"/>
<path class="st0" d="M6.3,4.1C6.6,4,7,3.7,7,3.3l0,0C7.1,3,7,2.6,6.6,2.5c-0.4,0-0.7,0.3-0.8,0.7l0,0C5.7,3.6,5.9,4,6.3,4.1
	C6.2,4.1,6.3,4.1,6.3,4.1z"/>
<path class="st0" d="M3.7,4.6c0-0.4-0.4-0.7-0.8-0.7c0,0,0,0,0,0c-0.4,0.2-0.5,0.6-0.4,1c0,0,0,0,0,0c0,0.4,0.4,0.7,0.8,0.7
	c0,0,0,0,0,0C3.7,5.4,3.8,5,3.7,4.6C3.7,4.6,3.7,4.6,3.7,4.6z"/>
<path class="st0" d="M8.1,3.9c-0.4,0-0.8,0.3-0.8,0.7c0,0,0,0,0,0c-0.2,0.4,0,0.8,0.4,1c0,0,0,0,0,0c0.4,0,0.8-0.3,0.8-0.7
	c0,0,0,0,0,0C8.7,4.5,8.5,4.1,8.1,3.9C8.1,3.9,8.1,3.9,8.1,3.9z"/>
<path class="st0" d="M7.8,6.8L7.8,6.8C7.5,6.7,7.3,6.5,7,6.4c0.1-0.8-0.5-1.6-1.3-1.7c0,0,0,0,0,0H5.5C4.7,4.7,4,5.4,4,6.2
	c0,0,0,0,0,0c0,0,0,0.1,0,0.2C3.7,6.5,3.4,6.6,3.2,6.8C2.8,7.1,2.7,7.7,3,8.1l0,0c0.3,0.4,0.9,0.5,1.4,0.2c0.7-0.4,1.5-0.4,2.2,0
	C7,8.7,7.6,8.6,8,8.2c0,0,0,0,0,0l0,0c0.3-0.4,0.3-0.9-0.1-1.3C7.9,6.9,7.9,6.9,7.8,6.8L7.8,6.8z"/>
<path d="M5.5,0C2.5,0,0,2.5,0,5.5S2.5,11,5.5,11S11,8.5,11,5.5C11,2.5,8.5,0,5.5,0z M5.5,10.2c-2.6,0-4.7-2.1-4.7-4.7
	c0-2.6,2.1-4.7,4.7-4.7c2.6,0,4.7,2.1,4.7,4.7c0,0,0,0,0,0C10.2,8.1,8.1,10.2,5.5,10.2z"/>
</svg>
