<?xml version="1.0" encoding="utf-8"?>
<!-- Generator: Adobe Illustrator 21.0.0, SVG Export Plug-In . SVG Version: 6.00 Build 0)  -->
<svg version="1.1" id="special-site" xmlns="http://www.w3.org/2000/svg" xmlns:xlink="http://www.w3.org/1999/xlink" x="0px"
	 y="0px" viewBox="0 0 10.6 11" style="enable-background:new 0 0 10.6 11;" xml:space="preserve">
<style type="text/css">
	.st0{fill:#F277BA;}
</style>
<title>special-place</title>
<path class="st0" d="M10.6,3.8c-0.1-0.2-0.3-0.3-0.5-0.3H7L5.8,0.3c0-0.3-0.2-0.5-0.5-0.5S4.8,0,4.8,0.3L3.6,3.4H0.5
	C0.2,3.5,0,3.7,0,4c0,0.1,0.1,0.3,0.2,0.4l2.5,2.2l-1.2,3.8c-0.1,0.3,0.1,0.5,0.3,0.6c0.1,0,0.3,0,0.4-0.1l3.2-2.2l3.2,2.2
	C8.7,11.1,9,11,9.2,10.8c0.1-0.1,0.1-0.3,0.1-0.4L8,6.5l2.5-2.2C10.6,4.2,10.7,4,10.6,3.8z M7.2,5.7L6.6,6.2l0.2,0.7l0.6,1.9L6,7.9
	L5.3,7.3L4.7,7.8l-1.5,1l0.6-1.9l0.2-0.7L3.5,5.7l-1.1-1h2L4.7,4l0.7-1.7L6,4l0.3,0.7h2.1L7.2,5.7z"/>
</svg>
