<svg id="65c5d88d-4920-43b8-9086-df0b43a3c227" data-name="iconos" xmlns="http://www.w3.org/2000/svg" width="100" height="100" viewBox="0 0 100 100">
  <title>AC</title>
  <rect x="50.51" y="20" width="4" height="24" fill="#d07100"/>
  <circle cx="52.51" cy="20" r="5" fill="#3c8c41"/>
  <rect x="30.51" y="40" width="4" height="24" fill="#d07100"/>
  <circle cx="32.51" cy="40" r="5" fill="#3c8c41"/>
  <rect x="20.51" y="50" width="4" height="24" fill="#d07100"/>
  <circle cx="22.51" cy="50" r="5" fill="#3c8c41"/>
  <rect x="60.51" y="10" width="4" height="24" fill="#d07100"/>
  <circle cx="62.51" cy="10" r="5" fill="#3c8c41"/>
  <rect x="40.51" y="30" width="4" height="24" fill="#d07100"/>
  <circle cx="42.51" cy="30" r="5" fill="#3c8c41"/>
  <g>
    <path d="M41.77,60.58a26.78,26.78,0,0,1,4.58.5,19.06,19.06,0,0,0,2.87.36A1.6,1.6,0,0,0,50.5,61c.55-.55.56-1.29.07-4.16-.59-3.42-1.47-8.59,2.86-12.92a11.25,11.25,0,0,1,8.34-3.35,26.69,26.69,0,0,1,4.58.5,19.12,19.12,0,0,0,2.87.35A1.61,1.61,0,0,0,70.51,41a5,5,0,0,1,1.05-.78,4.94,4.94,0,0,1,.55-.44c6.29-4,6.38-30.7,5.43-38.15A5,5,0,0,1,77.63,0H70.55c-.07.83-.06,11.67.05,12.51,1.16,9.15-.32,19.56-2.3,21.4l-.46.31-.31-.05a33.11,33.11,0,0,0-5.76-.6A18.14,18.14,0,0,0,48.48,39a18.36,18.36,0,0,0-5.36,14.64c-.44,0-.89,0-1.35,0A18.13,18.13,0,0,0,28.48,59a18.35,18.35,0,0,0-5.36,14.63c-.44,0-.89,0-1.35,0A18.13,18.13,0,0,0,8.49,79c-3,3-4.06,17.17-3.23,21h7.43c-1.13-1.92-.89-14.42.75-16.07a11.24,11.24,0,0,1,8.33-3.35,26.63,26.63,0,0,1,4.58.5,19.15,19.15,0,0,0,2.87.36A1.61,1.61,0,0,0,30.5,81c.55-.55.56-1.29.07-4.16-.59-3.42-1.47-8.59,2.86-12.92A11.23,11.23,0,0,1,41.77,60.58Z" fill="#b9ff82"/>
    <path d="M87.38,0c0,.13.07.24.08.37.38,3,3.31,39.39-10,47.85l-.16.09a11.28,11.28,0,0,1-8.11,3.12,26.61,26.61,0,0,1-4.55-.49,19.1,19.1,0,0,0-2.87-.36A1.61,1.61,0,0,0,60.5,51c-.55.55-.56,1.29-.07,4.16.59,3.42,1.47,8.59-2.86,12.92a11.24,11.24,0,0,1-8.33,3.35,26.72,26.72,0,0,1-4.58-.5,19.08,19.08,0,0,0-2.87-.36A1.61,1.61,0,0,0,40.5,71c-.55.55-.56,1.29-.07,4.16.59,3.42,1.47,18.59-2.86,22.92A11.47,11.47,0,0,1,35,100H45c2.65-4,3.08-18.24,2.89-21.61.44,0,.89,0,1.35,0A18.13,18.13,0,0,0,62.52,73a18.35,18.35,0,0,0,5.36-14.64c.43,0,.88,0,1.33,0a18.19,18.19,0,0,0,12.32-4.49C97.35,43.52,95.25,6.58,94.47,0Z" fill="#b9ff82"/>
  </g>
  <path d="M41.77,60.58a26.78,26.78,0,0,1,4.58.5,19.06,19.06,0,0,0,2.87.36A1.6,1.6,0,0,0,50.5,61c.55-.55.56-1.29.07-4.16-.59-3.42-1.47-8.59,2.86-12.92a11.25,11.25,0,0,1,8.34-3.35,26.69,26.69,0,0,1,4.58.5,19.12,19.12,0,0,0,2.87.35A1.61,1.61,0,0,0,70.51,41a5,5,0,0,1,1.05-.78,4.94,4.94,0,0,1,.55-.44c6.29-4,6.38-30.7,5.43-38.15A5,5,0,0,1,77.63,0h-2a6.77,6.77,0,0,0-.06,1.88,114.68,114.68,0,0,1,0,20C74.43,35,71.82,37.6,71,38.09a5.64,5.64,0,0,0-.65.49,7,7,0,0,0-1.14.84h0a19.43,19.43,0,0,1-2.53-.33,28.47,28.47,0,0,0-4.91-.52A13.14,13.14,0,0,0,52,42.52C47,47.58,48,53.59,48.6,57.19c.18,1,.28,1.77.32,2.23-.58,0-1.44-.18-2.23-.32a28.59,28.59,0,0,0-4.92-.52A13.12,13.12,0,0,0,32,62.52C27,67.58,28,73.59,28.6,77.19c.18,1,.28,1.77.32,2.23-.58,0-1.44-.18-2.23-.31a28.39,28.39,0,0,0-4.92-.53A13.13,13.13,0,0,0,12,82.52c-.43.43-1.74,1.74-2,9.28-.06,1.85-.11,5.91.54,8.21h2.13c-1.13-1.92-.89-14.42.75-16.07a11.24,11.24,0,0,1,8.33-3.35,26.63,26.63,0,0,1,4.58.5,19.15,19.15,0,0,0,2.87.36A1.61,1.61,0,0,0,30.5,81c.55-.55.56-1.29.07-4.16-.59-3.42-1.47-8.59,2.86-12.92A11.23,11.23,0,0,1,41.77,60.58ZM89.45.12s0-.08,0-.12h-2c0,.13.07.24.08.37.38,3,3.31,39.39-10,47.85l-.16.09a11.28,11.28,0,0,1-8.11,3.12,26.61,26.61,0,0,1-4.55-.49,19.1,19.1,0,0,0-2.87-.36A1.61,1.61,0,0,0,60.5,51c-.55.55-.56,1.29-.07,4.16.59,3.42,1.47,8.59-2.86,12.92a11.24,11.24,0,0,1-8.33,3.35,26.72,26.72,0,0,1-4.58-.5,19.08,19.08,0,0,0-2.87-.36A1.61,1.61,0,0,0,40.5,71c-.55.55-.56,1.29-.07,4.16.59,3.42,1.47,18.59-2.86,22.92A11.47,11.47,0,0,1,35,100h3.41c.18-.17.37-.33.55-.51C44.82,93.65,42.43,75,42.4,74.82c-.18-1-.28-1.77-.32-2.23.58,0,1.44.18,2.23.32a28.53,28.53,0,0,0,4.92.53A13.12,13.12,0,0,0,59,69.49C64,64.43,63,58.42,62.4,54.82c-.18-1-.28-1.77-.32-2.24.58,0,1.44.18,2.24.32a28.34,28.34,0,0,0,4.89.52,13.16,13.16,0,0,0,9.29-3.48l.05,0C93.54,40.37,89.5.52,89.45.12Z" fill="#231f20"/>
  <path d="M88.4,0H76.61a5.86,5.86,0,0,0-.07,1.75c1.15,9.08.41,33.75-5,37.19a5.42,5.42,0,0,0-.6.46,5.78,5.78,0,0,0-1.18.89c-.06.06-.14.14-.58.14a18.28,18.28,0,0,1-2.7-.34,27.61,27.61,0,0,0-4.75-.51,12.18,12.18,0,0,0-9,3.65C48,47.92,49,53.62,49.58,57c.38,2.23.43,3.05.21,3.28-.06.06-.13.13-.57.13a18.34,18.34,0,0,1-2.72-.35,27.7,27.7,0,0,0-4.73-.51,12.17,12.17,0,0,0-9,3.64C28,67.92,29,73.62,29.58,77c.38,2.22.43,3.05.21,3.28-.06.06-.13.13-.58.13a18.26,18.26,0,0,1-2.7-.34,27.55,27.55,0,0,0-4.75-.51,12.17,12.17,0,0,0-9,3.65c-2,2-2.09,13.66-1.12,16.78H36.84a12.53,12.53,0,0,0,1.43-1.22c5-5,3.53-21.48,3.14-23.79s-.43-3.05-.21-3.28c.06-.06.13-.13.58-.13a18.29,18.29,0,0,1,2.71.34,27.66,27.66,0,0,0,4.74.51,12.17,12.17,0,0,0,9-3.65C63,64.09,62,58.4,61.4,55c-.38-2.23-.43-3.05-.2-3.28.06-.06.14-.14.58-.14a18.26,18.26,0,0,1,2.7.34,27.51,27.51,0,0,0,4.72.51,12.21,12.21,0,0,0,8.7-3.3l.11-.06C92.49,39.85,88.5.64,88.45.25,88.44.18,88.42.09,88.4,0Z" fill="#0070e7"/>
  <rect x="50.51" y="70" width="4" height="24" fill="#d07100"/>
  <circle cx="52.51" cy="70" r="5" fill="#3c8c41"/>
  <rect x="61" y="54" width="4" height="24" fill="#d07100"/>
  <circle cx="63" cy="54" r="5" fill="#3c8c41"/>
  <rect x="80.51" y="45" width="4" height="24" fill="#d07100"/>
  <circle cx="82.51" cy="45" r="5" fill="#3c8c41"/>
</svg>
