<svg id="b2e7854f-d874-44f5-be5b-482cdf8e1341" data-name="iconos" xmlns="http://www.w3.org/2000/svg" width="24" height="24" viewBox="0 0 24 24">
  <title>AC</title>
  <path d="M21.11,0V0H17.76a1.67,1.67,0,0,0,0,.45C18,2.6,17.8,8.4,16.66,9.13c-.06,0-.12.08-.12.09a1.67,1.67,0,0,0-.31.22,4.16,4.16,0,0,1-.6-.08,6.81,6.81,0,0,0-1.18-.13,3.17,3.17,0,0,0-2.36,1,3.69,3.69,0,0,0-.83,3.54c0,.23.06.4.07.51l-.51-.07A6.82,6.82,0,0,0,9.65,14a3.17,3.17,0,0,0-2.35,1,3.69,3.69,0,0,0-.83,3.54q.06.34.07.51L6,19a6.79,6.79,0,0,0-1.18-.13,3.17,3.17,0,0,0-2.35,1C2,20.33,1.89,23,2.14,24H8.87L9,23.89c1.41-1.41.83-5.89.83-5.94,0-.23-.06-.4-.07-.51l.52.08a6.77,6.77,0,0,0,1.17.13,3.17,3.17,0,0,0,2.35-1,3.69,3.69,0,0,0,.83-3.54q-.06-.35-.07-.51l.51.07a6.84,6.84,0,0,0,1.18.13A3.16,3.16,0,0,0,18.49,12C22.14,9.67,21.12.12,21.11,0Z" fill="#0070e7"/>
  <rect x="9" y="8" width="1" height="5" fill="#d07100"/>
  <circle cx="9.5" cy="7.5" r="1.5" fill="#3c8c41"/>
  <g>
    <rect x="13" y="4" width="1" height="5.76" fill="#d07100"/>
    <circle cx="13.5" cy="3.5" r="1.5" fill="#3c8c41"/>
  </g>
  <g>
    <path d="M9.83,14.54a6.43,6.43,0,0,1,1.1.12,4.58,4.58,0,0,0,.69.09.39.39,0,0,0,.31-.1c.13-.13.14-.31,0-1a3.22,3.22,0,0,1,.69-3.1,2.7,2.7,0,0,1,2-.8,6.41,6.41,0,0,1,1.1.12,4.59,4.59,0,0,0,.69.09.39.39,0,0,0,.31-.1A1.19,1.19,0,0,1,17,9.65l.13-.1c1.51-1,1.53-7.37,1.3-9.16a1.19,1.19,0,0,1,0-.39H16c0,.2,0,3,0,3V7h0V8H14a3.72,3.72,0,0,0-3,1c-1.17,1.17-1.06,3-1,4H9a3.67,3.67,0,0,0-3,1,3.48,3.48,0,0,0-1,3H5c-1.26,0-5,0-5,2v5H2.85c-.27-.46-.21-3.46.18-3.86a2.7,2.7,0,0,1,2-.8,6.39,6.39,0,0,1,1.1.12,4.59,4.59,0,0,0,.69.09.39.39,0,0,0,.31-.1c.13-.13.14-.31,0-1a3.22,3.22,0,0,1,.69-3.1A2.7,2.7,0,0,1,9.83,14.54Z" fill="#b9ff82"/>
    <path d="M20.78,0s0,.06,0,.09c.09.72.79,9.45-2.4,11.48l0,0a2.71,2.71,0,0,1-1.95.75,6.39,6.39,0,0,1-1.09-.12,4.58,4.58,0,0,0-.69-.09.39.39,0,0,0-.31.1c-.13.13-.14.31,0,1a3.22,3.22,0,0,1-.69,3.1,2.7,2.7,0,0,1-2,.8,6.41,6.41,0,0,1-1.1-.12A1.76,1.76,0,0,0,10,17c-.16,0,.07-.07,0,0a1,1,0,0,0-.49,1c.14.82.35,4.46-.69,5.5a2.75,2.75,0,0,1-.61.46H11s.07-4.19,0-5h1a3.72,3.72,0,0,0,3-1c1-1,1-3,1-4h1a4.46,4.46,0,0,0,3-1.06C24,11,23,2,23,0Z" fill="#b9ff82"/>
  </g>
  <path d="M9.83,14.54a6.43,6.43,0,0,1,1.1.12,4.58,4.58,0,0,0,.69.09.39.39,0,0,0,.31-.1c.13-.13.14-.31,0-1a3.22,3.22,0,0,1,.69-3.1,2.7,2.7,0,0,1,2-.8,6.4,6.4,0,0,1,1.1.12,4.59,4.59,0,0,0,.69.09.39.39,0,0,0,.31-.1A1.19,1.19,0,0,1,17,9.65l.13-.1c1.51-1,1.53-7.37,1.3-9.16a1.19,1.19,0,0,1,0-.39h-1a2.11,2.11,0,0,0,0,.52c.3,2.39,0,7.57-.85,8.19l-.18.13-.13.09-.36-.06a7.27,7.27,0,0,0-1.27-.13,3.7,3.7,0,0,0-2.71,1.1,4.07,4.07,0,0,0-1,3.81,6.63,6.63,0,0,0-1.1-.1,3.69,3.69,0,0,0-2.71,1.1,4.06,4.06,0,0,0-1,3.81,6.69,6.69,0,0,0-1.1-.1,3.69,3.69,0,0,0-2.71,1.1c-.7.7-.75,3.34-.5,4.56h1c-.27-.46-.21-3.46.18-3.86a2.7,2.7,0,0,1,2-.8,6.39,6.39,0,0,1,1.1.12,4.59,4.59,0,0,0,.69.09.39.39,0,0,0,.31-.1c.13-.13.14-.31,0-1a3.22,3.22,0,0,1,.69-3.1A2.7,2.7,0,0,1,9.83,14.54ZM21.79,0h-1s0,.06,0,.09c.09.72.79,9.45-2.4,11.48l0,0a2.71,2.71,0,0,1-1.95.75,6.38,6.38,0,0,1-1.09-.12,4.59,4.59,0,0,0-.69-.09.39.39,0,0,0-.31.1c-.13.13-.14.31,0,1a3.22,3.22,0,0,1-.69,3.1,2.7,2.7,0,0,1-2,.8,6.41,6.41,0,0,1-1.1-.12A1.76,1.76,0,0,0,10,17c-.16,0,.07-.07,0,0a1,1,0,0,0-.49,1c.14.82.35,4.46-.69,5.5a2.75,2.75,0,0,1-.61.46H9.73c1.18-1.58.87-5.15.78-6a6.63,6.63,0,0,0,1.11.11A3.69,3.69,0,0,0,14.33,17a4.07,4.07,0,0,0,1-3.81,6.68,6.68,0,0,0,1.09.1A3.71,3.71,0,0,0,19,12.4C22.74,10,21.86.66,21.79,0Z" fill="#231f20"/>
  <rect x="4.01" y="11.24" width="1" height="5.76" fill="#d07100"/>
  <circle cx="4.5" cy="10.74" r="1.5" fill="#3c8c41"/>
  <g>
    <rect x="20" y="9" width="1" height="6" fill="#d07100"/>
    <circle cx="20.5" cy="8.5" r="1.5" fill="#3c8c41"/>
  </g>
  <g>
    <rect x="15.01" y="13.24" width="1" height="5.76" fill="#d07100"/>
    <circle cx="15.5" cy="12.74" r="1.5" fill="#3c8c41"/>
  </g>
  <g>
    <rect x="10.38" y="18.24" width="1" height="5.76" fill="#d07100"/>
    <circle cx="10.88" cy="17.74" r="1.5" fill="#3c8c41"/>
  </g>
</svg>
