<?xml version="1.0" encoding="utf-8"?>
<!-- Generator: Adobe Illustrator 21.0.0, SVG Export Plug-In . SVG Version: 6.00 Build 0)  -->
<svg version="1.1" id="swidden" xmlns="http://www.w3.org/2000/svg" xmlns:xlink="http://www.w3.org/1999/xlink" x="0px" y="0px"
	 viewBox="0 0 7.9 9" style="enable-background:new 0 0 7.9 9;" xml:space="preserve">
<style type="text/css">
	.st0{fill:#7AB929;}
</style>
<title>swidden</title>
<rect y="7.9" class="st0" width="7.9" height="1.1"/>
<rect x="3.4" y="5.5" class="st0" width="1.1" height="3.5"/>
<path class="st0" d="M3.4,6.7c2.4,0,4.4-2,4.4-4.4C5.4,2.3,3.4,4.2,3.4,6.7z"/>
<path class="st0" d="M4.4,6.7C2,6.6,0,4.7,0.1,2.2C2.5,2.3,4.4,4.2,4.4,6.7z"/>
<path class="st0" d="M3.9,3.4C3,2.4,3,0.9,3.9,0c0,0,0,0,0,0C4.9,0.9,4.9,2.4,3.9,3.4C3.9,3.4,3.9,3.4,3.9,3.4z"/>
</svg>
