<svg xmlns="http://www.w3.org/2000/svg" width="10" height="10" viewBox="0 0 10 10"><title>Mapeo DEFAULT v2 icon-library-infrastructure</title><g id="icons"><polygon points="2.519 6.715 6.247 6.709 4.971 7.974 6.105 7.974 6.672 7.407 7.239 6.84 7.806 6.273 7.239 5.706 6.672 5.139 6.105 4.572 4.971 4.572 6.225 5.853 2.516 5.863 2.519 6.715" fill="#7f5420"/><polygon points="7.379 3.102 3.65 3.107 4.926 1.842 3.792 1.842 3.225 2.409 2.658 2.976 2.091 3.543 2.658 4.11 3.225 4.677 3.792 5.244 4.926 5.244 3.673 3.964 7.382 3.954 7.379 3.102" fill="#2d207a"/></g><g id="icon-border"><path d="M5,1A3.971,3.971,0,1,1,1.029,4.971,3.9765,3.9765,0,0,1,5,1M5,0A4.971,4.971,0,1,0,9.972,4.971,4.9709,4.9709,0,0,0,5,0" fill="#334dcc"/></g></svg>