<svg xmlns="http://www.w3.org/2000/svg" width="10" height="10" viewBox="0 0 10 10"><title>Mapeo DEFAULT v2 icon-library-infrastructure</title><g id="icon-border"><path d="M4.9771.0229A4.9713,4.9713,0,1,0,9.9484,4.9941,4.9712,4.9712,0,0,0,4.9771.0229Z" fill="#b209b2"/><path d="M4.9771,1.0229A3.9713,3.9713,0,1,1,1.0059,4.9941,3.9758,3.9758,0,0,1,4.9771,1.0229" fill="#fff"/></g><g id="icons"><polygon points="2.35 6.841 6.338 6.834 4.973 8.187 6.186 8.187 6.792 7.581 7.399 6.975 8.005 6.368 7.399 5.762 6.792 5.155 6.186 4.549 4.973 4.549 6.314 5.918 2.347 5.929 2.35 6.841" fill="#7f5420"/><polygon points="7.548 2.976 3.56 2.982 4.925 1.629 3.712 1.629 3.105 2.235 2.499 2.842 1.892 3.448 2.499 4.055 3.105 4.661 3.712 5.268 4.925 5.268 3.584 3.898 7.551 3.887 7.548 2.976" fill="#2d207a"/></g></svg>