<svg xmlns="http://www.w3.org/2000/svg" width="10" height="10" viewBox="0 0 10 10"><title>Mapeo DEFAULT v2 icon-library-nature</title><g id="icon-border"><path d="M5,.0287A4.9713,4.9713,0,1,0,9.9713,5,4.9713,4.9713,0,0,0,5,.0287Z" fill="#2d9905"/><path d="M5,1.0287A3.9713,3.9713,0,1,1,1.0287,5,3.9758,3.9758,0,0,1,5,1.0287" fill="#fff"/></g><g id="icons"><path d="M6.161,1.6793c.6165-.0421-.6849-.5487-1.67-.3929-.4939.0781-1.4981.5915-1.0225.5915s.9.6059-.0687.551c-.5381-.03-1.4264.5282-.8993.5376,1.1855.0211,1.0162.4361.2825.5441s-.57.5066-.06.4946c.6178-.0144,1.6808.163,1.2684.1644-.7984.0026-1.6693.4608-.5231.3485.8527-.0835.3855.1471.2887.3221-.33.5973,1.9862-.18,2.6723-.1193,1.1143.0984,1.0885-.1427.437-.3459-.3989-.1244-.1421-.4658.61-.49.6046-.0191-.485-.3869-.9267-.4262-.405-.0361-.3092-.2834.541-.3051.5826-.0149.87-.6636.42-.6146-.6892.0753-2.3779-.049-1.4268-.1124S7.63,1.935,7.1069,1.97,4.9245,1.7638,6.161,1.6793Z" fill="#216807"/><path d="M3.737,4.2644c-.5689-.06.5439.5817,1.4661.601.4624.01,1.4552-.2774,1.0211-.3517s-.7319-.665.1443-.466c.4867.1105,1.38-.2339.9006-.3244-1.079-.2037-.863-.5362-.1773-.5148s.5955-.3491.128-.4186c-.5661-.0841-1.51-.4038-1.1336-.34.7293.1226,1.5922-.1376.5293-.22-.7908-.0611-.33-.1875-.2159-.3238.39-.465-.649-.1854-1.2663-.3451-1.0026-.2594-1.7411.036-1.1764.3137.3456.17-.4339.0784-1.0937.2758-.5368.16.3853.41.7827.5136.3643.0946.24.2936-.5391.1794-.534-.0783-.8921.438-.4747.4659.64.0427,2.1634.4143,1.2857.32s-1.4839.184-1.0012.2357S4.8783,4.3847,3.737,4.2644Z" fill="#3d8716"/><path d="M4.3223,8.1029a2.7,2.7,0,0,0,.5226-1.4247,9.5081,9.5081,0,0,0-.3468-2.3526c-.3521-.6445.642,1.0731.2752-1.11-.0226-.1343.3606,1.5515.4772,1.4963.1323-.0626.3115-1.174.3115-1.001,0,.89-.0458,1.0272.7246.1609a4.95,4.95,0,0,0-.7123,1.36c-.0216.4318-.3926,1.9888.1059,2.3975a2.45,2.45,0,0,0,1.0166.5991c.2806.0686.2806.2413.2806.2413a6.2627,6.2627,0,0,0-1.0361-.2421c-.3238-.0169-.3886.0263-.41.2421s-.2374.4749-.2806,0,.0091-.569-.4056-.2413-1.5587.3493-1.2781.2845A3.0276,3.0276,0,0,0,4.3223,8.1029Z" fill="#442902"/></g></svg>