<svg xmlns="http://www.w3.org/2000/svg" width="100" height="100" viewBox="0 0 100 100"><title>_</title><g id="icons"><path d="M64.6176,8.1913c7.7613-.53-8.6226-6.9081-21.0246-4.9464-6.2179.9835-18.8618,7.4462-12.8739,7.4462s11.3332,7.6288-.8644,6.9383c-6.7752-.3835-17.9586,6.65-11.3232,6.7684,14.9264.2659,12.7948,5.4906,3.5576,6.85s-7.1781,6.378-.7534,6.2279c7.7784-.1819,21.1615,2.0515,15.97,2.0688-10.0527.0336-21.0179,5.8018-6.5867,4.3887,10.7359-1.0512,4.8533,1.8512,3.635,4.0548-4.1577,7.52,25.0074-2.2647,33.6449-1.5018,14.03,1.2392,13.7051-1.7963,5.502-4.3551-5.022-1.5665-1.7891-5.8647,7.6788-6.165,7.6125-.2415-6.1056-4.8711-11.6668-5.3663-5.0992-.4541-3.8926-3.5683,6.8116-3.8414,7.3347-.1871,10.9484-8.3551,5.2916-7.7375-8.6779.9472-29.94-.6176-17.9637-1.4154s19.4607-6.1953,12.874-5.757S49.0491,9.255,64.6176,8.1913Z" fill="#216807"/><path d="M34.0989,40.7382c-7.1634-.755,6.8471,7.3244,18.4587,7.5669,5.8216.1216,18.3211-3.4917,12.8552-4.4281S56.1982,35.5053,67.23,38.01c6.1277,1.3913,17.3787-2.9443,11.3392-4.0843-13.5858-2.5643-10.8657-6.7506-2.2323-6.4819s7.4976-4.3948,1.6107-5.27c-7.1272-1.0592-19.0128-5.084-14.2713-4.2872,9.1813,1.543,20.0455-1.732,6.6629-2.7664-9.9558-.77-4.1559-2.36-2.7172-4.0761C72.5319,5.19,59.45,8.71,51.6789,6.6991c-12.6229-3.266-21.9209.4536-14.8121,3.95,4.3521,2.1405-5.4622.9875-13.77,3.4724-6.7575,2.0213,4.8515,5.1686,9.8544,6.4667,4.5875,1.19,3.0246,3.6955-6.787,2.2578-6.723-.9852-11.2322,5.5154-5.977,5.8659,8.0617.5376,27.238,5.2163,16.1879,4.0336S17.6927,35.0613,23.77,35.7122,48.4679,42.2527,34.0989,40.7382Z" fill="#3d8716"/><path d="M41.468,89.0663c2.4459-1.0871,6.9083-13.8605,6.5795-17.9372s-1.28-23.9722-4.3661-29.62c-4.4338-8.1139,8.0833,13.5107,3.4643-13.9727-.2841-1.69,4.54,19.5344,6.0086,18.8394,1.6655-.7884,3.9223-14.7817,3.9223-12.6036,0,11.2011-.5774,12.9333,9.1228,2.0263,1.0962-1.2325-8.6967,11.6863-8.9685,17.1218s-4.9433,25.0386,1.3332,30.1847,9.266,6.6781,12.7991,7.5427,3.533,3.0388,3.533,3.0388S65.9277,90.85,61.8511,90.6375s-4.892.3312-5.1638,3.0489-2.9895,5.9791-3.533,0,.1139-7.1647-5.1068-3.0388S28.4228,95.0453,31.9558,94.23,41.468,89.0663,41.468,89.0663Z" fill="#442902"/></g></svg>