<svg xmlns="http://www.w3.org/2000/svg" width="10" height="10" viewBox="0 0 10 10"><title>Mapeo DEFAULT v2 icon-library-nature</title><g id="icons"><path d="M5.8588,2.2c.54-.0415-.6-.5412-1.463-.3875-.4326.077-1.3125.5833-.8958.5833s.7886.5977-.06.5436c-.4715-.03-1.25.5209-.788.53,1.0387.0208.89.43.2476.5366s-.5.5-.0524.4879c.5412-.0142,1.4725.1607,1.1112.1621C3.2588,4.6588,2.4958,5.1107,3.5,5c.7471-.0824.3377.145.2529.3176-.2893.5892,1.74-.1774,2.3412-.1176.9763.0971.9537-.1407.3829-.3412-.3495-.1227-.1245-.4594.5343-.4829.53-.019-.4249-.3816-.8118-.42-.3549-.0356-.2709-.28.474-.301.51-.0146.7618-.6545.3682-.6061-.6039.0742-2.0834-.0484-1.25-.1109s1.3541-.4853.8958-.451S4.7755,2.2833,5.8588,2.2Z" fill="#216807"/><path d="M4.2065,8.1948a2.3081,2.3081,0,0,0,.4469-1.2183,8.1332,8.1332,0,0,0-.2965-2.0118c-.3012-.5511.549.9177.2353-.949-.0193-.1148.3083,1.3268.4081,1.28.1131-.0536.2664-1.004.2664-.8561,0,.7608-.0392.8784.62.1376A4.2315,4.2315,0,0,0,5.2771,5.74c-.0184.3691-.3357,1.7006.0906,2.05a2.0945,2.0945,0,0,0,.8693.5123c.24.0587.24.2064.24.2064a5.3586,5.3586,0,0,0-.8861-.2071c-.2768-.0144-.3322.0225-.3507.2071s-.203.4061-.24,0,.0077-.4866-.3469-.2064-1.3329.2987-1.0929.2433A2.5917,2.5917,0,0,0,4.2065,8.1948Z" fill="#442902"/></g><g id="icon-border"><path d="M5,1.029A3.971,3.971,0,1,1,1.029,5,3.9765,3.9765,0,0,1,5,1.029m0-1A4.971,4.971,0,1,0,9.972,5,4.9709,4.9709,0,0,0,5,.029" fill="#2d9905"/></g></svg>