<svg xmlns="http://www.w3.org/2000/svg" width="10" height="10" viewBox="0 0 10 10"><title>Mapeo DEFAULT v2 icon-library-threats</title><g id="icons"><g id="Page-1"><g id="iD-sprite.src"><g id="presets"><g id="highway-footway"><path id="highway-footway-stroke2" d="M5.76,2.2772a.6331.6331,0,1,1-.6331-.6331.633.633,0,0,1,.6331.6331Zm-1.2662.8864h.38L7.0259,4.81v.38H6.7727L5.5065,4.2082V5.19l.5064,1.0129.5065,1.2662-.2532.2532H6.0129L5.5065,6.4557,4.4935,4.9362V3.7572L3.86,4.3031,3.354,5.19h-.38V4.9362l.38-.76,1.14-1.0129Zm.2138,2.6352-.5858,1.923H3.86l-.2532-.2532L4.32,5.3318Z"/><path id="highway-footway-stroke1" d="M7.8669,6.444a.363.363,0,0,1,0,.7259.3683.3683,0,0,1-.2862-.1452h-5.09A.3708.3708,0,0,1,2.205,7.17a.363.363,0,0,1,0-.7259.3675.3675,0,0,1,.2861.1451h5.09a.3708.3708,0,0,1,.2862-.1451Z"/><path id="highway-footway-dashes" d="M3.0035,6.7343V6.88H2.5607l.0072-.0726-.0072-.0726Zm1.5969,0H3.8745V6.88H4.6V6.7343Zm1.597,0H5.4715V6.88h.7259V6.7343Zm1.3138,0H7.0684V6.88h.4428l-.0073-.0726.0073-.0726Z" fill="none"/><path id="path26138" d="M8.0846,6.8069a.2178.2178,0,1,1-.2177-.2178.2178.2178,0,0,1,.2177.2178Z" fill="#fff"/><path id="path26142" d="M2.4228,6.8069a.2178.2178,0,1,1-.2178-.2178.2179.2179,0,0,1,.2178.2178Z" fill="#fff"/></g></g></g></g></g><g id="icon-border"><path d="M5.0033,1.0289a3.9715,3.9715,0,1,1-3.971,3.972,3.9774,3.9774,0,0,1,3.971-3.972m0-1a4.9715,4.9715,0,1,0,4.972,4.972A4.9717,4.9717,0,0,0,5.0033.0289" fill="#d63e03"/></g></svg>