<svg id="icons" xmlns="http://www.w3.org/2000/svg" width="100" height="100" viewBox="0 0 100 100"><title>threats</title><g id="highway-footway"><path d="M86.0022,68.594A4.6654,4.6654,0,0,0,82.4,70.4214H18.32c-1.0927-1.0928-1.945-1.8351-3.6025-1.8274a4.57,4.57,0,1,0,0,9.1392A4.6674,4.6674,0,0,0,18.32,75.905H82.4c1.0927,1.0928,1.945,1.8351,3.6025,1.8282a4.57,4.57,0,0,0,0-9.1392ZM37.3168,75.5946h0Z" fill="#e01e0a"/><path id="path26138" d="M88.7439,73.1635a2.7417,2.7417,0,1,1-2.7417-2.7417,2.7427,2.7427,0,0,1,2.7417,2.7417Z" fill="#fff"/><path id="path26142" d="M17.459,73.1635a2.7418,2.7418,0,1,1-2.7418-2.7417,2.7427,2.7427,0,0,1,2.7418,2.7417Z" fill="#fff"/></g><polygon points="34.135 75.903 29.163 89.934 32.946 93.717 36.847 93.717 42.754 75.908 34.135 75.903"/><path d="M51.7994,21.8311A9.4587,9.4587,0,1,0,42.34,12.372,9.4575,9.4575,0,0,0,51.7994,21.8311Z"/><polygon points="40.842 55.241 35.764 70.336 43.969 70.336 46.634 62.218 40.842 55.241"/><polygon points="48.015 25.615 46.124 25.615 42.34 25.615 25.314 40.749 19.639 52.099 19.639 55.882 25.314 55.882 32.881 42.64 42.34 34.483 42.34 52.099 57.474 74.8 65.041 93.717 68.825 93.717 72.608 89.934 65.041 71.016 57.474 55.882 57.474 41.221 76.392 55.882 80.175 55.882 80.175 50.207 48.015 25.615"/></svg>