<svg xmlns="http://www.w3.org/2000/svg" width="10" height="10" viewBox="0 0 10 10"><title>Mapeo DEFAULT v2 icon-library-threats</title><g id="icon-border"><path d="M5,.0307A4.9713,4.9713,0,1,0,9.9713,5.002,4.9713,4.9713,0,0,0,5,.0307Z" fill="#d63e03"/><path d="M5,1.0307A3.9713,3.9713,0,1,1,1.0287,5.002,3.9758,3.9758,0,0,1,5,1.0307" fill="#fff"/></g><g id="icons"><g id="highway-footway"><path d="M7.8669,6.444a.3708.3708,0,0,0-.2862.1451h-5.09A.3674.3674,0,0,0,2.205,6.444a.363.363,0,1,0,0,.7259.3708.3708,0,0,0,.2861-.1452h5.09a.3681.3681,0,0,0,.2862.1452.363.363,0,0,0,0-.7259ZM4,7H4Z" fill="#e01e0a"/><path id="path26138" d="M8.0846,6.8069a.2178.2178,0,1,1-.2177-.2178.2178.2178,0,0,1,.2177.2178Z" fill="#fff"/><path id="path26142" d="M2.4228,6.8069a.2178.2178,0,1,1-.2178-.2178.2179.2179,0,0,1,.2178.2178Z" fill="#fff"/></g><polygon points="3.747 7.024 3.352 8.139 3.653 8.439 3.963 8.439 4.432 7.025 3.747 7.024"/><path d="M5.15,2.73a.7513.7513,0,1,0-.7513-.7513A.7512.7512,0,0,0,5.15,2.73Z"/><polygon points="4.28 5.383 3.877 6.582 4.528 6.582 4.74 5.938 4.28 5.383"/><polygon points="4.85 3.03 4.699 3.03 4.399 3.03 3.047 4.232 2.596 5.134 2.596 5.434 3.047 5.434 3.648 4.383 4.399 3.735 4.399 5.134 5.601 6.937 6.202 8.439 6.503 8.439 6.803 8.139 6.202 6.636 5.601 5.434 5.601 4.27 7.104 5.434 7.404 5.434 7.404 4.984 4.85 3.03"/></g></svg>