<svg xmlns="http://www.w3.org/2000/svg" xmlns:xlink="http://www.w3.org/1999/xlink" width="10" height="10" viewBox="0 0 10 10"><defs><clipPath id="clip-path"><rect width="10" height="10" fill="none"/></clipPath></defs><title>Mapeo DEFAULT v2 icon-library-misc</title><g id="icons"><path d="M7.11,8.0291H2.89a.4963.4963,0,0,1-.5275-.4538V5.204A.4414.4414,0,0,1,2.5865,4.83L5,3.3773,7.4135,4.83a.4279.4279,0,0,1,.2242.3744V7.5753A.4963.4963,0,0,1,7.11,8.0291Z" fill="#78909c"/><path d="M3.4174,4.0686H6.5826V7.1214H3.4174Z" fill="#fff" stroke="#041a66" stroke-miterlimit="10" stroke-width="0.0172"/><path d="M5,4.3548,4.2087,5.3853H5.7913Z" fill="#33f"/><path d="M7.11,8.0291H2.89a.4963.4963,0,0,1-.5275-.4538V5.3061L5,6.7811l2.6377-1.475V7.5753A.4963.4963,0,0,1,7.11,8.0291Z" fill="#cfd8dc"/><path d="M5,6.7447l.2638-.1475V5.3853H4.7362V6.5972Z" fill="#33f"/><polygon points="5.627 2.323 5.627 1.614 3.122 1.614 3.122 2.323 3.122 2.402 3.122 3.268 6.981 3.268 6.981 2.323 5.627 2.323" fill="#33f"/><path d="M3.48,2.3185l-.0043-.01V1.9405l.004-.01.01-.0042h.1492a.1944.1944,0,0,1,.13.04.15.15,0,0,1,.0487.1149l.0006.0437c0,.0181,0,.0325-.0006.0431q-.0056.1554-.1763.1553H3.49Zm.1591-.0808a.0718.0718,0,0,0,.0527-.017A.0782.0782,0,0,0,3.71,2.1663l.0012-.0426q0-.0261-.0012-.042a.0739.0739,0,0,0-.02-.0536.0762.0762,0,0,0-.0542-.0172H3.5821v.2268Z" fill="#fff"/><path d="M3.881,1.9828l-.004-.01V1.92a.0137.0137,0,0,1,.0043-.01l.01-.0043h.0709a.0145.0145,0,0,1,.0147.0143v.0532a.0144.0144,0,0,1-.0142.0147H3.8912Zm0,.3357-.0043-.01V2.042l.0043-.01.01-.004h.0709l.01.004.0042.01v.2666l-.0042.01-.01.004H3.8912l-.01-.0043Z" fill="#fff"/><path d="M4.1005,2.43a.1249.1249,0,0,1-.0488-.0406.0762.0762,0,0,1-.0147-.0383l.0045-.01.01-.004h.076l.0091.0026.0062.0088a.0507.0507,0,0,0,.0148.0195.0455.0455,0,0,0,.0283.0071.0483.0483,0,0,0,.0363-.0122.0569.0569,0,0,0,.0119-.0405v-.038a.1089.1089,0,0,1-.0822.0312.1127.1127,0,0,1-.0876-.0332.15.15,0,0,1-.0332-.0979L4.0307,2.17a.1715.1715,0,0,1,.0309-.1083.1085.1085,0,0,1,.09-.0391.1125.1125,0,0,1,.051.011.108.108,0,0,1,.0369.03v-.02l.004-.0105.01-.0043h.0692a.0145.0145,0,0,1,.0147.0144v.2721a.1247.1247,0,0,1-.0391.0992.1622.1622,0,0,1-.11.034A.194.194,0,0,1,4.1005,2.43Zm.12-.2054a.065.065,0,0,0,.0136-.0374.2411.2411,0,0,0,0-.034.0645.0645,0,0,0-.0136-.0377.0442.0442,0,0,0-.0363-.0145.0426.0426,0,0,0-.0363.015.074.074,0,0,0-.0125.0417l0,.0125a.1005.1005,0,0,0,.0108.0508.0407.0407,0,0,0,.0385.0184A.0436.0436,0,0,0,4.2207,2.2246Z" fill="#fff"/><path d="M4.4073,1.9828l-.004-.01V1.92a.014.014,0,0,1,.0043-.01l.01-.0043h.0709a.0145.0145,0,0,1,.0147.0143v.0532a.0144.0144,0,0,1-.0143.0147H4.4175Zm0,.3357-.0043-.01V2.042l.0043-.01.01-.004h.0709l.01.004.0042.01v.2666l-.0042.01-.01.004H4.4175l-.01-.0043Z" fill="#fff"/><path d="M4.6024,2.21V2.105H4.5576a.0145.0145,0,0,1-.0142-.0142V2.042l.0042-.01.01-.004h.0448V1.9343l.0042-.01.01-.004h.07a.0137.0137,0,0,1,.0142.013v.0947h.0709l.0105.004.0042.01v.0488l-.0042.01-.0105.004H4.7005v.0964a.0516.0516,0,0,0,.0074.03.0272.0272,0,0,0,.0238.01h.0448l.01.0042.004.0105v.0522l-.004.01-.01.0043H4.7226Q4.6023,2.3228,4.6024,2.21Z" fill="#fff"/><path d="M4.8709,2.3168a.0939.0939,0,0,1-.0386-.032A.0781.0781,0,0,1,4.8184,2.24a.075.075,0,0,1,.0321-.0627.1977.1977,0,0,1,.0882-.0332l.07-.0108V2.1265a.0458.0458,0,0,0-.0085-.0306.0376.0376,0,0,0-.029-.01.0419.0419,0,0,0-.019.004l-.0173.0119-.013.0091-.0057.004H4.8507l-.0093-.0037-.0031-.0088a.0615.0615,0,0,1,.0153-.0343.1144.1144,0,0,1,.0448-.0326.1783.1783,0,0,1,.0743-.0136.151.151,0,0,1,.1043.0309.1072.1072,0,0,1,.034.0836v.1719l-.0039.01-.01.0042h-.07a.0144.0144,0,0,1-.0142-.0141v-.02a.0926.0926,0,0,1-.0346.0287.1174.1174,0,0,1-.0528.011A.1278.1278,0,0,1,4.8709,2.3168Zm.1236-.0717A.0669.0669,0,0,0,5.01,2.1974V2.1906l-.047.008q-.0477.009-.0477.034a.0248.0248,0,0,0,.0111.021.0454.0454,0,0,0,.0275.0079A.0532.0532,0,0,0,4.9945,2.2451Z" fill="#fff"/><path d="M5.1771,2.3188l-.0042-.01V1.9343l.0042-.01.01-.004h.0709a.0136.0136,0,0,1,.0142.013v.3755l-.004.01-.01.0043H5.1876Z" fill="#fff"/><path d="M3.48,2.9487l-.0043-.01v-.368l.004-.01.01-.0043h.1492a.194.194,0,0,1,.13.04.1493.1493,0,0,1,.0487.1148l.0006.0437c0,.0181,0,.0325-.0006.0431q-.0056.1554-.1763.1554H3.49Zm.1591-.0809a.0718.0718,0,0,0,.0527-.017A.078.078,0,0,0,3.71,2.7964l.0012-.0426c0-.0174,0-.0314-.0012-.0419a.0735.0735,0,0,0-.02-.0536A.0767.0767,0,0,0,3.636,2.641H3.5821v.2268Z" fill="#fff"/><path d="M3.9065,2.9214a.1437.1437,0,0,1-.0408-.108V2.7958a.1459.1459,0,0,1,.042-.1055.1485.1485,0,0,1,.1071-.038.1628.1628,0,0,1,.0826.02.1233.1233,0,0,1,.05.0539.1762.1762,0,0,1,.0168.078v.0141a.0146.0146,0,0,1-.0143.0148H3.97v.0034a.0715.0715,0,0,0,.0119.0411.038.038,0,0,0,.0324.0156.0389.0389,0,0,0,.0218-.0054.0765.0765,0,0,0,.0156-.0139L4.06,2.8664l.01-.0014h.0743l.0088.0032.0036.0076A.0572.0572,0,0,1,4.14,2.91a.1321.1321,0,0,1-.0488.034.185.185,0,0,1-.0757.0142A.1533.1533,0,0,1,3.9065,2.9214ZM4.06,2.7748V2.7737a.0662.0662,0,0,0-.0119-.0423.04.04,0,0,0-.0335-.015.0393.0393,0,0,0-.0331.015.0677.0677,0,0,0-.0117.0423v.0011Z" fill="#fff"/><path d="M4.22,2.9487l-.0043-.01V2.6722l.0043-.01.01-.004h.0658a.0135.0135,0,0,1,.0141.013v.0205a.1132.1132,0,0,1,.0352-.0278.1022.1022,0,0,1,.0488-.0114.0863.0863,0,0,1,.0856.0488.1033.1033,0,0,1,.038-.0351A.106.106,0,0,1,4.57,2.6523a.0986.0986,0,0,1,.0757.0315.134.134,0,0,1,.0292.0939v.161l-.004.01-.01.0042h-.07L4.58,2.949l-.0043-.01V2.7817a.0554.0554,0,0,0-.011-.0383.038.038,0,0,0-.03-.0122.0365.0365,0,0,0-.0286.0122.056.056,0,0,0-.0111.0383v.1571l-.0039.01-.01.0042h-.07l-.01-.0039-.0043-.01V2.7817a.0549.0549,0,0,0-.0113-.0383.0412.0412,0,0,0-.0585,0,.0538.0538,0,0,0-.0113.0377v.1577l-.004.01-.01.0042H4.23Z" fill="#fff"/><path d="M4.7683,2.9254a.128.128,0,0,1-.0417-.0944L4.726,2.8055q0-.0181.0006-.0255a.1268.1268,0,0,1,.0428-.0939.1916.1916,0,0,1,.2172,0,.1268.1268,0,0,1,.0428.0939l.0012.0255-.0012.0255a.128.128,0,0,1-.0417.0944A.1981.1981,0,0,1,4.7683,2.9254Zm.1443-.0527a.08.08,0,0,0,.0131-.0446l0-.0226,0-.0227a.08.08,0,0,0-.0131-.0443.048.048,0,0,0-.0678-.0014l-.0014.0014a.08.08,0,0,0-.013.0443L4.83,2.8055l.0006.0226a.0793.0793,0,0,0,.013.0446.0486.0486,0,0,0,.0688,0Z" fill="#fff"/><path d="M5.117,2.9243a.1276.1276,0,0,1-.0428-.0956L5.0737,2.806l.0005-.0232a.1263.1263,0,0,1,.0425-.0959.1556.1556,0,0,1,.105-.0346.1764.1764,0,0,1,.0827.0176.1346.1346,0,0,1,.05.0417.09.09,0,0,1,.0176.044.0126.0126,0,0,1-.004.01.0154.0154,0,0,1-.0108.0042h-.076l-.01-.0028-.0062-.0091a.0514.0514,0,0,0-.0162-.0233.0411.0411,0,0,0-.0252-.0073c-.0291,0-.0443.0193-.0454.0578l-.0006.0216.0006.0187a.07.07,0,0,0,.0119.0434.0486.0486,0,0,0,.0593.0068.0513.0513,0,0,0,.0156-.0235l.0062-.0091.01-.0028h.076l.01.004.0046.01a.0835.0835,0,0,1-.0156.0422.1325.1325,0,0,1-.05.0435.1757.1757,0,0,1-.0851.0187A.1553.1553,0,0,1,5.117,2.9243Z" fill="#fff"/><path d="M5.425,2.9487l-.0043-.01V2.6728l.004-.01.01-.0043h.0692a.0145.0145,0,0,1,.0147.0143v.022a.1089.1089,0,0,1,.0372-.0269.1165.1165,0,0,1,.0473-.0094h.0255a.0136.0136,0,0,1,.0142.013v.063l-.004.01-.01.0043H5.5715a.0463.0463,0,0,0-.0348.0125.0481.0481,0,0,0-.0122.0351v.1429l-.0042.01-.01.0039H5.4349Z" fill="#fff"/><path d="M5.7114,2.9469a.0931.0931,0,0,1-.0386-.032A.0778.0778,0,0,1,5.6589,2.87a.0751.0751,0,0,1,.032-.0627.1968.1968,0,0,1,.0882-.0331l.07-.0108V2.7567a.0461.0461,0,0,0-.0085-.0307.0369.0369,0,0,0-.0289-.01.04.04,0,0,0-.019.004l-.0173.0119-.0131.009-.0056.004H5.6912l-.0094-.0037-.0031-.0088a.0621.0621,0,0,1,.0153-.0343.1169.1169,0,0,1,.0448-.0326.18.18,0,0,1,.0743-.0136.1515.1515,0,0,1,.1044.0309.1076.1076,0,0,1,.034.0837v.1718l-.004.01-.01.0043h-.07a.0147.0147,0,0,1-.0142-.0142v-.02a.0906.0906,0,0,1-.0345.0287.1174.1174,0,0,1-.0528.011A.1257.1257,0,0,1,5.7114,2.9469Zm.1236-.0717a.0665.0665,0,0,0,.0156-.0476V2.8208l-.0471.0079q-.0475.0091-.0476.034a.0246.0246,0,0,0,.011.021.0466.0466,0,0,0,.0275.008A.0534.0534,0,0,0,5.835,2.8752Z" fill="#fff"/><path d="M6.046,2.9243a.1276.1276,0,0,1-.0428-.0956L6.0026,2.806l.0006-.0232a.1263.1263,0,0,1,.0425-.0959.1555.1555,0,0,1,.1049-.0346.1768.1768,0,0,1,.0828.0176.1335.1335,0,0,1,.05.0417.0894.0894,0,0,1,.0176.044.0118.0118,0,0,1-.004.01.0147.0147,0,0,1-.0107.0043H6.21l-.01-.0028-.0062-.0091a.0514.0514,0,0,0-.0162-.0233.0409.0409,0,0,0-.0252-.0073c-.0291,0-.0442.0192-.0454.0578l0,.0216,0,.0187a.07.07,0,0,0,.012.0434.04.04,0,0,0,.0334.0139.0421.0421,0,0,0,.0258-.0071.0513.0513,0,0,0,.0156-.0235l.0062-.0091.01-.0028h.076l.01.0039.0045.01a.0826.0826,0,0,1-.0156.0422.1313.1313,0,0,1-.05.0434.1732.1732,0,0,1-.0851.0187A.1545.1545,0,0,1,6.046,2.9243Z" fill="#fff"/><path d="M6.386,3.0573l-.0034-.0086.0011-.0073.0448-.1066L6.32,2.6773,6.3179,2.671l.0049-.0093.0088-.0037h.0675a.0164.0164,0,0,1,.0164.0119l.063.1611L6.5431,2.67A.0182.0182,0,0,1,6.56,2.658H6.627l.0088.0037L6.64,2.67l-.0011.0074-.1606.3715a.0185.0185,0,0,1-.0175.0119H6.3945Z" fill="#fff"/></g><g id="icon-border"><g clip-path="url(#clip-path)"><g clip-path="url(#clip-path)"><path d="M5,1.0283A3.9715,3.9715,0,1,1,1.029,5,3.9774,3.9774,0,0,1,5,1.0283m0-1A4.9715,4.9715,0,1,0,9.972,5,4.9717,4.9717,0,0,0,5,.0283" fill="#a5a5a5"/></g></g></g></svg>