<svg id="icons" xmlns="http://www.w3.org/2000/svg" width="100" height="100" viewBox="0 0 100 100"><title>misc</title><path d="M76.4753,88.6016H23.34c-3.653,0-6.6419-2.5713-6.6419-5.7139V53.0327a5.557,5.557,0,0,1,2.8228-4.7139L49.9075,30.0344,80.2941,48.3188a5.3861,5.3861,0,0,1,2.8228,4.7139v29.855C83.1173,86.03,80.1284,88.6016,76.4753,88.6016Z" fill="#78909c"/><path d="M29.9817,38.7375H69.8335V77.1738H29.9817Z" fill="#fff" stroke="#041a66" stroke-miterlimit="10" stroke-width="0.2169"/><path d="M49.9075,42.3408,39.9446,55.3157h19.926Z" fill="#33f"/><path d="M76.4753,88.6016H23.34c-3.653,0-6.6419-2.5713-6.6419-5.7139V54.3184l33.21,18.57,33.21-18.57V82.8877C83.1173,86.03,80.1284,88.6016,76.4753,88.6016Z" fill="#cfd8dc"/><path d="M49.9075,72.4307l3.3213-1.8568V55.3157H46.5865V70.5739Z" fill="#33f"/><polygon points="57.798 16.756 57.798 7.832 26.262 7.832 26.262 16.756 26.262 17.749 26.262 28.657 74.855 28.657 74.855 16.756 57.798 16.756" fill="#33f"/><path d="M30.7672,16.7036a.1719.1719,0,0,1-.0534-.1251V11.9443a.1851.1851,0,0,1,.05-.132.168.168,0,0,1,.1284-.0537H32.77a2.4427,2.4427,0,0,1,1.6422.5032,1.8832,1.8832,0,0,1,.614,1.4459q.007.2072.0073.55t-.0073.5427q-.0715,1.9566-2.2208,1.9563H30.8922A.1714.1714,0,0,1,30.7672,16.7036Zm2.003-1.0177a.9049.9049,0,0,0,.664-.2142.984.984,0,0,0,.2286-.6853q.0138-.2071.0143-.5358t-.0143-.5282a.9288.9288,0,0,0-.2465-.6749.962.962,0,0,0-.6817-.2176h-.6785v2.856Z" fill="#fff"/><path d="M35.8186,12.4763a.1858.1858,0,0,1-.05-.1321V11.68a.18.18,0,0,1,.0535-.1321.1721.1721,0,0,1,.1251-.0536H36.84a.1827.1827,0,0,1,.1856.18v.67a.1821.1821,0,0,1-.1787.1855h-.899A.1676.1676,0,0,1,35.8186,12.4763Zm.0035,4.2271a.172.172,0,0,1-.0535-.1251V13.2224a.168.168,0,0,1,.0535-.1285.1783.1783,0,0,1,.1251-.05H36.84a.1864.1864,0,0,1,.1322.05.1682.1682,0,0,1,.0534.1285v3.3559a.1683.1683,0,0,1-.0534.1286.1864.1864,0,0,1-.1322.05h-.8921a.1717.1717,0,0,1-.1251-.0532Z" fill="#fff"/><path d="M38.5822,18.1065a1.554,1.554,0,0,1-.614-.5105.9591.9591,0,0,1-.1856-.4821.1557.1557,0,0,1,.0569-.1214.19.19,0,0,1,.1287-.05h.9568a.1872.1872,0,0,1,.1143.0322.2827.2827,0,0,1,.0786.1108.641.641,0,0,0,.1856.2463.58.58,0,0,0,.3569.0892.6124.6124,0,0,0,.4569-.1535.7153.7153,0,0,0,.15-.5106v-.4783a1.37,1.37,0,0,1-1.0353.3929,1.4188,1.4188,0,0,1-1.1031-.4179,1.8953,1.8953,0,0,1-.4178-1.2318l-.0072-.1929a2.1463,2.1463,0,0,1,.3893-1.3636,1.3635,1.3635,0,0,1,1.1388-.4928,1.42,1.42,0,0,1,.6427.1393,1.3522,1.3522,0,0,1,.4641.3748v-.2571a.1866.1866,0,0,1,.05-.132.1679.1679,0,0,1,.1283-.0537h.8713a.1829.1829,0,0,1,.1855.18V16.65a1.567,1.567,0,0,1-.4925,1.2492,2.0441,2.0441,0,0,1-1.3851.4284A2.43,2.43,0,0,1,38.5822,18.1065Zm1.5139-2.585a.8275.8275,0,0,0,.1712-.4711,1.9622,1.9622,0,0,0,.0074-.2141,1.8461,1.8461,0,0,0-.0074-.2143.82.82,0,0,0-.1712-.475.5582.5582,0,0,0-.4572-.1821.5349.5349,0,0,0-.4569.1893.9233.9233,0,0,0-.1571.5247l-.0069.1573a1.2667,1.2667,0,0,0,.1356.6389.5136.5136,0,0,0,.4853.2321A.5524.5524,0,0,0,40.0961,15.5215Z" fill="#fff"/><path d="M42.4452,12.4763a.1854.1854,0,0,1-.05-.1321V11.68a.1793.1793,0,0,1,.0537-.1321.1713.1713,0,0,1,.1249-.0536h.8925a.1831.1831,0,0,1,.1858.1805v.6692a.1828.1828,0,0,1-.18.1855h-.8983A.1672.1672,0,0,1,42.4452,12.4763Zm.0035,4.2271a.1716.1716,0,0,1-.0537-.1251V13.2224a.1683.1683,0,0,1,.0537-.1285.1769.1769,0,0,1,.1249-.05h.8925a.1875.1875,0,0,1,.1322.05.1682.1682,0,0,1,.0536.1285v3.3559a.1685.1685,0,0,1-.0536.1286.1868.1868,0,0,1-.1322.05h-.8925a.1709.1709,0,0,1-.1249-.0532Z" fill="#fff"/><path d="M44.901,15.3359v-1.321h-.5638a.1829.1829,0,0,1-.1786-.1785v-.614a.168.168,0,0,1,.0537-.1285.1778.1778,0,0,1,.1249-.05h.5638v-1.178a.1685.1685,0,0,1,.0536-.1287.1789.1789,0,0,1,.125-.05h.8782a.1712.1712,0,0,1,.1786.1634q0,.0077,0,.0153v1.178h.8925a.1864.1864,0,0,1,.1322.05.1682.1682,0,0,1,.0534.1285v.614a.1676.1676,0,0,1-.0534.1286.1868.1868,0,0,1-.1322.05h-.8923v1.214a.644.644,0,0,0,.0928.3785.3439.3439,0,0,0,.3.1283h.5638a.1687.1687,0,0,1,.1287.0536.187.187,0,0,1,.05.1322v.6568a.1789.1789,0,0,1-.05.1251.1686.1686,0,0,1-.1287.0534H46.415Q44.9011,16.7568,44.901,15.3359Z" fill="#fff"/><path d="M48.2823,16.6819a1.1758,1.1758,0,0,1-.4858-.4035.9785.9785,0,0,1-.175-.5638.9437.9437,0,0,1,.4033-.7894,2.493,2.493,0,0,1,1.11-.4176l.8853-.1356v-.0858a.575.575,0,0,0-.107-.3857.4666.4666,0,0,0-.3644-.1214.516.516,0,0,0-.2392.05,1.2838,1.2838,0,0,0-.2177.15.8811.8811,0,0,1-.1643.1143.0829.0829,0,0,1-.0714.05h-.8282a.16.16,0,0,1-.118-.0465.1285.1285,0,0,1-.0391-.1106.7834.7834,0,0,1,.1926-.4321,1.459,1.459,0,0,1,.5643-.4105,2.2653,2.2653,0,0,1,.9352-.1714,1.9052,1.9052,0,0,1,1.3139.3892,1.3525,1.3525,0,0,1,.4285,1.0531V16.578a.1785.1785,0,0,1-.05.1251.1682.1682,0,0,1-.1285.0534H50.25a.1828.1828,0,0,1-.1787-.1785v-.25a1.1534,1.1534,0,0,1-.4355.3606,1.4692,1.4692,0,0,1-.664.1388A1.5963,1.5963,0,0,1,48.2823,16.6819Zm1.5565-.9031a.8394.8394,0,0,0,.1964-.6V15.093l-.5927.1q-.6.1142-.6.4283a.31.31,0,0,0,.1388.2641.5787.5787,0,0,0,.3464.1A.6726.6726,0,0,0,49.8388,15.7788Z" fill="#fff"/><path d="M52.1378,16.7069a.1678.1678,0,0,1-.0537-.1286V11.8658a.1688.1688,0,0,1,.0537-.1287.1871.1871,0,0,1,.1321-.05h.8925a.1712.1712,0,0,1,.1786.1635c0,.005,0,.01,0,.0152v4.7125a.179.179,0,0,1-.05.1251.1679.1679,0,0,1-.1286.0534H52.27A.1862.1862,0,0,1,52.1378,16.7069Z" fill="#fff"/><path d="M30.7672,24.6371a.1719.1719,0,0,1-.0534-.1251V19.878a.1846.1846,0,0,1,.05-.132.1673.1673,0,0,1,.1284-.0537H32.77a2.4431,2.4431,0,0,1,1.6422.5031,1.8826,1.8826,0,0,1,.614,1.4459q.007.2071.0073.55t-.0073.5428q-.0715,1.9566-2.2208,1.9563H30.8922A.172.172,0,0,1,30.7672,24.6371Zm2.003-1.0177a.9045.9045,0,0,0,.664-.2142.9845.9845,0,0,0,.2286-.6853q.0138-.2071.0143-.5358t-.0143-.5281a.9288.9288,0,0,0-.2465-.6749.962.962,0,0,0-.6817-.2176h-.6785v2.8559Z" fill="#fff"/><path d="M36.14,24.294a1.8145,1.8145,0,0,1-.5141-1.36v-.2213a1.8418,1.8418,0,0,1,.5284-1.328,1.8707,1.8707,0,0,1,1.3495-.4784,2.04,2.04,0,0,1,1.0389.2463,1.5627,1.5627,0,0,1,.6356.6784,2.2122,2.2122,0,0,1,.21.9818v.1783a.183.183,0,0,1-.18.1859H36.94V23.22a.8944.8944,0,0,0,.15.5176.4731.4731,0,0,0,.4072.1964.4938.4938,0,0,0,.2747-.0678.9533.9533,0,0,0,.1964-.1749.381.381,0,0,1,.1041-.0893.3251.3251,0,0,1,.1249-.0174h.9351a.1661.1661,0,0,1,.1106.0393.1215.1215,0,0,1,.0465.0963.7272.7272,0,0,1-.2107.4357,1.668,1.668,0,0,1-.6141.4284,2.3432,2.3432,0,0,1-.9531.1784A1.9263,1.9263,0,0,1,36.14,24.294Zm1.9352-1.8459V22.434a.8376.8376,0,0,0-.15-.5322.5074.5074,0,0,0-.4212-.189.4974.4974,0,0,0-.4176.189.853.853,0,0,0-.1465.5322v.0141Z" fill="#fff"/><path d="M40.0852,24.6371a.1719.1719,0,0,1-.0534-.1251V21.1561a.1681.1681,0,0,1,.0534-.1285.1776.1776,0,0,1,.1251-.05h.8283a.1714.1714,0,0,1,.1784.1641.14.14,0,0,1,0,.0145v.2429a1.4291,1.4291,0,0,1,.4425-.35,1.2974,1.2974,0,0,1,.6142-.1429,1.0856,1.0856,0,0,1,1.0783.614,1.3006,1.3006,0,0,1,.4784-.4425,1.3266,1.3266,0,0,1,.6568-.1714,1.2409,1.2409,0,0,1,.9532.3964,1.6817,1.6817,0,0,1,.3676,1.1817v2.0278a.1781.1781,0,0,1-.05.1251.1677.1677,0,0,1-.1284.0534h-.878a.186.186,0,0,1-.1321-.05.1673.1673,0,0,1-.0536-.1286V22.5346a.7035.7035,0,0,0-.1388-.4819.4813.4813,0,0,0-.3751-.1536.464.464,0,0,0-.3606.1536.7035.7035,0,0,0-.1388.4819v1.9778a.1782.1782,0,0,1-.05.1251.1684.1684,0,0,1-.1287.0535h-.8786a.1861.1861,0,0,1-.1321-.05.168.168,0,0,1-.0535-.1286V22.5346a.69.69,0,0,0-.1429-.4819.4837.4837,0,0,0-.3713-.1536.4752.4752,0,0,0-.3644.1536.6778.6778,0,0,0-.1427.4748v1.9849a.1782.1782,0,0,1-.05.1251.1684.1684,0,0,1-.1286.0535H40.21A.172.172,0,0,1,40.0852,24.6371Z" fill="#fff"/><path d="M46.99,24.3442a1.6141,1.6141,0,0,1-.5249-1.1884q-.007-.0927-.0072-.321t.0072-.3216a1.5985,1.5985,0,0,1,.5392-1.1815,2.4118,2.4118,0,0,1,2.7346,0,1.5992,1.5992,0,0,1,.5392,1.1815q.0141.186.0141.3216c0,.09-.0047.1975-.0141.321a1.6151,1.6151,0,0,1-.5249,1.1884A2.4943,2.4943,0,0,1,46.99,24.3442Zm1.8172-.6639a.9994.9994,0,0,0,.1643-.5606c.0046-.0476.0069-.143.0069-.2855s-.0023-.238-.0069-.2857a1.0047,1.0047,0,0,0-.1643-.5569.6037.6037,0,0,0-.8536-.0176l-.0176.0176a1.003,1.003,0,0,0-.1642.5569l-.0071.2857.0071.2855a.9975.9975,0,0,0,.1642.5606.6122.6122,0,0,0,.8656.0056Z" fill="#fff"/><path d="M51.3811,24.33a1.604,1.604,0,0,1-.5391-1.203l-.0071-.2858.0071-.2926a1.5888,1.5888,0,0,1,.5354-1.2067,1.9556,1.9556,0,0,1,1.321-.4356,2.2239,2.2239,0,0,1,1.0422.2215,1.69,1.69,0,0,1,.6283.5247,1.1279,1.1279,0,0,1,.2217.5537.1539.1539,0,0,1-.05.132.1915.1915,0,0,1-.1355.0535h-.9565a.1861.1861,0,0,1-.1215-.0356.3211.3211,0,0,1-.078-.1144.6511.6511,0,0,0-.2036-.2928.5187.5187,0,0,0-.3177-.0928q-.55,0-.5713.7287l-.0071.2714.0071.2356a.8843.8843,0,0,0,.15.5465.5118.5118,0,0,0,.4213.1751.5271.5271,0,0,0,.3249-.0893.6531.6531,0,0,0,.1964-.2963.3207.3207,0,0,1,.078-.1143.1843.1843,0,0,1,.1215-.0356h.9568a.19.19,0,0,1,.1285.05.1554.1554,0,0,1,.0573.1215,1.05,1.05,0,0,1-.1964.5318,1.6642,1.6642,0,0,1-.6246.5465,2.2,2.2,0,0,1-1.0711.2355A1.9509,1.9509,0,0,1,51.3811,24.33Z" fill="#fff"/><path d="M55.2582,24.6371a.1718.1718,0,0,1-.0537-.1251V21.1635a.1858.1858,0,0,1,.05-.1321.168.168,0,0,1,.1284-.0536h.8712a.1829.1829,0,0,1,.1856.18v.2771a1.3621,1.3621,0,0,1,.4678-.3391,1.4637,1.4637,0,0,1,.5961-.118h.321a.1714.1714,0,0,1,.1785.164c0,.0049,0,.01,0,.0146v.7781a.1785.1785,0,0,1-.05.1251.1687.1687,0,0,1-.1285.0535h-.7213a.5861.5861,0,0,0-.439.1571.6058.6058,0,0,0-.1536.4424V24.512a.1681.1681,0,0,1-.0532.129.1867.1867,0,0,1-.1321.05h-.9425A.1716.1716,0,0,1,55.2582,24.6371Z" fill="#fff"/><path d="M58.8642,24.6156a1.1779,1.1779,0,0,1-.4858-.4035.9811.9811,0,0,1-.1751-.5639.9434.9434,0,0,1,.4035-.7894,2.4938,2.4938,0,0,1,1.11-.4176l.8848-.1355V22.22a.5749.5749,0,0,0-.1069-.3857.467.467,0,0,0-.3643-.1215.5166.5166,0,0,0-.2394.05,1.2891,1.2891,0,0,0-.2177.15.8671.8671,0,0,1-.1643.1143.0826.0826,0,0,1-.0712.05H58.61a.1594.1594,0,0,1-.1179-.0465.129.129,0,0,1-.0393-.1106.7818.7818,0,0,1,.1929-.4321,1.4555,1.4555,0,0,1,.5638-.41,2.2649,2.2649,0,0,1,.9354-.1714,1.9051,1.9051,0,0,1,1.3138.3892,1.3534,1.3534,0,0,1,.4285,1.0531v2.1636a.1773.1773,0,0,1-.05.125.168.168,0,0,1-.1285.0535h-.8772a.1829.1829,0,0,1-.1785-.1785v-.25a1.1536,1.1536,0,0,1-.4355.3607,1.4706,1.4706,0,0,1-.664.1388A1.5979,1.5979,0,0,1,58.8642,24.6156Zm1.5565-.9028a.84.84,0,0,0,.1964-.6V23.027l-.5927.1q-.6.1141-.6.4282a.31.31,0,0,0,.1388.2643.5779.5779,0,0,0,.3463.1A.6721.6721,0,0,0,60.4207,23.7128Z" fill="#fff"/><path d="M63.077,24.33a1.604,1.604,0,0,1-.5393-1.203l-.0069-.2858.0069-.2926a1.5883,1.5883,0,0,1,.5356-1.2067,1.9554,1.9554,0,0,1,1.321-.4356,2.2248,2.2248,0,0,1,1.0424.2213,1.693,1.693,0,0,1,.6284.5248,1.1277,1.1277,0,0,1,.2214.5536.1543.1543,0,0,1-.05.132.1917.1917,0,0,1-.1356.0535H65.144a.1851.1851,0,0,1-.1214-.0356.3206.3206,0,0,1-.0781-.1143.6518.6518,0,0,0-.2038-.2929.5184.5184,0,0,0-.3176-.0927q-.55,0-.5712.7287l-.0072.2713.0072.2356a.8851.8851,0,0,0,.15.5465.5107.5107,0,0,0,.4211.1752.5275.5275,0,0,0,.325-.0894.6531.6531,0,0,0,.1964-.2963.3176.3176,0,0,1,.0781-.1143.184.184,0,0,1,.1214-.0356h.9569a.1912.1912,0,0,1,.1284.05.1555.1555,0,0,1,.0572.1215,1.0493,1.0493,0,0,1-.1964.5318,1.6633,1.6633,0,0,1-.6246.5465,2.2,2.2,0,0,1-1.071.2356A1.95,1.95,0,0,1,63.077,24.33Z" fill="#fff"/><path d="M67.3574,26.0044a.1457.1457,0,0,1-.0428-.1071.29.29,0,0,1,.0143-.0929l.5639-1.3424L66.5222,21.22a.2735.2735,0,0,1-.0213-.0787.2222.2222,0,0,1,.0607-.1177.1517.1517,0,0,1,.1108-.0465h.85a.2081.2081,0,0,1,.207.15l.7926,2.0278.8131-2.0276a.229.229,0,0,1,.2142-.15h.8426a.1523.1523,0,0,1,.1108.0465.144.144,0,0,1,.0463.1036.3011.3011,0,0,1-.0141.0928l-2.0208,4.6769a.2334.2334,0,0,1-.2215.15h-.8282A.1451.1451,0,0,1,67.3574,26.0044Z" fill="#fff"/></svg>