<svg xmlns="http://www.w3.org/2000/svg" width="100" height="100" viewBox="0 0 100 100"><title>_</title><g id="icons"><path d="M15.55,75.2118c2.3223,10.4194,21.2526,8.4935,40.501,6.3164S104.348,68.3269,90.8434,61.5535C65.59,48.8879,89.011,47.6868,70.3077,49.0724S16.986,57.2069,26.4661,60.75,13.4728,65.8943,15.55,75.2118Z" fill="#00b1e0"/><path d="M27.377,12.4257c12.4224,0,61.3391,3.0017,47.9611,8.3331S33.7559,26.09,39.4967,29.2s20.58,3.7226,25.3725,3.9579c5.1969.2552,4.7354,15.5907,4.7354,15.5907L41.4153,54.5247s1.07-13.8313-1.0722-15.8306S4.4246,31.3245,15.4136,27.77s61.8185-8.7063,49.5377-10.6231C52.1027,15.1416,27.2036,11.5961,27.377,12.4257Z" fill="#007ec4"/><path d="M75.5727,50.8806A1.4943,1.4943,0,0,1,74.805,52.2a1.9978,1.9978,0,0,1-.4805,2.0693,2.3515,2.3515,0,0,1-2.2445.31,2.93,2.93,0,0,1-1.8728,2.395,3.4068,3.4068,0,0,1-3.2166-.7065,6.3211,6.3211,0,0,1-3.2883,1.2444,4.7827,4.7827,0,0,1-3.6245-1.3,5.3567,5.3567,0,0,1-3.782,1.4608,6.3812,6.3812,0,0,1-3.96-.8682,4.7478,4.7478,0,0,1-3.3093,1.7817,5.4147,5.4147,0,0,1-3.5145-.6743s-1.91,1.3276-3.4453.969a2.5346,2.5346,0,0,1-1.8418-1.8633,2.7225,2.7225,0,0,1-2.6357.3811c-1.28-.6558-.42-2.3177-.42-2.3177a1.55,1.55,0,0,1-1.0747-1.1385c-.2727-.9709.8886-1.2939.8886-1.2939s-.6208-.9086.49-1.9457a1.9673,1.9673,0,0,1,2.235-.4333,4.9138,4.9138,0,0,1,2.1832-1.9679,3.9922,3.9922,0,0,1,2.902.2242,4.6944,4.6944,0,0,1,3.1026-1.5963,6.0119,6.0119,0,0,1,3.7917,1.41,4.5405,4.5405,0,0,1,3.4457-1.9667A6.709,6.709,0,0,1,59.43,47.7465,3.4459,3.4459,0,0,1,62.6075,45.8a4.3951,4.3951,0,0,1,3.6647,1.0812,3.8786,3.8786,0,0,1,2.8626-.9853,3.5074,3.5074,0,0,1,2.4287,1.9347s1.6018-.9316,2.5419-.0514a1.8886,1.8886,0,0,1,.5135,1.9879A1.3361,1.3361,0,0,1,75.5727,50.8806Z" fill="#d2eff9"/></g></svg>