<svg xmlns="http://www.w3.org/2000/svg" xmlns:xlink="http://www.w3.org/1999/xlink" width="10" height="10" viewBox="0 0 10 10"><defs><clipPath id="clip-path"><rect width="10" height="10" fill="none"/></clipPath></defs><title>Mapeo DEFAULT v2 icon-library-nature</title><g id="icons"><path d="M2.2638,7.0025c.1844.8275,1.688.6746,3.2168.5017S9.3166,6.4556,8.244,5.9176c-2.0058-1.0059-.1455-1.1013-1.6311-.9913s-4.2351.6461-3.4821.9275S2.0988,6.2624,2.2638,7.0025Z" fill="#00b1e0"/><path d="M3.2031,2.0156c.9867,0,4.8719.2384,3.8094.6619s-3.3027.4234-2.8468.67a6.5107,6.5107,0,0,0,2.0153.3143c.4128.02.3761,1.2383.3761,1.2383l-2.239.4588S4.4032,4.2608,4.233,4.102s-2.8529-.5853-1.98-.8676,4.91-.6915,3.9346-.8438A29.7261,29.7261,0,0,0,3.2031,2.0156Z" fill="#007ec4"/><path d="M7.0311,5.07a.1186.1186,0,0,1-.061.1048.1588.1588,0,0,1-.0381.1644.1868.1868,0,0,1-.1783.0246.2326.2326,0,0,1-.1487.19A.27.27,0,0,1,6.35,5.4978a.5021.5021,0,0,1-.2612.0988A.38.38,0,0,1,5.8,5.4934a.4254.4254,0,0,1-.3.116.5066.5066,0,0,1-.3145-.069.3768.3768,0,0,1-.2629.1415.43.43,0,0,1-.2791-.0535.4218.4218,0,0,1-.2737.0769.2011.2011,0,0,1-.1462-.148.2163.2163,0,0,1-.2094.03c-.1017-.0521-.0333-.1841-.0333-.1841a.1232.1232,0,0,1-.0854-.09c-.0216-.0771.0706-.1028.0706-.1028s-.0493-.0721.0389-.1545a.1562.1562,0,0,1,.1775-.0344.3906.3906,0,0,1,.1734-.1563.317.317,0,0,1,.2305.0178.373.373,0,0,1,.2465-.1268.4775.4775,0,0,1,.3011.112.3607.3607,0,0,1,.2737-.1562.5327.5327,0,0,1,.3413.1091.2735.2735,0,0,1,.2523-.1546.349.349,0,0,1,.2911.0859A.3081.3081,0,0,1,6.52,4.674a.2786.2786,0,0,1,.1929.1537s.1272-.074.2019-.0041a.15.15,0,0,1,.0408.1579A.1061.1061,0,0,1,7.0311,5.07Z" fill="#d2eff9"/></g><g id="icon-border"><g clip-path="url(#clip-path)"><g clip-path="url(#clip-path)"><path d="M5,1.0288A3.971,3.971,0,1,1,1.029,5,3.9765,3.9765,0,0,1,5,1.0288m0-1A4.971,4.971,0,1,0,9.972,5,4.9709,4.9709,0,0,0,5,.0288" fill="#2d9905"/></g></g></g></svg>