<svg xmlns="http://www.w3.org/2000/svg" width="100" height="100" viewBox="0 0 100 100"><title>_</title><g id="icons"><path d="M17.1089,76.1423c-.7166,10.651,17.9864,14.1529,37.0655,17.5037S95.3538,70.4975,77.0213,66.5416,17.7492,66.6176,17.1089,76.1423Z" fill="#00b1e0"/><path d="M47.54,14.3033c12.4224,0,43.8464,3.4126,29.77,6.4555-5.1936,1.1228-20.7216-.3461-10.02,2.3818,5.042,1.2852,4.2956,43.2792,4.2956,43.2792L26.7914,70.3544c-1-4.9263-2.7456-27.9-3.6859-40.28-.3381-4.4524,2.5211-6.9565,5.1548-8.1927,10.4551-4.9075,50.9439-2.8177,38.6631-4.7345C54.0748,15.1416,47.3665,13.4737,47.54,14.3033Z" fill="#007ec4"/><path d="M81.2309,64.3861a2.2182,2.2182,0,0,1-1.203,1.9411,2.8176,2.8176,0,0,1-.7616,3.04,3.8526,3.8526,0,0,1-3.4933.47,4.36,4.36,0,0,1-2.9295,3.5274A5.4819,5.4819,0,0,1,67.845,72.35a10.2366,10.2366,0,0,1-5.1234,1.8485,7.6011,7.6011,0,0,1-5.6292-1.8837S55.32,74.2848,51.2,74.4838s-6.1543-1.2473-6.1543-1.2473a7.5454,7.5454,0,0,1-5.16,2.6371,8.77,8.77,0,0,1-5.4623-.9658s-2.98,1.9613-5.3658,1.4455a3.7512,3.7512,0,0,1-2.8522-2.7221s-2.1158,1.5309-4.1025.5772-.6371-3.3985-.6371-3.3985a2.333,2.333,0,0,1-1.664-1.6634c-.4176-1.4231,1.3909-1.9049,1.3909-1.9049s-.9595-1.3292.7754-2.8588a3.2114,3.2114,0,0,1,3.48-.651,7.5614,7.5614,0,0,1,3.4094-2.9028,6.5231,6.5231,0,0,1,4.5124.3095,7.4876,7.4876,0,0,1,4.837-2.3638c3.068-.243,5.8884,2.0435,5.8884,2.0435a7.1832,7.1832,0,0,1,5.3731-2.91,10.7332,10.7332,0,0,1,6.674,1.9875s.9672-2.5683,4.9561-2.8777S66.791,58.58,66.791,58.58a6.283,6.283,0,0,1,4.46-1.4654,5.3007,5.3007,0,0,1,3.7647,2.8228s2.4979-1.378,3.9544-.0927a2.6448,2.6448,0,0,1,.7851,2.914A1.9941,1.9941,0,0,1,81.2309,64.3861Z" fill="#d2eff9"/></g></svg>