<svg xmlns="http://www.w3.org/2000/svg" width="10" height="10" viewBox="0 0 10 10"><title>Mapeo DEFAULT v2 icon-library-nature</title><g id="icons"><path d="M7.0337,6.0825a2.01,2.01,0,0,1-4.0209,0c0-1.1134,2.01-4.1754,2.01-4.1754S7.0337,4.9691,7.0337,6.0825Z" fill="#64b5f6"/><path d="M3.9523,5.375a1.6417,1.6417,0,0,0,.9429,1.2708,1.1173,1.1173,0,0,0,1.0423.1108,1.022,1.022,0,0,1-1.4687.5307C3.4062,6.75,3.9523,5.375,3.9523,5.375Z" fill="#a5e4f2"/></g><g id="icon-border"><path d="M5,1.029A3.971,3.971,0,1,1,1.029,5,3.9765,3.9765,0,0,1,5,1.029m0-1A4.971,4.971,0,1,0,9.972,5,4.9709,4.9709,0,0,0,5,.029" fill="#2d9905"/></g></svg>