<svg xmlns="http://www.w3.org/2000/svg" width="100" height="100" viewBox="0 0 100 100"><title>_</title><g id="icons"><path d="M92.2141,68.9557C101.2084,54.77,99.2893,37.849,88.0923,25.68S8.0236,16.333,4.2259,47.8781,29.8449,92.53,44.2712,95.1471C64.0627,98.7374,84.3608,81.34,92.2141,68.9557Z" fill="#eadec1"/><path d="M32.8663,24.9727c27.3526,3.8653,22.3165,13.5179,4.4515,15.7294C9.6236,44.13,17.6216,59.4745,31.0692,55.924,36.81,54.4082,42.1215,52.4373,45.53,52.34c15.5745-.4445,8.28,12.655,1.0492,13.43C27.016,67.8658,24.4668,89.558,50.2439,80.0387c15.4249-5.6962,12.8755-10.1608,10.4878-16.5242-1.4191-3.7822,4.4991-7.1288,14.228-6.5984,8.0555.4393,16.1432,4.3627,18.6287,9.3782.572,1.1541-.9446,5.4227-6.6629,9.0277-2.4131,1.5214-2.4874-5.9027-7.0079-10.7064-5.2287-5.5563-15.1023-.4331-8.787,3.882C78.4868,73.524,68.0244,83.61,53.3992,89.1667c-24.4378,9.2844-39.173-3.1282-30.2169-14.5838,4.5116-5.7706,12.2624-11.0268,17.8231-11.9711,12.1472-2.0627,5.4279-9.3175-7.6459-4.9724-18.7806,6.2417-38.7538-11.4809,1.3522-19.086,25.92-4.9151,2.7219-13.7513-9.7457-13.2827-12.3862.4657-4.2493-.8-2.8329-.8S32.8663,24.9727,32.8663,24.9727Z" fill="#00b1e0"/></g></svg>